<svg width="1440" height="350" viewBox="0 0 1440 350" fill="none" xmlns="http://www.w3.org/2000/svg">
<g clip-path="url(#clip0_1_18315)">
<path opacity="0.6" d="M346.134 110.687C347.818 71.4697 289.637 68.9565 287.952 108.182C287.531 107.558 287.084 106.976 286.629 106.444C281.204 100.288 273.862 102.882 267.946 113.062C267.946 113.062 246.86 114.917 251.842 140.042C237.736 142.184 225.747 159.761 226.718 179.516C203.537 194.139 198.228 235.601 203.536 254.645C205.395 261.329 209.948 266.705 217.849 268.757C215.771 274.997 216.237 280.469 221.922 284.356C218.13 284.842 216.066 286.816 215.044 289.702C197.605 281.452 181.941 296.5 195.438 310.864C190.185 309.826 187.811 311.836 187.029 315.544C176.757 315.79 169.858 319.102 167.677 326.692C163.453 323.567 160.161 324.61 157.493 328.468C156.321 326.392 154.969 324.598 153.502 323.068C140.424 309.478 117.547 316.744 120.05 334.708C114.502 332.668 111.004 334.348 108.851 338.5C107.664 335.95 105.593 334.414 103.221 333.772C95.1423 331.564 83.6349 339.664 92.2959 352.756C88.4831 355.726 87.7154 358.702 90.0127 361.672C84.3413 362.578 80.6994 365.416 78.7998 369.91C65.201 368.95 59.7151 374.53 61.4844 385.954C53.8586 384.748 49.8124 387.67 49.2637 394.642C45.1833 393.412 42.1312 394.378 38.0508 396.202C29.8353 399.454 21.3865 401.692 13.1299 403.012C-6.01691 406.084 -24.1351 404.296 -35.999 399.124C-35.9647 399.148 -35.9032 399.178 -35.8145 399.226C-35.7459 399.262 -35.6769 399.298 -35.6016 399.34C-35.5535 399.364 -35.5119 399.388 -35.457 399.412C-25.0744 404.962 -11.0911 408.645 12.0811 407.565C15.9146 410.211 23.7938 410.458 26.5986 406.894C29.6641 408.43 32.387 407.974 34.7461 405.556C34.7598 405.718 34.7938 405.868 34.8486 406.018C37.242 412.822 77.9632 409.683 77.2637 402.441C108.213 407.787 196.205 402.226 187.022 395.536C178.224 389.122 149.339 388.852 149.339 388.852C124.632 386.734 251.965 378.49 230.316 387.958C209.674 396.991 233.512 395.984 233.621 395.979C257.308 394.642 282.517 395.308 300.087 396.202L300.141 382.337C382.238 397.161 597.477 401.428 594.813 383.158C597.711 386.557 601.056 387.198 604.821 385.039C608.266 390.049 617.944 389.703 622.653 385.984C651.117 387.502 668.293 382.324 681.046 374.522C680.991 374.555 680.931 374.586 680.87 374.62C680.929 374.585 680.988 374.55 681.046 374.515C681.113 374.481 681.164 374.447 681.223 374.413C681.315 374.354 681.399 374.303 681.483 374.253C681.593 374.185 681.669 374.143 681.711 374.109C667.138 381.379 644.883 383.893 621.364 379.575C611.222 377.72 600.845 374.573 590.754 370.002C585.742 367.438 581.993 366.081 576.981 367.81C576.308 358.009 571.337 353.902 561.97 355.598C564.143 339.54 557.405 331.696 540.701 333.045C538.368 326.728 533.894 322.739 526.928 321.466C529.75 317.291 528.807 313.107 524.123 308.933C534.762 290.53 520.627 279.144 510.704 282.248C507.79 283.15 505.246 285.31 503.789 288.894C501.144 283.058 496.848 280.696 490.033 283.563C493.107 258.313 465.007 248.1 448.943 267.202C447.141 269.353 445.48 271.875 444.04 274.793C440.763 269.37 436.72 267.902 431.531 272.296C428.852 261.627 420.378 256.972 407.76 256.626C406.799 251.414 403.885 248.589 397.433 250.048C414.01 229.857 394.771 208.705 373.35 220.302C372.095 216.245 369.559 213.47 364.901 212.787C371.884 207.322 372.457 199.63 369.904 190.859C379.608 187.975 385.202 180.418 387.484 171.022C394.004 144.254 373.796 102.464 346.134 110.687ZM409.502 189.882C409.502 189.882 413.915 193.179 416.561 194.815C419.206 196.46 423.662 196.832 428.674 197.793C433.686 198.754 445.9 201.715 445.9 201.715C445.9 201.715 435.287 197.329 432.179 195.938C429.071 194.546 421.127 193.669 418.111 193.02C415.087 192.37 409.502 189.882 409.502 189.882ZM553.066 132.083C551.238 132.326 548.874 132.701 548.689 132.73C548.979 141.415 535.431 140.016 531.503 139.48C542.607 141.102 553.76 143.055 564.773 144.052C564.552 144.072 564.331 144.092 564.11 144.109L576.678 145.661L586.382 146.277C580.039 145.198 574.091 144.151 573.948 141.528C572.089 142.942 568.499 143.697 564.905 144.039C552.49 140.498 551.874 135.37 553.066 132.083ZM577.537 139.766C568.987 140.955 590.585 145.813 594.553 145.45C592.354 143.831 589.7 142.313 587.063 141.36V141.368C583.955 140.247 580.569 139.648 577.537 139.766ZM530.458 139.336C530.519 139.337 530.897 139.398 531.503 139.48C531.157 139.43 530.811 139.378 530.466 139.328L530.458 139.336ZM548.678 132.732C548.678 132.732 548.682 132.732 548.689 132.73C548.688 132.689 548.689 132.648 548.687 132.606C548.686 132.648 548.678 132.69 548.678 132.732ZM482.258 119.879C482.426 119.474 482.57 119.085 482.671 118.723L482.258 119.879Z" fill="url(#paint0_linear_1_18315)"/>
<path opacity="0.6" d="M1093.87 110.687C1092.18 71.4697 1150.36 68.9565 1152.05 108.182C1152.47 107.558 1152.92 106.976 1153.37 106.444C1158.8 100.288 1166.14 102.882 1172.05 113.062C1172.05 113.062 1193.14 114.917 1188.16 140.042C1202.26 142.184 1214.25 159.761 1213.28 179.516C1236.46 194.139 1241.77 235.601 1236.46 254.645C1234.61 261.329 1230.05 266.705 1222.15 268.757C1224.23 274.997 1223.76 280.469 1218.08 284.356C1221.87 284.842 1223.93 286.816 1224.96 289.702C1242.4 281.452 1258.06 296.5 1244.56 310.864C1249.82 309.826 1252.19 311.836 1252.97 315.544C1263.24 315.79 1270.14 319.102 1272.32 326.692C1276.55 323.567 1279.84 324.61 1282.51 328.468C1283.68 326.392 1285.03 324.598 1286.5 323.068C1299.58 309.478 1322.45 316.744 1319.95 334.708C1325.5 332.668 1329 334.348 1331.15 338.5C1332.34 335.95 1334.41 334.414 1336.78 333.772C1344.86 331.564 1356.37 339.664 1347.7 352.756C1351.52 355.726 1352.28 358.702 1349.99 361.672C1355.66 362.578 1359.3 365.416 1361.2 369.91C1374.8 368.95 1380.28 374.53 1378.52 385.954C1386.14 384.748 1390.19 387.67 1390.74 394.642C1394.82 393.412 1397.87 394.378 1401.95 396.202C1410.16 399.454 1418.61 401.692 1426.87 403.012C1446.02 406.084 1464.14 404.296 1476 399.124C1475.96 399.148 1475.9 399.178 1475.81 399.226C1475.75 399.262 1475.68 399.298 1475.6 399.34C1475.55 399.364 1475.51 399.388 1475.46 399.412C1465.07 404.962 1451.09 408.645 1427.92 407.565C1424.09 410.211 1416.21 410.458 1413.4 406.894C1410.34 408.43 1407.61 407.974 1405.25 405.556C1405.24 405.718 1405.21 405.868 1405.15 406.018C1402.76 412.822 1362.04 409.683 1362.74 402.441C1331.79 407.787 1243.79 402.226 1252.98 395.536C1261.78 389.122 1290.66 388.852 1290.66 388.852C1315.37 386.734 1188.04 378.49 1209.68 387.958C1230.33 396.991 1206.49 395.984 1206.38 395.979C1182.69 394.642 1157.48 395.308 1139.91 396.202L1139.86 382.337C1057.76 397.161 842.523 401.428 845.187 383.158C842.289 386.557 838.944 387.198 835.179 385.039C831.734 390.049 822.056 389.703 817.347 385.984C788.883 387.502 771.707 382.324 758.954 374.522C759.009 374.555 759.069 374.586 759.13 374.62C759.071 374.585 759.012 374.55 758.954 374.515C758.887 374.481 758.836 374.447 758.777 374.413C758.685 374.354 758.601 374.303 758.517 374.253C758.407 374.185 758.331 374.143 758.289 374.109C772.862 381.379 795.117 383.893 818.636 379.575C828.778 377.72 839.155 374.573 849.246 370.002C854.258 367.438 858.007 366.081 863.019 367.81C863.692 358.009 868.663 353.902 878.03 355.598C875.857 339.54 882.595 331.696 899.299 333.045C901.632 326.728 906.106 322.739 913.072 321.466C910.25 317.291 911.193 313.107 915.877 308.933C905.238 290.53 919.373 279.144 929.296 282.248C932.21 283.15 934.754 285.31 936.211 288.894C938.856 283.058 943.152 280.696 949.967 283.563C946.893 258.313 974.993 248.1 991.057 267.202C992.859 269.353 994.52 271.875 995.96 274.793C999.237 269.37 1003.28 267.902 1008.47 272.296C1011.15 261.627 1019.62 256.972 1032.24 256.626C1033.2 251.414 1036.12 248.589 1042.57 250.048C1025.99 229.857 1045.23 208.705 1066.65 220.302C1067.91 216.245 1070.44 213.47 1075.1 212.787C1068.12 207.322 1067.54 199.63 1070.1 190.859C1060.39 187.975 1054.8 180.418 1052.52 171.022C1046 144.254 1066.2 102.464 1093.87 110.687ZM1030.5 189.882C1030.5 189.882 1026.08 193.179 1023.44 194.815C1020.79 196.46 1016.34 196.832 1011.33 197.793C1006.31 198.754 994.1 201.715 994.1 201.715C994.1 201.715 1004.71 197.329 1007.82 195.938C1010.93 194.546 1018.87 193.669 1021.89 193.02C1024.91 192.37 1030.5 189.882 1030.5 189.882ZM886.934 132.083C888.762 132.326 891.126 132.701 891.311 132.73C891.021 141.415 904.569 140.016 908.497 139.48C897.393 141.102 886.24 143.055 875.227 144.052C875.448 144.072 875.669 144.092 875.89 144.109L863.322 145.661L853.618 146.277C859.961 145.198 865.909 144.151 866.052 141.528C867.911 142.942 871.501 143.697 875.095 144.039C887.51 140.498 888.126 135.37 886.934 132.083ZM862.463 139.766C871.013 140.955 849.415 145.813 845.447 145.45C847.646 143.831 850.3 142.313 852.937 141.36V141.368C856.045 140.247 859.431 139.648 862.463 139.766ZM909.542 139.336C909.481 139.337 909.103 139.398 908.497 139.48C908.843 139.43 909.189 139.378 909.534 139.328L909.542 139.336ZM891.322 132.732C891.322 132.732 891.318 132.732 891.311 132.73C891.312 132.689 891.311 132.648 891.313 132.606C891.314 132.648 891.322 132.69 891.322 132.732ZM957.742 119.879C957.574 119.474 957.43 119.085 957.329 118.723L957.742 119.879Z" fill="url(#paint1_linear_1_18315)"/>
<g opacity="0.75">
<mask id="mask0_1_18315" style="mask-type:alpha" maskUnits="userSpaceOnUse" x="348" y="-30" width="744" height="743">
<rect width="742.565" height="742.565" transform="translate(348.893 -30)" fill="url(#paint2_radial_1_18315)"/>
</mask>
<g mask="url(#mask0_1_18315)">
<g clip-path="url(#clip1_1_18315)">
<g clip-path="url(#clip2_1_18315)">
<line x1="349.152" y1="-30" x2="349.152" y2="712.565" stroke="#D0D5DD" stroke-width="0.51567"/>
<line x1="390.406" y1="-30" x2="390.406" y2="712.565" stroke="#D0D5DD" stroke-width="0.51567"/>
<line x1="431.658" y1="-30" x2="431.658" y2="712.565" stroke="#D0D5DD" stroke-width="0.51567"/>
<line x1="472.912" y1="-30" x2="472.912" y2="712.565" stroke="#D0D5DD" stroke-width="0.51567"/>
<line x1="514.166" y1="-30" x2="514.166" y2="712.565" stroke="#D0D5DD" stroke-width="0.51567"/>
<line x1="555.42" y1="-30" x2="555.42" y2="712.565" stroke="#D0D5DD" stroke-width="0.51567"/>
<line x1="596.674" y1="-30" x2="596.674" y2="712.565" stroke="#D0D5DD" stroke-width="0.51567"/>
<line x1="637.928" y1="-30" x2="637.928" y2="712.565" stroke="#D0D5DD" stroke-width="0.51567"/>
<line x1="679.18" y1="-30" x2="679.18" y2="712.565" stroke="#D0D5DD" stroke-width="0.51567"/>
<line x1="720.434" y1="-30" x2="720.434" y2="712.565" stroke="#D0D5DD" stroke-width="0.51567"/>
<line x1="761.688" y1="-30" x2="761.688" y2="712.565" stroke="#D0D5DD" stroke-width="0.51567"/>
<line x1="802.941" y1="-30" x2="802.941" y2="712.565" stroke="#D0D5DD" stroke-width="0.51567"/>
<line x1="844.195" y1="-30" x2="844.195" y2="712.565" stroke="#D0D5DD" stroke-width="0.51567"/>
<line x1="885.449" y1="-30" x2="885.449" y2="712.565" stroke="#D0D5DD" stroke-width="0.51567"/>
<line x1="926.703" y1="-30" x2="926.703" y2="712.565" stroke="#D0D5DD" stroke-width="0.51567"/>
<line x1="967.957" y1="-30" x2="967.957" y2="712.565" stroke="#D0D5DD" stroke-width="0.51567"/>
<line x1="1009.21" y1="-30" x2="1009.21" y2="712.565" stroke="#D0D5DD" stroke-width="0.51567"/>
<line x1="1050.46" y1="-30" x2="1050.46" y2="712.565" stroke="#D0D5DD" stroke-width="0.51567"/>
</g>
<g clip-path="url(#clip3_1_18315)">
<line x1="225.133" y1="10.9961" x2="1215.22" y2="10.9961" stroke="#D0D5DD" stroke-width="0.51567"/>
<line x1="225.133" y1="52.25" x2="1215.22" y2="52.25" stroke="#D0D5DD" stroke-width="0.51567"/>
<line x1="225.133" y1="93.5039" x2="1215.22" y2="93.5039" stroke="#D0D5DD" stroke-width="0.51567"/>
<line x1="225.133" y1="134.758" x2="1215.22" y2="134.758" stroke="#D0D5DD" stroke-width="0.51567"/>
<line x1="225.133" y1="176.012" x2="1215.22" y2="176.012" stroke="#D0D5DD" stroke-width="0.51567"/>
<line x1="225.133" y1="217.266" x2="1215.22" y2="217.266" stroke="#D0D5DD" stroke-width="0.51567"/>
<line x1="225.133" y1="258.52" x2="1215.22" y2="258.52" stroke="#D0D5DD" stroke-width="0.51567"/>
<line x1="225.133" y1="299.77" x2="1215.22" y2="299.77" stroke="#D0D5DD" stroke-width="0.51567"/>
<line x1="225.133" y1="341.023" x2="1215.22" y2="341.023" stroke="#D0D5DD" stroke-width="0.51567"/>
</g>
</g>
</g>
</g>
<path d="M471.759 351.66C468.059 343.123 448.86 288.801 435.684 266.281C432.008 267.07 426.532 269.878 422.313 271.678C407.929 277.813 392.153 283.332 377.064 289.465C384.869 303.692 390.773 318.902 396.653 334.061C400.798 344.747 404.943 355.433 409.088 366.119C410.236 369.076 411.048 371.244 412.596 373.807C418.759 371.823 427.739 369.033 433.153 365.436C434.991 364.215 436.781 362.904 438.741 361.9C441.032 360.728 443.513 359.998 445.977 359.275C454.648 356.731 463.086 354.204 471.759 351.66Z" fill="url(#paint3_linear_1_18315)"/>
<path d="M469.88 350.8C466.115 342.264 446.578 287.941 433.17 265.422C429.43 266.21 423.857 269.019 419.564 270.818C404.927 276.953 388.873 282.472 373.52 288.606C381.462 302.833 387.469 318.043 393.453 333.201C397.671 343.887 401.889 354.574 406.107 365.26C407.274 368.217 408.102 370.385 409.677 372.948C415.948 370.964 425.086 368.173 430.595 364.576C432.465 363.356 434.286 362.045 436.281 361.041C438.613 359.869 441.137 359.138 443.644 358.415C452.469 355.873 461.055 353.346 469.88 350.8Z" fill="white"/>
<path d="M469.88 345.675C466.115 337.139 446.578 282.816 433.17 260.297C429.43 261.085 423.857 263.894 419.564 265.693C404.927 271.828 388.873 277.347 373.52 283.481C381.462 297.708 387.469 312.918 393.453 328.076C397.671 338.762 401.889 349.449 406.107 360.135C407.274 363.092 408.102 365.26 409.677 367.823C415.948 365.839 425.086 363.048 430.595 359.451C432.465 358.231 434.286 356.92 436.281 355.916C438.613 354.744 441.137 354.013 443.644 353.29C452.469 350.748 461.055 348.221 469.88 345.675Z" fill="url(#paint4_linear_1_18315)"/>
<path d="M436.548 293.856C433.925 288.347 431.695 282.823 430.106 276.93C419.948 280.271 392.84 290.387 392.84 290.387C395.022 296.117 397.204 301.847 399.386 307.577C402.801 306.946 415.597 302.552 418.737 301.124C424.567 298.47 430.717 296.509 436.548 293.856Z" stroke="#8FBDA0" stroke-width="2" stroke-miterlimit="10" stroke-linecap="round" stroke-linejoin="round"/>
<path d="M380.208 286.766C378.245 286.84 376.325 287.737 375.009 289.196C374.188 290.106 373.582 291.312 373.746 292.527C373.909 293.742 375.062 294.851 376.268 294.64" stroke="#8FBDA0" stroke-width="2" stroke-miterlimit="10" stroke-linecap="round" stroke-linejoin="round"/>
<path d="M383.187 294.762C381.796 294.961 380.397 295.386 379.307 296.275C378.218 297.163 377.489 298.581 377.698 299.972C377.906 301.363 379.219 302.584 380.616 302.432" stroke="#8FBDA0" stroke-width="2" stroke-miterlimit="10" stroke-linecap="round" stroke-linejoin="round"/>
<path d="M387.69 303.035C386.423 303.444 385.133 303.864 384.049 304.637C382.965 305.411 382.098 306.609 382.06 307.942C382.021 309.274 383.02 310.656 384.348 310.738" stroke="#8FBDA0" stroke-width="2" stroke-miterlimit="10" stroke-linecap="round" stroke-linejoin="round"/>
<path d="M387.656 319.386C386.716 318.703 386.472 317.314 386.909 316.237C387.347 315.16 388.337 314.383 389.413 313.945C390.488 313.507 391.658 313.363 392.811 313.223" stroke="#8FBDA0" stroke-width="2" stroke-miterlimit="10" stroke-linecap="round" stroke-linejoin="round"/>
<path d="M391.45 328.807C391.044 328.893 390.665 328.554 390.465 328.189C389.706 326.799 390.549 324.98 391.857 324.089C393.165 323.198 394.799 322.979 396.356 322.699" stroke="#8FBDA0" stroke-width="2" stroke-miterlimit="10" stroke-linecap="round" stroke-linejoin="round"/>
<path d="M395.567 337.472C394.277 337.636 393.273 336.067 393.596 334.805C393.919 333.542 395.116 332.687 396.344 332.254C397.571 331.821 398.89 331.701 400.124 331.289" stroke="#8FBDA0" stroke-width="2" stroke-miterlimit="10" stroke-linecap="round" stroke-linejoin="round"/>
<path d="M399.507 347.079C398.424 347.443 397.3 346.272 397.329 345.129C397.357 343.985 398.167 343.01 399.056 342.292C400.265 341.317 401.706 340.629 403.224 340.301" stroke="#8FBDA0" stroke-width="2" stroke-miterlimit="10" stroke-linecap="round" stroke-linejoin="round"/>
<path d="M402.885 355.531C401.827 355.266 401.369 353.872 401.786 352.862C402.203 351.852 403.223 351.217 404.259 350.872C405.294 350.526 406.394 350.405 407.427 350.055" stroke="#8FBDA0" stroke-width="2" stroke-miterlimit="10" stroke-linecap="round" stroke-linejoin="round"/>
<path d="M400.025 294.182C409.367 290.532 418.736 286.953 428.13 283.445" stroke="#8FBDA0" stroke-width="2" stroke-miterlimit="10" stroke-linecap="round" stroke-linejoin="round"/>
<path d="M403.246 298.041C409.12 295.793 414.994 293.545 420.867 291.297" stroke="#8FBDA0" stroke-width="2" stroke-miterlimit="10" stroke-linecap="round" stroke-linejoin="round"/>
<path d="M377.866 318.722C385.929 317.332 394.029 319.062 400.673 323.592C406.346 327.46 410.358 332.923 411.972 338.977C413.827 345.932 412.457 353.66 408.321 359.918C418.746 366.296 426.723 371.242 435.408 378.572C437.624 380.442 439.74 383.476 438.438 386.068C437.372 388.187 431.309 388.727 419.527 378.788C414.505 374.551 409.2 370.662 403.983 366.665L405.245 363.769C401.219 367.986 395.834 371.045 389.754 372.514C389.022 372.691 388.28 372.844 387.554 372.97C384.946 373.419 382.377 373.533 379.922 373.307C370.029 372.396 360.807 365.432 356.973 355.978C353.606 347.675 353.862 339.302 357.692 332.402C361.616 325.336 369.157 320.223 377.866 318.722ZM397.1 328.847C380.096 317.251 353.625 330.813 362.856 353.585C365.823 360.903 372.905 366.276 380.504 366.976C383.105 367.214 385.731 366.945 388.265 366.333C393.787 364.999 398.99 361.931 402.424 357.274C405.856 352.618 407.357 346.317 405.838 340.617C404.541 335.751 401.177 331.628 397.1 328.847Z" fill="url(#paint5_linear_1_18315)"/>
<path d="M444.305 -15.3492C454.305 -6.59244 463.61 3.05291 472.711 12.7179C472.711 12.7179 476.139 22.1917 474.56 23.4681C472.981 24.7444 463.666 21.0073 463.666 21.0073C455.609 14.2267 442.164 1.08584 435.186 -5.6982C432.978 -7.84551 433.052 -11.4261 435.367 -13.4602C435.949 -13.9718 436.514 -14.5037 437.048 -15.0538C439.003 -17.0645 442.198 -17.1949 444.305 -15.3492Z" fill="url(#paint6_linear_1_18315)"/>
<path d="M454.141 6.35724C456.415 8.45241 458.882 10.5404 461.887 11.2638C462.581 10.6744 462.313 9.55766 461.941 8.72652C460.375 5.23645 457.985 2.19026 455.223 -0.429158C453.633 -1.9364 449.21 -6.6678 446.798 -5.85591C441.693 -4.13583 452.819 5.13965 454.141 6.35724Z" fill="url(#paint7_linear_1_18315)"/>
<path d="M463.884 20.9576C466.459 17.6817 469.236 14.5653 472.193 11.6302" stroke="url(#paint8_linear_1_18315)" stroke-width="2" stroke-miterlimit="10" stroke-linecap="round" stroke-linejoin="round"/>
<path d="M462.357 18.4007C464.842 15.6811 467.219 12.8618 469.479 9.95088" stroke="url(#paint9_linear_1_18315)" stroke-width="2" stroke-miterlimit="10" stroke-linecap="round" stroke-linejoin="round"/>
<path d="M314.708 189.273C311.511 188.893 309.538 183.859 311.422 181.312C317.863 172.603 335.932 157.15 335.932 157.15C335.932 157.15 339.883 141.443 341 136.98C343.33 137.727 351.774 139.496 351.774 139.496L348.501 160.086C348.501 160.086 358.258 184.771 360.826 190.562C365.951 202.114 352.524 198.247 346.639 196.669C336.091 193.844 325.607 190.569 314.708 189.273Z" fill="#D9D9D9"/>
<path d="M314.708 189.273C311.511 188.893 309.538 183.859 311.422 181.312C317.863 172.603 335.932 157.15 335.932 157.15C335.932 157.15 339.883 141.443 341 136.98C343.33 137.727 351.774 139.496 351.774 139.496L348.501 160.086C348.501 160.086 358.258 184.771 360.826 190.562C365.951 202.114 352.524 198.247 346.639 196.669C336.091 193.844 325.607 190.569 314.708 189.273Z" fill="url(#paint10_linear_1_18315)"/>
<path d="M314.708 189.273C311.511 188.893 309.538 183.859 311.422 181.312C317.863 172.603 335.932 157.15 335.932 157.15C335.932 157.15 339.883 141.443 341 136.98C343.33 137.727 351.774 139.496 351.774 139.496L348.501 160.086C348.501 160.086 358.258 184.771 360.826 190.562C365.951 202.114 352.524 198.247 346.639 196.669C336.091 193.844 325.607 190.569 314.708 189.273Z" fill="url(#paint11_linear_1_18315)"/>
<path d="M336.53 162.271C336.309 161.829 343.321 163.962 345.157 164.165C349.142 172.889 352.235 181.272 355.515 190.139C356.006 191.468 354.877 192.846 353.441 192.653C345.987 191.643 338.534 189.437 331.278 187.667C327.232 186.68 323.746 185.658 319.992 184.539C318.543 184.107 318.144 182.294 319.283 181.321C320.924 179.92 322.472 178.413 323.98 176.876C328.489 172.285 332.684 167.403 336.53 162.271ZM343.446 186.455C344.487 184.828 341.123 184.161 341.323 186.046C341.412 186.89 342.384 187.203 343.046 186.833C343.202 186.746 343.34 186.621 343.446 186.455ZM347.075 181.439C346.043 181.856 345.642 183.345 346.369 184.188C347.12 185.057 348.773 184.889 349.322 183.886C349.666 183.258 349.558 182.415 349.041 181.913C348.536 181.422 347.685 181.312 347.066 181.658L347.075 181.439ZM326.136 182.791C327.896 181.936 325.388 179.65 324.546 181.358C324.169 182.123 324.829 182.887 325.592 182.909C325.772 182.915 325.958 182.878 326.136 182.791ZM334.634 176.779C334.053 176.497 333.485 176.776 332.852 176.916C331.685 177.175 330.778 178.282 330.776 179.448C330.775 180.615 331.68 181.723 332.845 181.984C333.903 182.222 335.395 182.047 335.979 181.153C336.564 180.261 336.468 179.06 335.964 178.122C335.662 177.562 335.215 177.062 334.634 176.779ZM343.275 174.523C342.864 172.648 339.968 174.448 341.456 175.668C342.122 176.213 343.044 175.781 343.256 175.066C343.306 174.898 343.317 174.714 343.275 174.523ZM337.313 166.919C336.281 167.336 335.88 168.824 336.607 169.667C337.359 170.537 339.011 170.368 339.561 169.365C339.905 168.738 339.796 167.895 339.279 167.393C338.774 166.901 337.923 166.792 337.304 167.138L337.313 166.919Z" fill="#00BB72"/>
<path d="M336.53 162.271C336.309 161.829 343.321 163.962 345.157 164.165C349.142 172.889 352.235 181.272 355.515 190.139C356.006 191.468 354.877 192.846 353.441 192.653C345.987 191.643 338.534 189.437 331.278 187.667C327.232 186.68 323.746 185.658 319.992 184.539C318.543 184.107 318.144 182.294 319.283 181.321C320.924 179.92 322.472 178.413 323.98 176.876C328.489 172.285 332.684 167.403 336.53 162.271ZM343.446 186.455C344.487 184.828 341.123 184.161 341.323 186.046C341.412 186.89 342.384 187.203 343.046 186.833C343.202 186.746 343.34 186.621 343.446 186.455ZM347.075 181.439C346.043 181.856 345.642 183.345 346.369 184.188C347.12 185.057 348.773 184.889 349.322 183.886C349.666 183.258 349.558 182.415 349.041 181.913C348.536 181.422 347.685 181.312 347.066 181.658L347.075 181.439ZM326.136 182.791C327.896 181.936 325.388 179.65 324.546 181.358C324.169 182.123 324.829 182.887 325.592 182.909C325.772 182.915 325.958 182.878 326.136 182.791ZM334.634 176.779C334.053 176.497 333.485 176.776 332.852 176.916C331.685 177.175 330.778 178.282 330.776 179.448C330.775 180.615 331.68 181.723 332.845 181.984C333.903 182.222 335.395 182.047 335.979 181.153C336.564 180.261 336.468 179.06 335.964 178.122C335.662 177.562 335.215 177.062 334.634 176.779ZM343.275 174.523C342.864 172.648 339.968 174.448 341.456 175.668C342.122 176.213 343.044 175.781 343.256 175.066C343.306 174.898 343.317 174.714 343.275 174.523ZM337.313 166.919C336.281 167.336 335.88 168.824 336.607 169.667C337.359 170.537 339.011 170.368 339.561 169.365C339.905 168.738 339.796 167.895 339.279 167.393C338.774 166.901 337.923 166.792 337.304 167.138L337.313 166.919Z" fill="url(#paint12_linear_1_18315)"/>
<path d="M336.53 162.271C336.309 161.829 343.321 163.962 345.157 164.165C349.142 172.889 352.235 181.272 355.515 190.139C356.006 191.468 354.877 192.846 353.441 192.653C345.987 191.643 338.534 189.437 331.278 187.667C327.232 186.68 323.746 185.658 319.992 184.539C318.543 184.107 318.144 182.294 319.283 181.321C320.924 179.92 322.472 178.413 323.98 176.876C328.489 172.285 332.684 167.403 336.53 162.271ZM343.446 186.455C344.487 184.828 341.123 184.161 341.323 186.046C341.412 186.89 342.384 187.203 343.046 186.833C343.202 186.746 343.34 186.621 343.446 186.455ZM347.075 181.439C346.043 181.856 345.642 183.345 346.369 184.188C347.12 185.057 348.773 184.889 349.322 183.886C349.666 183.258 349.558 182.415 349.041 181.913C348.536 181.422 347.685 181.312 347.066 181.658L347.075 181.439ZM326.136 182.791C327.896 181.936 325.388 179.65 324.546 181.358C324.169 182.123 324.829 182.887 325.592 182.909C325.772 182.915 325.958 182.878 326.136 182.791ZM334.634 176.779C334.053 176.497 333.485 176.776 332.852 176.916C331.685 177.175 330.778 178.282 330.776 179.448C330.775 180.615 331.68 181.723 332.845 181.984C333.903 182.222 335.395 182.047 335.979 181.153C336.564 180.261 336.468 179.06 335.964 178.122C335.662 177.562 335.215 177.062 334.634 176.779ZM343.275 174.523C342.864 172.648 339.968 174.448 341.456 175.668C342.122 176.213 343.044 175.781 343.256 175.066C343.306 174.898 343.317 174.714 343.275 174.523ZM337.313 166.919C336.281 167.336 335.88 168.824 336.607 169.667C337.359 170.537 339.011 170.368 339.561 169.365C339.905 168.738 339.796 167.895 339.279 167.393C338.774 166.901 337.923 166.792 337.304 167.138L337.313 166.919Z" fill="url(#paint13_linear_1_18315)"/>
<path d="M361.549 52.7725C362.642 49.7023 366.2 47.6245 369.414 48.1367C375.746 49.1449 382.172 50.1649 388.022 52.7979C391.527 54.3761 395.125 57.0674 395.428 60.9033C395.546 62.4093 395.128 63.8997 394.714 65.3516C391.663 76.0493 388.612 86.7475 385.561 97.4453C385.228 98.6075 384.959 101.209 384.599 102.268C383.538 105.383 380.341 107.212 377.111 106.594C369.444 105.124 361.129 102.464 354.228 99.417C352.756 98.7671 351.214 98.0217 350.36 96.6572C349.645 95.5122 349.524 94.0992 349.521 92.749C349.509 87.4971 352.568 80.4994 354.086 75.4717C356.388 67.8461 358.876 60.2764 361.549 52.7725ZM379.884 96.8584C380.519 94.5021 377.689 92.4842 375.755 94.0732C375.057 94.6471 374.685 95.5797 374.749 96.4805C374.773 96.8131 374.853 97.1458 375.017 97.4365C376.023 99.2362 379.345 98.8529 379.884 96.8584ZM368.544 91.0625C366.787 89.3683 363.657 90.8799 364.116 93.3418C364.282 94.2302 364.918 95.0075 365.738 95.3848C366.041 95.5244 366.37 95.6131 366.704 95.6113C368.764 95.5961 370.03 92.4964 368.544 91.0625ZM359.32 88.6611C358.449 86.7924 355.107 86.9303 354.424 88.8799C353.617 91.184 356.292 93.4046 358.337 91.9619C359.075 91.4413 359.516 90.5383 359.517 89.6348C359.518 89.3012 359.461 88.9633 359.32 88.6611ZM382.85 88.0684C383.485 85.712 380.655 83.694 378.721 85.2832C378.023 85.8571 377.65 86.7896 377.715 87.6904C377.739 88.023 377.819 88.3557 377.982 88.6465C378.989 90.4461 382.311 90.0629 382.85 88.0684ZM371.51 82.2734C369.753 80.5792 366.623 82.0907 367.082 84.5527C367.248 85.4412 367.884 86.2184 368.704 86.5957C369.007 86.7353 369.336 86.8241 369.67 86.8223C371.729 86.8071 372.996 83.7074 371.51 82.2734ZM362.286 79.8721C361.415 78.003 358.073 78.141 357.39 80.0908C356.583 82.3951 359.258 84.6151 361.303 83.1719C362.041 82.6511 362.481 81.7484 362.482 80.8447C362.483 80.5113 362.427 80.1741 362.286 79.8721ZM385.785 78.3545C386.421 75.9971 383.589 73.9788 381.655 75.5684C380.958 76.1423 380.585 77.0748 380.649 77.9766C380.673 78.3091 380.754 78.6418 380.917 78.9326C381.923 80.7324 385.246 80.349 385.785 78.3545ZM374.444 72.5576C372.689 70.8635 369.558 72.3751 370.017 74.8369C370.183 75.7253 370.819 76.5016 371.639 76.8799C371.941 77.0196 372.271 77.1083 372.605 77.1064C374.665 77.0908 375.93 73.9914 374.444 72.5576ZM365.222 70.1572C364.35 68.2884 361.009 68.4262 360.325 70.376C359.518 72.6803 362.194 74.9014 364.239 73.458C364.977 72.9374 365.418 72.0344 365.419 71.1309C365.42 70.7973 365.362 70.4594 365.222 70.1572ZM372.102 55.0996C369.13 53.9766 364.119 54.2239 364.62 58.5615C364.934 61.2801 368.231 63.0151 370.374 64.0527C374.028 65.822 378.155 67.6637 382.246 68.3193C383.564 68.5302 384.907 68.4421 386.058 68.1152C389.239 67.2115 390.967 64.4861 386.732 61.21C385.394 60.1743 383.79 59.5495 382.211 58.9424C378.846 57.6491 375.474 56.3748 372.102 55.0996Z" fill="url(#paint14_linear_1_18315)"/>
<path d="M1113.05 67.3116C1100.88 72.6464 1088.2 76.9742 1075.59 81.1089C1075.59 81.1089 1065.56 80.1864 1065.08 78.2137C1064.6 76.241 1071.94 69.3924 1071.94 69.3924C1081.5 64.977 1099.1 58.3846 1108.2 54.9485C1111.09 53.8612 1114.29 55.4508 1115.15 58.4122C1115.36 59.1566 1115.6 59.8938 1115.87 60.6121C1116.86 63.2376 1115.62 66.1865 1113.05 67.3116Z" fill="#F5474E"/>
<path d="M1113.05 67.3116C1100.88 72.6464 1088.2 76.9742 1075.59 81.1089C1075.59 81.1089 1065.56 80.1864 1065.08 78.2137C1064.6 76.241 1071.94 69.3924 1071.94 69.3924C1081.5 64.977 1099.1 58.3846 1108.2 54.9485C1111.09 53.8612 1114.29 55.4508 1115.15 58.4122C1115.36 59.1566 1115.6 59.8938 1115.87 60.6121C1116.86 63.2376 1115.62 66.1865 1113.05 67.3116Z" fill="url(#paint15_linear_1_18315)"/>
<path d="M1088.55 65.6267C1085.69 66.7952 1082.75 68.1419 1080.82 70.5562C1081.05 71.4353 1082.18 71.6671 1083.09 71.6829C1086.91 71.7491 1090.68 70.8794 1094.22 69.4902C1096.26 68.6915 1102.42 66.6959 1102.71 64.1657C1103.33 58.8128 1090.21 64.9471 1088.55 65.6267Z" fill="url(#paint16_linear_1_18315)"/>
<path d="M1105.89 56.9336C1107.52 60.2775 1109.15 63.6213 1110.79 66.9644" stroke="url(#paint17_linear_1_18315)" stroke-width="2" stroke-miterlimit="10" stroke-linecap="round" stroke-linejoin="round"/>
<path d="M1108.16 55.4062C1110.08 59.045 1111.72 62.8383 1113.04 66.7372" stroke="url(#paint18_linear_1_18315)" stroke-width="2" stroke-miterlimit="10" stroke-linecap="round" stroke-linejoin="round"/>
<path d="M1071.9 69.6133C1073.77 73.3396 1075.41 77.1801 1076.8 81.1075" stroke="url(#paint19_linear_1_18315)" stroke-width="2" stroke-miterlimit="10" stroke-linecap="round" stroke-linejoin="round"/>
<path d="M1074.86 69.3164C1076.26 72.7249 1077.8 76.0767 1079.47 79.3614" stroke="url(#paint20_linear_1_18315)" stroke-width="2" stroke-miterlimit="10" stroke-linecap="round" stroke-linejoin="round"/>
<path d="M1115.95 169.17C1112.67 163.348 1108.72 152.88 1111.5 146.809C1112.97 143.6 1115.37 140.682 1118.62 139.311C1120.95 138.329 1123.56 138.197 1126.08 138.397C1132.34 138.896 1138.9 141.851 1141.57 147.544C1143.67 152.02 1142.97 157.461 1140.62 161.809C1138.27 166.158 1131.53 169.142 1127.45 171.925" fill="url(#paint21_linear_1_18315)"/>
<path d="M1117.56 168.657C1118.92 164.813 1119.91 160.837 1120.51 156.803C1120.59 156.315 1120.47 155.609 1119.98 155.637C1119.61 155.658 1119.45 156.117 1119.43 156.488C1119.39 157.454 1119.75 158.443 1120.43 159.121C1121.42 160.089 1123.06 160.299 1124.25 159.61C1125.45 158.921 1126.09 157.393 1125.74 156.058C1124.92 156.269 1124.71 157.396 1125.01 158.191C1125.49 159.461 1126.89 160.317 1128.24 160.164C1129.59 160.011 1130.76 158.864 1130.94 157.519C1130.77 157.418 1130.57 157.355 1130.37 157.338C1129.34 158.52 1129.09 160.165 1128.81 161.709C1128.25 164.848 1127.45 167.944 1126.4 170.956" stroke="url(#paint22_linear_1_18315)" stroke-width="2" stroke-miterlimit="10" stroke-linecap="round" stroke-linejoin="round"/>
<path d="M1115.95 169.176C1115.57 171.242 1114.86 172.332 1114.49 174.398C1114.34 175.219 1114.19 176.063 1114.35 176.881C1114.6 178.121 1115.56 179.123 1116.67 179.733C1117.78 180.343 1119.84 180.962 1121.07 181.231C1122.2 181.477 1123.51 181.682 1124.39 180.945C1125.01 180.433 1125.24 179.601 1125.43 178.823C1126.13 176.044 1126.74 174.711 1127.44 171.932" fill="#00B4F1"/>
<path d="M1115.95 169.176C1115.57 171.242 1114.86 172.332 1114.49 174.398C1114.34 175.219 1114.19 176.063 1114.35 176.881C1114.6 178.121 1115.56 179.123 1116.67 179.733C1117.78 180.343 1119.84 180.962 1121.07 181.231C1122.2 181.477 1123.51 181.682 1124.39 180.945C1125.01 180.433 1125.24 179.601 1125.43 178.823C1126.13 176.044 1126.74 174.711 1127.44 171.932" fill="url(#paint23_linear_1_18315)"/>
<path d="M1116.21 169.128C1118.18 169.708 1120.15 170.29 1122.12 170.871C1123.72 171.342 1125.33 171.816 1126.98 172.038" stroke="url(#paint24_linear_1_18315)" stroke-width="2" stroke-miterlimit="10" stroke-linecap="round" stroke-linejoin="round"/>
<path d="M1115.13 172.577C1117.1 173.158 1119.07 173.739 1121.04 174.32C1122.64 174.792 1124.25 175.265 1125.9 175.488" stroke="url(#paint25_linear_1_18315)" stroke-width="2" stroke-miterlimit="10" stroke-linecap="round" stroke-linejoin="round"/>
<path d="M1114.9 176.082C1116.88 176.663 1118.11 176.807 1120.08 177.388C1121.68 177.859 1122.89 178.514 1124.54 178.736" stroke="url(#paint26_linear_1_18315)" stroke-width="2" stroke-miterlimit="10" stroke-linecap="round" stroke-linejoin="round"/>
<path d="M1133.41 128.719C1133.03 130.51 1132.64 132.302 1132.26 134.095" stroke="url(#paint27_linear_1_18315)" stroke-width="2" stroke-miterlimit="10" stroke-linecap="round" stroke-linejoin="round"/>
<path d="M1137.67 138.215C1138.41 137.164 1139.31 136.22 1140.32 135.42" stroke="url(#paint28_linear_1_18315)" stroke-width="2" stroke-miterlimit="10" stroke-linecap="round" stroke-linejoin="round"/>
<path d="M1142.93 144.376C1144.13 143.75 1145.33 143.124 1146.53 142.498" stroke="url(#paint29_linear_1_18315)" stroke-width="2" stroke-miterlimit="10" stroke-linecap="round" stroke-linejoin="round"/>
<path d="M1123.78 131.43C1124.03 132.52 1124.28 133.61 1124.54 134.7" stroke="url(#paint30_linear_1_18315)" stroke-width="2" stroke-miterlimit="10" stroke-linecap="round" stroke-linejoin="round"/>
<path d="M1114.71 131.336C1115.37 133.221 1116.02 135.107 1116.68 136.992" stroke="url(#paint31_linear_1_18315)" stroke-width="2" stroke-miterlimit="10" stroke-linecap="round" stroke-linejoin="round"/>
<path d="M1004.15 -17.086C1002.7 -14.661 1001.15 -12.4819 999.604 -10.3223C998.054 -8.15176 996.52 -5.99778 995.095 -3.60639C1005.34 2.88697 1016.77 9.82571 1028.21 16.7659C1039.68 23.7294 1051.16 30.6955 1061.45 37.2152C1061.56 37.1089 1061.69 36.9579 1061.86 36.7519C1062.16 36.3825 1062.51 35.8908 1062.9 35.3058C1063.68 34.1371 1064.6 32.6254 1065.53 31.0401C1067.22 28.1598 1068.99 24.9783 1069.96 23.3221C1059.54 16.23 1048.41 9.50966 1037.22 2.86752C1026.04 -3.76397 1014.79 -10.3218 1004.15 -17.086Z" fill="url(#paint32_linear_1_18315)" stroke="url(#paint33_linear_1_18315)"/>
<path d="M1066.26 21.4805C1065.83 22.3183 1065.31 23.1095 1064.72 23.8374L1066.26 21.4805Z" fill="url(#paint34_linear_1_18315)"/>
<path d="M1066.26 21.4805C1065.83 22.3183 1065.31 23.1095 1064.72 23.8374" stroke="#436BC4" stroke-width="2" stroke-miterlimit="10" stroke-linecap="round" stroke-linejoin="round"/>
<path d="M1062.34 18.6484C1061.46 20.495 1060.43 22.2684 1059.26 23.9447L1062.34 18.6484Z" fill="url(#paint35_linear_1_18315)"/>
<path d="M1062.34 18.6484C1061.46 20.495 1060.43 22.2684 1059.26 23.9447" stroke="#436BC4" stroke-width="2" stroke-miterlimit="10" stroke-linecap="round" stroke-linejoin="round"/>
<path d="M1057.52 16.0391C1057.06 16.8415 1056.6 17.6428 1056.15 18.4452L1057.52 16.0391Z" fill="url(#paint36_linear_1_18315)"/>
<path d="M1057.52 16.0391C1057.06 16.8415 1056.6 17.6428 1056.15 18.4452" stroke="#436BC4" stroke-width="2" stroke-miterlimit="10" stroke-linecap="round" stroke-linejoin="round"/>
<path d="M1052.44 12.8789C1051.36 14.7576 1050.29 16.6356 1049.22 18.5139L1052.44 12.8789Z" fill="url(#paint37_linear_1_18315)"/>
<path d="M1052.44 12.8789C1051.36 14.7576 1050.29 16.6356 1049.22 18.5139" stroke="#436BC4" stroke-width="2" stroke-miterlimit="10" stroke-linecap="round" stroke-linejoin="round"/>
<path d="M1047.82 9.92188C1047.39 10.6692 1046.95 11.4171 1046.52 12.1644L1047.82 9.92188Z" fill="url(#paint38_linear_1_18315)"/>
<path d="M1047.82 9.92188C1047.39 10.6692 1046.95 11.4171 1046.52 12.1644" stroke="#436BC4" stroke-width="2" stroke-miterlimit="10" stroke-linecap="round" stroke-linejoin="round"/>
<path d="M1043.07 7.14844C1042.1 9.24965 1041.14 11.3509 1040.17 13.4521L1043.07 7.14844Z" fill="url(#paint39_linear_1_18315)"/>
<path d="M1043.07 7.14844C1042.1 9.24965 1041.14 11.3509 1040.17 13.4521" stroke="#436BC4" stroke-width="2" stroke-miterlimit="10" stroke-linecap="round" stroke-linejoin="round"/>
<path d="M1039.33 4.37109C1038.86 5.13969 1038.39 5.90721 1037.91 6.6758L1039.33 4.37109Z" fill="url(#paint40_linear_1_18315)"/>
<path d="M1039.33 4.37109C1038.86 5.13969 1038.39 5.90721 1037.91 6.6758" stroke="#436BC4" stroke-width="2" stroke-miterlimit="10" stroke-linecap="round" stroke-linejoin="round"/>
<path d="M1035.55 2.5625C1034.59 4.70014 1033.36 6.71789 1031.9 8.55539L1035.55 2.5625Z" fill="url(#paint41_linear_1_18315)"/>
<path d="M1035.55 2.5625C1034.59 4.70014 1033.36 6.71789 1031.9 8.55539" stroke="#436BC4" stroke-width="2" stroke-miterlimit="10" stroke-linecap="round" stroke-linejoin="round"/>
<path d="M1031.3 0.296875C1030.78 1.12678 1030.26 1.95775 1029.75 2.78765L1031.3 0.296875Z" fill="url(#paint42_linear_1_18315)"/>
<path d="M1031.3 0.296875C1030.78 1.12678 1030.26 1.95775 1029.75 2.78765" stroke="#436BC4" stroke-width="2" stroke-miterlimit="10" stroke-linecap="round" stroke-linejoin="round"/>
<path d="M1026.24 -3.05078C1025.14 -0.926701 1024.03 1.197 1022.93 3.32108L1026.24 -3.05078Z" fill="url(#paint43_linear_1_18315)"/>
<path d="M1026.24 -3.05078C1025.14 -0.926701 1024.03 1.197 1022.93 3.32108" stroke="#436BC4" stroke-width="2" stroke-miterlimit="10" stroke-linecap="round" stroke-linejoin="round"/>
<path d="M1018.29 -8.4375C1016.92 -5.922 1015.58 -3.38379 1014.29 -0.824646L1018.29 -8.4375Z" fill="url(#paint44_linear_1_18315)"/>
<path d="M1018.29 -8.4375C1016.92 -5.922 1015.58 -3.38379 1014.29 -0.824646" stroke="#436BC4" stroke-width="2" stroke-miterlimit="10" stroke-linecap="round" stroke-linejoin="round"/>
<path d="M1060.27 33.8278C1055.38 31.3161 1050.61 28.5507 1046 25.5456L1060.27 33.8278Z" fill="url(#paint45_linear_1_18315)"/>
<path d="M1060.27 33.8278C1055.38 31.3161 1050.61 28.5507 1046 25.5456" stroke="#436BC4" stroke-width="2" stroke-miterlimit="10" stroke-linecap="round" stroke-linejoin="round"/>
<path d="M1043.95 24.2723C1043.27 23.8427 1042.59 23.4134 1041.91 22.9837L1043.95 24.2723Z" fill="url(#paint46_linear_1_18315)"/>
<path d="M1043.95 24.2723C1043.27 23.8427 1042.59 23.4134 1041.91 22.9837" stroke="#436BC4" stroke-width="2" stroke-miterlimit="10" stroke-linecap="round" stroke-linejoin="round"/>
<g clip-path="url(#clip4_1_18315)">
<g clip-path="url(#clip5_1_18315)">
<path d="M1140.53 280.055L1162.4 236.305H1168.65L1190.53 280.055V405.055H1140.53V280.055Z" fill="white"/>
</g>
<path d="M1138.24 254.834C1138.24 253.622 1139.22 252.641 1140.42 252.641C1141.62 252.641 1142.6 253.622 1142.6 254.834V349.129H1138.24V254.834Z" fill="url(#paint47_linear_1_18315)"/>
<path d="M1120.82 349.13C1123.22 349.13 1125.17 347.167 1125.17 344.745V261.414H1038.06V344.745C1038.06 347.167 1040.01 349.13 1042.41 349.13H1120.82Z" fill="#2563EB"/>
<path d="M1120.82 349.13C1123.22 349.13 1125.17 347.167 1125.17 344.745V261.414H1038.06V344.745C1038.06 347.167 1040.01 349.13 1042.41 349.13H1120.82Z" fill="url(#paint48_linear_1_18315)"/>
<path d="M1081.62 270.184C1067.18 270.184 1055.48 281.965 1055.48 296.498V338.164C1055.48 339.375 1056.46 340.357 1057.66 340.357H1105.57C1106.78 340.357 1107.75 339.375 1107.75 338.164V296.498C1107.75 281.965 1096.05 270.184 1081.62 270.184Z" fill="white"/>
<path d="M1055.48 333.779C1055.48 332.567 1056.46 331.586 1057.66 331.586H1107.75V338.164C1107.75 339.375 1106.78 340.357 1105.57 340.357H1057.66C1056.46 340.357 1055.48 339.375 1055.48 338.164V333.779Z" fill="url(#paint49_linear_1_18315)"/>
<path d="M1068.55 320.621C1068.55 319.41 1069.52 318.428 1070.73 318.428H1107.75V327.2H1068.55V320.621Z" fill="url(#paint50_linear_1_18315)"/>
<path d="M1081.62 307.464C1081.62 306.253 1082.59 305.271 1083.79 305.271H1107.75V314.042H1081.62V307.464Z" fill="url(#paint51_linear_1_18315)"/>
<path d="M1107.39 292.113C1107.63 293.54 1107.75 295.005 1107.75 296.499V300.885H1094.68V294.306C1094.68 293.095 1095.66 292.113 1096.86 292.113H1107.39Z" fill="url(#paint52_linear_1_18315)"/>
<path d="M1160.02 261.415V344.745C1160.02 347.167 1158.07 349.131 1155.66 349.131V261.415L1142.37 234.637C1141.56 233.02 1139.27 233.02 1138.47 234.637L1125.17 261.415H1038.06L1053.67 229.965C1054.78 227.736 1057.04 226.328 1059.52 226.328H1138.56C1141.03 226.328 1143.3 227.736 1144.4 229.965L1160.02 261.415Z" fill="#1E3A8A"/>
<path d="M1160.02 261.415V344.745C1160.02 347.167 1158.07 349.131 1155.66 349.131V261.415L1142.37 234.637C1141.56 233.02 1139.27 233.02 1138.47 234.637L1125.17 261.415H1038.06L1053.67 229.965C1054.78 227.736 1057.04 226.328 1059.52 226.328H1138.56C1141.03 226.328 1143.3 227.736 1144.4 229.965L1160.02 261.415Z" fill="url(#paint53_linear_1_18315)"/>
<path d="M1142.6 283.342V257.027H1168.73L1160.02 270.185L1168.73 283.342H1142.6Z" fill="#B91C1C"/>
<path d="M1142.6 283.342V257.027H1168.73L1160.02 270.185L1168.73 283.342H1142.6Z" fill="url(#paint54_linear_1_18315)"/>
</g>
<path opacity="0.35" d="M425.776 149.536C423.687 148.93 420.785 148.693 418.643 148.324C416.99 145.866 416.078 143.247 414.293 140.883C414.078 143.939 413.149 145.958 412.933 149.014C410.925 149.68 408.53 150.756 406.424 150.957C408.618 152.46 410.716 153.686 412.638 154.731C411.729 156.679 410.866 159.757 410.357 161.788C412.583 160.33 414.778 158.57 416.674 156.702C418.523 157.995 420.719 160.087 422.093 161.877C421.627 159.084 421.66 156.377 420.923 153.643C422.672 152.577 424.101 150.717 425.776 149.536Z" stroke="url(#paint55_radial_1_18315)" stroke-width="2" stroke-miterlimit="10" stroke-linecap="round" stroke-linejoin="round"/>
<path opacity="0.35" d="M996.503 125.813C998.406 124.761 1001.18 123.889 1003.19 123.055C1004.26 120.292 1004.58 117.537 1005.8 114.836C1006.68 117.769 1008.03 119.534 1008.91 122.467C1011.02 122.673 1013.59 123.193 1015.69 122.923C1013.88 124.874 1012.11 126.534 1010.46 127.977C1011.78 129.676 1013.3 132.488 1014.24 134.356C1011.75 133.426 1009.22 132.195 1006.96 130.791C1005.44 132.461 1003.76 134.987 1002.81 137.037C1002.65 134.21 1002.02 131.576 1002.14 128.747C1000.2 128.093 998.397 126.595 996.503 125.813Z" stroke="url(#paint56_radial_1_18315)" stroke-width="2" stroke-miterlimit="10" stroke-linecap="round" stroke-linejoin="round"/>
<path opacity="0.3" d="M320.98 135.768C319.604 135.368 317.693 135.212 316.281 134.969C315.192 133.349 314.591 131.624 313.415 130.066C313.273 132.08 312.661 133.41 312.519 135.424C311.196 135.863 309.618 136.571 308.23 136.704C309.676 137.694 311.059 138.502 312.325 139.19C311.726 140.474 311.157 142.502 310.822 143.84C312.288 142.879 313.735 141.72 314.984 140.489C316.202 141.341 317.649 142.719 318.554 143.898C318.247 142.058 318.269 140.275 317.783 138.474C318.935 137.771 319.877 136.546 320.98 135.768Z" stroke="url(#paint57_radial_1_18315)" stroke-width="2" stroke-miterlimit="10" stroke-linecap="round" stroke-linejoin="round"/>
<path opacity="0.3" d="M1099.4 106.815C1100.66 106.122 1102.49 105.547 1103.81 104.998C1104.52 103.178 1104.72 101.362 1105.53 99.5831C1106.11 101.515 1107 102.678 1107.58 104.61C1108.97 104.746 1110.66 105.089 1112.04 104.911C1110.85 106.196 1109.68 107.29 1108.6 108.241C1109.47 109.36 1110.47 111.213 1111.09 112.444C1109.45 111.831 1107.78 111.02 1106.29 110.095C1105.29 111.195 1104.18 112.859 1103.56 114.21C1103.46 112.347 1103.04 110.612 1103.12 108.748C1101.84 108.317 1100.65 107.33 1099.4 106.815Z" stroke="url(#paint58_radial_1_18315)" stroke-width="2" stroke-miterlimit="10" stroke-linecap="round" stroke-linejoin="round"/>
<path opacity="0.3" d="M419.023 -1.51132C417.199 -2.04069 414.666 -2.2472 412.795 -2.56936C411.352 -4.71576 410.556 -7.00192 408.998 -9.06641C408.809 -6.3982 407.999 -4.63522 407.81 -1.96702C406.057 -1.38533 403.965 -0.446373 402.127 -0.270834C404.042 1.04124 405.875 2.11169 407.552 3.02381C406.759 4.72482 406.005 7.41229 405.561 9.18559C407.504 7.91275 409.421 6.37627 411.076 4.74479C412.69 5.87375 414.608 7.70005 415.808 9.26338C415.401 6.8251 415.43 4.46117 414.786 2.07452C416.312 1.14313 417.56 -0.480106 419.023 -1.51132Z" stroke="url(#paint59_radial_1_18315)" stroke-width="2" stroke-miterlimit="10" stroke-linecap="round" stroke-linejoin="round"/>
<path opacity="0.3" d="M1080.94 -10.6598C1082.6 -11.579 1085.03 -12.3402 1086.78 -13.0678C1087.72 -15.4801 1087.99 -17.8858 1089.05 -20.2437C1089.82 -17.6829 1091 -16.1425 1091.78 -13.5817C1093.61 -13.4017 1095.86 -12.948 1097.69 -13.183C1096.11 -11.48 1094.56 -10.0311 1093.13 -8.77083C1094.28 -7.28705 1095.6 -4.83234 1096.43 -3.20105C1094.25 -4.01304 1092.04 -5.08811 1090.07 -6.31373C1088.74 -4.85591 1087.28 -2.65095 1086.45 -0.861072C1086.31 -3.32917 1085.76 -5.62844 1085.86 -8.09845C1084.17 -8.66963 1082.59 -9.97713 1080.94 -10.6598Z" stroke="url(#paint60_radial_1_18315)" stroke-width="2" stroke-miterlimit="10" stroke-linecap="round" stroke-linejoin="round"/>
<g opacity="0.3">
<path d="M398.498 115.574C401.798 114.932 405.056 114.072 408.243 113.004" stroke="url(#paint61_radial_1_18315)" stroke-width="2" stroke-miterlimit="10" stroke-linecap="round" stroke-linejoin="round"/>
<path d="M398.799 110.887C401.672 113.359 404.658 115.698 407.745 117.895" stroke="url(#paint62_radial_1_18315)" stroke-width="2" stroke-miterlimit="10" stroke-linecap="round" stroke-linejoin="round"/>
<path d="M402.127 119.885C402.951 116.503 403.604 113.081 404.085 109.633" stroke="url(#paint63_radial_1_18315)" stroke-width="2" stroke-miterlimit="10" stroke-linecap="round" stroke-linejoin="round"/>
</g>
<g opacity="0.3">
<path d="M1027.58 95.8339C1024.22 95.9369 1020.85 95.8193 1017.51 95.4826" stroke="url(#paint64_radial_1_18315)" stroke-width="2" stroke-miterlimit="10" stroke-linecap="round" stroke-linejoin="round"/>
<path d="M1026.26 91.3281C1024 94.3737 1021.6 97.3152 1019.07 100.14" stroke="url(#paint65_radial_1_18315)" stroke-width="2" stroke-miterlimit="10" stroke-linecap="round" stroke-linejoin="round"/>
<path d="M1024.99 100.843C1023.44 97.7269 1022.05 94.5333 1020.82 91.2768" stroke="url(#paint66_radial_1_18315)" stroke-width="2" stroke-miterlimit="10" stroke-linecap="round" stroke-linejoin="round"/>
</g>
<path opacity="0.3" d="M412.992 221.187C411.747 221.828 410.072 221.457 409.213 220.352C408.355 219.245 408.409 217.528 409.336 216.48C410.402 215.273 412.093 215.114 413.233 216.251C414.371 217.387 414.422 220.451 412.992 221.187Z" stroke="url(#paint67_radial_1_18315)" stroke-width="2" stroke-miterlimit="10" stroke-linecap="round" stroke-linejoin="round"/>
<path opacity="0.3" d="M1036.72 202.048C1038.08 202.398 1039.63 201.665 1040.22 200.398C1040.82 199.129 1040.39 197.466 1039.25 196.648C1037.94 195.707 1036.26 195.925 1035.4 197.286C1034.54 198.646 1035.16 201.645 1036.72 202.048Z" stroke="url(#paint68_radial_1_18315)" stroke-width="2" stroke-miterlimit="10" stroke-linecap="round" stroke-linejoin="round"/>
<path opacity="0.3" d="M376.389 7.93725C373.689 9.32853 370.052 8.52252 368.189 6.12329C366.326 3.72235 366.443 -0.00479944 368.455 -2.28081C370.769 -4.89909 374.439 -5.24478 376.912 -2.7771C379.384 -0.311135 379.493 6.33891 376.389 7.93725Z" stroke="url(#paint69_radial_1_18315)" stroke-width="2" stroke-miterlimit="10" stroke-linecap="round" stroke-linejoin="round"/>
<path opacity="0.3" d="M1105.55 30.4471C1108.49 31.2074 1111.86 29.6177 1113.15 26.866C1114.43 24.1126 1113.5 20.5034 1111.03 18.728C1108.2 16.6856 1104.54 17.1592 1102.67 20.1125C1100.81 23.0637 1102.17 29.574 1105.55 30.4471Z" stroke="url(#paint70_radial_1_18315)" stroke-width="2" stroke-miterlimit="10" stroke-linecap="round" stroke-linejoin="round"/>
<path opacity="0.3" d="M496.466 321.324C495.222 321.965 493.546 321.594 492.688 320.488C491.829 319.382 491.884 317.665 492.811 316.616C493.877 315.41 495.568 315.251 496.707 316.388C497.846 317.524 497.896 320.588 496.466 321.324Z" stroke="url(#paint71_radial_1_18315)" stroke-width="2" stroke-miterlimit="10" stroke-linecap="round" stroke-linejoin="round"/>
<path opacity="0.3" d="M1020.42 251.423C1021.77 251.773 1023.32 251.04 1023.92 249.773C1024.51 248.504 1024.08 246.841 1022.94 246.023C1021.64 245.082 1019.95 245.3 1019.09 246.661C1018.23 248.021 1018.86 251.02 1020.42 251.423Z" stroke="url(#paint72_radial_1_18315)" stroke-width="2" stroke-miterlimit="10" stroke-linecap="round" stroke-linejoin="round"/>
<path d="M354.383 218.418C357.258 216.991 360.773 218.709 362.948 221.071C367 225.474 368.248 232.26 366.027 237.818C364.735 241.05 360.759 244.068 358.057 241.876C355.888 240.117 356.834 236.312 359.145 234.743C361.748 232.976 365.418 233.301 368.033 235.053C370.647 236.805 372.284 239.753 373.028 242.813C373.696 245.558 373.687 248.571 372.397 251.084C371.531 252.773 368.57 253.842 368.144 251.992C368.062 251.631 368.13 251.252 368.22 250.893C369.101 247.354 372.128 244.444 375.696 243.707C379.263 242.97 383.194 244.443 385.402 247.344" stroke="url(#paint73_linear_1_18315)" stroke-width="2" stroke-miterlimit="10" stroke-linecap="round" stroke-linejoin="round"/>
<path d="M1095.88 172.987C1092.77 172.231 1089.72 174.683 1088.11 177.468C1085.13 182.657 1085.41 189.551 1088.8 194.482C1090.78 197.349 1095.32 199.413 1097.47 196.679C1099.2 194.483 1097.44 190.982 1094.84 189.962C1091.91 188.813 1088.4 189.942 1086.24 192.228C1084.07 194.515 1083.13 197.752 1083.07 200.901C1083.03 203.725 1083.7 206.662 1085.51 208.828C1086.73 210.284 1089.85 210.673 1089.86 208.774C1089.86 208.403 1089.71 208.049 1089.55 207.718C1087.91 204.462 1084.31 202.293 1080.67 202.362C1077.03 202.431 1073.52 204.736 1072.01 208.053" stroke="url(#paint74_linear_1_18315)" stroke-width="2" stroke-miterlimit="10" stroke-linecap="round" stroke-linejoin="round"/>
<path d="M441.744 48.1416C440.026 50.855 436.13 51.2119 433.047 50.3221C427.302 48.6623 422.72 43.5091 421.738 37.6034C421.168 34.1696 423.004 29.5248 426.449 29.9948C429.216 30.3725 430.377 34.1166 429.215 36.658C427.905 39.5215 424.599 41.149 421.456 41.0091C418.313 40.8692 415.386 39.1992 413.164 36.9696C411.171 34.9699 409.618 32.3887 409.419 29.5704C409.285 27.6767 411.262 25.2251 412.585 26.5859C412.842 26.8517 412.98 27.2109 413.089 27.5649C414.169 31.0478 413.089 35.1074 410.421 37.5905C407.753 40.0735 403.63 40.8557 400.239 39.5226" stroke="url(#paint75_linear_1_18315)" stroke-width="2" stroke-miterlimit="10" stroke-linecap="round" stroke-linejoin="round"/>
<path d="M969.542 19.2187C969.123 22.4042 971.883 25.1793 974.819 26.4763C980.29 28.8915 987.107 27.8794 991.642 23.9781C994.279 21.7095 995.846 16.9668 992.901 15.1153C990.537 13.6288 987.247 15.7557 986.511 18.4521C985.682 21.4903 987.176 24.8619 989.678 26.7725C992.179 28.6831 995.494 29.2811 998.627 28.9968C1001.44 28.7421 1004.28 27.7588 1006.24 25.7242C1007.56 24.3574 1007.61 21.2071 1005.72 21.4018C1005.35 21.4402 1005.02 21.6275 1004.71 21.8288C1001.65 23.8078 999.878 27.6165 1000.33 31.2348C1000.79 34.853 1003.45 38.1007 1006.91 39.2549" stroke="url(#paint76_linear_1_18315)" stroke-width="2" stroke-miterlimit="10" stroke-linecap="round" stroke-linejoin="round"/>
<path d="M438.533 86.3484C440.365 90.0919 442.105 93.8797 443.753 97.7074C444.587 99.6455 443.744 101.894 441.855 102.823C440.45 103.513 438.791 104.314 437.253 105.044C435.262 105.99 432.879 105.135 431.937 103.135C430.118 99.2772 428.04 95.0715 426.47 91.546" fill="url(#paint77_linear_1_18315)"/>
<path d="M427.117 92.954C425.093 88.8014 423.18 84.5936 421.382 80.3373C420.811 78.9843 421.36 77.3557 422.693 76.744C422.701 76.7405 422.709 76.7371 422.716 76.7332L429.54 73.6499C430.943 73.0159 432.589 73.6288 433.238 75.0273C435.164 79.1761 437.485 83.8582 439.201 87.7237" fill="url(#paint78_linear_1_18315)"/>
<path d="M1100.53 142.621C1074.66 127.11 1055.81 111.054 1018.28 90.3622C1030.36 122.775 1045.53 150.611 1056.17 178.101C1072.19 167.439 1086.47 155.77 1100.53 142.621ZM1041.37 118.317C1048.15 123.926 1075 140.856 1080.51 144.386C1074.17 149.859 1067.91 154.869 1061.56 159.561C1056.75 148.575 1042.34 120.321 1041.37 118.317Z" fill="#00B4F1"/>
<path d="M1100.53 142.621C1074.66 127.11 1055.81 111.054 1018.28 90.3622C1030.36 122.775 1045.53 150.611 1056.17 178.101C1072.19 167.439 1086.47 155.77 1100.53 142.621ZM1041.37 118.317C1048.15 123.926 1075 140.856 1080.51 144.386C1074.17 149.859 1067.91 154.869 1061.56 159.561C1056.75 148.575 1042.34 120.321 1041.37 118.317Z" fill="url(#paint79_linear_1_18315)"/>
<path d="M1028.17 97.2383C1027.74 98.0357 1027.31 98.8336 1026.87 99.631L1028.17 97.2383Z" fill="#00B4F1"/>
<path d="M1028.17 97.2383C1027.74 98.0357 1027.31 98.8336 1026.87 99.631" stroke="#436BC3" stroke-width="2" stroke-miterlimit="10" stroke-linecap="round" stroke-linejoin="round"/>
<path d="M1030.84 98.8242C1029.98 100.052 1029.21 101.34 1028.53 102.677L1030.84 98.8242Z" fill="#00B4F1"/>
<path d="M1030.84 98.8242C1029.98 100.052 1029.21 101.34 1028.53 102.677" stroke="#436BC3" stroke-width="2" stroke-miterlimit="10" stroke-linecap="round" stroke-linejoin="round"/>
<path d="M1034 101.008C1033.74 101.631 1033.48 102.254 1033.22 102.877L1034 101.008Z" fill="#00B4F1"/>
<path d="M1034 101.008C1033.74 101.631 1033.48 102.254 1033.22 102.877" stroke="#436BC3" stroke-width="2" stroke-miterlimit="10" stroke-linecap="round" stroke-linejoin="round"/>
<path d="M1037.51 102.906C1036.94 104.222 1036.23 105.477 1035.39 106.642L1037.51 102.906Z" fill="#00B4F1"/>
<path d="M1037.51 102.906C1036.94 104.222 1036.23 105.477 1035.39 106.642" stroke="#436BC3" stroke-width="2" stroke-miterlimit="10" stroke-linecap="round" stroke-linejoin="round"/>
<path d="M1024.39 95.0195C1024.12 95.4383 1023.9 95.8875 1023.73 96.3554L1024.39 95.0195Z" fill="#00B4F1"/>
<path d="M1024.39 95.0195C1024.12 95.4383 1023.9 95.8875 1023.73 96.3554" stroke="#436BC3" stroke-width="2" stroke-miterlimit="10" stroke-linecap="round" stroke-linejoin="round"/>
<path d="M1040.93 105.359C1040.5 105.996 1040.14 106.682 1039.86 107.4L1040.93 105.359Z" fill="#00B4F1"/>
<path d="M1040.93 105.359C1040.5 105.996 1040.14 106.682 1039.86 107.4" stroke="#436BC3" stroke-width="2" stroke-miterlimit="10" stroke-linecap="round" stroke-linejoin="round"/>
<path d="M1044.69 107.5C1044.11 108.601 1043.53 109.702 1042.95 110.803L1044.69 107.5Z" fill="#00B4F1"/>
<path d="M1044.69 107.5C1044.11 108.601 1043.53 109.702 1042.95 110.803" stroke="#436BC3" stroke-width="2" stroke-miterlimit="10" stroke-linecap="round" stroke-linejoin="round"/>
<path d="M1048.98 109.848C1048.65 110.468 1048.33 111.089 1048 111.71L1048.98 109.848Z" fill="#00B4F1"/>
<path d="M1048.98 109.848C1048.65 110.468 1048.33 111.089 1048 111.71" stroke="#436BC3" stroke-width="2" stroke-miterlimit="10" stroke-linecap="round" stroke-linejoin="round"/>
<path d="M1052.51 112.199C1051.69 113.298 1050.95 114.464 1050.32 115.68L1052.51 112.199Z" fill="#00B4F1"/>
<path d="M1052.51 112.199C1051.69 113.298 1050.95 114.464 1050.32 115.68" stroke="#436BC3" stroke-width="2" stroke-miterlimit="10" stroke-linecap="round" stroke-linejoin="round"/>
<path d="M1056.52 114.656C1056.16 115.387 1055.81 116.119 1055.45 116.85L1056.52 114.656Z" fill="#00B4F1"/>
<path d="M1056.52 114.656C1056.16 115.387 1055.81 116.119 1055.45 116.85" stroke="#436BC3" stroke-width="2" stroke-miterlimit="10" stroke-linecap="round" stroke-linejoin="round"/>
<path d="M1059.76 116.945C1059.04 118.093 1058.32 119.242 1057.6 120.389L1059.76 116.945Z" fill="#00B4F1"/>
<path d="M1059.76 116.945C1059.04 118.093 1058.32 119.242 1057.6 120.389" stroke="#436BC3" stroke-width="2" stroke-miterlimit="10" stroke-linecap="round" stroke-linejoin="round"/>
<path d="M1063.13 119.312C1062.86 119.857 1062.59 120.402 1062.32 120.946L1063.13 119.312Z" fill="#00B4F1"/>
<path d="M1063.13 119.312C1062.86 119.857 1062.59 120.402 1062.32 120.946" stroke="#436BC3" stroke-width="2" stroke-miterlimit="10" stroke-linecap="round" stroke-linejoin="round"/>
<path d="M1065.99 121.172C1065.07 122.662 1064.21 124.189 1063.41 125.746L1065.99 121.172Z" fill="#00B4F1"/>
<path d="M1065.99 121.172C1065.07 122.662 1064.21 124.189 1063.41 125.746" stroke="#436BC3" stroke-width="2" stroke-miterlimit="10" stroke-linecap="round" stroke-linejoin="round"/>
<path d="M1069.92 123.746C1069.45 124.334 1069.08 125.003 1068.84 125.716L1069.92 123.746Z" fill="#00B4F1"/>
<path d="M1069.92 123.746C1069.45 124.334 1069.08 125.003 1068.84 125.716" stroke="#436BC3" stroke-width="2" stroke-miterlimit="10" stroke-linecap="round" stroke-linejoin="round"/>
<path d="M1073.54 126.199C1072.94 127.266 1072.33 128.334 1071.73 129.401L1073.54 126.199Z" fill="#00B4F1"/>
<path d="M1073.54 126.199C1072.94 127.266 1072.33 128.334 1071.73 129.401" stroke="#436BC3" stroke-width="2" stroke-miterlimit="10" stroke-linecap="round" stroke-linejoin="round"/>
<path d="M1076.61 128.285C1076.28 128.906 1075.95 129.526 1075.63 130.147L1076.61 128.285Z" fill="#00B4F1"/>
<path d="M1076.61 128.285C1076.28 128.906 1075.95 129.526 1075.63 130.147" stroke="#436BC3" stroke-width="2" stroke-miterlimit="10" stroke-linecap="round" stroke-linejoin="round"/>
<path d="M1079.96 130.203C1079.16 131.338 1078.45 132.54 1077.85 133.792L1079.96 130.203Z" fill="#00B4F1"/>
<path d="M1079.96 130.203C1079.16 131.338 1078.45 132.54 1077.85 133.792" stroke="#436BC3" stroke-width="2" stroke-miterlimit="10" stroke-linecap="round" stroke-linejoin="round"/>
<path d="M1083.56 132.641C1083.16 133.333 1082.77 134.027 1082.38 134.72L1083.56 132.641Z" fill="#00B4F1"/>
<path d="M1083.56 132.641C1083.16 133.333 1082.77 134.027 1082.38 134.72" stroke="#436BC3" stroke-width="2" stroke-miterlimit="10" stroke-linecap="round" stroke-linejoin="round"/>
<path d="M1087.15 135.078C1086.51 136.257 1085.88 137.435 1085.25 138.614L1087.15 135.078Z" fill="#00B4F1"/>
<path d="M1087.15 135.078C1086.51 136.257 1085.88 137.435 1085.25 138.614" stroke="#436BC3" stroke-width="2" stroke-miterlimit="10" stroke-linecap="round" stroke-linejoin="round"/>
<path d="M1090.18 136.871C1089.75 137.525 1089.32 138.178 1088.89 138.83L1090.18 136.871Z" fill="#00B4F1"/>
<path d="M1090.18 136.871C1089.75 137.525 1089.32 138.178 1088.89 138.83" stroke="#436BC3" stroke-width="2" stroke-miterlimit="10" stroke-linecap="round" stroke-linejoin="round"/>
<path d="M1093.06 138.516C1092.32 139.786 1091.66 141.098 1091.06 142.441L1093.06 138.516Z" fill="#00B4F1"/>
<path d="M1093.06 138.516C1092.32 139.786 1091.66 141.098 1091.06 142.441" stroke="#436BC3" stroke-width="2" stroke-miterlimit="10" stroke-linecap="round" stroke-linejoin="round"/>
<path d="M1096.32 140.879C1095.96 141.53 1095.59 142.181 1095.22 142.833L1096.32 140.879Z" fill="#00B4F1"/>
<path d="M1096.32 140.879C1095.96 141.53 1095.59 142.181 1095.22 142.833" stroke="#436BC3" stroke-width="2" stroke-miterlimit="10" stroke-linecap="round" stroke-linejoin="round"/>
<path d="M1062.51 160.398C1065.67 158.046 1068.8 155.649 1071.89 153.208L1062.51 160.398Z" fill="#00B4F1"/>
<path d="M1062.51 160.398C1065.67 158.046 1068.8 155.649 1071.89 153.208" stroke="#436BC3" stroke-width="2" stroke-miterlimit="10" stroke-linecap="round" stroke-linejoin="round"/>
<path d="M1045.45 147.512C1045.62 147.808 1045.79 148.105 1045.96 148.402L1045.45 147.512Z" fill="#00B4F1"/>
<path d="M1045.45 147.512C1045.62 147.808 1045.79 148.105 1045.96 148.402" stroke="#436BC3" stroke-width="2" stroke-miterlimit="10" stroke-linecap="round" stroke-linejoin="round"/>
<path d="M1030.37 114.926C1032.68 119.619 1041.69 139.823 1043.74 144.607L1030.37 114.926Z" fill="#00B4F1"/>
<path d="M1030.37 114.926C1032.68 119.619 1041.69 139.823 1043.74 144.607" stroke="#436BC3" stroke-width="2" stroke-miterlimit="10" stroke-linecap="round" stroke-linejoin="round"/>
<path d="M1071.78 155.806C1073 154.851 1074.22 153.897 1075.44 152.942L1071.78 155.806Z" fill="#00B4F1"/>
<path d="M1071.78 155.806C1073 154.851 1074.22 153.897 1075.44 152.942" stroke="#436BC3" stroke-width="2" stroke-miterlimit="10" stroke-linecap="round" stroke-linejoin="round"/>
<path d="M1016.11 162.833C1017.43 163.148 1018.24 164.474 1017.93 165.794L1012.34 189.262C1012.59 189.314 1012.79 189.362 1012.93 189.406C1012.51 195.959 1011.15 201.743 1010.52 208.123C1010.6 209.98 1010.26 211.879 1009.62 213.631C1008.84 215.766 1007.61 217.776 1005.85 219.206C1004.08 220.634 1001.75 221.434 999.505 221.085C995.516 220.466 991.285 216.053 991.017 212.021C990.678 206.892 995.451 196.647 1002.37 197.843C1003.05 197.959 1003.69 198.18 1004.29 198.477C1005.08 195.033 1005.89 191.855 1006.9 188.359C1007.04 188.393 1007.24 188.429 1007.48 188.471L1013.15 164.653C1013.46 163.334 1014.79 162.519 1016.11 162.833ZM1006.3 209.156C1006.75 205.758 1005.67 202.876 1001.99 202.366C998.888 201.935 997.508 203.857 996.544 206.623C995.858 208.589 995.641 210.725 995.962 212.785C996.094 213.631 996.321 214.483 996.817 215.18C997.754 216.498 999.569 217.024 1001.14 216.654C1002.71 216.285 1004.03 215.137 1004.87 213.752C1005.7 212.368 1006.1 210.76 1006.3 209.156Z" fill="url(#paint80_linear_1_18315)"/>
<path d="M1006.25 163.425C1007.49 162.891 1008.94 163.471 1009.47 164.718L1019.13 187.332C1019.28 187.265 1019.42 187.207 1019.53 187.16C1021.24 190.619 1022.31 194.206 1023.71 197.774C1024.46 197.077 1025.31 196.513 1026.27 196.162C1032.87 193.755 1039.39 202.987 1039.96 208.094C1040.42 212.109 1037.04 217.204 1033.23 218.524C1031.08 219.266 1028.64 218.894 1026.65 217.802C1024.66 216.709 1023.09 214.95 1021.94 212.989C1021.01 211.39 1020.34 209.596 1020.09 207.766C1018.28 201.545 1015.7 195.916 1014.12 189.528C1014.26 189.464 1014.43 189.388 1014.63 189.3L1004.95 166.65C1004.42 165.402 1005 163.959 1006.25 163.425ZM1033.56 203.765C1032.12 201.216 1030.42 199.569 1027.45 200.544C1023.92 201.701 1023.37 204.731 1024.41 207.995C1024.9 209.535 1025.58 211.047 1026.64 212.261C1027.71 213.475 1029.21 214.371 1030.83 214.454C1032.44 214.538 1034.13 213.698 1034.82 212.235C1035.18 211.461 1035.25 210.581 1035.23 209.726C1035.18 207.64 1034.59 205.579 1033.56 203.765Z" fill="url(#paint81_linear_1_18315)"/>
<path d="M1015.79 177.902C1016.12 179.778 1014.86 181.565 1012.99 181.893C1011.11 182.22 1009.33 180.963 1009 179.087C1008.67 177.211 1009.92 175.424 1011.8 175.097C1013.67 174.77 1015.46 176.026 1015.79 177.902Z" fill="url(#paint82_linear_1_18315)"/>
<path d="M1018.73 66.3C1018.74 63.5877 1018.22 60.2785 1019.25 58.4674C1020.94 57.8414 1023.05 56.9425 1025.05 56.0113C1026.91 55.1472 1027.21 52.6288 1025.6 51.3641C1023.4 49.6358 1020.5 47.4416 1018.01 45.7834C1016.34 44.6756 1014.11 45.6588 1013.78 47.6332C1013.28 50.6388 1013.04 53.8817 1012.81 54.5385C1011.59 55.4657 1009.01 56.2573 1006.92 56.7848C1005.68 57.0971 1005.33 58.689 1006.32 59.5019C1009.28 61.9556 1013.28 65.3775 1016.24 67.5521C1017.27 68.3113 1018.72 67.5836 1018.73 66.3Z" fill="url(#paint83_linear_1_18315)"/>
<path d="M1008.1 61.0391C1006.95 63.4707 1002.96 72.691 1002.96 72.691C1002.96 72.691 1011.38 67.3081 1013.47 65.4119" fill="url(#paint84_linear_1_18315)"/>
<path d="M825.684 392.448C825.684 392.448 826.293 399 839.152 402.374C852.012 405.748 867.23 400.752 867.23 400.752C867.23 400.752 868.447 413.855 885.466 416.989C902.484 420.123 907.963 411.573 907.963 411.573C907.963 411.573 908.648 418.944 927.899 423.595C947.149 428.247 967.262 419.674 967.262 419.674C967.262 419.674 975.363 448.064 1015.61 444.876C1062.85 441.133 1067.02 413.088 1067.02 413.088C1067.02 413.088 1074.68 416.763 1098.06 409.648C1121.45 402.534 1123.63 381.001 1123.63 381.001C1123.63 381.001 1150.82 381.077 1146.4 367.335C1141.99 353.592 1121.57 358.888 1121.57 358.888C1121.57 358.888 1110.97 334.8 1074.93 329.471C1038.89 324.142 1013.17 351.152 1013.17 351.152C1013.17 351.152 1010.84 337.29 986.311 332.12C961.784 326.95 945.171 339.436 945.171 339.436C945.171 339.436 936.74 322.428 912.453 324.858C891.355 326.97 886.277 346.954 886.277 346.954C886.277 346.954 878.617 343.28 861.319 348.396C844.021 353.512 842.804 374.166 842.804 374.166C842.804 374.166 833.415 365.181 816.883 376.487C816.883 376.487 790.226 368.582 790.939 385.558C791.594 401.134 825.684 392.448 825.684 392.448Z" fill="url(#paint85_linear_1_18315)"/>
</g>
<defs>
<linearGradient id="paint0_linear_1_18315" x1="665.86" y1="181.243" x2="571.617" y2="425.198" gradientUnits="userSpaceOnUse">
<stop stop-color="#F8FCFF" stop-opacity="0"/>
<stop offset="1" stop-color="#E4F4FF"/>
</linearGradient>
<linearGradient id="paint1_linear_1_18315" x1="774.14" y1="181.243" x2="868.383" y2="425.198" gradientUnits="userSpaceOnUse">
<stop stop-color="#F8FCFF" stop-opacity="0"/>
<stop offset="1" stop-color="#E4F4FF"/>
</linearGradient>
<radialGradient id="paint2_radial_1_18315" cx="0" cy="0" r="1" gradientUnits="userSpaceOnUse" gradientTransform="translate(371.283 -8.85207e-05) rotate(90) scale(742.565 387.572)">
<stop/>
<stop offset="0.953125" stop-opacity="0"/>
</radialGradient>
<linearGradient id="paint3_linear_1_18315" x1="463.346" y1="336.469" x2="447.556" y2="367.617" gradientUnits="userSpaceOnUse">
<stop offset="0.384076" stop-color="#D3E7DD"/>
<stop offset="1" stop-color="#B0D2BC"/>
</linearGradient>
<linearGradient id="paint4_linear_1_18315" x1="414.382" y1="277.174" x2="445.592" y2="360.905" gradientUnits="userSpaceOnUse">
<stop offset="0.384076" stop-color="#D3E7DD"/>
<stop offset="1" stop-color="#B0D2BC"/>
</linearGradient>
<linearGradient id="paint5_linear_1_18315" x1="390.333" y1="329.097" x2="405.947" y2="386.084" gradientUnits="userSpaceOnUse">
<stop offset="0.384076" stop-color="#9BBAFF"/>
<stop offset="1" stop-color="#356BE1"/>
</linearGradient>
<linearGradient id="paint6_linear_1_18315" x1="445.916" y1="-10.5867" x2="475.755" y2="13.5154" gradientUnits="userSpaceOnUse">
<stop offset="0.384076" stop-color="#D3E7DD"/>
<stop offset="1" stop-color="#B0D2BC"/>
</linearGradient>
<linearGradient id="paint7_linear_1_18315" x1="444.927" y1="-14.5271" x2="466.316" y2="2.21183" gradientUnits="userSpaceOnUse">
<stop offset="0.266062" stop-color="#CAE4D7"/>
<stop offset="1" stop-color="#8DC5A1"/>
</linearGradient>
<linearGradient id="paint8_linear_1_18315" x1="464.195" y1="12.2088" x2="468.369" y2="19.437" gradientUnits="userSpaceOnUse">
<stop offset="0.266062" stop-color="#CAE4D7"/>
<stop offset="1" stop-color="#8FC2A1"/>
</linearGradient>
<linearGradient id="paint9_linear_1_18315" x1="462.455" y1="10.3251" x2="466.407" y2="17.0054" gradientUnits="userSpaceOnUse">
<stop offset="0.266062" stop-color="#CAE4D7"/>
<stop offset="1" stop-color="#8FC2A1"/>
</linearGradient>
<linearGradient id="paint10_linear_1_18315" x1="332.434" y1="146.649" x2="351.313" y2="193.704" gradientUnits="userSpaceOnUse">
<stop offset="0.384076" stop-color="#D3E7DD"/>
<stop offset="1" stop-color="#B0D2BC"/>
</linearGradient>
<linearGradient id="paint11_linear_1_18315" x1="361.969" y1="167.779" x2="310.688" y2="167.779" gradientUnits="userSpaceOnUse">
<stop stop-color="#FFB7BA"/>
<stop offset="1" stop-color="#CF4F54"/>
</linearGradient>
<linearGradient id="paint12_linear_1_18315" x1="334.317" y1="166.992" x2="341.222" y2="192.109" gradientUnits="userSpaceOnUse">
<stop offset="0.384076" stop-color="#D3E7DD"/>
<stop offset="1" stop-color="#B0D2BC"/>
</linearGradient>
<linearGradient id="paint13_linear_1_18315" x1="355.632" y1="177.441" x2="318.623" y2="177.441" gradientUnits="userSpaceOnUse">
<stop stop-color="#FFC2C5"/>
<stop offset="1" stop-color="#E38387"/>
</linearGradient>
<linearGradient id="paint14_linear_1_18315" x1="368.997" y1="57.2652" x2="387.773" y2="101.276" gradientUnits="userSpaceOnUse">
<stop offset="0.384076" stop-color="#D3E7DD"/>
<stop offset="1" stop-color="#B0D2BC"/>
</linearGradient>
<linearGradient id="paint15_linear_1_18315" x1="1116.21" y1="67.8572" x2="1065.06" y2="67.8572" gradientUnits="userSpaceOnUse">
<stop stop-color="#FFB7BA"/>
<stop offset="1" stop-color="#CF4F54"/>
</linearGradient>
<linearGradient id="paint16_linear_1_18315" x1="1102.74" y1="66.8393" x2="1080.82" y2="66.8393" gradientUnits="userSpaceOnUse">
<stop stop-color="#E2888B"/>
<stop offset="1" stop-color="#BE3B40"/>
</linearGradient>
<linearGradient id="paint17_linear_1_18315" x1="1110.79" y1="61.949" x2="1105.89" y2="61.949" gradientUnits="userSpaceOnUse">
<stop stop-color="#E2888B"/>
<stop offset="1" stop-color="#BE3B40"/>
</linearGradient>
<linearGradient id="paint18_linear_1_18315" x1="1113.04" y1="61.0717" x2="1108.16" y2="61.0717" gradientUnits="userSpaceOnUse">
<stop stop-color="#E2888B"/>
<stop offset="1" stop-color="#BE3B40"/>
</linearGradient>
<linearGradient id="paint19_linear_1_18315" x1="1076.8" y1="75.3604" x2="1071.9" y2="75.3604" gradientUnits="userSpaceOnUse">
<stop stop-color="#E2888B"/>
<stop offset="1" stop-color="#BE3B40"/>
</linearGradient>
<linearGradient id="paint20_linear_1_18315" x1="1079.47" y1="74.3389" x2="1074.86" y2="74.3389" gradientUnits="userSpaceOnUse">
<stop stop-color="#E2888B"/>
<stop offset="1" stop-color="#BE3B40"/>
</linearGradient>
<linearGradient id="paint21_linear_1_18315" x1="1130.92" y1="139.277" x2="1121" y2="170.761" gradientUnits="userSpaceOnUse">
<stop stop-color="#FFD9AF"/>
<stop offset="1" stop-color="#E1AB71"/>
</linearGradient>
<linearGradient id="paint22_linear_1_18315" x1="1125.56" y1="155.789" x2="1121.15" y2="169.787" gradientUnits="userSpaceOnUse">
<stop stop-color="#D6AC7F"/>
<stop offset="1" stop-color="#BD8E5B"/>
</linearGradient>
<linearGradient id="paint23_linear_1_18315" x1="1125.89" y1="175.546" x2="1114.97" y2="175.343" gradientUnits="userSpaceOnUse">
<stop offset="0.384076" stop-color="#9BBAFF"/>
<stop offset="1" stop-color="#356BE1"/>
</linearGradient>
<linearGradient id="paint24_linear_1_18315" x1="1126.43" y1="172.038" x2="1125.71" y2="173.497" gradientUnits="userSpaceOnUse">
<stop offset="0.384076" stop-color="#B7CDFF"/>
<stop offset="1" stop-color="#7BA5FF"/>
</linearGradient>
<linearGradient id="paint25_linear_1_18315" x1="1125.35" y1="175.487" x2="1124.63" y2="176.946" gradientUnits="userSpaceOnUse">
<stop offset="0.384076" stop-color="#B7CDFF"/>
<stop offset="1" stop-color="#7BA5FF"/>
</linearGradient>
<linearGradient id="paint26_linear_1_18315" x1="1124.05" y1="178.719" x2="1123.5" y2="179.884" gradientUnits="userSpaceOnUse">
<stop offset="0.384076" stop-color="#B7CDFF"/>
<stop offset="1" stop-color="#7BA5FF"/>
</linearGradient>
<linearGradient id="paint27_linear_1_18315" x1="1133.66" y1="128.795" x2="1132.01" y2="134.017" gradientUnits="userSpaceOnUse">
<stop stop-color="#D6AC7F"/>
<stop offset="1" stop-color="#BD8E5B"/>
</linearGradient>
<linearGradient id="paint28_linear_1_18315" x1="1139.51" y1="135.165" x2="1138.47" y2="138.469" gradientUnits="userSpaceOnUse">
<stop stop-color="#D6AC7F"/>
<stop offset="1" stop-color="#BD8E5B"/>
</linearGradient>
<linearGradient id="paint29_linear_1_18315" x1="1145.16" y1="142.065" x2="1144.3" y2="144.807" gradientUnits="userSpaceOnUse">
<stop stop-color="#D6AC7F"/>
<stop offset="1" stop-color="#BD8E5B"/>
</linearGradient>
<linearGradient id="paint30_linear_1_18315" x1="1124.59" y1="131.685" x2="1123.72" y2="134.444" gradientUnits="userSpaceOnUse">
<stop stop-color="#D6AC7F"/>
<stop offset="1" stop-color="#BD8E5B"/>
</linearGradient>
<linearGradient id="paint31_linear_1_18315" x1="1116.41" y1="131.872" x2="1114.97" y2="136.455" gradientUnits="userSpaceOnUse">
<stop stop-color="#D6AC7F"/>
<stop offset="1" stop-color="#BD8E5B"/>
</linearGradient>
<linearGradient id="paint32_linear_1_18315" x1="1005.86" y1="12.3798" x2="1054.48" y2="-2.92258" gradientUnits="userSpaceOnUse">
<stop offset="0.384076" stop-color="#9BBAFF"/>
<stop offset="1" stop-color="#356BE1"/>
</linearGradient>
<linearGradient id="paint33_linear_1_18315" x1="1005.86" y1="12.3798" x2="1054.48" y2="-2.92258" gradientUnits="userSpaceOnUse">
<stop offset="0.384076" stop-color="#9BBAFF"/>
<stop offset="1" stop-color="#356BE1"/>
</linearGradient>
<linearGradient id="paint34_linear_1_18315" x1="1064.42" y1="23.0256" x2="1066.53" y2="22.9501" gradientUnits="userSpaceOnUse">
<stop offset="0.384076" stop-color="#9BBAFF"/>
<stop offset="1" stop-color="#356BE1"/>
</linearGradient>
<linearGradient id="paint35_linear_1_18315" x1="1058.51" y1="22.0228" x2="1063.05" y2="21.6443" gradientUnits="userSpaceOnUse">
<stop offset="0.384076" stop-color="#9BBAFF"/>
<stop offset="1" stop-color="#356BE1"/>
</linearGradient>
<linearGradient id="paint36_linear_1_18315" x1="1055.8" y1="17.5664" x2="1057.85" y2="17.3837" gradientUnits="userSpaceOnUse">
<stop offset="0.384076" stop-color="#9BBAFF"/>
<stop offset="1" stop-color="#356BE1"/>
</linearGradient>
<linearGradient id="paint37_linear_1_18315" x1="1048.41" y1="16.4555" x2="1053.2" y2="16.0265" gradientUnits="userSpaceOnUse">
<stop offset="0.384076" stop-color="#9BBAFF"/>
<stop offset="1" stop-color="#356BE1"/>
</linearGradient>
<linearGradient id="paint38_linear_1_18315" x1="1046.2" y1="11.3494" x2="1048.12" y2="11.1866" gradientUnits="userSpaceOnUse">
<stop offset="0.384076" stop-color="#9BBAFF"/>
<stop offset="1" stop-color="#356BE1"/>
</linearGradient>
<linearGradient id="paint39_linear_1_18315" x1="1039.14" y1="10.9752" x2="1044.05" y2="10.2173" gradientUnits="userSpaceOnUse">
<stop offset="0.384076" stop-color="#9BBAFF"/>
<stop offset="1" stop-color="#356BE1"/>
</linearGradient>
<linearGradient id="paint40_linear_1_18315" x1="1037.6" y1="5.85866" x2="1039.62" y2="5.73284" gradientUnits="userSpaceOnUse">
<stop offset="0.384076" stop-color="#9BBAFF"/>
<stop offset="1" stop-color="#356BE1"/>
</linearGradient>
<linearGradient id="paint41_linear_1_18315" x1="1031.08" y1="6.42032" x2="1036.31" y2="6.07163" gradientUnits="userSpaceOnUse">
<stop offset="0.384076" stop-color="#9BBAFF"/>
<stop offset="1" stop-color="#356BE1"/>
</linearGradient>
<linearGradient id="paint42_linear_1_18315" x1="1029.41" y1="1.90903" x2="1031.6" y2="1.78268" gradientUnits="userSpaceOnUse">
<stop offset="0.384076" stop-color="#9BBAFF"/>
<stop offset="1" stop-color="#356BE1"/>
</linearGradient>
<linearGradient id="paint43_linear_1_18315" x1="1021.95" y1="0.911351" x2="1027.17" y2="0.282373" gradientUnits="userSpaceOnUse">
<stop offset="0.384076" stop-color="#9BBAFF"/>
<stop offset="1" stop-color="#356BE1"/>
</linearGradient>
<linearGradient id="paint44_linear_1_18315" x1="1013.13" y1="-3.69137" x2="1019.4" y2="-4.42273" gradientUnits="userSpaceOnUse">
<stop offset="0.384076" stop-color="#9BBAFF"/>
<stop offset="1" stop-color="#356BE1"/>
</linearGradient>
<linearGradient id="paint45_linear_1_18315" x1="1048.76" y1="29.8088" x2="1056.44" y2="27.1706" gradientUnits="userSpaceOnUse">
<stop offset="0.384076" stop-color="#9BBAFF"/>
<stop offset="1" stop-color="#356BE1"/>
</linearGradient>
<linearGradient id="paint46_linear_1_18315" x1="1042.32" y1="23.623" x2="1043.37" y2="23.247" gradientUnits="userSpaceOnUse">
<stop offset="0.384076" stop-color="#9BBAFF"/>
<stop offset="1" stop-color="#356BE1"/>
</linearGradient>
<linearGradient id="paint47_linear_1_18315" x1="1140.42" y1="252.641" x2="1140.42" y2="349.129" gradientUnits="userSpaceOnUse">
<stop stop-color="#E4E4E7"/>
<stop offset="1" stop-color="#F4F4F5"/>
</linearGradient>
<linearGradient id="paint48_linear_1_18315" x1="1121.04" y1="292.984" x2="1043.55" y2="313.52" gradientUnits="userSpaceOnUse">
<stop offset="0.384076" stop-color="#9BBAFF"/>
<stop offset="1" stop-color="#356BE1"/>
</linearGradient>
<linearGradient id="paint49_linear_1_18315" x1="1077.65" y1="299.686" x2="1089.69" y2="338.759" gradientUnits="userSpaceOnUse">
<stop offset="0.384076" stop-color="#D3E7DD"/>
<stop offset="1" stop-color="#B0D2BC"/>
</linearGradient>
<linearGradient id="paint50_linear_1_18315" x1="1077.65" y1="299.686" x2="1089.69" y2="338.759" gradientUnits="userSpaceOnUse">
<stop offset="0.384076" stop-color="#D3E7DD"/>
<stop offset="1" stop-color="#B0D2BC"/>
</linearGradient>
<linearGradient id="paint51_linear_1_18315" x1="1077.65" y1="299.686" x2="1089.69" y2="338.759" gradientUnits="userSpaceOnUse">
<stop offset="0.384076" stop-color="#D3E7DD"/>
<stop offset="1" stop-color="#B0D2BC"/>
</linearGradient>
<linearGradient id="paint52_linear_1_18315" x1="1077.65" y1="299.686" x2="1089.69" y2="338.759" gradientUnits="userSpaceOnUse">
<stop offset="0.384076" stop-color="#D3E7DD"/>
<stop offset="1" stop-color="#B0D2BC"/>
</linearGradient>
<linearGradient id="paint53_linear_1_18315" x1="1154.23" y1="270.526" x2="1045.75" y2="299.277" gradientUnits="userSpaceOnUse">
<stop offset="0.384076" stop-color="#9BBAFF"/>
<stop offset="1" stop-color="#356BE1"/>
</linearGradient>
<linearGradient id="paint54_linear_1_18315" x1="1168.73" y1="270.185" x2="1142.6" y2="270.185" gradientUnits="userSpaceOnUse">
<stop stop-color="#FFB7BA"/>
<stop offset="1" stop-color="#CF4F54"/>
</linearGradient>
<radialGradient id="paint55_radial_1_18315" cx="0" cy="0" r="1" gradientTransform="matrix(-8.88067 16.0685 11.4487 6.34289 416.1 152.106)" gradientUnits="userSpaceOnUse">
<stop stop-color="#356BE1"/>
<stop offset="1" stop-color="#9BBAFF"/>
</radialGradient>
<radialGradient id="paint56_radial_1_18315" cx="0" cy="0" r="1" gradientTransform="matrix(12.2034 13.7102 -9.76845 8.71607 1006.51 126.182)" gradientUnits="userSpaceOnUse">
<stop stop-color="#356BE1"/>
<stop offset="1" stop-color="#9BBAFF"/>
</radialGradient>
<radialGradient id="paint57_radial_1_18315" cx="0" cy="0" r="1" gradientTransform="matrix(-5.85097 10.5866 7.54291 4.17897 314.605 137.461)" gradientUnits="userSpaceOnUse">
<stop stop-color="#356BE1"/>
<stop offset="1" stop-color="#9BBAFF"/>
</radialGradient>
<radialGradient id="paint58_radial_1_18315" cx="0" cy="0" r="1" gradientTransform="matrix(8.0401 9.03288 -6.43588 5.74253 1105.99 107.058)" gradientUnits="userSpaceOnUse">
<stop stop-color="#356BE1"/>
<stop offset="1" stop-color="#9BBAFF"/>
</radialGradient>
<radialGradient id="paint59_radial_1_18315" cx="0" cy="0" r="1" gradientTransform="matrix(-7.75354 14.0291 9.99566 5.53786 410.575 0.732623)" gradientUnits="userSpaceOnUse">
<stop stop-color="#356BE1"/>
<stop offset="1" stop-color="#9BBAFF"/>
</radialGradient>
<radialGradient id="paint60_radial_1_18315" cx="0" cy="0" r="1" gradientTransform="matrix(10.6545 11.9701 -8.52864 7.60984 1089.67 -10.3377)" gradientUnits="userSpaceOnUse">
<stop stop-color="#356BE1"/>
<stop offset="1" stop-color="#9BBAFF"/>
</radialGradient>
<radialGradient id="paint61_radial_1_18315" cx="0" cy="0" r="1" gradientTransform="matrix(-4.47214 1.96729 5.76536 0.776568 403.371 114.378)" gradientUnits="userSpaceOnUse">
<stop stop-color="#356BE1"/>
<stop offset="1" stop-color="#9BBAFF"/>
</radialGradient>
<radialGradient id="paint62_radial_1_18315" cx="0" cy="0" r="1" gradientTransform="matrix(-4.10533 5.3636 5.29248 2.11723 403.272 114.633)" gradientUnits="userSpaceOnUse">
<stop stop-color="#356BE1"/>
<stop offset="1" stop-color="#9BBAFF"/>
</radialGradient>
<radialGradient id="paint63_radial_1_18315" cx="0" cy="0" r="1" gradientTransform="matrix(-0.8984 7.84688 1.15819 3.09748 403.106 115.114)" gradientUnits="userSpaceOnUse">
<stop stop-color="#356BE1"/>
<stop offset="1" stop-color="#9BBAFF"/>
</radialGradient>
<radialGradient id="paint64_radial_1_18315" cx="0" cy="0" r="1" gradientTransform="matrix(4.79531 0.929121 -5.45259 2.03163 1022.57 95.7449)" gradientUnits="userSpaceOnUse">
<stop stop-color="#356BE1"/>
<stop offset="1" stop-color="#9BBAFF"/>
</radialGradient>
<radialGradient id="paint65_radial_1_18315" cx="0" cy="0" r="1" gradientTransform="matrix(5.18586 4.32225 -4.69664 3.23488 1022.72 95.9704)" gradientUnits="userSpaceOnUse">
<stop stop-color="#356BE1"/>
<stop offset="1" stop-color="#9BBAFF"/>
</radialGradient>
<radialGradient id="paint66_radial_1_18315" cx="0" cy="0" r="1" gradientTransform="matrix(2.60542 7.45437 -0.447949 3.27715 1022.99 96.4058)" gradientUnits="userSpaceOnUse">
<stop stop-color="#356BE1"/>
<stop offset="1" stop-color="#9BBAFF"/>
</radialGradient>
<radialGradient id="paint67_radial_1_18315" cx="0" cy="0" r="1" gradientTransform="matrix(-2.51168 4.60817 3.23799 1.81903 411.34 218.699)" gradientUnits="userSpaceOnUse">
<stop stop-color="#356BE1"/>
<stop offset="1" stop-color="#9BBAFF"/>
</radialGradient>
<radialGradient id="paint68_radial_1_18315" cx="0" cy="0" r="1" gradientTransform="matrix(3.46544 3.93962 -2.75723 2.48961 1037.78 199.256)" gradientUnits="userSpaceOnUse">
<stop stop-color="#356BE1"/>
<stop offset="1" stop-color="#9BBAFF"/>
</radialGradient>
<radialGradient id="paint69_radial_1_18315" cx="0" cy="0" r="1" gradientTransform="matrix(-5.45138 10.0016 7.02778 3.94806 372.805 2.53672)" gradientUnits="userSpaceOnUse">
<stop stop-color="#356BE1"/>
<stop offset="1" stop-color="#9BBAFF"/>
</radialGradient>
<radialGradient id="paint70_radial_1_18315" cx="0" cy="0" r="1" gradientTransform="matrix(7.52143 8.55061 -5.98434 5.40349 1107.85 24.3878)" gradientUnits="userSpaceOnUse">
<stop stop-color="#356BE1"/>
<stop offset="1" stop-color="#9BBAFF"/>
</radialGradient>
<radialGradient id="paint71_radial_1_18315" cx="0" cy="0" r="1" gradientTransform="matrix(-2.51168 4.60817 3.23799 1.81903 494.815 318.836)" gradientUnits="userSpaceOnUse">
<stop stop-color="#356BE1"/>
<stop offset="1" stop-color="#9BBAFF"/>
</radialGradient>
<radialGradient id="paint72_radial_1_18315" cx="0" cy="0" r="1" gradientTransform="matrix(3.46544 3.93962 -2.75723 2.48961 1021.48 248.631)" gradientUnits="userSpaceOnUse">
<stop stop-color="#356BE1"/>
<stop offset="1" stop-color="#9BBAFF"/>
</radialGradient>
<linearGradient id="paint73_linear_1_18315" x1="385.402" y1="235.431" x2="354.383" y2="235.431" gradientUnits="userSpaceOnUse">
<stop stop-color="#FFB7BA"/>
<stop offset="1" stop-color="#CF4F54"/>
</linearGradient>
<linearGradient id="paint74_linear_1_18315" x1="1069.38" y1="196.434" x2="1099.64" y2="189.596" gradientUnits="userSpaceOnUse">
<stop stop-color="#FFB7BA"/>
<stop offset="1" stop-color="#CF4F54"/>
</linearGradient>
<linearGradient id="paint75_linear_1_18315" x1="406.411" y1="49.7073" x2="432.947" y2="33.6257" gradientUnits="userSpaceOnUse">
<stop stop-color="#FFB7BA"/>
<stop offset="1" stop-color="#CF4F54"/>
</linearGradient>
<linearGradient id="paint76_linear_1_18315" x1="995.65" y1="43.1066" x2="985.599" y2="13.7256" gradientUnits="userSpaceOnUse">
<stop stop-color="#FFB7BA"/>
<stop offset="1" stop-color="#CF4F54"/>
</linearGradient>
<linearGradient id="paint77_linear_1_18315" x1="440.56" y1="87.6363" x2="430.73" y2="103.104" gradientUnits="userSpaceOnUse">
<stop stop-color="#FFB7BA"/>
<stop offset="1" stop-color="#CF4F54"/>
</linearGradient>
<linearGradient id="paint78_linear_1_18315" x1="432.054" y1="74.8067" x2="426.534" y2="91.3369" gradientUnits="userSpaceOnUse">
<stop offset="0.384076" stop-color="#9BBAFF"/>
<stop offset="1" stop-color="#356BE1"/>
</linearGradient>
<linearGradient id="paint79_linear_1_18315" x1="1082.42" y1="152.997" x2="1007.93" y2="119.361" gradientUnits="userSpaceOnUse">
<stop offset="0.384076" stop-color="#9BBAFF"/>
<stop offset="1" stop-color="#356BE1"/>
</linearGradient>
<linearGradient id="paint80_linear_1_18315" x1="1020.37" y1="183.829" x2="1010.07" y2="179.955" gradientUnits="userSpaceOnUse">
<stop stop-color="#E2888B"/>
<stop offset="1" stop-color="#BE3B40"/>
</linearGradient>
<linearGradient id="paint81_linear_1_18315" x1="1018.67" y1="185.865" x2="1000.88" y2="179.177" gradientUnits="userSpaceOnUse">
<stop stop-color="#E2888B"/>
<stop offset="1" stop-color="#BE3B40"/>
</linearGradient>
<linearGradient id="paint82_linear_1_18315" x1="1015.62" y1="179.71" x2="1009.16" y2="177.286" gradientUnits="userSpaceOnUse">
<stop stop-color="#D88E91"/>
<stop offset="1" stop-color="#BC4347"/>
</linearGradient>
<linearGradient id="paint83_linear_1_18315" x1="1014.61" y1="48.8583" x2="1020.98" y2="66.5529" gradientUnits="userSpaceOnUse">
<stop offset="0.384076" stop-color="#D3E7DD"/>
<stop offset="1" stop-color="#B0D2BC"/>
</linearGradient>
<linearGradient id="paint84_linear_1_18315" x1="1007.42" y1="62.868" x2="1010.78" y2="71.9567" gradientUnits="userSpaceOnUse">
<stop offset="0.384076" stop-color="#BFE4D2"/>
<stop offset="1" stop-color="#71A784"/>
</linearGradient>
<linearGradient id="paint85_linear_1_18315" x1="797.389" y1="370.157" x2="832.82" y2="467.43" gradientUnits="userSpaceOnUse">
<stop stop-color="#E0F2FF"/>
<stop offset="1" stop-color="#EBF6FF"/>
</linearGradient>
<clipPath id="clip0_1_18315">
<rect width="1512" height="410" fill="white" transform="translate(-36 -30)"/>
</clipPath>
<clipPath id="clip1_1_18315">
<rect width="990.087" height="742.565" fill="white" transform="translate(225.133 -30)"/>
</clipPath>
<clipPath id="clip2_1_18315">
<rect width="990.087" height="742.565" fill="white" transform="translate(225.133 -30)"/>
</clipPath>
<clipPath id="clip3_1_18315">
<rect width="990.087" height="742.565" fill="white" transform="translate(225.133 -30)"/>
</clipPath>
<clipPath id="clip4_1_18315">
<rect width="139.387" height="140.346" fill="white" transform="translate(1029.35 217.555)"/>
</clipPath>
<clipPath id="clip5_1_18315">
<rect width="50" height="148" fill="white" transform="translate(1140.53 235.859)"/>
</clipPath>
</defs>
</svg>
