<svg width="430" height="514" viewBox="0 0 430 514" fill="none" xmlns="http://www.w3.org/2000/svg">
<g clip-path="url(#clip0_687_14521)">
<path opacity="0.6" d="M-57.4564 231.586C-75.7122 214.845 -98.3051 236.588 -97.0394 262.335C-118.431 275.83 -123.33 314.092 -118.432 331.666C-116.717 337.834 -112.514 342.796 -105.224 344.689C-107.141 350.448 -106.711 355.497 -101.465 359.085C-104.965 359.534 -106.869 361.356 -107.812 364.019C-123.905 356.405 -138.36 370.292 -125.906 383.548C-130.753 382.59 -132.943 384.445 -133.664 387.866C-143.145 388.093 -149.511 391.15 -151.524 398.154C-155.422 395.27 -158.46 396.233 -160.922 399.793C-162.004 397.877 -163.251 396.221 -164.605 394.81C-176.673 382.268 -197.786 388.974 -195.476 405.552C-200.596 403.669 -203.824 405.219 -205.811 409.051C-206.906 406.698 -208.817 405.28 -211.006 404.688C-218.461 402.65 -229.08 410.125 -221.087 422.207C-224.606 424.948 -225.315 427.694 -223.195 430.435C-228.428 431.271 -231.789 433.89 -233.542 438.037C-246.092 437.151 -251.155 442.3 -249.522 452.843C-256.559 451.73 -260.293 454.426 -260.799 460.86C-264.565 459.725 -267.381 460.617 -271.147 462.3C-278.729 465.301 -286.525 467.366 -294.145 468.584C-311.814 471.419 -328.534 469.769 -339.483 464.996C-339.451 465.018 -339.394 465.047 -339.312 465.091C-339.249 465.124 -339.185 465.158 -339.116 465.196C-339.071 465.218 -339.033 465.241 -338.983 465.263C-329.401 470.384 -316.497 473.784 -295.113 472.787C-291.575 475.229 -284.304 475.456 -281.715 472.167C-278.886 473.584 -276.374 473.164 -274.197 470.933C-274.184 471.082 -274.153 471.22 -274.102 471.358C-271.893 477.637 -234.315 474.742 -234.96 468.059C-206.399 472.992 -125.197 467.859 -133.671 461.686C-141.791 455.767 -168.447 455.518 -168.447 455.518C-191.248 453.563 -73.7404 445.955 -93.7181 454.692C-112.781 463.034 -90.7384 462.098 -90.6683 462.095C-79.8778 461.485 -68.7447 461.327 -58.2865 461.422L-58.2152 481.291L-58.2142 481.298L-58.222 481.306C-58.2196 481.307 -58.2167 481.309 -58.2142 481.311L-58.1215 508.788L-58.1205 508.787V508.795C-60.4137 530.766 245.7 541.834 242.653 520.929C245.327 524.065 248.413 524.657 251.887 522.665C255.067 527.288 263.999 526.968 268.344 523.536C294.611 524.937 310.461 520.158 322.23 512.959C322.177 512.99 322.118 513.02 322.058 513.054C322.115 513.019 322.173 512.987 322.229 512.952C322.291 512.921 322.338 512.889 322.392 512.858C322.478 512.804 322.556 512.758 322.633 512.711C322.734 512.649 322.805 512.609 322.843 512.578C309.395 519.287 288.858 521.607 267.154 517.622C257.795 515.91 248.218 513.006 238.905 508.788C234.28 506.422 230.82 505.169 226.195 506.765C225.573 497.721 220.987 493.931 212.342 495.495C214.348 480.676 208.129 473.437 192.714 474.683C190.561 468.853 186.433 465.172 180.005 463.997C182.609 460.145 181.738 456.284 177.417 452.432C187.235 435.449 174.19 424.942 165.033 427.806C162.343 428.638 159.996 430.631 158.651 433.938C156.21 428.553 152.245 426.373 145.957 429.02C148.794 405.718 122.862 396.293 108.038 413.921C106.374 415.906 104.843 418.233 103.513 420.926C100.489 415.921 96.7579 414.567 91.9694 418.622C89.4974 408.777 81.6775 404.48 70.0328 404.161C69.1467 399.351 66.4569 396.744 60.5026 398.09C75.6388 379.654 58.4176 360.351 38.9039 370.312C38.6219 370.135 38.3206 369.973 37.9996 369.825C37.136 367.525 35.7563 365.74 33.651 364.673C33.6513 364.66 33.6517 364.647 33.652 364.635C33.682 363.253 33.6307 361.925 33.5055 360.652C37.0215 355.96 37.0113 350.043 35.0983 343.469C44.0534 340.807 49.2153 333.833 51.3219 325.163C57.3384 300.46 38.6898 261.895 13.1617 269.483C14.4121 240.372 -20.0844 233.177 -34.4369 250.316C-41.9211 250.593 -49.1337 254.579 -49.5804 262.353C-53.3502 247.226 -57.2867 231.391 -57.4564 231.586ZM38.2545 370.566C38.2958 370.573 38.3372 370.579 38.3785 370.586C38.3451 370.604 38.3114 370.622 38.278 370.64C38.2704 370.615 38.2622 370.591 38.2545 370.566ZM71.6393 271.901C71.6393 271.901 75.713 274.944 78.1539 276.454C80.5948 277.972 84.7074 278.315 89.3326 279.202C93.9582 280.09 105.229 282.821 105.229 282.821C105.229 282.821 95.4345 278.773 92.566 277.489C89.6977 276.205 82.3678 275.396 79.5846 274.797C76.7939 274.198 71.6393 271.901 71.6393 271.901ZM-49.4135 262.733C-46.6305 259.929 -42.87 258.693 -39.1312 258.974C-39.9133 261.445 -40.4019 264.176 -40.5306 267.172C-40.9193 266.596 -41.3307 266.059 -41.7504 265.568C-44.0341 262.977 -46.6862 262.066 -49.4135 262.733ZM204.126 218.562C202.44 218.787 200.259 219.132 200.087 219.159C200.354 227.181 187.829 225.881 184.216 225.388C194.47 226.885 204.769 228.688 214.939 229.608C214.732 229.628 214.525 229.646 214.318 229.662L225.916 231.094L234.871 231.662C229.017 230.666 223.529 229.701 223.397 227.28C221.682 228.584 218.371 229.281 215.055 229.597C203.595 226.329 203.025 221.596 204.126 218.562ZM226.708 225.652C218.818 226.75 238.749 231.232 242.411 230.897C240.382 229.403 237.933 228.003 235.5 227.123V227.131C232.631 226.096 229.506 225.543 226.708 225.652ZM183.261 225.256C183.317 225.257 183.662 225.312 184.216 225.388C183.901 225.342 183.585 225.294 183.269 225.248L183.261 225.256ZM200.076 219.161C200.077 219.161 200.08 219.16 200.087 219.159C200.085 219.121 200.085 219.083 200.084 219.045C200.084 219.084 200.076 219.122 200.076 219.161ZM138.781 207.299C138.936 206.925 139.068 206.567 139.162 206.232L138.781 207.299Z" fill="url(#paint0_linear_687_14521)"/>
<g opacity="0.75">
<mask id="mask0_687_14521" style="mask-type:alpha" maskUnits="userSpaceOnUse" x="-459" y="0" width="932" height="931">
<rect width="930.923" height="930.923" transform="translate(-458.911)" fill="url(#paint1_radial_687_14521)"/>
</mask>
<g mask="url(#mask0_687_14521)">
<g clip-path="url(#clip1_687_14521)">
<g clip-path="url(#clip2_687_14521)">
<line x1="6.98181" x2="6.98181" y2="930.923" stroke="#D0D5DD" stroke-width="0.646475"/>
<line x1="58.6997" x2="58.6997" y2="930.923" stroke="#D0D5DD" stroke-width="0.646475"/>
<line x1="110.418" x2="110.418" y2="930.923" stroke="#D0D5DD" stroke-width="0.646475"/>
<line x1="162.136" x2="162.136" y2="930.923" stroke="#D0D5DD" stroke-width="0.646475"/>
<line x1="213.854" x2="213.854" y2="930.923" stroke="#D0D5DD" stroke-width="0.646475"/>
<line x1="265.572" x2="265.572" y2="930.923" stroke="#D0D5DD" stroke-width="0.646475"/>
<line x1="317.29" x2="317.29" y2="930.923" stroke="#D0D5DD" stroke-width="0.646475"/>
<line x1="369.007" x2="369.007" y2="930.923" stroke="#D0D5DD" stroke-width="0.646475"/>
<line x1="420.726" x2="420.726" y2="930.923" stroke="#D0D5DD" stroke-width="0.646475"/>
</g>
<g clip-path="url(#clip3_687_14521)">
<line x1="-613.957" y1="51.3948" x2="627.274" y2="51.3948" stroke="#D0D5DD" stroke-width="0.646475"/>
<line x1="-613.957" y1="103.113" x2="627.274" y2="103.113" stroke="#D0D5DD" stroke-width="0.646475"/>
<line x1="-613.957" y1="154.831" x2="627.275" y2="154.831" stroke="#D0D5DD" stroke-width="0.646475"/>
<line x1="-613.957" y1="206.549" x2="627.274" y2="206.549" stroke="#D0D5DD" stroke-width="0.646475"/>
<line x1="-613.957" y1="258.267" x2="627.275" y2="258.267" stroke="#D0D5DD" stroke-width="0.646475"/>
<line x1="-613.957" y1="309.985" x2="627.274" y2="309.985" stroke="#D0D5DD" stroke-width="0.646475"/>
<line x1="-613.957" y1="361.703" x2="627.274" y2="361.703" stroke="#D0D5DD" stroke-width="0.646475"/>
<line x1="-613.957" y1="413.42" x2="627.275" y2="413.42" stroke="#D0D5DD" stroke-width="0.646475"/>
<line x1="-613.957" y1="465.138" x2="627.274" y2="465.138" stroke="#D0D5DD" stroke-width="0.646475"/>
</g>
</g>
</g>
</g>
<path d="M149.682 476.67C146.267 468.792 128.55 418.661 116.391 397.88C112.999 398.607 107.945 401.199 104.052 402.859C90.7774 408.521 76.2188 413.614 62.2947 419.275C69.4973 432.404 74.9456 446.44 80.3714 460.429C84.1969 470.29 88.0216 480.152 91.8471 490.013C92.906 492.742 93.656 494.743 95.0847 497.108C100.772 495.277 109.059 492.702 114.055 489.383C115.752 488.256 117.403 487.046 119.211 486.12C121.326 485.038 123.615 484.364 125.889 483.697C133.891 481.35 141.678 479.018 149.682 476.67Z" fill="url(#paint2_linear_687_14521)"/>
<path d="M147.948 475.876C144.473 467.998 126.445 417.868 114.071 397.086C110.619 397.814 105.477 400.406 101.515 402.066C88.0073 407.728 73.1929 412.821 59.0238 418.481C66.3536 431.61 71.8971 445.647 77.4188 459.635C81.3111 469.497 85.2043 479.359 89.0966 489.22C90.1736 491.949 90.9374 493.95 92.3909 496.314C98.1786 494.484 106.611 491.909 111.695 488.589C113.421 487.463 115.101 486.253 116.942 485.327C119.094 484.245 121.423 483.571 123.737 482.904C131.881 480.557 139.804 478.225 147.948 475.876Z" fill="white"/>
<path d="M147.948 471.146C144.473 463.268 126.445 413.137 114.071 392.356C110.619 393.084 105.477 395.675 101.515 397.336C88.0073 402.997 73.1929 408.091 59.0238 413.751C66.3536 426.88 71.8971 440.916 77.4188 454.905C81.3111 464.766 85.2043 474.628 89.0966 484.49C90.1736 487.218 90.9374 489.219 92.3909 491.584C98.1786 489.753 106.611 487.178 111.695 483.859C113.421 482.733 115.101 481.523 116.942 480.596C119.094 479.514 121.423 478.841 123.737 478.173C131.881 475.827 139.804 473.495 147.948 471.146Z" fill="url(#paint3_linear_687_14521)"/>
<path d="M117.189 423.326C114.767 418.241 112.71 413.143 111.243 407.705C101.869 410.789 76.853 420.124 76.853 420.124C78.8668 425.412 80.8806 430.699 82.8943 435.988C86.0454 435.405 97.854 431.35 100.752 430.032C106.132 427.584 111.807 425.773 117.189 423.326Z" stroke="#8FBDA0" stroke-width="2.50732" stroke-miterlimit="10" stroke-linecap="round" stroke-linejoin="round"/>
<path d="M65.1948 416.786C63.383 416.854 61.612 417.682 60.3969 419.029C59.6396 419.869 59.08 420.981 59.2312 422.102C59.3823 423.224 60.4456 424.247 61.5589 424.052" stroke="#8FBDA0" stroke-width="2.50732" stroke-miterlimit="10" stroke-linecap="round" stroke-linejoin="round"/>
<path d="M67.9449 424.164C66.6615 424.348 65.3708 424.74 64.365 425.56C63.36 426.38 62.687 427.689 62.8796 428.972C63.0714 430.256 64.2836 431.383 65.5729 431.242" stroke="#8FBDA0" stroke-width="2.50732" stroke-miterlimit="10" stroke-linecap="round" stroke-linejoin="round"/>
<path d="M72.0997 431.795C70.9304 432.172 69.74 432.56 68.7393 433.274C67.7386 433.988 66.9392 435.094 66.9036 436.323C66.868 437.553 67.7895 438.829 69.0155 438.904" stroke="#8FBDA0" stroke-width="2.50732" stroke-miterlimit="10" stroke-linecap="round" stroke-linejoin="round"/>
<path d="M72.0683 446.886C71.2006 446.256 70.976 444.974 71.3794 443.98C71.7834 442.986 72.6969 442.269 73.6896 441.865C74.6823 441.46 75.7615 441.328 76.8254 441.198" stroke="#8FBDA0" stroke-width="2.50732" stroke-miterlimit="10" stroke-linecap="round" stroke-linejoin="round"/>
<path d="M75.57 455.581C75.195 455.661 74.8454 455.349 74.6609 455.012C73.9603 453.729 74.7386 452.05 75.9457 451.228C77.1528 450.406 78.6601 450.204 80.0975 449.945" stroke="#8FBDA0" stroke-width="2.50732" stroke-miterlimit="10" stroke-linecap="round" stroke-linejoin="round"/>
<path d="M79.3694 463.579C78.1783 463.73 77.2525 462.282 77.5504 461.117C77.8484 459.952 78.953 459.163 80.086 458.763C81.219 458.364 82.4355 458.253 83.575 457.873" stroke="#8FBDA0" stroke-width="2.50732" stroke-miterlimit="10" stroke-linecap="round" stroke-linejoin="round"/>
<path d="M83.0057 472.441C82.0064 472.776 80.9693 471.696 80.9955 470.641C81.0216 469.586 81.7688 468.686 82.5892 468.024C83.7055 467.123 85.0347 466.488 86.4358 466.186" stroke="#8FBDA0" stroke-width="2.50732" stroke-miterlimit="10" stroke-linecap="round" stroke-linejoin="round"/>
<path d="M86.1219 480.243C85.1452 479.998 84.7222 478.711 85.1074 477.779C85.4926 476.848 86.4337 476.261 87.3893 475.943C88.345 475.624 89.3595 475.512 90.313 475.189" stroke="#8FBDA0" stroke-width="2.50732" stroke-miterlimit="10" stroke-linecap="round" stroke-linejoin="round"/>
<path d="M89.3844 488.493C88.335 488.38 87.4993 487.284 87.6657 486.241C87.7355 485.805 87.9499 485.406 88.1999 485.043C89.2427 483.527 90.9861 482.518 92.8182 482.369" stroke="#8FBDA0" stroke-width="2.50732" stroke-miterlimit="10" stroke-linecap="round" stroke-linejoin="round"/>
<path d="M83.4823 423.626C92.1028 420.257 100.749 416.955 109.419 413.718" stroke="#8FBDA0" stroke-width="2.50732" stroke-miterlimit="10" stroke-linecap="round" stroke-linejoin="round"/>
<path d="M86.4554 427.191C91.8761 425.116 97.2968 423.041 102.717 420.967" stroke="#8FBDA0" stroke-width="2.50732" stroke-miterlimit="10" stroke-linecap="round" stroke-linejoin="round"/>
<path d="M35.5845 467.433C43.0247 466.151 50.5004 467.747 56.6313 471.927C61.8663 475.497 65.5689 480.539 67.0581 486.125C68.77 492.544 67.5065 499.676 63.689 505.452C73.3094 511.338 80.67 515.902 88.6851 522.667C90.7301 524.392 92.6831 527.192 91.481 529.584C90.4978 531.539 84.9027 532.036 74.0308 522.865C69.3957 518.955 64.5001 515.366 59.686 511.677L60.8501 509.003C57.1347 512.895 52.1655 515.719 46.5542 517.074C45.8789 517.237 45.1952 517.379 44.5249 517.495C42.1182 517.91 39.748 518.014 37.4819 517.805C28.3524 516.965 19.8417 510.539 16.3032 501.814C13.1968 494.152 13.4324 486.426 16.9673 480.058C20.5878 473.538 27.5473 468.819 35.5845 467.433ZM53.3335 476.777C37.6419 466.077 13.2142 478.592 21.7329 499.606C24.4703 506.359 31.0065 511.318 38.019 511.964C40.4197 512.184 42.8432 511.936 45.1812 511.371C50.2774 510.14 55.0791 507.308 58.2476 503.011C61.4152 498.714 62.8001 492.899 61.3979 487.638C60.2008 483.148 57.0962 479.343 53.3335 476.777Z" fill="url(#paint4_linear_687_14521)"/>
<path d="M149.243 28.3514C158.47 36.4324 167.058 45.3335 175.456 54.2527C175.456 54.2527 178.62 62.9954 177.162 64.1733C175.705 65.3511 167.11 61.9023 167.11 61.9023C159.674 55.645 147.266 43.5182 140.827 37.2577C138.79 35.2761 138.858 31.9717 140.995 30.0946C141.531 29.6226 142.052 29.1317 142.546 28.6241C144.35 26.7685 147.298 26.6481 149.243 28.3514Z" fill="url(#paint5_linear_687_14521)"/>
<path d="M158.32 48.3834C160.418 50.3168 162.695 52.2437 165.467 52.9113C166.108 52.3674 165.861 51.3368 165.517 50.5698C164.073 47.3491 161.867 44.5379 159.317 42.1207C157.85 40.7297 153.768 36.3634 151.542 37.1127C146.832 38.7 157.099 47.2597 158.32 48.3834Z" fill="url(#paint6_linear_687_14521)"/>
<path d="M143.393 38.409C145.543 35.7315 147.692 33.0539 149.841 30.3756" stroke="url(#paint7_linear_687_14521)" stroke-width="2.50732" stroke-miterlimit="10" stroke-linecap="round" stroke-linejoin="round"/>
<path d="M141.227 37.1108C143.507 34.0717 146.03 31.2151 148.763 28.5768" stroke="url(#paint8_linear_687_14521)" stroke-width="2.50732" stroke-miterlimit="10" stroke-linecap="round" stroke-linejoin="round"/>
<path d="M167.31 61.8534C169.686 58.8304 172.249 55.9544 174.978 53.2458" stroke="url(#paint9_linear_687_14521)" stroke-width="2.50732" stroke-miterlimit="10" stroke-linecap="round" stroke-linejoin="round"/>
<path d="M165.901 59.4947C168.195 56.985 170.388 54.3832 172.473 51.6969" stroke="url(#paint10_linear_687_14521)" stroke-width="2.50732" stroke-miterlimit="10" stroke-linecap="round" stroke-linejoin="round"/>
<path d="M-18.126 342.83C-21.0765 342.479 -22.897 337.834 -21.1586 335.483C-15.2147 327.447 1.46014 313.186 1.46014 313.186C1.46014 313.186 5.10614 298.691 6.13737 294.573C8.28777 295.262 16.0798 296.895 16.0798 296.895L13.0595 315.895C13.0595 315.895 22.0637 338.675 24.4335 344.019C29.1624 354.681 16.7723 351.112 11.3408 349.656C1.60694 347.048 -8.06803 344.026 -18.126 342.83Z" fill="#D9D9D9"/>
<path d="M-18.126 342.83C-21.0765 342.479 -22.897 337.834 -21.1586 335.483C-15.2147 327.447 1.46014 313.186 1.46014 313.186C1.46014 313.186 5.10614 298.691 6.13737 294.573C8.28777 295.262 16.0798 296.895 16.0798 296.895L13.0595 315.895C13.0595 315.895 22.0637 338.675 24.4335 344.019C29.1624 354.681 16.7723 351.112 11.3408 349.656C1.60694 347.048 -8.06803 344.026 -18.126 342.83Z" fill="url(#paint11_linear_687_14521)"/>
<path d="M-18.126 342.83C-21.0765 342.479 -22.897 337.834 -21.1586 335.483C-15.2147 327.447 1.46014 313.186 1.46014 313.186C1.46014 313.186 5.10614 298.691 6.13737 294.573C8.28777 295.262 16.0798 296.895 16.0798 296.895L13.0595 315.895C13.0595 315.895 22.0637 338.675 24.4335 344.019C29.1624 354.681 16.7723 351.112 11.3408 349.656C1.60694 347.048 -8.06803 344.026 -18.126 342.83Z" fill="url(#paint12_linear_687_14521)"/>
<path d="M2.01257 317.913C1.80803 317.505 8.28007 319.473 9.97449 319.66C13.6517 327.711 16.5053 335.447 19.5321 343.629C19.9856 344.856 18.9438 346.129 17.619 345.95C10.7398 345.018 3.86197 342.982 -2.83411 341.349C-6.56805 340.438 -9.78482 339.495 -13.2491 338.462C-14.5863 338.063 -14.955 336.39 -13.9034 335.492C-12.3898 334.2 -10.9608 332.809 -9.56848 331.391C-5.40811 327.154 -1.53666 322.648 2.01257 317.913ZM8.39539 340.232C9.35609 338.73 6.25105 338.114 6.43542 339.854C6.51753 340.632 7.41482 340.921 8.02527 340.58C8.16912 340.5 8.29729 340.384 8.39539 340.232ZM13.5585 336.038C13.0919 335.585 12.3057 335.485 11.7352 335.804L11.6532 335.642C10.7684 336.075 10.4435 337.386 11.0927 338.138C11.7859 338.94 13.3098 338.785 13.8173 337.86C14.1348 337.28 14.0352 336.502 13.5585 336.038ZM-7.57922 336.85C-5.9548 336.06 -8.27007 333.951 -9.047 335.528C-9.39437 336.233 -8.78465 336.938 -8.08118 336.958C-7.91488 336.963 -7.74333 336.93 -7.57922 336.85ZM0.262573 331.3C-0.272963 331.04 -0.79775 331.297 -1.38196 331.427C-2.45818 331.666 -3.29545 332.687 -3.297 333.763C-3.29845 334.84 -2.46338 335.863 -1.38782 336.104C-0.411103 336.323 0.965562 336.161 1.50476 335.337C2.04388 334.514 1.95505 333.405 1.49011 332.54C1.2118 332.024 0.798832 331.561 0.262573 331.3ZM8.23718 329.219C7.85707 327.489 5.18496 329.15 6.55847 330.276C7.17327 330.779 8.02414 330.379 8.2196 329.72C8.26599 329.564 8.27566 329.395 8.23718 329.219ZM4.54968 322.639C4.08312 322.186 3.29853 322.085 2.72742 322.405L2.64539 322.242C1.76018 322.675 1.4339 323.986 2.08386 324.739C2.7771 325.541 4.30205 325.386 4.80945 324.46C5.12703 323.881 5.02642 323.102 4.54968 322.639Z" fill="#00BB72"/>
<path d="M2.01257 317.913C1.80803 317.505 8.28007 319.473 9.97449 319.66C13.6517 327.711 16.5053 335.447 19.5321 343.629C19.9856 344.856 18.9438 346.129 17.619 345.95C10.7398 345.018 3.86197 342.982 -2.83411 341.349C-6.56805 340.438 -9.78482 339.495 -13.2491 338.462C-14.5863 338.063 -14.955 336.39 -13.9034 335.492C-12.3898 334.2 -10.9608 332.809 -9.56848 331.391C-5.40811 327.154 -1.53666 322.648 2.01257 317.913ZM8.39539 340.232C9.35609 338.73 6.25105 338.114 6.43542 339.854C6.51753 340.632 7.41482 340.921 8.02527 340.58C8.16912 340.5 8.29729 340.384 8.39539 340.232ZM13.5585 336.038C13.0919 335.585 12.3057 335.485 11.7352 335.804L11.6532 335.642C10.7684 336.075 10.4435 337.386 11.0927 338.138C11.7859 338.94 13.3098 338.785 13.8173 337.86C14.1348 337.28 14.0352 336.502 13.5585 336.038ZM-7.57922 336.85C-5.9548 336.06 -8.27007 333.951 -9.047 335.528C-9.39437 336.233 -8.78465 336.938 -8.08118 336.958C-7.91488 336.963 -7.74333 336.93 -7.57922 336.85ZM0.262573 331.3C-0.272963 331.04 -0.79775 331.297 -1.38196 331.427C-2.45818 331.666 -3.29545 332.687 -3.297 333.763C-3.29845 334.84 -2.46338 335.863 -1.38782 336.104C-0.411103 336.323 0.965562 336.161 1.50476 335.337C2.04388 334.514 1.95505 333.405 1.49011 332.54C1.2118 332.024 0.798832 331.561 0.262573 331.3ZM8.23718 329.219C7.85707 327.489 5.18496 329.15 6.55847 330.276C7.17327 330.779 8.02414 330.379 8.2196 329.72C8.26599 329.564 8.27566 329.395 8.23718 329.219ZM4.54968 322.639C4.08312 322.186 3.29853 322.085 2.72742 322.405L2.64539 322.242C1.76018 322.675 1.4339 323.986 2.08386 324.739C2.7771 325.541 4.30205 325.386 4.80945 324.46C5.12703 323.881 5.02642 323.102 4.54968 322.639Z" fill="url(#paint13_linear_687_14521)"/>
<path d="M2.01257 317.913C1.80803 317.505 8.28007 319.473 9.97449 319.66C13.6517 327.711 16.5053 335.447 19.5321 343.629C19.9856 344.856 18.9438 346.129 17.619 345.95C10.7398 345.018 3.86197 342.982 -2.83411 341.349C-6.56805 340.438 -9.78482 339.495 -13.2491 338.462C-14.5863 338.063 -14.955 336.39 -13.9034 335.492C-12.3898 334.2 -10.9608 332.809 -9.56848 331.391C-5.40811 327.154 -1.53666 322.648 2.01257 317.913ZM8.39539 340.232C9.35609 338.73 6.25105 338.114 6.43542 339.854C6.51753 340.632 7.41482 340.921 8.02527 340.58C8.16912 340.5 8.29729 340.384 8.39539 340.232ZM13.5585 336.038C13.0919 335.585 12.3057 335.485 11.7352 335.804L11.6532 335.642C10.7684 336.075 10.4435 337.386 11.0927 338.138C11.7859 338.94 13.3098 338.785 13.8173 337.86C14.1348 337.28 14.0352 336.502 13.5585 336.038ZM-7.57922 336.85C-5.9548 336.06 -8.27007 333.951 -9.047 335.528C-9.39437 336.233 -8.78465 336.938 -8.08118 336.958C-7.91488 336.963 -7.74333 336.93 -7.57922 336.85ZM0.262573 331.3C-0.272963 331.04 -0.79775 331.297 -1.38196 331.427C-2.45818 331.666 -3.29545 332.687 -3.297 333.763C-3.29845 334.84 -2.46338 335.863 -1.38782 336.104C-0.411103 336.323 0.965562 336.161 1.50476 335.337C2.04388 334.514 1.95505 333.405 1.49011 332.54C1.2118 332.024 0.798832 331.561 0.262573 331.3ZM8.23718 329.219C7.85707 327.489 5.18496 329.15 6.55847 330.276C7.17327 330.779 8.02414 330.379 8.2196 329.72C8.26599 329.564 8.27566 329.395 8.23718 329.219ZM4.54968 322.639C4.08312 322.186 3.29853 322.085 2.72742 322.405L2.64539 322.242C1.76018 322.675 1.4339 323.986 2.08386 324.739C2.7771 325.541 4.30205 325.386 4.80945 324.46C5.12703 323.881 5.02642 323.102 4.54968 322.639Z" fill="url(#paint14_linear_687_14521)"/>
<path d="M30.283 104.439C31.2919 101.605 34.5753 99.6877 37.5417 100.16C43.3851 101.091 49.3152 102.032 54.7136 104.462C57.9481 105.919 61.2682 108.403 61.5476 111.943C61.657 113.332 61.2703 114.707 60.8884 116.047C58.0726 125.919 55.258 135.792 52.4421 145.664C52.1356 146.737 51.8863 149.138 51.5535 150.115C50.5742 152.99 47.6247 154.678 44.6443 154.107C37.5684 152.75 29.8961 150.296 23.5271 147.484C22.1687 146.884 20.7451 146.196 19.9578 144.937C19.2975 143.88 19.186 142.576 19.1833 141.33C19.172 136.484 21.9948 130.026 23.3953 125.386C25.52 118.349 27.8166 111.364 30.283 104.439ZM47.2029 145.123C47.7897 142.949 45.1773 141.086 43.3923 142.553C42.7488 143.083 42.4042 143.943 42.4636 144.774C42.4855 145.081 42.5601 145.388 42.7107 145.656C43.639 147.317 46.7052 146.964 47.2029 145.123ZM36.738 139.773C35.1168 138.21 32.2282 139.605 32.6521 141.877C32.8055 142.697 33.3926 143.414 34.1492 143.762C34.4285 143.891 34.7325 143.973 35.0408 143.971C36.9413 143.957 38.1096 141.096 36.738 139.773ZM28.2273 137.557C27.4232 135.832 24.3384 135.96 23.7078 137.759C22.9635 139.885 25.4317 141.934 27.3191 140.603C28.0004 140.122 28.407 139.289 28.408 138.455C28.4088 138.148 28.3569 137.836 28.2273 137.557ZM49.9412 137.012C50.528 134.837 47.9146 132.975 46.1296 134.442C45.4861 134.971 45.1424 135.831 45.2019 136.662C45.2238 136.969 45.2983 137.277 45.449 137.545C46.3777 139.205 49.4435 138.852 49.9412 137.012ZM39.4753 131.664C37.8541 130.101 34.9666 131.496 35.3904 133.768C35.5436 134.588 36.1298 135.305 36.8865 135.654C37.1658 135.782 37.4699 135.864 37.7781 135.863C39.6786 135.849 40.8469 132.988 39.4753 131.664ZM30.9626 129.448C30.1586 127.724 27.0739 127.851 26.4431 129.65C25.6987 131.776 28.168 133.826 30.0554 132.494C30.7368 132.014 31.1434 131.18 31.1443 130.346C31.1451 130.038 31.0922 129.727 30.9626 129.448ZM52.6492 128.047C53.236 125.872 50.6236 124.009 48.8386 125.476C48.195 126.005 47.8505 126.865 47.9099 127.698C47.9318 128.004 48.0063 128.312 48.157 128.58C49.0854 130.241 52.1514 129.887 52.6492 128.047ZM42.1833 122.696C40.5631 121.132 37.6739 122.527 38.0974 124.799C38.2507 125.619 38.837 126.336 39.5935 126.685C39.8728 126.814 40.177 126.895 40.4851 126.894C42.3856 126.88 43.5548 124.019 42.1833 122.696ZM33.6736 120.483C32.8696 118.758 29.7847 118.885 29.1541 120.685C28.409 122.811 30.8781 124.86 32.7654 123.529C33.4458 123.048 33.8533 122.215 33.8542 121.381C33.8551 121.073 33.8032 120.762 33.6736 120.483ZM40.0222 106.586C37.28 105.55 32.6557 105.778 33.1179 109.781C33.4078 112.289 36.4489 113.891 38.4265 114.849C41.7984 116.482 45.6069 118.18 49.3826 118.785C50.5991 118.98 51.8378 118.899 52.9001 118.597C55.8358 117.763 57.4317 115.248 53.5232 112.225C52.2883 111.269 50.8077 110.692 49.3503 110.132C46.2457 108.939 43.1339 107.763 40.0222 106.586Z" fill="url(#paint15_linear_687_14521)"/>
<path opacity="0.35" d="M86.659 234.669C84.7317 234.109 82.0537 233.891 80.0762 233.551C78.5508 231.282 77.7093 228.865 76.0625 226.683C75.8634 229.504 75.0066 231.367 74.8074 234.187C72.9543 234.802 70.7436 235.795 68.8003 235.98C70.825 237.367 72.7617 238.498 74.5349 239.463C73.6963 241.26 72.8998 244.101 72.4296 245.975C74.484 244.63 76.5102 243.006 78.2594 241.282C79.9658 242.475 81.9926 244.405 83.2608 246.058C82.8305 243.48 82.8611 240.982 82.1808 238.459C83.7942 237.475 85.1132 235.759 86.659 234.669Z" stroke="url(#paint16_radial_687_14521)" stroke-width="2.50732" stroke-miterlimit="10" stroke-linecap="round" stroke-linejoin="round"/>
<path opacity="0.3" d="M108.206 145.058C106.936 144.689 105.172 144.545 103.869 144.321C102.864 142.826 102.31 141.234 101.225 139.796C101.094 141.654 100.529 142.882 100.398 144.74C99.1769 145.145 97.7204 145.799 96.4401 145.922C97.774 146.835 99.05 147.581 100.218 148.216C99.6657 149.4 99.141 151.272 98.8312 152.507C100.185 151.62 101.52 150.55 102.672 149.414C103.796 150.201 105.132 151.472 105.967 152.561C105.684 150.863 105.704 149.217 105.256 147.555C106.319 146.906 107.188 145.776 108.206 145.058Z" stroke="url(#paint17_radial_687_14521)" stroke-width="2.50732" stroke-miterlimit="10" stroke-linecap="round" stroke-linejoin="round"/>
<path opacity="0.3" d="M94.4862 56.8273C92.8035 56.3388 90.4654 56.1482 88.739 55.8509C87.4072 53.8701 86.6724 51.7604 85.2347 49.8552C85.0608 52.3175 84.3127 53.9445 84.1389 56.4068C82.5209 56.9436 80.5908 57.8101 78.8942 57.9721C80.6619 59.1829 82.3528 60.1707 83.901 61.0125C83.1687 62.5822 82.4733 65.0623 82.0628 66.6988C83.8565 65.5241 85.6255 64.1062 87.1527 62.6006C88.6425 63.6425 90.4121 65.3278 91.5193 66.7705C91.1437 64.5204 91.1704 62.3389 90.5765 60.1364C91.985 59.2769 93.1367 57.7789 94.4862 56.8273Z" stroke="url(#paint18_radial_687_14521)" stroke-width="2.50732" stroke-miterlimit="10" stroke-linecap="round" stroke-linejoin="round"/>
<g opacity="0.3">
<path d="M32.1299 184.725C35.1749 184.132 38.1814 183.338 41.1232 182.353" stroke="url(#paint19_radial_687_14521)" stroke-width="2.50732" stroke-miterlimit="10" stroke-linecap="round" stroke-linejoin="round"/>
<path d="M32.4088 180.397C35.0599 182.678 37.8157 184.837 40.6645 186.864" stroke="url(#paint20_radial_687_14521)" stroke-width="2.50732" stroke-miterlimit="10" stroke-linecap="round" stroke-linejoin="round"/>
<path d="M35.4784 188.702C36.2386 185.582 36.8417 182.423 37.285 179.241" stroke="url(#paint21_radial_687_14521)" stroke-width="2.50732" stroke-miterlimit="10" stroke-linecap="round" stroke-linejoin="round"/>
</g>
<path opacity="0.3" d="M74.8615 300.794C73.7133 301.385 72.1668 301.043 71.3747 300.022C70.5825 299.002 70.6327 297.417 71.488 296.449C72.472 295.336 74.0323 295.189 75.0839 296.238C76.1347 297.287 76.1812 300.114 74.8615 300.794Z" stroke="url(#paint22_radial_687_14521)" stroke-width="2.50732" stroke-miterlimit="10" stroke-linecap="round" stroke-linejoin="round"/>
<path opacity="0.3" d="M55.1422 65.5437C52.6501 66.8276 49.2936 66.0838 47.5743 63.8697C45.8551 61.654 45.9639 58.2145 47.8204 56.1141C49.9561 53.6979 53.3425 53.3789 55.6249 55.6561C57.9057 57.9318 58.0066 64.0687 55.1422 65.5437Z" stroke="url(#paint23_radial_687_14521)" stroke-width="2.50732" stroke-miterlimit="10" stroke-linecap="round" stroke-linejoin="round"/>
<path opacity="0.3" d="M151.895 393.2C150.747 393.791 149.2 393.449 148.408 392.429C147.616 391.408 147.666 389.823 148.521 388.855C149.505 387.742 151.066 387.595 152.117 388.644C153.168 389.693 153.215 392.52 151.895 393.2Z" stroke="url(#paint24_radial_687_14521)" stroke-width="2.50732" stroke-miterlimit="10" stroke-linecap="round" stroke-linejoin="round"/>
<path d="M18.4878 369.725C21.1411 368.408 24.3852 369.993 26.3924 372.173C30.1315 376.236 31.2826 382.498 29.2332 387.628C28.0414 390.61 24.3721 393.395 21.8787 391.373C19.8766 389.749 20.7501 386.238 22.8823 384.79C25.2849 383.159 28.6715 383.459 31.0842 385.076C33.4969 386.693 35.0078 389.413 35.6946 392.237C36.3109 394.77 36.3021 397.551 35.1117 399.87C34.3123 401.428 31.5806 402.415 31.1874 400.707C31.1111 400.374 31.1743 400.025 31.2572 399.693C32.0704 396.428 34.8639 393.743 38.156 393.062C41.4481 392.382 45.0752 393.741 47.113 396.418" stroke="url(#paint25_linear_687_14521)" stroke-width="2.50732" stroke-miterlimit="10" stroke-linecap="round" stroke-linejoin="round"/>
<path d="M115.454 102.644C113.868 105.148 110.273 105.478 107.428 104.657C102.126 103.125 97.8976 98.3693 96.992 92.9194C96.4656 89.7506 98.1599 85.4642 101.339 85.8979C103.892 86.2465 104.964 89.7016 103.892 92.047C102.683 94.6895 99.632 96.1914 96.7316 96.0623C93.8312 95.9332 91.1299 94.392 89.0797 92.3345C87.2406 90.4892 85.8072 88.1071 85.6235 85.5063C85.4994 83.7587 87.3237 81.4964 88.5446 82.7521C88.7825 82.9974 88.9094 83.3288 89.0105 83.6555C90.0071 86.8697 89.0099 90.616 86.5479 92.9075C84.0858 95.1989 80.2807 95.9207 77.1516 94.6905" stroke="url(#paint26_linear_687_14521)" stroke-width="2.50732" stroke-miterlimit="10" stroke-linecap="round" stroke-linejoin="round"/>
<path d="M151.768 104.826C153.458 108.281 155.064 111.777 156.585 115.309C157.355 117.097 156.577 119.172 154.834 120.029C153.537 120.667 152.005 121.406 150.587 122.079C148.749 122.952 146.55 122.163 145.68 120.318C144.002 116.758 142.085 112.876 140.635 109.623" fill="url(#paint27_linear_687_14521)"/>
<path d="M141.232 110.922C139.364 107.09 137.599 103.207 135.94 99.2793C135.412 98.0307 135.919 96.5278 137.15 95.9632C137.157 95.9601 137.164 95.9569 137.171 95.9533L143.468 93.108C144.762 92.5228 146.282 93.0884 146.881 94.379C148.658 98.2077 150.8 102.528 152.384 106.096" fill="url(#paint28_linear_687_14521)"/>
<path d="M182.909 515.69C182.909 515.69 183.411 521.096 194.021 523.879C204.63 526.663 217.185 522.541 217.185 522.541C217.185 522.541 218.19 533.351 232.23 535.937C246.271 538.522 250.791 531.468 250.791 531.468C250.791 531.468 251.356 537.55 267.238 541.387C283.12 545.225 299.714 538.152 299.714 538.152C299.714 538.152 306.397 561.574 339.598 558.944C378.578 555.856 382.014 532.719 382.014 532.719C382.014 532.719 388.333 535.75 407.626 529.881C426.919 524.011 428.719 506.246 428.719 506.246C428.719 506.246 451.151 506.309 447.51 494.971C443.869 483.633 427.024 488.003 427.024 488.003C427.024 488.003 418.278 468.129 388.542 463.733C358.807 459.336 337.59 481.62 337.59 481.62C337.59 481.62 335.665 470.183 315.429 465.918C295.194 461.653 281.488 471.954 281.488 471.954C281.488 471.954 274.532 457.922 254.495 459.927C237.089 461.67 232.9 478.157 232.9 478.157C232.9 478.157 226.58 475.126 212.309 479.346C198.038 483.567 197.033 500.607 197.033 500.607C197.033 500.607 189.287 493.194 175.648 502.522C175.648 502.522 153.656 496 154.244 510.006C154.784 522.856 182.909 515.69 182.909 515.69Z" fill="url(#paint29_linear_687_14521)"/>
</g>
<path opacity="0.6" d="M466.991 198.673C483.312 183.707 503.51 203.145 502.379 226.163C521.504 238.227 525.883 272.434 521.504 288.146C519.971 293.66 516.213 298.096 509.695 299.789C511.41 304.937 511.025 309.451 506.335 312.659C509.464 313.06 511.167 314.688 512.01 317.069C526.397 310.263 539.32 322.677 528.186 334.528C532.519 333.672 534.477 335.33 535.122 338.389C543.597 338.592 549.289 341.325 551.088 347.586C554.573 345.007 557.289 345.868 559.49 349.051C560.458 347.339 561.573 345.858 562.783 344.596C573.573 333.385 592.447 339.379 590.382 354.2C594.959 352.517 597.845 353.903 599.621 357.329C600.6 355.225 602.308 353.957 604.266 353.427C610.931 351.606 620.424 358.288 613.278 369.089C616.424 371.54 617.058 373.995 615.163 376.446C619.842 377.193 622.846 379.534 624.413 383.242C635.633 382.45 640.159 387.054 638.699 396.479C644.991 395.484 648.329 397.894 648.781 403.646C652.148 402.631 654.666 403.428 658.032 404.933C664.81 407.616 671.781 409.462 678.593 410.551C694.389 413.086 709.337 411.611 719.125 407.344C719.097 407.364 719.046 407.389 718.973 407.428C718.916 407.458 718.859 407.487 718.797 407.522C718.757 407.542 718.723 407.562 718.678 407.582C710.112 412.16 698.576 415.2 679.458 414.309C676.295 416.492 669.794 416.695 667.48 413.754C664.951 415.022 662.705 414.646 660.759 412.651C660.747 412.784 660.719 412.908 660.674 413.032C658.699 418.645 625.104 416.056 625.681 410.082C600.147 414.492 527.552 409.904 535.128 404.384C542.371 399.104 566.114 398.871 566.217 398.87C586.602 397.122 481.548 390.321 499.41 398.132C516.479 405.602 496.683 404.75 496.683 404.75C487.074 404.208 477.161 404.064 467.844 404.147C467.741 412.909 467.877 418.58 467.878 418.637L467.669 476.021L467.668 476.04L467.586 500.611C469.636 520.254 195.967 530.148 198.691 511.458C196.301 514.262 193.542 514.792 190.436 513.01C187.593 517.143 179.608 516.858 175.724 513.79C152.241 515.042 138.071 510.77 127.549 504.333C127.6 504.363 127.655 504.392 127.712 504.424C127.658 504.391 127.603 504.36 127.549 504.327C127.493 504.299 127.452 504.27 127.403 504.243C127.327 504.194 127.257 504.153 127.188 504.111C127.097 504.055 127.035 504.02 127 503.993C139.023 509.991 157.384 512.064 176.787 508.501C185.154 506.971 193.716 504.375 202.042 500.604C206.177 498.489 209.269 497.368 213.404 498.794C213.96 490.71 218.061 487.321 225.788 488.719C223.995 475.471 229.555 469.001 243.336 470.114C245.261 464.902 248.952 461.611 254.699 460.56C252.371 457.116 253.149 453.664 257.013 450.22C248.236 435.038 259.897 425.644 268.084 428.205C270.488 428.949 272.587 430.731 273.789 433.688C275.971 428.873 279.516 426.925 285.138 429.291C282.601 408.458 305.785 400.032 319.038 415.792C320.525 417.566 321.895 419.647 323.083 422.054C325.786 417.58 329.122 416.369 333.403 419.995C335.613 411.193 342.604 407.351 353.015 407.066C353.807 402.766 356.212 400.435 361.535 401.639C347.858 384.982 363.731 367.531 381.404 377.098C382.44 373.751 384.531 371.462 388.374 370.898C382.613 366.389 382.14 360.043 384.246 352.807C376.24 350.427 371.626 344.193 369.742 336.442C364.363 314.357 381.036 279.879 403.858 286.664C402.871 263.668 426.832 255.968 441.276 265.057L441.266 262.604C437.966 261.332 435.273 258.951 437.801 254.516C438.931 252.536 440.094 251.438 441.219 250.925L441.214 249.664V249.06C444.597 247.021 450.119 246.629 453.763 250.243C453.907 250.389 456.805 238.8 459.853 226.573C453.536 220.124 441.478 222.811 438.571 233.844C433.394 226.754 420.76 228.778 418.376 236.383C418.696 229.69 423.803 224.437 431.184 227.032C430.998 211.92 459.111 211.428 459.949 226.186C463.321 212.655 466.842 198.487 466.991 198.673ZM467.676 476.035C467.673 476.036 467.67 476.038 467.668 476.04L467.669 476.028L467.676 476.035ZM420.864 257.87C420.718 256.332 424.783 253.583 428.668 254.077C431.351 254.425 434.145 256.339 434.026 257.605H434.02C433.908 258.809 431.177 259.247 429.856 259.456C426.18 260.047 421.025 259.539 420.864 257.87ZM351.578 234.715C351.565 234.725 347.933 237.438 345.755 238.786C343.573 240.142 339.896 240.448 335.761 241.242C331.626 242.035 321.549 244.478 321.549 244.478C321.549 244.478 330.306 240.86 332.87 239.711C335.435 238.563 341.988 237.84 344.476 237.304C346.965 236.769 351.56 234.724 351.578 234.715ZM233.135 187.03C234.64 187.23 236.587 187.538 236.745 187.563C236.506 194.704 247.608 193.582 250.892 193.137C241.739 194.474 232.545 196.083 223.467 196.905C223.652 196.922 223.838 196.938 224.022 196.953L213.654 198.233L205.648 198.742C210.881 197.851 215.787 196.988 215.905 194.824C217.438 195.99 220.399 196.612 223.363 196.895C233.61 193.974 234.118 189.742 233.135 187.03ZM212.946 193.368C219.999 194.349 202.182 198.357 198.908 198.058C200.722 196.722 202.911 195.469 205.086 194.683V194.69C207.65 193.765 210.444 193.27 212.946 193.368ZM251.787 193.013C251.735 193.014 251.411 193.067 250.892 193.137C251.188 193.094 251.484 193.049 251.78 193.006L251.787 193.013ZM236.755 187.565C236.754 187.565 236.75 187.564 236.745 187.563C236.746 187.529 236.746 187.495 236.748 187.461C236.748 187.496 236.755 187.53 236.755 187.565ZM291.553 176.959C291.414 176.626 291.296 176.305 291.213 176.006L291.553 176.959Z" fill="url(#paint30_linear_687_14521)"/>
<path d="M409.76 46.3478C399.719 50.7491 389.257 54.3196 378.853 57.7308C378.853 57.7308 370.583 56.9698 370.185 55.3422C369.787 53.7147 375.845 48.0645 375.845 48.0645C383.731 44.4217 398.253 38.9829 405.763 36.148C408.139 35.251 410.784 36.5624 411.489 39.0057C411.666 39.6197 411.864 40.2279 412.087 40.8205C412.902 42.9867 411.878 45.4196 409.76 46.3478Z" fill="#F5474E"/>
<path d="M409.76 46.3478C399.719 50.7491 389.257 54.3196 378.853 57.7308C378.853 57.7308 370.583 56.9698 370.185 55.3422C369.787 53.7147 375.845 48.0645 375.845 48.0645C383.731 44.4217 398.253 38.9829 405.763 36.148C408.139 35.251 410.784 36.5624 411.489 39.0057C411.666 39.6197 411.864 40.2279 412.087 40.8205C412.902 42.9867 411.878 45.4196 409.76 46.3478Z" fill="url(#paint31_linear_687_14521)"/>
<path d="M389.546 44.9561C387.186 45.9201 384.762 47.0312 383.167 49.023C383.364 49.7483 384.29 49.9395 385.041 49.9525C388.193 50.0072 391.305 49.2897 394.229 48.1435C395.911 47.4846 400.993 45.8382 401.234 43.7507C401.743 39.3345 390.919 44.3954 389.546 44.9561Z" fill="url(#paint32_linear_687_14521)"/>
<path d="M403.852 37.7878C405.199 40.5466 406.546 43.3053 407.893 46.0634" stroke="url(#paint33_linear_687_14521)" stroke-width="2.50732" stroke-miterlimit="10" stroke-linecap="round" stroke-linejoin="round"/>
<path d="M405.725 36.5256C407.314 39.5277 408.663 42.6572 409.756 45.8739" stroke="url(#paint34_linear_687_14521)" stroke-width="2.50732" stroke-miterlimit="10" stroke-linecap="round" stroke-linejoin="round"/>
<path d="M375.813 48.2478C377.353 51.322 378.703 54.4906 379.854 57.7307" stroke="url(#paint35_linear_687_14521)" stroke-width="2.50732" stroke-miterlimit="10" stroke-linecap="round" stroke-linejoin="round"/>
<path d="M378.252 48.001C379.408 50.8131 380.677 53.5783 382.055 56.2883" stroke="url(#paint36_linear_687_14521)" stroke-width="2.50732" stroke-miterlimit="10" stroke-linecap="round" stroke-linejoin="round"/>
<path d="M413.072 338.783C410.367 333.979 407.104 325.343 409.399 320.334C410.612 317.687 412.594 315.28 415.274 314.148C417.195 313.338 419.345 313.229 421.424 313.394C426.591 313.806 432.001 316.244 434.207 320.941C435.942 324.634 435.361 329.122 433.425 332.71C431.488 336.298 425.923 338.76 422.555 341.055" fill="url(#paint37_linear_687_14521)"/>
<path d="M414.401 338.359C415.522 335.187 416.339 331.907 416.835 328.579C416.895 328.177 416.799 327.594 416.393 327.617C416.087 327.635 415.954 328.013 415.941 328.32C415.91 329.117 416.2 329.932 416.768 330.492C417.579 331.29 418.934 331.463 419.919 330.895C420.903 330.327 421.431 329.066 421.145 327.965C420.467 328.138 420.296 329.068 420.544 329.724C420.94 330.772 422.094 331.478 423.207 331.352C424.319 331.226 425.286 330.279 425.436 329.169C425.292 329.086 425.13 329.035 424.964 329.02C424.117 329.996 423.906 331.353 423.68 332.626C423.22 335.217 422.555 337.77 421.694 340.255" stroke="url(#paint38_linear_687_14521)" stroke-width="2.50732" stroke-miterlimit="10" stroke-linecap="round" stroke-linejoin="round"/>
<path d="M413.066 338.789C412.755 340.494 412.173 341.393 411.862 343.097C411.738 343.775 411.615 344.471 411.752 345.146C411.96 346.169 412.751 346.996 413.665 347.499C414.578 348.003 416.277 348.513 417.296 348.735C418.225 348.938 419.305 349.107 420.036 348.499C420.544 348.076 420.733 347.39 420.894 346.749C421.47 344.455 421.973 343.356 422.55 341.063" fill="#00B4F1"/>
<path d="M413.066 338.789C412.755 340.494 412.173 341.393 411.862 343.097C411.738 343.775 411.615 344.471 411.752 345.146C411.96 346.169 412.751 346.996 413.665 347.499C414.578 348.003 416.277 348.513 417.296 348.735C418.225 348.938 419.305 349.107 420.036 348.499C420.544 348.076 420.733 347.39 420.894 346.749C421.47 344.455 421.973 343.356 422.55 341.063" fill="url(#paint39_linear_687_14521)"/>
<path d="M413.284 338.748C414.91 339.227 416.537 339.707 418.163 340.186C419.483 340.575 420.81 340.966 422.174 341.15" stroke="url(#paint40_linear_687_14521)" stroke-width="2.50732" stroke-miterlimit="10" stroke-linecap="round" stroke-linejoin="round"/>
<path d="M412.389 341.594C414.016 342.074 415.642 342.553 417.268 343.032C418.588 343.421 419.915 343.812 421.279 343.995" stroke="url(#paint41_linear_687_14521)" stroke-width="2.50732" stroke-miterlimit="10" stroke-linecap="round" stroke-linejoin="round"/>
<path d="M412.207 344.484C413.833 344.964 414.848 345.082 416.474 345.561C417.794 345.95 418.794 346.49 420.158 346.674" stroke="url(#paint42_linear_687_14521)" stroke-width="2.50732" stroke-miterlimit="10" stroke-linecap="round" stroke-linejoin="round"/>
<path d="M427.476 305.408C427.158 306.887 426.841 308.365 426.524 309.844" stroke="url(#paint43_linear_687_14521)" stroke-width="2.50732" stroke-miterlimit="10" stroke-linecap="round" stroke-linejoin="round"/>
<path d="M430.983 313.243C431.6 312.376 432.34 311.597 433.175 310.937" stroke="url(#paint44_linear_687_14521)" stroke-width="2.50732" stroke-miterlimit="10" stroke-linecap="round" stroke-linejoin="round"/>
<path d="M419.526 307.645C419.734 308.544 419.942 309.444 420.15 310.343" stroke="url(#paint45_linear_687_14521)" stroke-width="2.50732" stroke-miterlimit="10" stroke-linecap="round" stroke-linejoin="round"/>
<path d="M412.047 307.568C412.587 309.123 413.127 310.679 413.667 312.234" stroke="url(#paint46_linear_687_14521)" stroke-width="2.50732" stroke-miterlimit="10" stroke-linecap="round" stroke-linejoin="round"/>
<path d="M286.079 9.68288C284.913 11.6171 283.667 13.3651 282.435 15.09C281.195 16.827 279.972 18.5435 278.833 20.4361C287.239 25.7597 296.602 31.4427 305.972 37.129C315.383 42.8403 324.801 48.5559 333.25 53.909C333.312 53.8408 333.381 53.7613 333.456 53.668C333.696 53.3702 333.982 52.9703 334.303 52.49C334.944 51.531 335.7 50.2871 336.468 48.9801C337.799 46.7164 339.206 44.1952 340.022 42.7884C331.483 36.9821 322.363 31.4767 313.184 26.0315C304.028 20.6 294.811 15.2243 286.079 9.68288Z" fill="url(#paint47_linear_687_14521)" stroke="url(#paint48_linear_687_14521)" stroke-width="1.25366"/>
<path d="M337.256 41.2026C336.901 41.8939 336.473 42.5466 335.981 43.1472L337.256 41.2026Z" fill="url(#paint49_linear_687_14521)"/>
<path d="M337.256 41.2026C336.901 41.8939 336.473 42.5466 335.981 43.1472" stroke="#436BC4" stroke-width="2.50732" stroke-miterlimit="10" stroke-linecap="round" stroke-linejoin="round"/>
<path d="M334.019 38.8684C333.295 40.3919 332.445 41.8549 331.48 43.238L334.019 38.8684Z" fill="url(#paint50_linear_687_14521)"/>
<path d="M334.019 38.8684C333.295 40.3919 332.445 41.8549 331.48 43.238" stroke="#436BC4" stroke-width="2.50732" stroke-miterlimit="10" stroke-linecap="round" stroke-linejoin="round"/>
<path d="M330.044 36.7141C329.665 37.3761 329.287 38.0372 328.909 38.6992L330.044 36.7141Z" fill="url(#paint51_linear_687_14521)"/>
<path d="M330.044 36.7141C329.665 37.3761 329.287 38.0372 328.909 38.6992" stroke="#436BC4" stroke-width="2.50732" stroke-miterlimit="10" stroke-linecap="round" stroke-linejoin="round"/>
<path d="M325.848 34.1074C324.963 35.6574 324.077 37.2068 323.192 38.7564L325.848 34.1074Z" fill="url(#paint52_linear_687_14521)"/>
<path d="M325.848 34.1074C324.963 35.6574 324.077 37.2068 323.192 38.7564" stroke="#436BC4" stroke-width="2.50732" stroke-miterlimit="10" stroke-linecap="round" stroke-linejoin="round"/>
<path d="M322.039 31.668C321.682 32.2845 321.325 32.9016 320.968 33.5181L322.039 31.668Z" fill="url(#paint53_linear_687_14521)"/>
<path d="M322.039 31.668C321.682 32.2845 321.325 32.9016 320.968 33.5181" stroke="#436BC4" stroke-width="2.50732" stroke-miterlimit="10" stroke-linecap="round" stroke-linejoin="round"/>
<path d="M318.121 29.3774C317.324 31.111 316.527 32.8445 315.73 34.5781L318.121 29.3774Z" fill="url(#paint54_linear_687_14521)"/>
<path d="M318.121 29.3774C317.324 31.111 316.527 32.8445 315.73 34.5781" stroke="#436BC4" stroke-width="2.50732" stroke-miterlimit="10" stroke-linecap="round" stroke-linejoin="round"/>
<path d="M315.036 27.0869C314.646 27.721 314.257 28.3542 313.867 28.9883L315.036 27.0869Z" fill="url(#paint55_linear_687_14521)"/>
<path d="M315.036 27.0869C314.646 27.721 314.257 28.3542 313.867 28.9883" stroke="#436BC4" stroke-width="2.50732" stroke-miterlimit="10" stroke-linecap="round" stroke-linejoin="round"/>
<path d="M311.915 25.5959C311.123 27.3595 310.111 29.0242 308.911 30.5402L311.915 25.5959Z" fill="url(#paint56_linear_687_14521)"/>
<path d="M311.915 25.5959C311.123 27.3595 310.111 29.0242 308.911 30.5402" stroke="#436BC4" stroke-width="2.50732" stroke-miterlimit="10" stroke-linecap="round" stroke-linejoin="round"/>
<path d="M308.409 23.7246C307.983 24.4093 307.557 25.0949 307.131 25.7795L308.409 23.7246Z" fill="url(#paint57_linear_687_14521)"/>
<path d="M308.409 23.7246C307.983 24.4093 307.557 25.0949 307.131 25.7795" stroke="#436BC4" stroke-width="2.50732" stroke-miterlimit="10" stroke-linecap="round" stroke-linejoin="round"/>
<path d="M304.234 20.9612C303.324 22.7136 302.415 24.4657 301.504 26.2181L304.234 20.9612Z" fill="url(#paint58_linear_687_14521)"/>
<path d="M304.234 20.9612C303.324 22.7136 302.415 24.4657 301.504 26.2181" stroke="#436BC4" stroke-width="2.50732" stroke-miterlimit="10" stroke-linecap="round" stroke-linejoin="round"/>
<path d="M301.125 18.5911C300.673 19.3391 300.222 20.0877 299.77 20.8358L301.125 18.5911Z" fill="url(#paint59_linear_687_14521)"/>
<path d="M301.125 18.5911C300.673 19.3391 300.222 20.0877 299.77 20.8358" stroke="#436BC4" stroke-width="2.50732" stroke-miterlimit="10" stroke-linecap="round" stroke-linejoin="round"/>
<path d="M297.682 16.519C296.547 18.5944 295.445 20.6885 294.379 22.7998L297.682 16.519Z" fill="url(#paint60_linear_687_14521)"/>
<path d="M297.682 16.519C296.547 18.5944 295.445 20.6885 294.379 22.7998" stroke="#436BC4" stroke-width="2.50732" stroke-miterlimit="10" stroke-linecap="round" stroke-linejoin="round"/>
<path d="M293.716 14.4446C293.407 15.1426 293.041 15.8161 292.624 16.4554L293.716 14.4446Z" fill="url(#paint61_linear_687_14521)"/>
<path d="M293.716 14.4446C293.407 15.1426 293.041 15.8161 292.624 16.4554" stroke="#436BC4" stroke-width="2.50732" stroke-miterlimit="10" stroke-linecap="round" stroke-linejoin="round"/>
<path d="M289.581 11.5269C288.221 13.7464 286.75 15.898 285.177 17.9707L289.581 11.5269Z" fill="url(#paint62_linear_687_14521)"/>
<path d="M289.581 11.5269C288.221 13.7464 286.75 15.898 285.177 17.9707" stroke="#436BC4" stroke-width="2.50732" stroke-miterlimit="10" stroke-linecap="round" stroke-linejoin="round"/>
<path d="M332.312 51.3882C328.273 49.316 324.341 47.0345 320.538 44.5552L332.312 51.3882Z" fill="url(#paint63_linear_687_14521)"/>
<path d="M332.312 51.3882C328.273 49.316 324.341 47.0345 320.538 44.5552" stroke="#436BC4" stroke-width="2.50732" stroke-miterlimit="10" stroke-linecap="round" stroke-linejoin="round"/>
<path d="M318.847 43.5054C318.286 43.1509 317.727 42.7967 317.166 42.4423L318.847 43.5054Z" fill="url(#paint64_linear_687_14521)"/>
<path d="M318.847 43.5054C318.286 43.1509 317.727 42.7967 317.166 42.4423" stroke="#436BC4" stroke-width="2.50732" stroke-miterlimit="10" stroke-linecap="round" stroke-linejoin="round"/>
<g clip-path="url(#clip4_687_14521)">
<path d="M408.844 423.813C408.844 422.812 409.648 422 410.641 422C411.633 422 412.438 422.812 412.438 423.813V501.75H408.844V423.813Z" fill="url(#paint65_linear_687_14521)"/>
<path d="M394.469 501.752C396.454 501.752 398.063 500.129 398.063 498.127V429.252H326.188V498.127C326.188 500.129 327.797 501.752 329.781 501.752H394.469Z" fill="#2563EB"/>
<path d="M394.469 501.752C396.454 501.752 398.063 500.129 398.063 498.127V429.252H326.188V498.127C326.188 500.129 327.797 501.752 329.781 501.752H394.469Z" fill="url(#paint66_linear_687_14521)"/>
<path d="M362.125 436.499C350.217 436.499 340.563 446.237 340.563 458.249V492.686C340.563 493.687 341.367 494.499 342.36 494.499H381.891C382.883 494.499 383.688 493.687 383.688 492.686V458.249C383.688 446.237 374.034 436.499 362.125 436.499Z" fill="white"/>
<path d="M340.563 489.062C340.563 488.061 341.367 487.25 342.36 487.25H383.688V492.687C383.688 493.688 382.883 494.5 381.891 494.5H342.36C341.367 494.5 340.563 493.688 340.563 492.687V489.062Z" fill="url(#paint67_linear_687_14521)"/>
<path d="M351.344 478.187C351.344 477.186 352.148 476.375 353.141 476.375H383.688V483.625H351.344V478.187Z" fill="url(#paint68_linear_687_14521)"/>
<path d="M362.125 467.312C362.125 466.311 362.93 465.5 363.922 465.5H383.688V472.75H362.125V467.312Z" fill="url(#paint69_linear_687_14521)"/>
<path d="M383.39 454.625C383.586 455.803 383.688 457.014 383.688 458.25V461.875H372.907V456.437C372.907 455.436 373.711 454.625 374.703 454.625H383.39Z" fill="url(#paint70_linear_687_14521)"/>
<path d="M426.813 429.251V498.126C426.813 500.128 425.204 501.751 423.219 501.751V429.251L412.248 407.119C411.586 405.783 409.696 405.783 409.034 407.119L398.063 429.251H326.188L339.073 403.257C339.986 401.415 341.852 400.251 343.894 400.251H409.106C411.148 400.251 413.014 401.415 413.928 403.257L426.813 429.251Z" fill="#1E3A8A"/>
<path d="M426.813 429.251V498.126C426.813 500.128 425.204 501.751 423.219 501.751V429.251L412.248 407.119C411.586 405.783 409.696 405.783 409.034 407.119L398.063 429.251H326.188L339.073 403.257C339.986 401.415 341.852 400.251 343.894 400.251H409.106C411.148 400.251 413.014 401.415 413.928 403.257L426.813 429.251Z" fill="url(#paint71_linear_687_14521)"/>
<path d="M412.437 447.374V425.624H433.999L426.812 436.499L433.999 447.374H412.437Z" fill="#B91C1C"/>
<path d="M412.437 447.374V425.624H433.999L426.812 436.499L433.999 447.374H412.437Z" fill="url(#paint72_linear_687_14521)"/>
</g>
<path opacity="0.35" d="M223.549 46.7252C225.119 45.8566 227.411 45.1373 229.068 44.4497C229.951 42.1702 230.209 39.8969 231.215 37.6689C231.944 40.0887 233.058 41.5443 233.788 43.9641C235.525 44.1342 237.648 44.5629 239.379 44.3409C237.887 45.9501 236.421 47.3192 235.065 48.5101C236.15 49.9122 237.405 52.2318 238.184 53.7733C236.128 53.006 234.041 51.9901 232.176 50.832C230.923 52.2096 229.536 54.2931 228.756 55.9845C228.623 53.6522 228.104 51.4795 228.2 49.1455C226.599 48.6058 225.111 47.3702 223.549 46.7252Z" stroke="url(#paint73_radial_687_14521)" stroke-width="2.50732" stroke-miterlimit="10" stroke-linecap="round" stroke-linejoin="round"/>
<path opacity="0.3" d="M408.426 166.185C409.46 165.613 410.97 165.139 412.062 164.686C412.644 163.184 412.814 161.686 413.476 160.219C413.957 161.813 414.691 162.772 415.172 164.366C416.316 164.478 417.715 164.761 418.855 164.614C417.872 165.675 416.907 166.577 416.013 167.361C416.728 168.285 417.555 169.813 418.068 170.829C416.713 170.323 415.338 169.654 414.109 168.891C413.284 169.799 412.37 171.171 411.856 172.286C411.769 170.749 411.427 169.318 411.49 167.78C410.436 167.424 409.455 166.61 408.426 166.185Z" stroke="url(#paint74_radial_687_14521)" stroke-width="2.50732" stroke-miterlimit="10" stroke-linecap="round" stroke-linejoin="round"/>
<path opacity="0.3" d="M393.194 69.2648C394.565 68.5064 396.566 67.8784 398.013 67.2781C398.784 65.2879 399.009 63.3031 399.887 61.3579C400.524 63.4706 401.497 64.7415 402.134 66.8542C403.65 67.0027 405.504 67.377 407.015 67.1831C405.713 68.5881 404.433 69.7834 403.249 70.8232C404.197 72.0473 405.292 74.0725 405.972 75.4184C404.176 74.7485 402.355 73.8615 400.726 72.8504C399.632 74.0531 398.422 75.8722 397.74 77.3489C397.625 75.3127 397.171 73.4157 397.255 71.3779C395.858 70.9067 394.558 69.828 393.194 69.2648Z" stroke="url(#paint75_radial_687_14521)" stroke-width="2.50732" stroke-miterlimit="10" stroke-linecap="round" stroke-linejoin="round"/>
<g opacity="0.3">
<path d="M349.169 157.127C346.397 157.212 343.619 157.115 340.86 156.837" stroke="url(#paint76_radial_687_14521)" stroke-width="2.50732" stroke-miterlimit="10" stroke-linecap="round" stroke-linejoin="round"/>
<path d="M348.075 153.412C346.212 155.925 344.234 158.351 342.148 160.682" stroke="url(#paint77_radial_687_14521)" stroke-width="2.50732" stroke-miterlimit="10" stroke-linecap="round" stroke-linejoin="round"/>
<path d="M347.034 161.258C345.756 158.687 344.607 156.052 343.594 153.366" stroke="url(#paint78_radial_687_14521)" stroke-width="2.50732" stroke-miterlimit="10" stroke-linecap="round" stroke-linejoin="round"/>
</g>
<path opacity="0.3" d="M326.175 379.923C327.293 380.212 328.574 379.607 329.064 378.561C329.553 377.515 329.197 376.143 328.261 375.468C327.183 374.692 325.794 374.872 325.084 375.994C324.374 377.116 324.891 379.591 326.175 379.923Z" stroke="url(#paint79_radial_687_14521)" stroke-width="2.50732" stroke-miterlimit="10" stroke-linecap="round" stroke-linejoin="round"/>
<path opacity="0.3" d="M413.493 103.18C415.919 103.807 418.699 102.495 419.762 100.225C420.825 97.9537 420.052 94.976 418.019 93.5113C415.681 91.8262 412.665 92.217 411.124 94.6535C409.583 97.0883 410.705 102.459 413.493 103.18Z" stroke="url(#paint80_radial_687_14521)" stroke-width="2.50732" stroke-miterlimit="10" stroke-linecap="round" stroke-linejoin="round"/>
<path opacity="0.3" d="M312.72 420.657C313.838 420.946 315.119 420.342 315.609 419.296C316.098 418.249 315.742 416.877 314.806 416.202C313.728 415.426 312.339 415.606 311.629 416.729C310.919 417.85 311.435 420.325 312.72 420.657Z" stroke="url(#paint81_radial_687_14521)" stroke-width="2.50732" stroke-miterlimit="10" stroke-linecap="round" stroke-linejoin="round"/>
<path d="M374.984 355.949C372.411 355.324 369.894 357.348 368.574 359.645C366.114 363.926 366.344 369.614 369.142 373.682C370.769 376.047 374.517 377.751 376.293 375.495C377.718 373.683 376.265 370.795 374.12 369.953C371.704 369.005 368.81 369.936 367.025 371.823C365.24 373.709 364.458 376.38 364.416 378.978C364.378 381.308 364.933 383.731 366.428 385.518C367.432 386.719 370.009 387.04 370.015 385.473C370.016 385.168 369.892 384.875 369.754 384.603C368.402 381.916 365.437 380.126 362.432 380.183C359.428 380.24 356.533 382.142 355.283 384.879" stroke="url(#paint82_linear_687_14521)" stroke-width="2.50732" stroke-miterlimit="10" stroke-linecap="round" stroke-linejoin="round"/>
<path d="M290.951 71.5882C290.605 74.2162 292.883 76.5058 295.305 77.5758C299.819 79.5684 305.443 78.7334 309.184 75.5148C311.36 73.6432 312.652 69.7303 310.223 68.2028C308.272 66.9764 305.558 68.7311 304.951 70.9557C304.267 73.4623 305.5 76.2439 307.563 77.8202C309.627 79.3965 312.362 79.8899 314.947 79.6553C317.265 79.4452 319.613 78.6339 321.228 76.9553C322.314 75.8277 322.358 73.2287 320.801 73.3893C320.497 73.421 320.221 73.5755 319.964 73.7415C317.44 75.3743 315.979 78.5166 316.356 81.5017C316.732 84.4868 318.929 87.1662 321.78 88.1184" stroke="url(#paint83_linear_687_14521)" stroke-width="2.50732" stroke-miterlimit="10" stroke-linecap="round" stroke-linejoin="round"/>
<path d="M469.752 253.094C448.413 240.297 432.857 227.05 401.898 209.979C411.865 236.72 424.38 259.685 433.158 282.365C446.376 273.569 458.154 263.942 469.752 253.094ZM420.945 233.042C426.544 237.669 448.695 251.637 453.236 254.55C448.005 259.065 442.845 263.199 437.608 267.069C433.64 258.006 421.746 234.696 420.945 233.042Z" fill="#00B4F1"/>
<path d="M469.752 253.094C448.413 240.297 432.857 227.05 401.898 209.979C411.865 236.72 424.38 259.685 433.158 282.365C446.376 273.569 458.154 263.942 469.752 253.094ZM420.945 233.042C426.544 237.669 448.695 251.637 453.236 254.55C448.005 259.065 442.845 263.199 437.608 267.069C433.64 258.006 421.746 234.696 420.945 233.042Z" fill="url(#paint84_linear_687_14521)"/>
<path d="M410.06 215.652C409.703 216.31 409.345 216.968 408.987 217.626L410.06 215.652Z" fill="#00B4F1"/>
<path d="M410.06 215.652C409.703 216.31 409.345 216.968 408.987 217.626" stroke="#436BC3" stroke-width="2.50732" stroke-miterlimit="10" stroke-linecap="round" stroke-linejoin="round"/>
<path d="M412.26 216.96C411.55 217.973 410.912 219.036 410.352 220.139L412.26 216.96Z" fill="#00B4F1"/>
<path d="M412.26 216.96C411.55 217.973 410.912 219.036 410.352 220.139" stroke="#436BC3" stroke-width="2.50732" stroke-miterlimit="10" stroke-linecap="round" stroke-linejoin="round"/>
<path d="M414.866 218.76C414.651 219.274 414.435 219.788 414.22 220.302L414.866 218.76Z" fill="#00B4F1"/>
<path d="M414.866 218.76C414.651 219.274 414.435 219.788 414.22 220.302" stroke="#436BC3" stroke-width="2.50732" stroke-miterlimit="10" stroke-linecap="round" stroke-linejoin="round"/>
<path d="M417.766 220.328C417.292 221.414 416.703 222.449 416.01 223.41L417.766 220.328Z" fill="#00B4F1"/>
<path d="M417.766 220.328C417.292 221.414 416.703 222.449 416.01 223.41" stroke="#436BC3" stroke-width="2.50732" stroke-miterlimit="10" stroke-linecap="round" stroke-linejoin="round"/>
<path d="M406.938 213.822C406.717 214.167 406.534 214.538 406.395 214.924L406.938 213.822Z" fill="#00B4F1"/>
<path d="M406.938 213.822C406.717 214.167 406.534 214.538 406.395 214.924" stroke="#436BC3" stroke-width="2.50732" stroke-miterlimit="10" stroke-linecap="round" stroke-linejoin="round"/>
<path d="M420.587 222.354C420.231 222.879 419.934 223.445 419.705 224.037L420.587 222.354Z" fill="#00B4F1"/>
<path d="M420.587 222.354C420.231 222.879 419.934 223.445 419.705 224.037" stroke="#436BC3" stroke-width="2.50732" stroke-miterlimit="10" stroke-linecap="round" stroke-linejoin="round"/>
<path d="M423.682 224.12C423.206 225.028 422.728 225.936 422.252 226.844L423.682 224.12Z" fill="#00B4F1"/>
<path d="M423.682 224.12C423.206 225.028 422.728 225.936 422.252 226.844" stroke="#436BC3" stroke-width="2.50732" stroke-miterlimit="10" stroke-linecap="round" stroke-linejoin="round"/>
<path d="M427.226 226.055C426.957 226.567 426.687 227.08 426.418 227.592L427.226 226.055Z" fill="#00B4F1"/>
<path d="M427.226 226.055C426.957 226.567 426.687 227.08 426.418 227.592" stroke="#436BC3" stroke-width="2.50732" stroke-miterlimit="10" stroke-linecap="round" stroke-linejoin="round"/>
<path d="M430.137 227.993C429.459 228.9 428.854 229.862 428.329 230.865L430.137 227.993Z" fill="#00B4F1"/>
<path d="M430.137 227.993C429.459 228.9 428.854 229.862 428.329 230.865" stroke="#436BC3" stroke-width="2.50732" stroke-miterlimit="10" stroke-linecap="round" stroke-linejoin="round"/>
<path d="M424.315 257.127C424.455 257.371 424.597 257.616 424.737 257.861L424.315 257.127Z" fill="#00B4F1"/>
<path d="M424.315 257.127C424.455 257.371 424.597 257.616 424.737 257.861" stroke="#436BC3" stroke-width="2.50732" stroke-miterlimit="10" stroke-linecap="round" stroke-linejoin="round"/>
<path d="M411.871 230.245C413.774 234.117 421.208 250.786 422.902 254.733L411.871 230.245Z" fill="#00B4F1"/>
<path d="M411.871 230.245C413.774 234.117 421.208 250.786 422.902 254.733" stroke="#436BC3" stroke-width="2.50732" stroke-miterlimit="10" stroke-linecap="round" stroke-linejoin="round"/>
<path d="M326.979 124.486C326.987 122.249 326.56 119.519 327.414 118.024C328.802 117.508 330.543 116.766 332.195 115.998C333.729 115.285 333.982 113.207 332.651 112.164C330.832 110.738 328.443 108.928 326.387 107.56C325.014 106.646 323.168 107.457 322.896 109.086C322.482 111.566 322.291 114.241 322.102 114.783C321.094 115.548 318.962 116.201 317.237 116.636C316.217 116.894 315.928 118.207 316.74 118.878C319.19 120.902 322.484 123.725 324.924 125.519C325.775 126.146 326.975 125.545 326.979 124.486Z" fill="url(#paint85_linear_687_14521)"/>
<path d="M318.217 120.147C317.262 122.153 313.97 129.76 313.97 129.76C313.97 129.76 320.919 125.319 322.645 123.754" fill="url(#paint86_linear_687_14521)"/>
<path d="M283.245 475.857C284.253 475.371 285.466 475.794 285.953 476.802L294.601 494.728C294.786 494.631 294.94 494.557 295.05 494.516C298.197 498.93 300.338 503.345 303.261 507.759C304.278 508.902 305.048 510.291 305.55 511.742C306.163 513.513 306.421 515.441 306.036 517.274C305.651 519.107 304.575 520.834 302.958 521.779C300.083 523.46 295.077 522.839 292.806 520.398C289.918 517.293 287.637 508.252 292.689 505.413C293.18 505.137 293.705 504.944 294.248 504.818C292.958 502.204 291.822 499.748 290.647 496.984C290.757 496.931 290.903 496.851 291.076 496.754L282.3 478.562C281.814 477.554 282.237 476.342 283.245 475.857ZM301.097 510.604C299.61 508.2 297.417 506.918 294.799 508.506C292.59 509.845 292.709 511.794 293.532 514.066C294.118 515.681 295.091 517.161 296.369 518.312C296.894 518.785 297.483 519.212 298.163 519.4C299.449 519.755 300.884 519.146 301.698 518.091C302.513 517.035 302.756 515.615 302.569 514.294C302.381 512.974 301.798 511.739 301.097 510.604Z" fill="url(#paint87_linear_687_14521)"/>
<path d="M277.245 481.369C277.765 480.378 278.989 479.996 279.98 480.517L297.935 489.96C298 489.835 298.056 489.727 298.102 489.64C301.001 490.962 303.55 492.702 306.309 494.252C306.422 493.419 306.671 492.616 307.104 491.892C310.072 486.916 319.051 489.427 322.081 492.394C324.463 494.727 324.955 499.746 323.201 502.577C322.214 504.17 320.46 505.202 318.617 505.539C316.775 505.877 314.855 505.568 313.1 504.91C311.67 504.374 310.307 503.575 309.192 502.536C304.8 499.493 300.216 497.235 295.877 493.97C295.931 493.859 296.001 493.721 296.08 493.562L278.097 484.106C277.107 483.585 276.725 482.359 277.245 481.369ZM315.732 492.957C313.482 492.076 311.537 491.907 310.141 494.08C308.487 496.657 309.713 498.882 312.078 500.43C313.194 501.16 314.413 501.775 315.729 501.996C317.044 502.217 318.469 502.01 319.546 501.224C320.621 500.436 321.268 499.017 320.946 497.723C320.775 497.038 320.363 496.438 319.904 495.902C318.785 494.594 317.332 493.584 315.732 492.957Z" fill="url(#paint88_linear_687_14521)"/>
<path d="M290.889 485.666C292.076 486.696 292.204 488.492 291.175 489.678C290.146 490.863 288.349 490.989 287.162 489.96C285.975 488.93 285.847 487.133 286.876 485.948C287.905 484.762 289.702 484.636 290.889 485.666Z" fill="url(#paint89_linear_687_14521)"/>
<defs>
<linearGradient id="paint0_linear_687_14521" x1="308.215" y1="263.927" x2="221.245" y2="489.057" gradientUnits="userSpaceOnUse">
<stop stop-color="#F8FCFF" stop-opacity="0"/>
<stop offset="1" stop-color="#E4F4FF"/>
</linearGradient>
<radialGradient id="paint1_radial_687_14521" cx="0" cy="0" r="1" gradientUnits="userSpaceOnUse" gradientTransform="translate(465.462 -0.000110975) rotate(90) scale(930.923 485.882)">
<stop/>
<stop offset="0.953125" stop-opacity="0"/>
</radialGradient>
<linearGradient id="paint2_linear_687_14521" x1="141.918" y1="462.651" x2="127.347" y2="491.396" gradientUnits="userSpaceOnUse">
<stop offset="0.384076" stop-color="#D3E7DD"/>
<stop offset="1" stop-color="#B0D2BC"/>
</linearGradient>
<linearGradient id="paint3_linear_687_14521" x1="96.7328" y1="407.931" x2="125.534" y2="485.201" gradientUnits="userSpaceOnUse">
<stop offset="0.384076" stop-color="#D3E7DD"/>
<stop offset="1" stop-color="#B0D2BC"/>
</linearGradient>
<linearGradient id="paint4_linear_687_14521" x1="47.0894" y1="477.008" x2="61.4988" y2="529.598" gradientUnits="userSpaceOnUse">
<stop offset="0.384076" stop-color="#9BBAFF"/>
<stop offset="1" stop-color="#356BE1"/>
</linearGradient>
<linearGradient id="paint5_linear_687_14521" x1="150.729" y1="32.7464" x2="178.266" y2="54.9886" gradientUnits="userSpaceOnUse">
<stop offset="0.384076" stop-color="#D3E7DD"/>
<stop offset="1" stop-color="#B0D2BC"/>
</linearGradient>
<linearGradient id="paint6_linear_687_14521" x1="149.816" y1="29.1106" x2="169.555" y2="44.5578" gradientUnits="userSpaceOnUse">
<stop offset="0.266062" stop-color="#CAE4D7"/>
<stop offset="1" stop-color="#8DC5A1"/>
</linearGradient>
<linearGradient id="paint7_linear_687_14521" x1="143.341" y1="30.6119" x2="147.239" y2="37.0622" gradientUnits="userSpaceOnUse">
<stop offset="0.266062" stop-color="#CAE4D7"/>
<stop offset="1" stop-color="#8FC2A1"/>
</linearGradient>
<linearGradient id="paint8_linear_687_14521" x1="141.481" y1="29.0816" x2="145.328" y2="35.7172" gradientUnits="userSpaceOnUse">
<stop offset="0.266062" stop-color="#CAE4D7"/>
<stop offset="1" stop-color="#8FC2A1"/>
</linearGradient>
<linearGradient id="paint9_linear_687_14521" x1="167.597" y1="53.7798" x2="171.449" y2="60.4502" gradientUnits="userSpaceOnUse">
<stop offset="0.266062" stop-color="#CAE4D7"/>
<stop offset="1" stop-color="#8FC2A1"/>
</linearGradient>
<linearGradient id="paint10_linear_687_14521" x1="165.992" y1="52.0423" x2="169.638" y2="58.2071" gradientUnits="userSpaceOnUse">
<stop offset="0.266062" stop-color="#CAE4D7"/>
<stop offset="1" stop-color="#8FC2A1"/>
</linearGradient>
<linearGradient id="paint11_linear_687_14521" x1="-1.7679" y1="303.495" x2="15.6545" y2="346.919" gradientUnits="userSpaceOnUse">
<stop offset="0.384076" stop-color="#D3E7DD"/>
<stop offset="1" stop-color="#B0D2BC"/>
</linearGradient>
<linearGradient id="paint12_linear_687_14521" x1="25.4883" y1="322.994" x2="-21.8362" y2="322.994" gradientUnits="userSpaceOnUse">
<stop stop-color="#FFB7BA"/>
<stop offset="1" stop-color="#CF4F54"/>
</linearGradient>
<linearGradient id="paint13_linear_687_14521" x1="-0.0302003" y1="322.27" x2="6.34219" y2="345.448" gradientUnits="userSpaceOnUse">
<stop offset="0.384076" stop-color="#D3E7DD"/>
<stop offset="1" stop-color="#B0D2BC"/>
</linearGradient>
<linearGradient id="paint14_linear_687_14521" x1="19.6397" y1="331.912" x2="-14.5128" y2="331.912" gradientUnits="userSpaceOnUse">
<stop stop-color="#FFC2C5"/>
<stop offset="1" stop-color="#E38387"/>
</linearGradient>
<linearGradient id="paint15_linear_687_14521" x1="37.1562" y1="108.585" x2="54.4825" y2="149.2" gradientUnits="userSpaceOnUse">
<stop offset="0.384076" stop-color="#D3E7DD"/>
<stop offset="1" stop-color="#B0D2BC"/>
</linearGradient>
<radialGradient id="paint16_radial_687_14521" cx="0" cy="0" r="1" gradientTransform="matrix(-8.19537 14.8285 10.5652 5.85342 77.7296 237.041)" gradientUnits="userSpaceOnUse">
<stop stop-color="#356BE1"/>
<stop offset="1" stop-color="#9BBAFF"/>
</radialGradient>
<radialGradient id="paint17_radial_687_14521" cx="0" cy="0" r="1" gradientTransform="matrix(-5.39946 9.76967 6.96084 3.85649 102.323 146.62)" gradientUnits="userSpaceOnUse">
<stop stop-color="#356BE1"/>
<stop offset="1" stop-color="#9BBAFF"/>
</radialGradient>
<radialGradient id="paint18_radial_687_14521" cx="0" cy="0" r="1" gradientTransform="matrix(-7.15522 12.9465 9.22431 5.11051 86.6902 58.8981)" gradientUnits="userSpaceOnUse">
<stop stop-color="#356BE1"/>
<stop offset="1" stop-color="#9BBAFF"/>
</radialGradient>
<radialGradient id="paint19_radial_687_14521" cx="0" cy="0" r="1" gradientTransform="matrix(-4.12703 1.81548 5.32046 0.716642 36.6265 183.621)" gradientUnits="userSpaceOnUse">
<stop stop-color="#356BE1"/>
<stop offset="1" stop-color="#9BBAFF"/>
</radialGradient>
<radialGradient id="paint20_radial_687_14521" cx="0" cy="0" r="1" gradientTransform="matrix(-3.78853 4.94971 4.88407 1.95385 36.5366 183.854)" gradientUnits="userSpaceOnUse">
<stop stop-color="#356BE1"/>
<stop offset="1" stop-color="#9BBAFF"/>
</radialGradient>
<radialGradient id="paint21_radial_687_14521" cx="0" cy="0" r="1" gradientTransform="matrix(-0.829073 7.24135 1.06882 2.85846 36.3817 184.299)" gradientUnits="userSpaceOnUse">
<stop stop-color="#356BE1"/>
<stop offset="1" stop-color="#9BBAFF"/>
</radialGradient>
<radialGradient id="paint22_radial_687_14521" cx="0" cy="0" r="1" gradientTransform="matrix(-2.31786 4.25257 2.98812 1.67866 73.3375 298.497)" gradientUnits="userSpaceOnUse">
<stop stop-color="#356BE1"/>
<stop offset="1" stop-color="#9BBAFF"/>
</radialGradient>
<radialGradient id="paint23_radial_687_14521" cx="0" cy="0" r="1" gradientTransform="matrix(-5.03071 9.22984 6.48546 3.6434 51.8344 60.5599)" gradientUnits="userSpaceOnUse">
<stop stop-color="#356BE1"/>
<stop offset="1" stop-color="#9BBAFF"/>
</radialGradient>
<radialGradient id="paint24_radial_687_14521" cx="0" cy="0" r="1" gradientTransform="matrix(-2.31786 4.25257 2.98812 1.67866 150.371 390.904)" gradientUnits="userSpaceOnUse">
<stop stop-color="#356BE1"/>
<stop offset="1" stop-color="#9BBAFF"/>
</radialGradient>
<linearGradient id="paint25_linear_687_14521" x1="47.113" y1="385.425" x2="18.4878" y2="385.425" gradientUnits="userSpaceOnUse">
<stop stop-color="#FFB7BA"/>
<stop offset="1" stop-color="#CF4F54"/>
</linearGradient>
<linearGradient id="paint26_linear_687_14521" x1="82.8475" y1="104.089" x2="107.336" y2="89.2487" gradientUnits="userSpaceOnUse">
<stop stop-color="#FFB7BA"/>
<stop offset="1" stop-color="#CF4F54"/>
</linearGradient>
<linearGradient id="paint27_linear_687_14521" x1="153.638" y1="106.015" x2="144.567" y2="120.289" gradientUnits="userSpaceOnUse">
<stop stop-color="#FFB7BA"/>
<stop offset="1" stop-color="#CF4F54"/>
</linearGradient>
<linearGradient id="paint28_linear_687_14521" x1="145.788" y1="94.1754" x2="140.694" y2="109.43" gradientUnits="userSpaceOnUse">
<stop offset="0.384076" stop-color="#9BBAFF"/>
<stop offset="1" stop-color="#356BE1"/>
</linearGradient>
<linearGradient id="paint29_linear_687_14521" x1="159.565" y1="497.299" x2="188.797" y2="577.552" gradientUnits="userSpaceOnUse">
<stop stop-color="#E0F2FF"/>
<stop offset="1" stop-color="#EBF6FF"/>
</linearGradient>
<linearGradient id="paint30_linear_687_14521" x1="140.078" y1="227.586" x2="217.83" y2="428.854" gradientUnits="userSpaceOnUse">
<stop stop-color="#F8FCFF" stop-opacity="0"/>
<stop offset="1" stop-color="#E4F4FF"/>
</linearGradient>
<linearGradient id="paint31_linear_687_14521" x1="412.366" y1="46.7979" x2="370.166" y2="46.7979" gradientUnits="userSpaceOnUse">
<stop stop-color="#FFB7BA"/>
<stop offset="1" stop-color="#CF4F54"/>
</linearGradient>
<linearGradient id="paint32_linear_687_14521" x1="401.251" y1="45.9565" x2="383.167" y2="45.9565" gradientUnits="userSpaceOnUse">
<stop stop-color="#E2888B"/>
<stop offset="1" stop-color="#BE3B40"/>
</linearGradient>
<linearGradient id="paint33_linear_687_14521" x1="407.893" y1="41.9256" x2="403.852" y2="41.9256" gradientUnits="userSpaceOnUse">
<stop stop-color="#E2888B"/>
<stop offset="1" stop-color="#BE3B40"/>
</linearGradient>
<linearGradient id="paint34_linear_687_14521" x1="409.756" y1="41.1998" x2="405.725" y2="41.1998" gradientUnits="userSpaceOnUse">
<stop stop-color="#E2888B"/>
<stop offset="1" stop-color="#BE3B40"/>
</linearGradient>
<linearGradient id="paint35_linear_687_14521" x1="379.854" y1="52.9893" x2="375.813" y2="52.9893" gradientUnits="userSpaceOnUse">
<stop stop-color="#E2888B"/>
<stop offset="1" stop-color="#BE3B40"/>
</linearGradient>
<linearGradient id="paint36_linear_687_14521" x1="382.055" y1="52.1446" x2="378.252" y2="52.1446" gradientUnits="userSpaceOnUse">
<stop stop-color="#E2888B"/>
<stop offset="1" stop-color="#BE3B40"/>
</linearGradient>
<linearGradient id="paint37_linear_687_14521" x1="425.423" y1="314.12" x2="417.235" y2="340.095" gradientUnits="userSpaceOnUse">
<stop stop-color="#FFD9AF"/>
<stop offset="1" stop-color="#E1AB71"/>
</linearGradient>
<linearGradient id="paint38_linear_687_14521" x1="420.999" y1="327.742" x2="417.358" y2="339.291" gradientUnits="userSpaceOnUse">
<stop stop-color="#D6AC7F"/>
<stop offset="1" stop-color="#BD8E5B"/>
</linearGradient>
<linearGradient id="paint39_linear_687_14521" x1="421.274" y1="344.045" x2="412.26" y2="343.877" gradientUnits="userSpaceOnUse">
<stop offset="0.384076" stop-color="#9BBAFF"/>
<stop offset="1" stop-color="#356BE1"/>
</linearGradient>
<linearGradient id="paint40_linear_687_14521" x1="421.717" y1="341.149" x2="421.122" y2="342.353" gradientUnits="userSpaceOnUse">
<stop offset="0.384076" stop-color="#B7CDFF"/>
<stop offset="1" stop-color="#7BA5FF"/>
</linearGradient>
<linearGradient id="paint41_linear_687_14521" x1="420.822" y1="343.995" x2="420.227" y2="345.198" gradientUnits="userSpaceOnUse">
<stop offset="0.384076" stop-color="#B7CDFF"/>
<stop offset="1" stop-color="#7BA5FF"/>
</linearGradient>
<linearGradient id="paint42_linear_687_14521" x1="419.753" y1="346.66" x2="419.299" y2="347.621" gradientUnits="userSpaceOnUse">
<stop offset="0.384076" stop-color="#B7CDFF"/>
<stop offset="1" stop-color="#7BA5FF"/>
</linearGradient>
<linearGradient id="paint43_linear_687_14521" x1="427.677" y1="305.472" x2="426.319" y2="309.779" gradientUnits="userSpaceOnUse">
<stop stop-color="#D6AC7F"/>
<stop offset="1" stop-color="#BD8E5B"/>
</linearGradient>
<linearGradient id="paint44_linear_687_14521" x1="432.507" y1="310.727" x2="431.648" y2="313.453" gradientUnits="userSpaceOnUse">
<stop stop-color="#D6AC7F"/>
<stop offset="1" stop-color="#BD8E5B"/>
</linearGradient>
<linearGradient id="paint45_linear_687_14521" x1="420.196" y1="307.856" x2="419.479" y2="310.131" gradientUnits="userSpaceOnUse">
<stop stop-color="#D6AC7F"/>
<stop offset="1" stop-color="#BD8E5B"/>
</linearGradient>
<linearGradient id="paint46_linear_687_14521" x1="413.451" y1="308.01" x2="412.259" y2="311.791" gradientUnits="userSpaceOnUse">
<stop stop-color="#D6AC7F"/>
<stop offset="1" stop-color="#BD8E5B"/>
</linearGradient>
<linearGradient id="paint47_linear_687_14521" x1="287.424" y1="33.6944" x2="327.531" y2="21.0697" gradientUnits="userSpaceOnUse">
<stop offset="0.384076" stop-color="#9BBAFF"/>
<stop offset="1" stop-color="#356BE1"/>
</linearGradient>
<linearGradient id="paint48_linear_687_14521" x1="287.424" y1="33.6944" x2="327.531" y2="21.0697" gradientUnits="userSpaceOnUse">
<stop offset="0.384076" stop-color="#9BBAFF"/>
<stop offset="1" stop-color="#356BE1"/>
</linearGradient>
<linearGradient id="paint49_linear_687_14521" x1="335.731" y1="42.4774" x2="337.474" y2="42.4151" gradientUnits="userSpaceOnUse">
<stop offset="0.384076" stop-color="#9BBAFF"/>
<stop offset="1" stop-color="#356BE1"/>
</linearGradient>
<linearGradient id="paint50_linear_687_14521" x1="330.859" y1="41.6524" x2="334.603" y2="41.34" gradientUnits="userSpaceOnUse">
<stop offset="0.384076" stop-color="#9BBAFF"/>
<stop offset="1" stop-color="#356BE1"/>
</linearGradient>
<linearGradient id="paint51_linear_687_14521" x1="328.623" y1="37.9742" x2="330.313" y2="37.8235" gradientUnits="userSpaceOnUse">
<stop offset="0.384076" stop-color="#9BBAFF"/>
<stop offset="1" stop-color="#356BE1"/>
</linearGradient>
<linearGradient id="paint52_linear_687_14521" x1="322.524" y1="37.0582" x2="326.48" y2="36.7042" gradientUnits="userSpaceOnUse">
<stop offset="0.384076" stop-color="#9BBAFF"/>
<stop offset="1" stop-color="#356BE1"/>
</linearGradient>
<linearGradient id="paint53_linear_687_14521" x1="320.704" y1="32.8457" x2="322.287" y2="32.7114" gradientUnits="userSpaceOnUse">
<stop offset="0.384076" stop-color="#9BBAFF"/>
<stop offset="1" stop-color="#356BE1"/>
</linearGradient>
<linearGradient id="paint54_linear_687_14521" x1="314.877" y1="32.5346" x2="318.928" y2="31.9093" gradientUnits="userSpaceOnUse">
<stop offset="0.384076" stop-color="#9BBAFF"/>
<stop offset="1" stop-color="#356BE1"/>
</linearGradient>
<linearGradient id="paint55_linear_687_14521" x1="313.609" y1="28.3142" x2="315.274" y2="28.2104" gradientUnits="userSpaceOnUse">
<stop offset="0.384076" stop-color="#9BBAFF"/>
<stop offset="1" stop-color="#356BE1"/>
</linearGradient>
<linearGradient id="paint56_linear_687_14521" x1="308.232" y1="28.7787" x2="312.543" y2="28.491" gradientUnits="userSpaceOnUse">
<stop offset="0.384076" stop-color="#9BBAFF"/>
<stop offset="1" stop-color="#356BE1"/>
</linearGradient>
<linearGradient id="paint57_linear_687_14521" x1="306.854" y1="25.0547" x2="308.661" y2="24.9504" gradientUnits="userSpaceOnUse">
<stop offset="0.384076" stop-color="#9BBAFF"/>
<stop offset="1" stop-color="#356BE1"/>
</linearGradient>
<linearGradient id="paint58_linear_687_14521" x1="300.699" y1="24.23" x2="305.004" y2="23.7111" gradientUnits="userSpaceOnUse">
<stop offset="0.384076" stop-color="#9BBAFF"/>
<stop offset="1" stop-color="#356BE1"/>
</linearGradient>
<linearGradient id="paint59_linear_687_14521" x1="299.461" y1="20.0337" x2="301.412" y2="19.8982" gradientUnits="userSpaceOnUse">
<stop offset="0.384076" stop-color="#9BBAFF"/>
<stop offset="1" stop-color="#356BE1"/>
</linearGradient>
<linearGradient id="paint60_linear_687_14521" x1="293.424" y1="20.4347" x2="298.594" y2="19.8313" gradientUnits="userSpaceOnUse">
<stop offset="0.384076" stop-color="#9BBAFF"/>
<stop offset="1" stop-color="#356BE1"/>
</linearGradient>
<linearGradient id="paint61_linear_687_14521" x1="292.325" y1="15.7069" x2="294.002" y2="15.5283" gradientUnits="userSpaceOnUse">
<stop offset="0.384076" stop-color="#9BBAFF"/>
<stop offset="1" stop-color="#356BE1"/>
</linearGradient>
<linearGradient id="paint62_linear_687_14521" x1="284.38" y1="15.7961" x2="290.239" y2="15.6972" gradientUnits="userSpaceOnUse">
<stop offset="0.384076" stop-color="#9BBAFF"/>
<stop offset="1" stop-color="#356BE1"/>
</linearGradient>
<linearGradient id="paint63_linear_687_14521" x1="322.814" y1="48.0724" x2="329.15" y2="45.8959" gradientUnits="userSpaceOnUse">
<stop offset="0.384076" stop-color="#9BBAFF"/>
<stop offset="1" stop-color="#356BE1"/>
</linearGradient>
<linearGradient id="paint64_linear_687_14521" x1="317.503" y1="42.9697" x2="318.368" y2="42.6595" gradientUnits="userSpaceOnUse">
<stop offset="0.384076" stop-color="#9BBAFF"/>
<stop offset="1" stop-color="#356BE1"/>
</linearGradient>
<linearGradient id="paint65_linear_687_14521" x1="410.641" y1="422" x2="410.641" y2="501.75" gradientUnits="userSpaceOnUse">
<stop stop-color="#E4E4E7"/>
<stop offset="1" stop-color="#F4F4F5"/>
</linearGradient>
<linearGradient id="paint66_linear_687_14521" x1="394.653" y1="455.345" x2="330.705" y2="472.262" gradientUnits="userSpaceOnUse">
<stop offset="0.384076" stop-color="#9BBAFF"/>
<stop offset="1" stop-color="#356BE1"/>
</linearGradient>
<linearGradient id="paint67_linear_687_14521" x1="358.85" y1="460.883" x2="368.822" y2="493.169" gradientUnits="userSpaceOnUse">
<stop offset="0.384076" stop-color="#D3E7DD"/>
<stop offset="1" stop-color="#B0D2BC"/>
</linearGradient>
<linearGradient id="paint68_linear_687_14521" x1="358.85" y1="460.883" x2="368.822" y2="493.169" gradientUnits="userSpaceOnUse">
<stop offset="0.384076" stop-color="#D3E7DD"/>
<stop offset="1" stop-color="#B0D2BC"/>
</linearGradient>
<linearGradient id="paint69_linear_687_14521" x1="358.85" y1="460.883" x2="368.822" y2="493.169" gradientUnits="userSpaceOnUse">
<stop offset="0.384076" stop-color="#D3E7DD"/>
<stop offset="1" stop-color="#B0D2BC"/>
</linearGradient>
<linearGradient id="paint70_linear_687_14521" x1="358.85" y1="460.883" x2="368.822" y2="493.169" gradientUnits="userSpaceOnUse">
<stop offset="0.384076" stop-color="#D3E7DD"/>
<stop offset="1" stop-color="#B0D2BC"/>
</linearGradient>
<linearGradient id="paint71_linear_687_14521" x1="422.039" y1="436.782" x2="332.512" y2="460.465" gradientUnits="userSpaceOnUse">
<stop offset="0.384076" stop-color="#9BBAFF"/>
<stop offset="1" stop-color="#356BE1"/>
</linearGradient>
<linearGradient id="paint72_linear_687_14521" x1="433.999" y1="436.499" x2="412.437" y2="436.499" gradientUnits="userSpaceOnUse">
<stop stop-color="#FFB7BA"/>
<stop offset="1" stop-color="#CF4F54"/>
</linearGradient>
<radialGradient id="paint73_radial_687_14521" cx="0" cy="0" r="1" gradientTransform="matrix(10.068 11.3112 -8.05916 7.19093 231.802 47.0295)" gradientUnits="userSpaceOnUse">
<stop stop-color="#356BE1"/>
<stop offset="1" stop-color="#9BBAFF"/>
</radialGradient>
<radialGradient id="paint74_radial_687_14521" cx="0" cy="0" r="1" gradientTransform="matrix(6.63324 7.4523 -5.30972 4.7377 413.863 166.386)" gradientUnits="userSpaceOnUse">
<stop stop-color="#356BE1"/>
<stop offset="1" stop-color="#9BBAFF"/>
</radialGradient>
<radialGradient id="paint75_radial_687_14521" cx="0" cy="0" r="1" gradientTransform="matrix(8.79018 9.87558 -7.0363 6.27826 400.4 69.5305)" gradientUnits="userSpaceOnUse">
<stop stop-color="#356BE1"/>
<stop offset="1" stop-color="#9BBAFF"/>
</radialGradient>
<radialGradient id="paint76_radial_687_14521" cx="0" cy="0" r="1" gradientTransform="matrix(3.95623 0.766543 -4.49849 1.67613 345.031 157.053)" gradientUnits="userSpaceOnUse">
<stop stop-color="#356BE1"/>
<stop offset="1" stop-color="#9BBAFF"/>
</radialGradient>
<radialGradient id="paint77_radial_687_14521" cx="0" cy="0" r="1" gradientTransform="matrix(4.27844 3.56594 -3.87482 2.66884 345.156 157.242)" gradientUnits="userSpaceOnUse">
<stop stop-color="#356BE1"/>
<stop offset="1" stop-color="#9BBAFF"/>
</radialGradient>
<radialGradient id="paint78_radial_687_14521" cx="0" cy="0" r="1" gradientTransform="matrix(2.14952 6.15 -0.369566 2.70372 345.378 157.597)" gradientUnits="userSpaceOnUse">
<stop stop-color="#356BE1"/>
<stop offset="1" stop-color="#9BBAFF"/>
</radialGradient>
<radialGradient id="paint79_radial_687_14521" cx="0" cy="0" r="1" gradientTransform="matrix(2.85905 3.25026 -2.27477 2.05398 327.052 377.619)" gradientUnits="userSpaceOnUse">
<stop stop-color="#356BE1"/>
<stop offset="1" stop-color="#9BBAFF"/>
</radialGradient>
<radialGradient id="paint80_radial_687_14521" cx="0" cy="0" r="1" gradientTransform="matrix(6.20533 7.05442 -4.9372 4.45799 415.395 98.1807)" gradientUnits="userSpaceOnUse">
<stop stop-color="#356BE1"/>
<stop offset="1" stop-color="#9BBAFF"/>
</radialGradient>
<radialGradient id="paint81_radial_687_14521" cx="0" cy="0" r="1" gradientTransform="matrix(2.85905 3.25026 -2.27477 2.05398 313.597 418.354)" gradientUnits="userSpaceOnUse">
<stop stop-color="#356BE1"/>
<stop offset="1" stop-color="#9BBAFF"/>
</radialGradient>
<linearGradient id="paint82_linear_687_14521" x1="353.117" y1="375.293" x2="378.08" y2="369.652" gradientUnits="userSpaceOnUse">
<stop stop-color="#FFB7BA"/>
<stop offset="1" stop-color="#CF4F54"/>
</linearGradient>
<linearGradient id="paint83_linear_687_14521" x1="312.491" y1="91.2962" x2="304.199" y2="67.0562" gradientUnits="userSpaceOnUse">
<stop stop-color="#FFB7BA"/>
<stop offset="1" stop-color="#CF4F54"/>
</linearGradient>
<linearGradient id="paint84_linear_687_14521" x1="454.816" y1="261.654" x2="393.358" y2="233.904" gradientUnits="userSpaceOnUse">
<stop offset="0.384076" stop-color="#9BBAFF"/>
<stop offset="1" stop-color="#356BE1"/>
</linearGradient>
<linearGradient id="paint85_linear_687_14521" x1="323.583" y1="110.097" x2="328.841" y2="124.695" gradientUnits="userSpaceOnUse">
<stop offset="0.384076" stop-color="#D3E7DD"/>
<stop offset="1" stop-color="#B0D2BC"/>
</linearGradient>
<linearGradient id="paint86_linear_687_14521" x1="317.648" y1="121.656" x2="320.424" y2="129.154" gradientUnits="userSpaceOnUse">
<stop offset="0.384076" stop-color="#BFE4D2"/>
<stop offset="1" stop-color="#71A784"/>
</linearGradient>
<linearGradient id="paint87_linear_687_14521" x1="296.909" y1="487.071" x2="288.298" y2="489.958" gradientUnits="userSpaceOnUse">
<stop stop-color="#E2888B"/>
<stop offset="1" stop-color="#BE3B40"/>
</linearGradient>
<linearGradient id="paint88_linear_687_14521" x1="296.882" y1="489.257" x2="282.015" y2="494.242" gradientUnits="userSpaceOnUse">
<stop stop-color="#E2888B"/>
<stop offset="1" stop-color="#BE3B40"/>
</linearGradient>
<linearGradient id="paint89_linear_687_14521" x1="291.723" y1="486.911" x2="286.33" y2="488.721" gradientUnits="userSpaceOnUse">
<stop stop-color="#D88E91"/>
<stop offset="1" stop-color="#BC4347"/>
</linearGradient>
<clipPath id="clip0_687_14521">
<rect width="1895.53" height="514" fill="white" transform="translate(-942)"/>
</clipPath>
<clipPath id="clip1_687_14521">
<rect width="1241.23" height="930.923" fill="white" transform="translate(-613.957)"/>
</clipPath>
<clipPath id="clip2_687_14521">
<rect width="1241.23" height="930.923" fill="white" transform="translate(-613.957)"/>
</clipPath>
<clipPath id="clip3_687_14521">
<rect width="1241.23" height="930.923" fill="white" transform="translate(-613.957)"/>
</clipPath>
<clipPath id="clip4_687_14521">
<rect width="115" height="116" fill="white" transform="translate(319 393)"/>
</clipPath>
</defs>
</svg>
