<svg width="27" height="27" viewBox="0 0 27 27" fill="none" xmlns="http://www.w3.org/2000/svg">
<g clip-path="url(#clip0_304_32409)">
<path d="M-0.304688 1.23047H32.2656V33.8359H-0.304688V1.23047Z" fill="#002B7F"/>
<path d="M-5.26953 -6.83594H18.7305V17.1641H-5.26953V-6.83594Z" fill="#CE1126"/>
<path d="M11.9082 6.32202C11.3718 5.71996 10.6797 5.27763 9.9081 5.04376C9.13646 4.80989 8.31525 4.79356 7.53492 4.99657C6.7546 5.19958 6.04546 5.61405 5.48564 6.19432C4.92581 6.77458 4.53702 7.49812 4.36211 8.28522C4.1872 9.07232 4.23295 9.89242 4.49433 10.6552C4.75571 11.4179 5.22257 12.0937 5.84347 12.6081C6.46436 13.1225 7.21521 13.4555 8.01327 13.5705C8.81133 13.6854 9.62564 13.5779 10.3665 13.2596C9.75495 13.3517 9.1302 13.2935 8.54622 13.09C7.96223 12.8866 7.43658 12.5439 7.01468 12.0918C6.59279 11.6396 6.28734 11.0916 6.12474 10.4949C5.96213 9.89825 5.94726 9.27098 6.08142 8.66729C6.21557 8.0636 6.49471 7.50166 6.89471 7.03003C7.29471 6.5584 7.80354 6.19126 8.37723 5.96035C8.95092 5.72944 9.5722 5.64171 10.1874 5.70472C10.8026 5.76773 11.3932 5.97961 11.9082 6.32202ZM11.0548 7.36457L12.5692 10.109L10.035 11.9538L13.1131 11.3616L14.0844 14.3418L14.4724 11.2314L17.6069 11.2285L14.7686 9.89834L15.7345 6.91634L13.5924 9.20467L11.0548 7.36457Z" fill="white"/>
</g>
<path d="M21.5 0.75C24.1234 0.75 26.25 2.87665 26.25 5.5V21.5C26.25 24.1234 24.1234 26.25 21.5 26.25H5.5C2.87665 26.25 0.75 24.1234 0.75 21.5V5.5C0.75 2.87665 2.87665 0.75 5.5 0.75H21.5Z" stroke="#E4E4E7" stroke-width="1.5"/>
<defs>
<clipPath id="clip0_304_32409">
<path d="M1.5 5.5C1.5 3.29086 3.29086 1.5 5.5 1.5H21.5C23.7091 1.5 25.5 3.29086 25.5 5.5V21.5C25.5 23.7091 23.7091 25.5 21.5 25.5H5.5C3.29086 25.5 1.5 23.7091 1.5 21.5V5.5Z" fill="white"/>
</clipPath>
</defs>
</svg>
