<svg width="27" height="27" viewBox="0 0 27 27" fill="none" xmlns="http://www.w3.org/2000/svg">
<g clip-path="url(#clip0_387_18488)">
<path d="M-3.10156 1.63281H15.0919V16.1602H-3.10156V1.63281Z" fill="#77CCFF"/>
<path d="M15.0919 13.1333H-3.10156V11.314C-2.3309 11.1961 -1.62122 10.5851 -1.3243 10.1113C-0.67155 10.1113 -0.0798357 9.39961 0.570863 8.631C0.690894 8.39304 0.867773 8.33409 1.1647 8.57204C1.40054 8.86684 1.4595 8.631 1.57953 8.21616C1.63849 8.09613 1.75641 7.97821 1.87433 8.09613C2.05333 8.33409 2.11229 8.1572 2.28917 8.03717C2.58608 7.97821 3.00091 7.97821 3.29782 8.09613C3.47471 7.97821 3.77163 7.97821 4.06643 7.97821C4.30439 8.09613 4.54023 8.09613 4.77817 7.97821C4.89609 7.91925 5.07508 7.86028 5.31093 7.86028C5.66681 7.56337 5.96368 7.26857 6.19956 7.38649C6.43752 7.44545 6.73442 7.50441 7.02927 7.50441C7.68202 7.50441 8.03792 7.44545 8.21481 7.38649C8.33274 7.6834 8.39169 7.6834 8.45066 7.38649C8.51172 7.2075 8.51172 7.08958 8.80653 7.03061C8.80653 6.7337 8.92657 6.67474 9.16241 6.91269C9.51829 7.20749 9.93307 7.26856 10.348 7.20749C10.348 7.56337 10.4069 7.56337 10.5838 7.20749C10.6428 6.85372 10.8807 6.97165 11.2366 7.5044C11.2955 7.62233 11.3545 7.74236 11.3545 7.86028C12.658 9.93445 13.6705 10.8381 15.0919 11.314V13.1333Z" fill="#002B7F"/>
<path d="M15.0938 8.82422V16.1641H33.2872V8.82422H15.0938Z" fill="white"/>
<path d="M15.0938 1.63281H33.2872V8.89651H15.0938V1.63281Z" fill="#0484D6"/>
<path d="M-3.10156 16.1641H33.2853V26.0996H-3.10156V16.1641Z" fill="#F5362F"/>
</g>
<path d="M21.5 0.75C24.1234 0.75 26.25 2.87665 26.25 5.5V21.5C26.25 24.1234 24.1234 26.25 21.5 26.25H5.5C2.87665 26.25 0.75 24.1234 0.75 21.5V5.5C0.75 2.87665 2.87665 0.75 5.5 0.75H21.5Z" stroke="#E4E4E7" stroke-width="1.5"/>
<defs>
<clipPath id="clip0_387_18488">
<path d="M1.5 5.5C1.5 3.29086 3.29086 1.5 5.5 1.5H21.5C23.7091 1.5 25.5 3.29086 25.5 5.5V21.5C25.5 23.7091 23.7091 25.5 21.5 25.5H5.5C3.29086 25.5 1.5 23.7091 1.5 21.5V5.5Z" fill="white"/>
</clipPath>
</defs>
</svg>
