<svg width="27" height="27" viewBox="0 0 27 27" fill="none" xmlns="http://www.w3.org/2000/svg">
<g clip-path="url(#clip0_304_32579)">
<mask id="mask0_304_32579" style="mask-type:luminance" maskUnits="userSpaceOnUse" x="-12" y="0" width="51" height="27">
<path d="M-11.8125 26.1562H38.8125V0.84375H-11.8125V26.1562Z" fill="white"/>
</mask>
<g mask="url(#mask0_304_32579)">
<path fill-rule="evenodd" clip-rule="evenodd" d="M-11.8125 26.1562H38.8125V0.84375H-11.8125V26.1562Z" fill="#CC0000" fill-opacity="0.98824"/>
</g>
<path fill-rule="evenodd" clip-rule="evenodd" d="M9.91625 9.95641L9.77328 10.0863C8.82734 11.0322 8.24234 12.3391 8.24234 13.7828C8.24234 16.6703 10.5823 19.0108 13.4694 19.0108C16.3564 19.0108 18.6964 16.6703 18.6964 13.7828C18.6964 12.3391 18.1114 11.0322 17.1655 10.0863L17.0225 9.95641L17.0909 9.99766C18.8136 11.162 19.9466 13.1336 19.9466 15.3695C19.9466 18.9475 17.0464 21.8477 13.4694 21.8477C9.89234 21.8477 6.99219 18.9475 6.99219 15.3695C6.99219 13.1336 8.12516 11.162 9.84781 9.99766L9.91625 9.95641Z" fill="white"/>
<path fill-rule="evenodd" clip-rule="evenodd" d="M11.1953 9.94047H12.9508L13.4931 8.18735L14.0355 9.94047H15.7909L14.3706 11.0242L14.9134 12.7773L13.4931 11.6936L12.0728 12.7773L12.6156 11.0242L11.1953 9.94047Z" fill="white"/>
<path fill-rule="evenodd" clip-rule="evenodd" d="M10.2344 17.4023H10.8025V7.62047H10.2344V17.4023Z" fill="white"/>
<path fill-rule="evenodd" clip-rule="evenodd" d="M16.1719 17.4023H16.74V7.62047H16.1719V17.4023Z" fill="white"/>
<mask id="mask1_304_32579" style="mask-type:luminance" maskUnits="userSpaceOnUse" x="-12" y="0" width="51" height="27">
<path d="M-11.8125 0.843754H38.8125V26.1562H-11.8125" fill="white"/>
</mask>
<g mask="url(#mask1_304_32579)">
<path fill-rule="evenodd" clip-rule="evenodd" d="M9.74219 8.71484V7.53547L10.5212 6.93734L11.3003 7.53547V8.71484L10.5212 8.11672L9.74219 8.71484Z" fill="white"/>
</g>
<mask id="mask2_304_32579" style="mask-type:luminance" maskUnits="userSpaceOnUse" x="-12" y="0" width="51" height="27">
<path d="M-11.8125 0.843754H38.8125V26.1562H-11.8125" fill="white"/>
</mask>
<g mask="url(#mask2_304_32579)">
<path fill-rule="evenodd" clip-rule="evenodd" d="M15.6719 8.71484V7.53547L16.4509 6.93734L17.23 7.53547V8.71484L16.4509 8.11672L15.6719 8.71484Z" fill="white"/>
</g>
<path fill-rule="evenodd" clip-rule="evenodd" d="M9.92188 6.38813L10.5294 5.15906L11.1369 6.38813L10.5294 7.61719L9.92188 6.38813Z" fill="white"/>
<path fill-rule="evenodd" clip-rule="evenodd" d="M15.8438 6.38813L16.4513 5.15906L17.0587 6.38813L16.4513 7.61719L15.8438 6.38813Z" fill="white"/>
<path fill-rule="evenodd" clip-rule="evenodd" d="M5.26438 8.42828C5.85734 8.41891 6.49672 8.80047 7.11594 9.28422L7.45531 9.56266L8.23203 8.88344C8.31406 9.58141 8.19594 10.1448 8.60094 10.5512C10.4225 12.3798 12.9102 14.883 13.2416 15.8477C12.1283 15.6358 8.97922 12.3911 7.6325 11.6453C6.93828 11.2605 5.9975 11.5783 4.97563 11.7297L6.63547 10.2789L6.49391 10.0769C5.93562 9.47312 4.97516 9.57719 4.54156 10.0933C4.51859 9.83172 4.28703 9.34609 4.03906 9.23406C4.40187 8.66359 4.82 8.43578 5.26438 8.42828Z" fill="white"/>
<path fill-rule="evenodd" clip-rule="evenodd" d="M21.7428 8.43C21.1498 8.42063 20.5105 8.80219 19.8912 9.285L19.5519 9.56344L18.7752 8.88469C18.6931 9.58266 18.8112 10.1452 18.4062 10.5511C16.5847 12.3788 14.097 14.8795 13.7656 15.8438C14.8789 15.6319 18.028 12.39 19.3747 11.6447C20.0689 11.2598 21.0097 11.5777 22.0316 11.7291L20.3717 10.2792L20.5133 10.0772C21.0716 9.47391 22.032 9.57797 22.4656 10.0936C22.4886 9.8325 22.7202 9.34734 22.9681 9.23484C22.6053 8.66484 22.1872 8.4375 21.7428 8.43Z" fill="white"/>
</g>
<path d="M21.5 0.75C24.1234 0.75 26.25 2.87665 26.25 5.5V21.5C26.25 24.1234 24.1234 26.25 21.5 26.25H5.5C2.87665 26.25 0.75 24.1234 0.75 21.5V5.5C0.75 2.87665 2.87665 0.75 5.5 0.75H21.5Z" stroke="#E4E4E7" stroke-width="1.5"/>
<defs>
<clipPath id="clip0_304_32579">
<path d="M1.5 5.5C1.5 3.29086 3.29086 1.5 5.5 1.5H21.5C23.7091 1.5 25.5 3.29086 25.5 5.5V21.5C25.5 23.7091 23.7091 25.5 21.5 25.5H5.5C3.29086 25.5 1.5 23.7091 1.5 21.5V5.5Z" fill="white"/>
</clipPath>
</defs>
</svg>
