<svg width="27" height="27" viewBox="0 0 27 27" fill="none" xmlns="http://www.w3.org/2000/svg">
<g clip-path="url(#clip0_304_32608)">
<path d="M1.5 1.5H25.5V49.5H1.5V1.5Z" fill="#D7111B"/>
<path d="M10.6309 11.5084C10.1951 12.1 9.9375 12.831 9.9375 13.6221C9.9375 15.5924 11.5348 17.1897 13.5051 17.1897C15.4755 17.1897 17.0728 15.5924 17.0728 13.6221C17.0728 12.8307 16.8152 12.0996 16.3791 11.5078C16.4384 11.7444 16.4683 11.9874 16.4681 12.2313C16.4681 13.8677 15.1415 15.1943 13.5051 15.1943C11.8688 15.1943 10.5422 13.8677 10.5422 12.2313C10.5422 11.9819 10.5728 11.7398 10.6309 11.5084Z" fill="#369D27"/>
<path d="M10.0082 6.48453V6.48498C9.68763 6.49124 8.99336 6.62028 8.81048 7.59621C8.81048 7.59621 8.2051 8.04068 7.66761 8.96104C7.66761 8.96104 7.60499 8.83566 7.78759 8.61603C7.78759 8.61603 8.36163 8.00431 7.9598 6.72836C7.9598 6.72836 7.00753 7.79481 7.53199 8.72034C7.53199 8.72034 7.62583 8.82513 7.63102 9.00293C7.63102 9.00293 7.07781 9.90255 6.93693 10.8438C6.93693 10.8438 6.81711 10.572 6.85884 10.3994C6.85884 10.3994 7.11963 9.7196 7.02568 9.24898C7.02568 9.24898 6.88992 8.66314 6.62376 8.34414C6.62376 8.34414 5.75758 9.42117 6.54034 10.2474C6.54034 10.2474 6.60283 10.2948 6.70718 10.5719L6.81155 10.8492L6.88471 11.0845C6.88471 11.0845 6.71237 12.193 6.82719 12.8362C6.82719 12.8362 6.55584 12.4856 6.5506 12.2189C6.5506 12.2189 6.73879 11.0373 5.85158 10.2581C5.85158 10.2581 5.35541 11.3093 5.88769 11.9212C5.88769 11.9212 6.12263 12.1928 6.28963 12.3548C6.28963 12.3548 6.75417 12.8466 6.86375 13.1447C6.86375 13.1447 7.00982 14.1541 7.15595 14.3999C7.15595 14.3999 6.74397 14.2169 6.6657 13.5842C6.6657 13.5842 6.58971 12.8284 5.68429 12.329C5.68429 12.329 5.36332 13.537 6.46184 14.1226C6.46184 14.1226 7.13535 14.4623 7.27104 14.7395C7.27104 14.7395 7.77189 15.8168 8.02761 16.0888C8.02761 16.0888 7.78759 16.0522 7.56321 15.8012C7.56321 15.8012 7.03093 14.4835 5.97157 14.3789C5.97157 14.3789 5.9505 15.7072 7.4169 16.0576C7.4169 16.0576 7.89208 16.0991 8.12172 16.2194C8.12172 16.2194 8.6902 16.9465 9.18075 17.3439C9.18075 17.3439 8.6327 17.3387 8.50225 17.0667C8.50225 17.0667 8.08996 16.1879 6.75401 16.2193C6.75401 16.2193 6.96824 17.4069 8.51294 17.4121C8.51294 17.4121 9.2017 17.3752 9.37389 17.4955C9.37389 17.4955 10.2297 18.149 10.7568 18.3477C10.7568 18.3477 10.4282 18.3896 10.1934 18.2902C10.1934 18.2902 8.94569 17.4173 8.01689 18.0344C8.01689 18.0344 8.48179 18.9807 10.1934 18.5519C10.1934 18.5519 10.9079 18.4318 11.0436 18.4841C11.0436 18.4841 12.0613 18.876 12.3797 18.9232C12.3797 18.9232 12.051 19.127 11.5187 18.8969C11.5187 18.8969 10.8144 18.4945 10.0056 19.1429C10.0056 19.1429 10.668 19.9849 11.9831 19.2842C11.9831 19.2842 12.5051 18.9545 12.7503 18.9963L13.1206 19.0591C13.1206 19.0591 12.4269 19.7701 11.785 20.1413C11.785 20.1413 11.644 20.1992 11.764 20.2515C11.764 20.2515 12.2862 20.4922 12.7298 20.5131C12.7298 20.5131 13.3598 19.8774 13.5016 19.1398C13.6433 19.8774 14.2733 20.5131 14.2733 20.5131C14.7169 20.4922 15.2391 20.2515 15.2391 20.2515C15.3591 20.1992 15.2181 20.1413 15.2181 20.1413C14.5762 19.7701 13.8825 19.0591 13.8825 19.0591L14.2528 18.9963C14.4981 18.9545 15.02 19.2842 15.02 19.2842C16.3351 19.9849 16.9976 19.1429 16.9976 19.1429C16.1887 18.4945 15.4844 18.8969 15.4844 18.8969C14.9521 19.127 14.6235 18.9232 14.6235 18.9232C14.9418 18.876 15.9595 18.4841 15.9595 18.4841C16.0952 18.4318 16.8097 18.5519 16.8097 18.5519C18.5213 18.9807 18.9862 18.0344 18.9862 18.0344C18.0574 17.4173 16.8097 18.2902 16.8097 18.2902C16.5749 18.3896 16.2463 18.3477 16.2463 18.3477C16.7734 18.149 17.6292 17.4955 17.6292 17.4955C17.8014 17.3752 18.4902 17.4121 18.4902 17.4121C20.0349 17.4069 20.2491 16.2194 20.2491 16.2194C18.9132 16.1879 18.5009 17.0667 18.5009 17.0667C18.3704 17.3387 17.8224 17.3439 17.8224 17.3439C18.3129 16.9465 18.8814 16.2193 18.8814 16.2193C19.111 16.0991 19.5862 16.0575 19.5862 16.0575C21.0526 15.7072 21.0315 14.3789 21.0315 14.3789C19.9722 14.4835 19.4399 15.8012 19.4399 15.8012C19.2155 16.0522 18.9755 16.0888 18.9755 16.0888C19.2312 15.8168 19.7321 14.7395 19.7321 14.7395C19.8678 14.4623 20.5413 14.1226 20.5413 14.1226C21.6398 13.537 21.3188 12.329 21.3188 12.329C20.4134 12.8284 20.3374 13.5841 20.3374 13.5841C20.2591 14.2169 19.8472 14.3999 19.8472 14.3999C19.9933 14.1541 20.1394 13.1447 20.1394 13.1447C20.249 12.8466 20.7135 12.3548 20.7135 12.3548C20.8805 12.1928 21.1154 11.9211 21.1154 11.9211C21.6477 11.3093 21.1515 10.2581 21.1515 10.2581C20.2643 11.0373 20.4525 12.2189 20.4525 12.2189C20.4473 12.4856 20.1759 12.8362 20.1759 12.8362C20.2908 12.193 20.1184 11.0845 20.1184 11.0845L20.1915 10.8492L20.2959 10.5719C20.4003 10.2948 20.4628 10.2474 20.4628 10.2474C21.2455 9.42114 20.3794 8.34411 20.3794 8.34411C20.1132 8.66314 19.9774 9.24896 19.9774 9.24896C19.8835 9.7196 20.1443 10.3994 20.1443 10.3994C20.186 10.572 20.0662 10.8438 20.0662 10.8438C19.9253 9.90252 19.3721 9.00293 19.3721 9.00293C19.3773 8.82513 19.4711 8.72034 19.4711 8.72034C19.9956 7.79479 19.0433 6.72836 19.0433 6.72836C18.6415 8.00431 19.2155 8.61603 19.2155 8.61603C19.3981 8.83566 19.3355 8.96102 19.3355 8.96102C18.798 8.04068 18.1926 7.59618 18.1926 7.59618C18.0098 6.6203 17.3155 6.49122 16.9949 6.48498V6.48453C16.9753 6.48422 16.9556 6.48438 16.936 6.48498C16.8704 6.48663 16.8307 6.493 16.8307 6.493C16.9168 7.6487 18.1146 7.77403 18.1146 7.77403C18.7825 8.35972 19.1375 9.02878 19.1375 9.02878C18.9809 8.96605 18.8975 8.87189 18.8975 8.87189C18.2477 7.81558 17.1595 7.99334 17.1595 7.99334C17.6005 9.18826 18.9131 9.18076 18.9131 9.18076C19.2758 9.19907 19.3725 9.44731 19.3725 9.44731C19.6752 9.94935 19.8838 10.896 19.8838 10.896C19.8003 10.8123 19.6906 10.6789 19.6906 10.6789C19.1844 9.29574 18.1146 9.34792 18.1146 9.34792C18.4433 10.7232 19.513 10.8068 19.513 10.8068C19.7114 10.8486 19.9257 11.1415 19.9257 11.1415C20.0457 11.9625 19.9935 12.6321 19.9935 12.6321C19.9883 12.5798 19.9047 12.4279 19.9047 12.4279C19.8264 12.2815 19.7847 11.9626 19.7847 11.9626C19.5969 10.9952 18.7043 10.8278 18.7043 10.8278C18.5295 12.0775 19.8262 12.5456 19.8262 12.5456C20.1915 12.8699 19.675 14.2947 19.675 14.2947C19.6645 14.2424 19.6437 14.0491 19.6437 14.0491C19.7559 12.5509 18.6155 12.3392 18.6155 12.3392C18.6077 13.0556 18.7253 13.3011 18.7253 13.3011C18.8375 13.6254 19.4087 14.0442 19.4087 14.0442C19.5496 14.1801 19.5969 14.4155 19.5969 14.4155C19.5082 15.0167 18.6677 16.1618 18.6677 16.1618C18.6573 15.9056 18.7516 15.733 18.7516 15.733C19.3517 14.6453 18.5999 13.9341 18.5999 13.9341C17.8693 14.9015 18.5062 15.6444 18.5062 15.6444C18.6054 15.8274 18.5633 16.2978 18.5633 16.2978C18.3232 16.6587 17.4834 17.3591 17.4834 17.3591L17.4883 17.3279C17.5926 17.0089 17.6921 16.8937 17.6921 16.8937C18.3914 16.0727 17.7077 15.0952 17.7077 15.0952C17.0606 15.8247 17.337 16.711 17.337 16.711C17.5145 17.132 17.3214 17.4273 17.3214 17.4273C17.0005 17.8089 16.001 18.2376 16.001 18.2376C16.1732 18.0337 16.382 17.8405 16.382 17.8405C17.1334 17.2417 16.7527 16.1672 16.7527 16.1672C15.7741 16.7189 16.0166 17.8614 16.0166 17.8614C15.9853 18.2745 15.6932 18.3789 15.6932 18.3789C15.2653 18.5671 14.6494 18.6981 14.6494 18.6981C14.712 18.583 14.8215 18.5465 14.8215 18.5465C15.8862 17.9452 15.5732 17.0141 15.5732 17.0141C14.566 17.4011 14.5922 18.5305 14.5922 18.5305C14.5818 18.7606 14.3888 18.7712 14.3888 18.7712L14.0494 18.8184C14.4694 18.557 14.4357 18.2795 14.4357 18.2795C14.3887 17.5918 13.5016 17.8142 13.5016 17.8142C13.5016 17.8142 12.6144 17.5918 12.5675 18.2795C12.5675 18.2795 12.5337 18.557 12.9538 18.8184L12.6143 18.7712C12.6143 18.7712 12.4213 18.7606 12.4109 18.5305C12.4109 18.5305 12.4371 17.4011 11.4299 17.0141C11.4299 17.0141 11.117 17.9452 12.1816 18.5465C12.1816 18.5465 12.2911 18.583 12.3538 18.6981C12.3538 18.6981 11.7378 18.5671 11.3099 18.3789C11.3099 18.3789 11.0178 18.2745 10.9865 17.8614C10.9865 17.8614 11.229 16.7189 10.2505 16.1672C10.2505 16.1672 9.86969 17.2417 10.6212 17.8405C10.6212 17.8405 10.8299 18.0337 11.0021 18.2376C11.0021 18.2376 10.0026 17.8089 9.68169 17.4273C9.68169 17.4273 9.48866 17.132 9.66608 16.711C9.66608 16.711 9.94248 15.8247 9.29538 15.0952C9.29538 15.0952 8.6117 16.0727 9.31099 16.8937C9.31099 16.8937 9.41048 17.0089 9.51485 17.3279L9.51977 17.3591C9.51977 17.3591 8.67987 16.6587 8.43979 16.2978C8.43979 16.2978 8.39774 15.8274 8.49688 15.6444C8.49688 15.6444 9.13383 14.9015 8.4032 13.9341C8.4032 13.9341 7.65138 14.6453 8.25154 15.733C8.25154 15.733 8.34586 15.9056 8.33541 16.1618C8.33541 16.1618 7.49492 15.0167 7.4062 14.4155C7.4062 14.4155 7.45355 14.1801 7.59445 14.0442C7.59445 14.0442 8.16563 13.6254 8.27786 13.3011C8.27786 13.3011 8.39543 13.0556 8.38759 12.3392C8.38759 12.3392 7.24718 12.5509 7.35937 14.0491C7.35937 14.0491 7.33857 14.2424 7.32813 14.2947C7.32813 14.2947 6.81158 12.8699 7.1769 12.5456C7.1769 12.5456 8.47366 12.0775 8.29882 10.8278C8.29882 10.8278 7.40627 10.9952 7.21841 11.9626C7.21841 11.9626 7.17667 12.2815 7.0984 12.4279C7.0984 12.4279 7.01487 12.5798 7.00963 12.6321C7.00963 12.6321 6.95741 11.9625 7.07744 11.1415C7.07744 11.1415 7.29172 10.8486 7.49005 10.8068C7.49005 10.8068 8.5598 10.7232 8.88855 9.34792C8.88855 9.34792 7.81872 9.29577 7.31252 10.6789C7.31252 10.6789 7.20284 10.8123 7.11936 10.896C7.11936 10.896 7.3279 9.94933 7.63058 9.44731C7.63058 9.44731 7.72735 9.19907 8.09005 9.18076C8.09005 9.18076 9.40264 9.18826 9.84364 7.99334C9.84364 7.99334 8.75538 7.81558 8.10566 8.87186C8.10566 8.87186 8.02224 8.96602 7.86569 9.02878C7.86569 9.02878 8.22059 8.35972 8.88855 7.77403C8.88855 7.77403 10.0863 7.6487 10.1724 6.493C10.1724 6.493 10.1327 6.48663 10.0671 6.48498C10.0475 6.48438 10.0279 6.48423 10.0082 6.48453ZM13.5016 18.0183C13.6443 18.0184 13.7603 18.0653 13.7603 18.1231C13.7603 18.1808 13.6444 18.2277 13.5016 18.2278C13.3588 18.2277 13.2428 18.1808 13.2428 18.1231C13.2428 18.0653 13.3588 18.0184 13.5016 18.0183ZM13.5016 18.5024C13.6203 18.5025 13.7166 18.5494 13.7166 18.6071C13.7166 18.6649 13.6204 18.7118 13.5016 18.7119C13.3828 18.7118 13.2865 18.6649 13.2865 18.6071C13.2865 18.5494 13.3828 18.5025 13.5016 18.5024ZM13.5016 18.8652C13.6083 18.8654 13.6947 18.924 13.6947 18.9963C13.6947 19.0684 13.6083 19.1267 13.5016 19.1268C13.3948 19.1267 13.3084 19.0684 13.3084 18.9963C13.3084 18.924 13.3948 18.8654 13.5016 18.8652ZM12.865 18.1543C12.8656 18.1542 12.9279 18.1441 12.9279 18.2693C12.9279 18.2693 12.9144 18.4289 12.9796 18.5465C12.9796 18.5465 13.0788 18.6874 13.084 18.7449C13.084 18.7449 12.9488 18.7501 12.8391 18.4311C12.8391 18.4311 12.7712 18.1388 12.865 18.1543ZM14.164 18.4311C14.0543 18.7501 13.9191 18.7449 13.9191 18.7449C13.9243 18.6874 14.0235 18.5465 14.0235 18.5465C14.0887 18.4289 14.0752 18.2693 14.0752 18.2693C14.0752 18.144 14.1375 18.1542 14.1381 18.1543C14.2319 18.1388 14.164 18.4311 14.164 18.4311Z" fill="#FFEC00"/>
<path d="M10.41 7.08596C10.3537 7.5624 10.2887 7.98459 10.2891 8.47671C10.2913 11.5074 11.5197 14.1488 13.4939 15.1283C15.4681 14.1488 16.6965 11.5074 16.6988 8.47671C16.6991 7.98461 16.6341 7.5624 16.5778 7.08594C15.2536 7.68954 14.1178 7.42295 13.4939 7.08594C12.87 7.42295 11.7342 7.68957 10.41 7.08596Z" fill="#FFEC00"/>
<mask id="mask0_304_32608" style="mask-type:luminance" maskUnits="userSpaceOnUse" x="10" y="7" width="7" height="9">
<path d="M10.41 7.08596C10.3537 7.5624 10.2887 7.98459 10.2891 8.47671C10.2913 11.5074 11.5197 14.1488 13.4939 15.1283C15.4681 14.1488 16.6965 11.5074 16.6987 8.47671C16.6991 7.98461 16.6341 7.5624 16.5778 7.08594C15.2536 7.68954 14.1178 7.42295 13.4939 7.08594C12.87 7.42295 11.7342 7.68957 10.41 7.08596Z" fill="white"/>
</mask>
<g mask="url(#mask0_304_32608)">
<path d="M10.6484 6.875V15.3406" stroke="white" stroke-width="0.0907088"/>
<path d="M11 6.875V15.3406" stroke="white" stroke-width="0.0907088"/>
<path d="M11.375 6.875V15.3406" stroke="white" stroke-width="0.0907088"/>
<path d="M11.7852 6.875V15.3406" stroke="white" stroke-width="0.0907088"/>
<path d="M12.1602 6.875V15.3406" stroke="white" stroke-width="0.0907088"/>
<path d="M12.5352 6.875V15.3406" stroke="white" stroke-width="0.0907088"/>
<path d="M12.9141 6.875V15.3406" stroke="white" stroke-width="0.0907088"/>
<path d="M13.2891 6.875V15.3406" stroke="white" stroke-width="0.0907088"/>
<path d="M13.6953 6.875V15.3406" stroke="white" stroke-width="0.0907088"/>
<path d="M14.0703 6.875V15.3406" stroke="white" stroke-width="0.0907088"/>
<path d="M14.4219 6.875V15.3406" stroke="white" stroke-width="0.0907088"/>
<path d="M14.832 6.875V15.3406" stroke="white" stroke-width="0.0907088"/>
<path d="M15.2305 6.875V15.3406" stroke="white" stroke-width="0.0907088"/>
<path d="M15.6055 6.875V15.3406" stroke="white" stroke-width="0.0907088"/>
<path d="M15.9609 6.875V15.3406" stroke="white" stroke-width="0.0907088"/>
<path d="M16.3594 6.875V15.3406" stroke="white" stroke-width="0.0907088"/>
</g>
<mask id="mask1_304_32608" style="mask-type:luminance" maskUnits="userSpaceOnUse" x="10" y="7" width="7" height="9">
<path d="M10.41 7.08594C10.3537 7.56239 10.2887 7.98459 10.2891 8.4767C10.2913 11.5074 11.5196 14.1487 13.4939 15.1282C15.4681 14.1487 16.6964 11.5074 16.6987 8.4767C16.699 7.98459 16.634 7.56239 16.5777 7.08594C15.2536 7.68954 14.1178 7.42293 13.4939 7.08594C12.87 7.42293 11.7342 7.68954 10.41 7.08594Z" fill="white"/>
</mask>
<g mask="url(#mask1_304_32608)">
<path d="M9.9375 13.0723L17.5565 8.59766" stroke="white" stroke-width="1.57217"/>
</g>
<path d="M15.3855 9.26565C15.2433 9.37043 15.0985 9.47351 14.9717 9.59697C14.9325 9.63513 14.888 9.6714 14.8637 9.72136C14.854 9.74141 14.8585 9.76415 14.8623 9.78497C14.8682 9.81712 14.8672 9.8514 14.8798 9.8815C14.9056 9.94259 14.9696 9.97495 15.0291 9.9942C15.0816 10.0112 15.1323 10.0359 15.1868 10.0446C15.2114 10.0486 15.2318 10.081 15.1991 10.0929C15.0423 10.1503 14.9188 10.2835 14.8605 10.4417C14.8375 10.5039 14.8351 10.571 14.8235 10.636C14.8179 10.6666 14.7915 10.6932 14.7596 10.6918C14.719 10.6946 14.6932 10.6553 14.6825 10.6197C14.6721 10.5849 14.6751 10.5483 14.6722 10.5126C14.66 10.4886 14.6494 10.5418 14.6424 10.5522C14.6167 10.6202 14.6195 10.702 14.6631 10.7617C14.6932 10.8027 14.7412 10.8358 14.7932 10.8348C14.8467 10.8338 14.8865 10.792 14.9144 10.7503C14.943 10.7078 14.9508 10.6552 14.9566 10.6053C14.9625 10.5557 14.961 10.5053 14.9755 10.4567C15.01 10.3415 15.0999 10.2536 15.1989 10.19C15.2353 10.1667 15.2668 10.1355 15.2901 10.0992C15.3163 10.0871 15.347 10.0951 15.3734 10.1023C15.4672 10.1279 15.5655 10.1471 15.6628 10.1349C15.7127 10.1286 15.7654 10.105 15.787 10.0555C15.8181 9.98451 15.795 9.90395 15.7633 9.83751C15.7484 9.80665 15.7313 9.77691 15.7121 9.74851L15.6585 9.88143C15.6877 9.90799 15.7211 9.93804 15.7273 9.97902C15.7324 10.0123 15.6977 10.0268 15.6713 10.0324C15.5839 10.0509 15.4928 10.0312 15.4114 9.99852C15.2735 9.94312 15.1317 9.89828 14.9896 9.85515C14.966 9.848 14.9292 9.82185 14.9511 9.7961C14.9695 9.7745 14.993 9.75788 15.0147 9.73971L15.37 9.44233C15.3746 9.38344 15.3787 9.32413 15.3855 9.26565ZM14.9199 9.34255C14.9191 9.37752 14.918 9.41278 14.9174 9.44755L15.021 9.45806L15.0236 9.34516L14.9199 9.34255ZM15.3631 9.64165L15.3528 9.75715C15.3845 9.76673 15.4163 9.77612 15.4487 9.78344C15.4538 9.74306 15.4598 9.7028 15.4667 9.6627C15.4323 9.65506 15.3978 9.64805 15.3631 9.64165ZM14.3646 10.0481C14.2931 10.0476 14.2278 10.0938 14.1945 10.1558C14.163 10.2145 14.1409 10.2792 14.1334 10.3455C14.1282 10.3919 14.1311 10.4497 14.1743 10.4773C14.2096 10.5 14.2528 10.489 14.292 10.4884C14.3285 10.4877 14.3725 10.4786 14.4016 10.5035C14.4247 10.5233 14.4006 10.5526 14.3848 10.5683C14.3455 10.6075 14.2967 10.6357 14.2477 10.6605C14.1667 10.7017 14.0777 10.7374 13.985 10.7305C13.9231 10.726 13.8686 10.6848 13.8403 10.6295C13.8241 10.5979 13.8145 10.5632 13.8084 10.5282C13.7967 10.6186 13.7977 10.714 13.833 10.7994C13.8564 10.856 13.9091 10.8989 13.97 10.9065C14.0571 10.9172 14.1429 10.8858 14.2199 10.848C14.2797 10.8186 14.3393 10.7872 14.3891 10.7416C14.4463 10.6891 14.4876 10.6119 14.4779 10.5323C14.4717 10.4815 14.4558 10.4287 14.4201 10.3906C14.397 10.3661 14.3619 10.3629 14.3291 10.3672C14.2949 10.3718 14.2459 10.3751 14.2286 10.3396C14.2118 10.3052 14.2276 10.2656 14.2414 10.233C14.2548 10.2016 14.287 10.1758 14.3237 10.1846C14.3625 10.194 14.3848 10.2437 14.4274 10.2373C14.4619 10.2322 14.4756 10.1927 14.4813 10.1621C14.4889 10.1217 14.4672 10.0792 14.4293 10.0622C14.409 10.0531 14.3868 10.0478 14.3646 10.0481ZM13.2586 10.4867L13.2507 10.6073L13.1212 10.6047C13.123 10.6536 13.1245 10.7029 13.1264 10.7517L13.2715 10.7621L13.2871 10.6493L13.3986 10.6546L13.4115 10.4945L13.2586 10.4867ZM13.4874 10.7956C13.4157 10.7965 13.3522 10.8433 13.3144 10.9037C13.2803 10.9581 13.2631 11.0309 13.294 11.0907C13.3179 11.1366 13.3601 11.1787 13.4144 11.1823C13.4822 11.1867 13.5392 11.1389 13.5794 11.0887C13.6013 11.0614 13.6201 11.0316 13.637 11.001C13.6638 11.0052 13.6844 11.0325 13.6766 11.06C13.664 11.1049 13.6313 11.1414 13.597 11.1711C13.5011 11.2538 13.3969 11.3316 13.2769 11.3739C13.2108 11.3972 13.1294 11.4099 13.0697 11.3662C13.0333 11.3396 13.0044 11.3042 12.9735 11.2715C12.9405 11.2366 12.9071 11.202 12.875 11.1663C12.8577 11.2022 12.8403 11.238 12.8232 11.2739C12.8762 11.3165 12.9276 11.3674 12.9518 11.433C12.9665 11.4727 12.9548 11.5194 12.923 11.5476C12.8671 11.5969 12.7917 11.6136 12.7209 11.6278C12.6877 11.6271 12.7162 11.6692 12.7243 11.6862C12.7401 11.7193 12.7718 11.7562 12.8115 11.7468C12.8901 11.7284 12.9695 11.6929 13.0213 11.6283C13.049 11.5938 13.0627 11.549 13.0616 11.5048C13.1263 11.5353 13.2016 11.53 13.2691 11.5137C13.374 11.4883 13.4737 11.4404 13.5601 11.3761C13.6412 11.3157 13.719 11.2441 13.7631 11.1508C13.7911 11.0916 13.7921 11.0191 13.7582 10.9616C13.7313 10.916 13.6897 10.8809 13.6468 10.8515C13.5999 10.8193 13.545 10.7947 13.4874 10.7956ZM14.3418 10.8409L14.3159 10.9432C14.2883 10.9345 14.2607 10.9257 14.2331 10.917L14.1917 11.0115L14.3005 11.0796L14.3316 10.9669L14.4197 11.0115L14.4508 10.8907C14.4144 10.8742 14.3782 10.8574 14.3418 10.8409ZM13.4756 10.9182C13.4967 10.919 13.5392 10.9265 13.5216 10.956C13.5114 10.9956 13.4771 11.0337 13.4344 11.0322C13.3987 11.0309 13.4012 10.9905 13.4136 10.9646C13.4253 10.9403 13.4472 10.9182 13.4756 10.9182ZM12.5276 11.3359C12.5039 11.4065 12.4391 11.4523 12.3763 11.4854C12.3333 11.508 12.2863 11.5204 12.2398 11.5339C12.1695 11.5542 12.0924 11.573 12.0403 11.6264C12.0059 11.6617 11.9785 11.7157 11.9995 11.7648C12.0222 11.8179 12.0751 11.8502 12.1258 11.8711C12.1047 11.8323 12.0991 11.7801 12.1293 11.7441C12.1703 11.6953 12.234 11.6684 12.2948 11.6646C12.3104 11.6637 12.3493 11.6481 12.3278 11.6756C12.2769 11.7868 12.2309 11.9045 12.2276 12.0285C12.2257 12.1011 12.2497 12.1784 12.3079 12.2247C12.3809 12.2827 12.4786 12.2943 12.5683 12.2872C12.6288 12.2824 12.6876 12.2632 12.7433 12.2397C12.8423 12.1979 12.9329 12.1223 12.9694 12.0177C12.9805 11.9859 12.9874 11.9522 12.9864 11.9184C12.8808 12.0017 12.7667 12.0817 12.6355 12.1156C12.5651 12.1339 12.48 12.1434 12.4203 12.0962C12.3588 12.0475 12.3252 11.966 12.3345 11.8872C12.3434 11.8123 12.3771 11.7423 12.419 11.6808C12.4731 11.6014 12.5383 11.5298 12.6106 11.467L12.5276 11.3359Z" fill="#FFEC00"/>
</g>
<path d="M21.5 0.75C24.1234 0.75 26.25 2.87665 26.25 5.5V21.5C26.25 24.1234 24.1234 26.25 21.5 26.25H5.5C2.87665 26.25 0.75 24.1234 0.75 21.5V5.5C0.75 2.87665 2.87665 0.75 5.5 0.75H21.5Z" stroke="#E4E4E7" stroke-width="1.5"/>
<defs>
<clipPath id="clip0_304_32608">
<path d="M1.5 5.5C1.5 3.29086 3.29086 1.5 5.5 1.5H21.5C23.7091 1.5 25.5 3.29086 25.5 5.5V21.5C25.5 23.7091 23.7091 25.5 21.5 25.5H5.5C3.29086 25.5 1.5 23.7091 1.5 21.5V5.5Z" fill="white"/>
</clipPath>
</defs>
</svg>
