<svg width="27" height="27" viewBox="0 0 27 27" fill="none" xmlns="http://www.w3.org/2000/svg">
<g clip-path="url(#clip0_304_32544)">
<path d="M-10.4688 1.51562H37.4609V25.4805H-10.4688V1.51562Z" fill="#3771C8"/>
<path d="M15.125 1.51562H37.4609V25.4805H15.125V1.51562Z" fill="#FFFF00"/>
<path d="M8.28125 -0.296875H18.7118V27.4668H8.28125V-0.296875Z" fill="white"/>
<path d="M16.7434 17.92C16.7434 17.92 16.7569 17.8357 16.6564 17.8404L16.637 17.7416C16.637 17.7416 16.632 17.6911 16.5999 17.7233C16.5999 17.7233 16.5326 17.792 16.4709 17.7802L16.4575 17.6441C16.4575 17.6441 16.451 17.6133 16.3957 17.6261C16.3957 17.6261 16.2973 17.6517 16.2726 17.6519C16.2726 17.6519 16.241 17.5593 16.2589 17.4912C16.2589 17.4912 16.2949 17.3856 16.166 17.4424L16.0311 17.5179L15.9803 17.3575C15.9803 17.3575 15.9738 17.3204 15.9309 17.3394L15.8081 17.3961L15.8063 17.1795C15.8063 17.1795 15.8095 17.1268 15.7506 17.1553C15.7506 17.1553 15.6121 17.2181 15.5902 17.1505C15.5902 17.1505 15.5633 16.9795 15.4962 16.9719L15.3245 17.0663L15.28 16.9182L15.1203 16.9752L15.0136 16.7596C15.0136 16.7596 14.9947 16.7103 14.9457 16.754L14.7501 16.9352C14.7501 16.9352 14.6671 16.8811 14.6378 16.7753C14.6378 16.7753 14.6227 16.7152 14.5576 16.7636L14.386 16.8827C14.386 16.8827 14.3493 16.9016 14.3304 16.8646L14.3116 16.8277L14.2739 16.7537C14.2739 16.7537 14.253 16.7152 14.2122 16.7419C14.2122 16.7419 14.0469 16.861 13.9979 16.9047C13.9979 16.9047 13.9585 16.9411 13.9177 16.893C13.9177 16.893 13.7804 16.693 13.7561 16.7274L13.6403 16.877C13.6403 16.877 13.5855 16.9641 13.5846 16.8527L13.5125 13.3831C13.5125 13.3831 13.5614 13.1599 13.8383 13.4591C13.8383 13.4591 13.7405 13.5528 13.7294 13.7014C13.7294 13.7014 13.7183 13.8315 13.6939 13.8688C13.6939 13.8688 13.6576 13.9434 13.7072 13.9801C13.7072 13.9801 13.726 14.0171 13.7078 14.0482C13.7078 14.0482 13.672 14.1785 13.7647 14.2024C13.7647 14.2024 13.8573 14.2263 13.8888 14.3003C13.8888 14.3003 13.9326 14.3927 14.019 14.392C14.019 14.392 14.1115 14.3974 14.1486 14.4218C14.1486 14.4218 14.2845 14.4454 14.2899 14.3586C14.2899 14.3586 14.3125 14.2084 14.3858 14.0607C14.3858 14.0607 14.5915 13.4677 13.9301 13.3964C13.9301 13.3964 13.8801 13.3102 13.7309 13.163L13.5878 13.0158C13.5878 13.0158 13.641 12.0623 13.634 11.9571C13.634 11.9571 13.5844 11.9327 13.5597 11.9268L13.5831 11.7781C13.5831 11.7781 13.5948 11.7099 13.5207 11.692C13.5207 11.692 13.4838 11.2685 13.9711 11.3137C13.9711 11.3137 14.2446 11.3316 14.2436 11.896C14.2436 11.896 14.3363 11.9323 14.3656 11.7588C14.3656 11.7588 14.4077 11.6408 14.4454 11.7333C14.4454 11.7333 14.4902 11.9186 14.4231 11.9934C14.4231 11.9934 14.3437 12.0746 14.4546 12.055C14.4546 12.055 14.4734 12.1105 14.4979 12.0917L14.5224 12.073L14.645 11.9915C14.645 11.9915 14.7643 12.2318 14.4604 12.7295C14.4604 12.7295 14.3994 12.8126 14.4854 12.7665L14.7305 12.6033C14.7305 12.6033 14.7921 12.5904 14.8113 12.6707C14.8113 12.6707 14.8245 12.7758 14.8677 12.7816C14.8677 12.7816 14.8793 12.7825 14.8733 12.732C14.8733 12.732 14.8525 12.4723 14.964 12.5271C14.964 12.5271 14.9671 12.6571 15.076 12.6436C15.076 12.6436 15.1061 12.5567 15.005 12.2791C15.005 12.2791 14.9797 12.2112 15.0413 12.1984C15.0413 12.1984 15.1336 12.179 15.1395 12.1541C15.1395 12.1541 15.1469 12.1411 15.0899 12.1237C15.0899 12.1237 14.8982 12.0511 14.9777 11.9761C14.9777 11.9761 15.0601 11.9487 15.1315 11.9438C15.1315 11.9438 15.2887 11.91 15.3093 11.8309C15.3093 11.8309 15.3275 11.7936 15.2659 11.8065C15.2659 11.8065 15.1824 11.8113 15.0684 11.7773C15.0684 11.7773 14.9943 11.7656 14.9327 11.76C14.9327 11.76 14.9563 11.6483 15.0425 11.629C15.0425 11.629 15.1901 11.5968 15.1833 11.5287L14.9059 11.525C14.9059 11.525 14.8933 11.488 14.9852 11.4253C14.9852 11.4253 15.1692 11.3308 15.0764 11.2821C15.0764 11.2821 14.9659 11.345 14.75 11.3221C14.75 11.3221 14.7298 11.1181 14.766 11.0373C14.766 11.0373 14.7886 10.9833 14.7473 11.0128C14.7473 11.0128 14.6554 11.0817 14.5875 11.0575C14.5875 11.0575 14.5805 10.9585 14.6416 10.9085C14.6416 10.9085 14.6592 10.8662 14.6167 10.8716C14.6167 10.8716 14.4942 10.9593 14.4385 10.935C14.4385 10.935 14.4076 10.9291 14.4442 10.8855C14.4442 10.8855 14.4991 10.8169 14.4499 10.8297C14.4499 10.8297 14.3269 10.8679 14.266 10.9489C14.266 10.9489 14.2355 10.9863 14.2106 10.9494C14.2106 10.9494 14.1855 10.9001 14.1675 10.9498C14.1675 10.9498 14.1386 11.179 13.676 11.1274C13.676 11.1274 14.073 10.7278 14.6467 10.7847C14.6467 10.7847 14.869 10.8322 14.9829 11.1592C14.9829 11.1592 15.0621 11.0595 15.0492 11.0039C15.0492 11.0039 15.0233 10.8618 15.0978 10.9292C15.0978 10.9292 15.2033 10.9901 15.3342 11.1684C15.3342 11.1684 15.3836 11.1742 15.3646 11.1186C15.3646 11.1186 15.3197 10.9149 15.2572 10.8164C15.2572 10.8164 15.2505 10.7546 15.3672 10.7102C15.3672 10.7102 15.441 10.6971 15.379 10.6606C15.379 10.6606 15.2253 10.6867 15.2186 10.6372C15.2186 10.6372 15.212 10.5816 15.2671 10.5378C15.2671 10.5378 15.3528 10.4813 15.3337 10.4134C15.3337 10.4134 15.2847 10.4448 15.1923 10.4518L15.0999 10.4589L14.9952 10.4598C14.9952 10.4598 15.0622 10.3663 15.0492 10.3046L14.8158 10.3933C14.8158 10.3933 14.736 10.4312 14.7597 10.3257L14.7886 10.1027C14.7886 10.1027 14.6057 10.3209 14.5069 10.3032C14.5069 10.3032 14.4634 10.2665 14.5544 10.1048C14.5544 10.1048 14.5375 10.0864 14.5114 10.1113C14.5114 10.1113 14.3341 10.28 14.2723 10.262C14.2723 10.262 14.2717 10.2001 14.3139 10.0883C14.3139 10.0883 14.3603 10.0046 14.3143 10.0293C14.3052 10.0342 14.2949 10.0389 14.2949 10.0389C14.2949 10.0389 14.0768 10.1337 13.9166 10.4632C13.9166 10.4632 13.7959 10.7427 13.5879 10.924C13.5879 10.924 13.5673 10.6829 13.7928 10.3962L14.0917 10.0531C14.0917 10.0531 14.3743 9.79348 14.6281 10.0731C14.6281 10.0731 14.6229 9.88202 14.7253 9.90521C14.7253 9.90521 14.9046 9.97167 14.9846 9.95855C14.9846 9.95855 14.9359 9.74314 14.8407 9.71848L14.7604 9.69446C14.7604 9.69446 14.6861 9.65799 14.7412 9.62039C14.7412 9.62039 14.8818 9.48294 14.8079 9.49602C14.8079 9.49602 14.7038 9.56498 14.6604 9.5468C14.6604 9.5468 14.5986 9.52261 14.5496 9.56642C14.5496 9.56642 14.4884 9.60404 14.4574 9.58577C14.4574 9.58577 14.4419 9.48491 14.4805 9.41845C14.4805 9.41845 14.5038 9.3609 14.4495 9.38159C14.4495 9.38159 14.3512 9.41962 14.2533 9.5071C14.2533 9.5071 14.1861 9.56961 14.1917 9.50146C14.1917 9.50146 14.2149 9.34656 14.1784 9.39016L14.0016 9.61459C14.0016 9.61459 13.9467 9.68932 13.9399 9.60895L13.9512 9.48501C13.9512 9.48501 13.7306 9.63558 13.6589 9.88989C13.6589 9.88989 13.6545 10.088 13.6114 10.0883C13.6114 10.0883 13.5741 10.0578 13.603 9.83468C13.603 9.83468 13.7331 9.2023 13.4785 8.99412C13.4785 8.99412 13.4062 8.97143 13.393 9.08156C13.393 9.08156 13.3437 9.42856 13.3389 9.58951C13.3389 9.58951 13.3068 9.80022 13.3598 10.2206C13.3598 10.2206 13.4138 10.7523 13.342 11.0005C13.342 11.0005 13.1994 10.8965 13.2086 10.5437C13.2086 10.5437 13.2408 9.99882 13.1344 9.8203C13.1344 9.8203 13.0971 9.78343 13.0978 9.86394C13.0978 9.86394 13.1055 10.0309 13.0623 10.0313C13.0623 10.0313 13.0249 9.97597 13.0302 9.88309L13.0355 9.79018C13.0355 9.79018 13.0519 9.6656 12.9982 9.74723C12.9982 9.74723 12.9372 9.81586 12.9301 9.71067L12.9224 9.53745C12.9224 9.53745 12.9096 9.4819 12.8792 9.53782C12.8792 9.53782 12.8192 9.71788 12.7756 9.66873C12.7756 9.66873 12.706 9.46512 12.5693 9.33638C12.5693 9.33638 12.5324 9.34289 12.5451 9.39233C12.5451 9.39233 12.6212 9.6268 12.5159 9.57819C12.5159 9.57819 12.3303 9.49325 12.2739 9.38232C12.2739 9.38232 12.2179 9.32711 12.2247 9.39513C12.2247 9.39513 12.2877 9.5078 12.238 9.51264C12.238 9.51264 12.1524 9.52842 12.1019 9.45812C12.1019 9.45812 12.0337 9.40304 12.0466 9.4772C12.0466 9.4772 12.1037 9.65613 12.0667 9.65646C12.0667 9.65646 11.9867 9.66337 11.9248 9.63301C11.9248 9.63301 11.7844 9.57583 11.7953 9.62794C11.8017 9.65879 11.8203 9.671 11.8577 9.72021C11.8577 9.72021 11.9261 9.78767 11.8585 9.80686C11.8585 9.80686 11.6926 9.86404 11.5476 10.1995C11.5476 10.1995 11.5272 10.2744 11.6216 10.205C11.6216 10.205 12.1531 9.66807 12.6886 10.2822L12.6214 10.357L12.3603 10.1056C12.3603 10.1056 12.3053 10.1618 12.3866 10.2848C12.3866 10.2848 12.4515 10.3704 12.4004 10.4518C12.4004 10.4518 11.9858 10.0157 11.9717 10.0595C11.9717 10.0595 11.9228 10.1034 12.0288 10.2571C12.0288 10.2571 12.0555 10.3745 12.0052 10.3749C12.0052 10.3749 11.817 10.3601 11.6667 10.3418C11.6667 10.3418 11.6023 10.3366 11.5642 10.321C11.5642 10.321 11.5323 10.3754 11.6243 10.4179C11.6243 10.4179 11.9003 10.5615 11.7173 10.5848C11.7173 10.5848 11.5721 10.6078 11.3986 10.4902C11.3986 10.4902 11.3566 10.6096 11.5302 10.7541C11.5302 10.7541 11.5791 10.7862 11.5363 10.8244C11.5363 10.8244 11.4132 10.9175 11.3823 11.0854C11.3823 11.0854 11.3673 11.2154 11.3302 11.2807C11.3302 11.2807 11.4111 11.3016 11.4965 11.1981L11.5659 11.1325C11.5659 11.1325 11.6089 11.1159 11.6202 11.1807C11.6202 11.1807 11.6224 11.4241 11.6762 11.4237C11.6762 11.4237 11.6991 11.4292 11.7188 11.3584C11.7188 11.3584 11.8741 10.7305 12.3442 10.7956C12.3442 10.7956 12.6892 10.825 13.0097 11.1251C13.0097 11.1251 12.9938 11.1523 12.8861 11.1532C12.8861 11.1532 12.7444 10.9706 12.3826 10.8818C12.3826 10.8818 12.2962 10.8609 12.3561 10.9199C12.3561 10.9199 12.5025 11.0322 12.4489 11.0651C12.4489 11.0651 12.2006 11.0079 12.0446 11.0363C12.0446 11.0363 12.0286 11.0634 12.0719 11.0847C12.0719 11.0847 12.2342 11.159 12.1483 11.1869C12.1483 11.1869 11.9218 11.1726 11.7881 11.282C11.7881 11.282 11.8317 11.3357 11.9342 11.3564C11.9342 11.3564 11.7196 11.4611 11.6399 11.5755C11.6399 11.5755 11.6239 11.608 11.6778 11.6075C11.6778 11.6075 11.947 11.5835 11.8828 11.6382C11.8828 11.6382 11.6468 11.7593 11.5259 12.0958C11.5259 12.0958 11.521 12.1499 11.5746 12.117C11.5746 12.117 11.746 12.0019 11.7466 12.0722C11.7466 12.0722 11.7289 12.5105 11.7777 12.5479C11.7777 12.5479 11.8106 12.618 11.9324 12.3735C11.9324 12.3735 12.0002 12.1994 12.0936 12.3233L12.2188 12.4737C12.2188 12.4737 12.2735 12.5597 12.2888 12.4731C12.2888 12.4731 12.3253 12.3321 12.3132 12.1753C12.3132 12.1753 12.3253 12.1295 12.3508 12.1642C12.3508 12.1642 12.3544 12.2884 12.4161 12.2339L12.4155 12.169C12.4155 12.169 12.5606 12.1245 12.5615 12.2272L12.5624 12.33C12.5624 12.33 12.5355 12.4295 12.58 12.4976L12.5808 12.5841C12.5808 12.5841 12.576 12.6545 12.6133 12.6001L12.6505 12.5457L12.7036 12.464C12.7036 12.464 12.7355 12.415 12.7628 12.4526C12.7628 12.4526 12.8886 12.6625 13.0988 12.6768L13.1174 12.3467C13.1174 12.3467 13.1875 12.3407 13.143 12.1896C13.143 12.1896 13.1209 12.1249 13.1584 12.103C13.1584 12.103 13.1827 12.0803 13.1579 12.0489C13.1579 12.0489 13.1248 11.9572 13.1892 11.9242C13.1892 11.9242 13.205 11.8944 13.1777 11.8485C13.1777 11.8485 13.1211 11.5352 13.2176 11.4803C13.2176 11.4803 13.2713 11.4582 13.2717 11.5069L13.2721 11.5555C13.2721 11.5555 13.206 13.0563 13.232 13.9039L13.271 16.9421C13.271 16.9421 13.2294 17.1035 13.0799 16.9376C13.0799 16.9376 13.0112 16.8329 12.9503 16.9078C12.9503 16.9078 12.9201 16.9824 12.8889 16.9455L12.7833 16.8536L12.7407 16.9035C12.7407 16.9035 12.717 16.9443 12.6726 16.8731C12.6726 16.8731 12.6403 16.8225 12.5985 16.8614L12.5007 16.9489C12.5007 16.9489 12.3325 16.7524 12.2584 16.7345L12.0941 16.9773C12.0941 16.9773 12.0518 17.0643 12.0143 17.0027C12.0143 17.0027 11.968 16.9339 11.934 16.9911C11.921 17.013 11.9158 17.0222 11.9158 17.0222C11.9158 17.0222 11.9022 17.0545 11.8667 17.0411C11.8667 17.0411 11.8145 16.9841 11.7837 17.0503C11.7601 17.1009 11.7563 17.1103 11.7563 17.1103L11.7021 17.2469C11.7021 17.2469 11.6657 17.3215 11.6159 17.26C11.6159 17.26 11.5226 17.1619 11.5112 17.2671L11.4995 17.3477C11.4995 17.3477 11.4878 17.4159 11.432 17.3793C11.432 17.3793 11.373 17.3233 11.3457 17.3738L11.285 17.4857C11.285 17.4857 11.2423 17.5356 11.2112 17.5049L11.1801 17.4743C11.1801 17.4743 11.1279 17.4059 11.1062 17.4749C11.0905 17.5249 11.0822 17.5494 11.0822 17.5494C11.0822 17.5494 11.069 17.6254 11.0024 17.5873L10.9219 17.5447L10.8858 17.644C10.8858 17.644 10.8694 17.7068 10.812 17.657C10.812 17.657 10.7498 17.5957 10.7258 17.6701L10.7018 17.7446C10.7018 17.7446 10.678 17.8377 10.6345 17.7948C10.6345 17.7948 10.5565 17.6934 10.5297 17.8019L10.5058 17.8888L10.3825 17.8774C10.3825 17.8774 10.2838 17.866 10.3524 17.9581L10.4209 18.0504C10.4209 18.0504 10.4431 18.1121 10.3787 18.1436C10.7992 18.2893 11.0641 18.2613 11.2804 18.1723C11.4968 18.0833 11.6646 17.9333 12.0297 17.863C12.43 17.7987 12.9333 17.8129 12.9333 17.8129C13.2448 17.7062 13.5342 17.7234 13.8556 17.7486C13.8556 17.7486 14.124 17.8493 14.3386 17.8149C14.3386 17.8149 14.5047 17.7937 14.7027 17.8005C15.8717 17.8188 16.592 18.2718 16.7434 17.92Z" fill="#161413"/>
<path d="M12.8777 17.6889C12.0881 17.6155 11.6226 17.9476 11.6226 17.9476L11.4069 17.9433C11.4004 17.9124 11.412 17.8256 11.412 17.8256C11.4184 17.7721 11.4918 17.8017 11.4918 17.8017L11.5751 17.8083C11.6112 17.7089 11.6511 17.6812 11.6511 17.6812L11.7561 17.7051C11.8372 17.7253 11.8367 17.6626 11.8367 17.6626C11.8367 17.6626 11.8365 17.6345 11.8477 17.6052C11.8665 17.5559 11.9029 17.5738 11.9029 17.5738L11.9834 17.6226C12.0579 17.69 12.1237 17.4604 12.1237 17.4604C12.1237 17.4604 12.1229 17.4599 12.1479 17.4107C12.1674 17.3726 12.1971 17.3917 12.1971 17.3917L12.3088 17.4774C12.3707 17.5078 12.3822 17.4148 12.3822 17.4148L12.3878 17.3591C12.3873 17.291 12.437 17.34 12.437 17.34L12.5115 17.4012C12.5735 17.4502 12.6277 17.2951 12.6277 17.2951C12.6584 17.2236 12.7076 17.2758 12.7076 17.2758L12.7947 17.3616C12.8568 17.4107 12.9176 17.3234 12.9176 17.3234C12.9939 17.2401 13.0533 17.3346 13.0533 17.3346L13.1031 17.3961C13.153 17.4575 13.1957 17.4138 13.1957 17.4138L13.2506 17.3514C13.3055 17.2767 13.3742 17.3874 13.3742 17.3874C13.4366 17.4671 13.4728 17.3804 13.4728 17.3804C13.5516 17.2312 13.6453 17.3665 13.6453 17.3665C13.703 17.441 13.7441 17.3903 13.7441 17.3903L13.8843 17.222C13.9115 17.1995 13.9336 17.234 13.9336 17.234L14.0274 17.3693L14.0883 17.2945C14.1127 17.2571 14.1499 17.2939 14.1499 17.2939L14.1935 17.343C14.2433 17.3921 14.2862 17.3669 14.2862 17.3669L14.3779 17.2919L14.4071 17.3398C14.4465 17.4085 14.5261 17.3277 14.5261 17.3277C14.5567 17.2903 14.5693 17.3212 14.5693 17.3212L14.6625 17.4132L14.7177 17.3693C14.7605 17.338 14.7792 17.3626 14.7792 17.3626L14.8355 17.4611L14.9213 17.3984L14.9588 17.46C14.9902 17.5216 15.0697 17.4652 15.0697 17.4652C15.1558 17.4397 15.1562 17.483 15.1562 17.483L15.1629 17.5448L15.2737 17.5253C15.3073 17.5132 15.3109 17.5435 15.3109 17.5435L15.3298 17.5929C15.3488 17.6608 15.404 17.6293 15.404 17.6293L15.447 17.6104L15.5095 17.7026L15.6017 17.6709C15.6944 17.7011 15.6086 17.7575 15.6086 17.7575C15.4486 17.7899 15.2321 17.6989 15.2321 17.6989C14.8549 17.5475 14.2462 17.7201 14.2462 17.7201C14.1785 17.7393 14.1351 17.7087 14.1351 17.7087C13.5293 17.4975 13.0193 17.6691 13.0193 17.6691C12.9641 17.7005 12.8777 17.6889 12.8777 17.6889ZM16.3923 17.8619L16.3726 17.7259C16.3726 17.7259 16.3292 17.7016 16.2802 17.7392C16.2802 17.7392 16.2186 17.7397 16.1938 17.7152L16.1862 17.5667C16.1862 17.5667 16.1614 17.536 16.1123 17.5612L16.0632 17.5863L16.0019 17.6178C16.0019 17.6178 15.9516 17.6448 15.9397 17.5689L15.9329 17.4885C15.9329 17.4885 15.9104 17.3977 15.8278 17.4585C15.8278 17.4585 15.7056 17.5772 15.7163 17.3914L15.7217 17.3048C15.7217 17.3048 15.7284 17.2373 15.6536 17.2682L15.58 17.2998C15.58 17.2998 15.5002 17.3439 15.4931 17.2387C15.4861 17.1335 15.4861 17.1335 15.4861 17.1335C15.4861 17.1335 15.473 17.0594 15.4179 17.097L15.3627 17.1346L15.2953 17.1785C15.2953 17.1785 15.2459 17.1666 15.2391 17.0924C15.2391 17.0924 15.2444 16.9996 15.1709 17.0435L15.0974 17.0936C15.0974 17.0936 15.0229 17.0386 15.0161 16.9706C15.0161 16.9706 15.0091 16.8655 14.9596 16.8535L14.7701 17.0223C14.7701 17.0223 14.7149 17.0661 14.6774 16.9984L14.6085 16.8691C14.6085 16.8691 14.565 16.8323 14.4977 16.8886L14.4121 16.9574C14.4121 16.9574 14.3572 17.026 14.3011 16.9584L14.2325 16.8723C14.2325 16.8723 14.2013 16.8231 14.1462 16.8731L14.0912 16.9231L14.0117 16.9919C14.0117 16.9919 13.9508 17.0729 13.8823 16.9869L13.8138 16.9008C13.8138 16.9008 13.7639 16.8333 13.7335 16.883L13.7031 16.9327L13.5692 17.1258C13.5692 17.1258 13.5495 17.1784 13.6008 17.2183C13.6495 17.2563 13.6505 17.255 13.6505 17.255C13.6505 17.255 13.7126 17.3102 13.7491 17.2603L13.8834 17.1045C13.8834 17.1045 13.9201 17.0489 13.9557 17.0934C13.9796 17.1234 13.9927 17.1448 13.9927 17.1448C13.9927 17.1448 14.0494 17.2458 14.0812 17.1893L14.1175 17.1085C14.1175 17.1085 14.1357 17.0565 14.1816 17.1151C14.2186 17.1623 14.229 17.1756 14.229 17.1756C14.229 17.1756 14.2731 17.2546 14.3281 17.2181L14.3953 17.1556C14.3953 17.1556 14.4503 17.1118 14.4632 17.1735C14.4632 17.1735 14.4703 17.2725 14.5376 17.2224L14.5866 17.1786C14.5866 17.1786 14.6075 17.1437 14.6299 17.1968C14.6557 17.2582 14.6551 17.2584 14.6551 17.2584C14.6551 17.2584 14.6678 17.3079 14.7167 17.2703L14.7658 17.2328C14.7658 17.2328 14.8208 17.1827 14.8397 17.2383C14.8397 17.2383 14.8407 17.3497 14.896 17.3121C14.896 17.3121 14.963 17.2371 14.9821 17.3051L14.9827 17.3609C14.9827 17.3609 15.0079 17.4349 15.0875 17.3722C15.0875 17.3722 15.2161 17.2845 15.2292 17.3772C15.2292 17.3772 15.2301 17.47 15.2914 17.4262C15.2914 17.4262 15.3587 17.3698 15.3714 17.4192L15.3967 17.4809C15.3967 17.4809 15.4095 17.5488 15.4586 17.5175C15.4586 17.5175 15.5136 17.4737 15.5202 17.517C15.5202 17.517 15.5089 17.6346 15.5948 17.5905L15.6438 17.5592C15.6438 17.5592 15.699 17.5216 15.7119 17.5895C15.7119 17.5895 15.7189 17.6823 15.7618 17.6571C15.7618 17.6571 15.8542 17.6075 15.8423 17.6873C15.8423 17.6873 15.8286 17.7815 16.0096 17.7973C16.0096 17.7973 16.2256 17.8325 16.2749 17.8382C16.2749 17.8382 16.3552 17.8557 16.3923 17.8619ZM10.5573 18.0498C10.5573 18.0498 10.9324 17.9537 11.0923 17.9213L11.1713 17.7907L11.2888 17.8391C11.2888 17.8391 11.3135 17.8451 11.3316 17.7954L11.3497 17.7457L11.3738 17.6836C11.3738 17.6836 11.4039 17.6091 11.4537 17.6644C11.5035 17.7196 11.5035 17.7196 11.5035 17.7196C11.5035 17.7196 11.5221 17.7318 11.5402 17.6884L11.5824 17.5766C11.5824 17.5766 11.6065 17.5145 11.6685 17.5573L11.7305 17.6001C11.7305 17.6001 11.7542 17.6208 11.7673 17.5812C11.7839 17.531 11.7853 17.5315 11.7853 17.5315L11.8215 17.4322C11.8215 17.4322 11.8395 17.3763 11.883 17.4254C11.9266 17.4746 11.9266 17.4746 11.9266 17.4746L11.9778 17.5313L12.0976 17.2936C12.0976 17.2936 12.1277 17.2128 12.1775 17.2681C12.2273 17.3234 12.2273 17.3234 12.2273 17.3234C12.2273 17.3234 12.3207 17.4277 12.3197 17.3163C12.3197 17.3163 12.3246 17.1739 12.3864 17.1858L12.4918 17.2653C12.4918 17.2653 12.5476 17.3082 12.5841 17.2459C12.6205 17.1837 12.6205 17.1837 12.6205 17.1837L12.6509 17.1277L12.7936 17.2441C12.7936 17.2441 12.8435 17.3055 12.9047 17.2555L12.9659 17.2054L13.0087 17.1679L13.127 17.3091C13.127 17.3091 13.1611 17.3502 13.2009 17.2962C13.2477 17.2324 13.2496 17.2338 13.2496 17.2338C13.2496 17.2338 13.2862 17.184 13.3296 17.2145L13.373 17.2451C13.373 17.2451 13.4353 17.3188 13.4656 17.2628L13.4959 17.2069C13.4959 17.2069 13.5168 17.1809 13.4645 17.1329C13.4289 17.1003 13.4272 17.1023 13.4272 17.1023C13.4272 17.1023 13.3157 16.9923 13.2738 17.0343L13.236 17.0854C13.236 17.0854 13.2241 17.1288 13.1434 17.0676L13.0627 17.0065C13.0627 17.0065 13.0138 16.9514 12.9949 17.0009C12.9949 17.0009 12.9528 17.1251 12.903 17.0575C12.8531 16.9898 12.8531 16.9898 12.8531 16.9898C12.8531 16.9898 12.7969 16.916 12.7607 17.0092C12.7607 17.0092 12.749 17.0712 12.7055 17.0282C12.7055 17.0282 12.6616 16.9482 12.6189 16.9919C12.6189 16.9919 12.5398 17.1163 12.4589 17.0242L12.3779 16.9321C12.3779 16.9321 12.3005 16.822 12.2604 16.8837L12.0961 17.1203L12.0588 17.0897C12.0588 17.0897 12.0193 17.0477 12.0034 17.0902C11.9869 17.1343 11.9853 17.1336 11.9853 17.1336C11.9853 17.1336 11.9661 17.1946 11.924 17.1775L11.8806 17.1531C11.8806 17.1531 11.8373 17.1225 11.8134 17.2095L11.7957 17.3024C11.7957 17.3024 11.778 17.3954 11.7161 17.3712L11.6543 17.347C11.6543 17.347 11.5903 17.3117 11.5745 17.3849L11.5506 17.4717C11.5506 17.4717 11.5486 17.5199 11.5015 17.4969C11.447 17.4703 11.4459 17.4726 11.4459 17.4726C11.4459 17.4726 11.3902 17.4483 11.3599 17.5105L11.3296 17.5727C11.3296 17.5727 11.3116 17.6285 11.2745 17.6041L11.2372 17.5796C11.2372 17.5796 11.185 17.5361 11.1722 17.5691C11.1584 17.6047 11.1513 17.6176 11.1513 17.6176L11.1273 17.692C11.1273 17.692 11.1235 17.7248 11.0719 17.7049C11.0099 17.681 11.0101 17.6807 11.0101 17.6807C11.0101 17.6807 10.9486 17.6476 10.9425 17.6999C10.9425 17.6999 10.9312 17.8176 10.9001 17.793L10.8691 17.7686C10.8691 17.7686 10.8131 17.7072 10.789 17.7693L10.7589 17.8562C10.7589 17.8562 10.729 17.9617 10.6547 17.9129L10.5928 17.8824C10.5928 17.8824 10.5869 17.9134 10.5995 17.9505C10.5995 17.9505 10.6122 17.9937 10.5505 17.988C10.5505 17.988 10.4765 17.9763 10.5077 18.0193L10.5573 18.0498ZM14.1545 9.92794C14.1545 9.92794 14.3942 9.84687 14.5475 9.92904C14.5475 9.92904 14.6032 9.96571 14.5935 9.91476L14.5838 9.86376L14.5741 9.81278C14.5741 9.81278 14.6479 9.78892 14.7038 9.83019C14.7038 9.83019 14.7689 9.88537 14.8657 9.85662C14.8657 9.85662 14.8691 9.7174 14.5736 9.75245L14.5551 9.75265L14.6281 9.6545C14.6281 9.6545 14.6693 9.60312 14.5956 9.62234C14.5956 9.62234 14.4156 9.66567 14.2923 9.82455C14.2923 9.82455 14.2371 9.85754 14.2597 9.8017L14.3869 9.54991C14.3869 9.54991 14.4047 9.47547 14.3588 9.51301C14.3588 9.51301 14.2343 9.54661 14.1267 9.93281L14.1545 9.92794ZM13.9889 10.0268C14.1726 9.88134 14.119 9.57554 14.119 9.57554C13.8937 9.70285 13.9889 10.0268 13.9889 10.0268ZM13.838 10.2046C13.838 10.2046 13.9158 10.1157 13.9191 9.98106L13.9226 9.8464C13.9226 9.8464 13.934 9.56319 13.879 9.61941C13.879 9.61941 13.771 9.71155 13.7885 9.82905C13.7885 9.82905 13.8275 10.0654 13.838 10.2046ZM13.6737 10.4381L13.7377 10.354C13.7377 10.354 13.7361 10.173 13.7587 10.1217C13.7587 10.1217 13.7801 9.92661 13.7428 9.88517C13.7428 9.88517 13.7195 9.86682 13.7017 9.94589C13.7017 9.94589 13.6844 10.0852 13.6662 10.1179C13.6662 10.1179 13.6389 10.1645 13.6442 10.2388C13.6495 10.313 13.6495 10.313 13.6495 10.313C13.6495 10.313 13.6555 10.4707 13.6737 10.4381ZM13.443 10.4866L13.4553 10.8392C13.5156 10.8573 13.5174 10.537 13.5174 10.537C13.5254 10.4518 13.507 10.4071 13.507 10.4071C13.4694 10.3378 13.4309 10.1618 13.4309 10.1618C13.391 10.3571 13.443 10.4866 13.443 10.4866ZM13.4007 9.88821L13.4815 10.1335L13.5053 10.2168C13.5292 10.3001 13.5378 10.2351 13.5378 10.2351L13.5456 10.0726L13.5495 9.97972C13.5533 9.88684 13.4732 9.7251 13.4732 9.7251L13.4497 9.66962C13.4261 9.61414 13.3986 9.6515 13.3986 9.6515L13.4007 9.88821ZM13.4232 9.29389C13.4222 9.49364 13.5188 9.65044 13.5188 9.65044L13.5472 9.72447C13.5756 9.79843 13.5782 9.56633 13.5782 9.56633L13.5815 9.41783C13.5848 9.26927 13.5007 9.16792 13.5007 9.16792C13.4353 9.08494 13.4232 9.29389 13.4232 9.29389ZM13.3537 11.6089C13.3537 11.6089 13.3479 11.6427 13.3472 11.6803C13.3458 11.7499 13.3889 11.6938 13.3889 11.6938C13.4733 11.3032 13.847 11.221 13.847 11.221C13.5688 11.126 13.3553 11.5595 13.3553 11.5595L13.3537 11.6089ZM14.0367 11.2564C14.2317 11.3521 14.3179 11.6902 14.3179 11.6902C14.3909 11.5828 14.3388 11.4394 14.3388 11.4394C14.329 11.3791 14.4033 11.411 14.4033 11.411C14.492 11.517 14.5404 11.7579 14.5404 11.7579C14.6407 11.5992 14.5612 11.4977 14.5612 11.4977C14.4208 11.3041 14.0365 11.2332 14.0365 11.2332C14.0134 11.2334 14.0367 11.2564 14.0367 11.2564ZM13.5261 13.1129L13.5178 13.2104C13.5178 13.2104 13.6193 13.1863 13.6753 13.2508C13.6753 13.2508 13.7449 13.2827 13.675 13.2137C13.675 13.2137 13.5957 13.1309 13.5261 13.1129ZM13.3312 13.0218C13.3871 13.0677 13.4423 13.0393 13.4423 13.0393C13.5338 12.973 13.5326 12.7926 13.5326 12.7926L13.5286 12.3377L13.3312 13.0218ZM13.3757 12.302C13.3395 12.3858 13.3135 12.5764 13.3135 12.5764L13.32 12.8037C13.3244 12.7712 13.4233 12.4593 13.4233 12.4593L13.4594 12.3569C13.4955 12.2545 13.4664 12.0969 13.4664 12.0969C13.4487 12.1899 13.3757 12.302 13.3757 12.302ZM13.3232 12.1075L13.3239 12.191C13.3247 12.2745 13.3383 12.2512 13.3383 12.2512C13.3845 12.2462 13.4373 11.9394 13.4373 11.9394L13.4354 11.7305C13.3017 11.7688 13.3232 12.1075 13.3232 12.1075ZM14.6385 11.8823C14.7939 11.6813 14.6546 11.599 14.6546 11.599C14.5945 11.6089 14.6385 11.8823 14.6385 11.8823ZM14.7451 11.9046C14.7873 11.9738 14.7792 12.1085 14.7792 12.1085C14.8094 11.8622 14.7582 11.8162 14.7582 11.8162C14.735 11.8164 14.7451 11.9046 14.7451 11.9046ZM14.603 12.5742C14.7555 12.5636 14.761 12.1458 14.761 12.1458C14.717 12.3875 14.603 12.5742 14.603 12.5742ZM14.8439 12.1079C14.8439 12.1079 14.8362 12.2844 14.7997 12.3357C14.7997 12.3357 14.7632 12.3918 14.8015 12.5446C14.8015 12.5446 14.8341 12.5722 14.8336 12.5119C14.8331 12.4515 14.8331 12.4515 14.8331 12.4515L14.8324 12.3772C14.8324 12.3772 14.8365 12.3169 14.8784 12.349L14.9203 12.3811C14.9203 12.3811 14.9995 12.4453 14.9896 12.3758C14.9896 12.3758 14.9795 12.2924 14.8682 12.2377C14.8682 12.2377 14.8261 12.187 14.8769 12.1819L14.9278 12.1768C14.9278 12.1768 15.0156 12.176 14.9504 12.1256C14.9504 12.1256 14.9177 12.0841 14.8439 12.1079ZM14.8284 11.9177L14.8337 12.0013C14.8337 12.0013 14.8616 12.0196 14.9074 11.9774C14.9074 11.9774 15.0085 11.8883 15.0315 11.8881C15.0315 11.8881 15.1025 11.842 14.9986 11.8281C14.9986 11.8281 14.9061 11.8196 14.8284 11.9177ZM14.8225 11.7739L14.9091 11.6386C14.9091 11.6386 14.9188 11.6288 14.9136 11.6199C14.9038 11.6035 14.8029 11.6441 14.8029 11.6441C14.7476 11.6679 14.8225 11.7739 14.8225 11.7739ZM14.7516 11.6028L14.8793 11.3975C14.7541 11.3568 14.6628 11.4783 14.6628 11.4783L14.7516 11.6028ZM14.5837 11.4279C14.6302 11.4647 14.6664 11.3715 14.6664 11.3715C14.7026 11.2737 14.6643 11.1348 14.6643 11.1348C14.5721 11.1588 14.4951 11.3405 14.4951 11.3405C14.4861 11.3778 14.5837 11.4279 14.5837 11.4279ZM14.073 11.1772L14.1378 11.1859C14.1378 11.1859 14.1234 11.1164 14.1557 11.1161C14.1557 11.1161 14.0861 11.0842 14.073 11.1772ZM14.2203 11.1109C14.1981 11.1702 14.2306 11.2222 14.2306 11.2222L14.263 11.2358C14.3511 11.2583 14.3028 11.0312 14.3028 11.0312C14.2886 10.985 14.2203 11.1109 14.2203 11.1109ZM14.4924 11.0249C14.4461 11.0254 14.3825 11.142 14.3825 11.142C14.3461 11.2165 14.379 11.2813 14.379 11.2813L14.4163 11.3087C14.5044 11.3451 14.5029 11.1688 14.5029 11.1688C14.507 11.1084 14.525 11.0618 14.525 11.0618C14.543 11.0106 14.4924 11.0249 14.4924 11.0249ZM13.4866 11.2427C13.4866 11.2427 13.5911 11.0376 13.6787 11.0136C13.6787 11.0136 13.8259 10.9241 13.8669 10.8634C13.8669 10.8634 13.5809 10.9309 13.4725 11.215C13.4725 11.215 13.4589 11.2476 13.4866 11.2427ZM13.4252 11.0947C13.4072 11.146 13.4577 11.113 13.4577 11.113C13.5078 11.029 13.4843 10.9828 13.4843 10.9828L13.4252 11.0947ZM14.968 10.9697L14.9717 10.8675C14.9527 10.8073 14.8137 10.7761 14.8137 10.7761C14.814 10.8132 14.968 10.9697 14.968 10.9697ZM14.6047 10.6573L14.7341 10.6562C14.7341 10.6562 14.8994 10.534 14.9034 10.4643C14.9034 10.4643 14.8708 10.4322 14.7696 10.4934C14.7696 10.4934 14.5487 10.6114 14.6047 10.6573ZM14.8408 10.7016C14.8408 10.7016 14.9937 10.7374 15.1171 10.5877C15.1171 10.5877 15.1674 10.5177 15.0061 10.5655C15.0061 10.5655 14.8263 10.6321 14.8408 10.7016ZM14.9801 10.7653L15.1986 10.912C15.1986 10.912 15.259 10.9485 15.2122 10.8793L15.1281 10.7779C15.1281 10.7779 15.1093 10.7456 15.1509 10.7499C15.1509 10.7499 15.2295 10.7399 15.1877 10.7264C15.1877 10.7264 14.8963 10.7011 14.9801 10.7653ZM13.8894 10.7982C13.8894 10.7982 14.2008 10.4659 14.1899 10.2803L14.1755 10.2155C14.1755 10.2155 14.1162 10.3088 14.0841 10.337C14.0841 10.337 13.8147 10.7061 13.8017 10.8036C13.8017 10.8036 13.8112 10.836 13.8894 10.7982ZM14.129 10.7126C14.129 10.7126 14.3862 10.5246 14.403 10.3295C14.403 10.3295 14.3888 10.2925 14.343 10.3347C14.343 10.3347 14.109 10.5456 14.0319 10.7088C14.0319 10.7088 14.0183 10.7461 14.083 10.7362C14.083 10.7362 14.1061 10.7313 14.129 10.7126ZM14.4413 10.4731L14.345 10.5714C14.2488 10.6698 14.2906 10.6832 14.2906 10.6832C14.3739 10.6964 14.4936 10.6351 14.4936 10.6351C14.7003 10.494 14.6663 10.3133 14.6663 10.3133C14.5511 10.3468 14.4413 10.4731 14.4413 10.4731ZM13.1688 11.3709C13.1688 11.3709 12.4362 11.6466 12.9564 12.4542C12.9564 12.4542 13.0028 12.4677 12.97 12.4216L12.9372 12.3755L12.8715 12.2554C12.8715 12.2554 12.8477 12.1767 12.9036 12.2273L12.9595 12.2778L13.0387 12.3514C13.0387 12.3514 13.0981 12.2719 12.9018 12.0277C12.9018 12.0277 12.8597 11.963 12.9198 11.9672C12.9198 11.9672 12.943 11.9763 12.9711 12.0132L12.9991 12.05C12.9991 12.05 13.0535 12.1138 13.0501 12.0728C13.0501 12.0728 13.0678 11.9751 12.9002 11.842C12.9002 11.842 12.8485 11.745 12.9135 11.7816C12.9135 11.7816 12.988 11.8413 13.0162 11.8921C13.0162 11.8921 13.0999 11.9516 13.0621 11.8546L12.9681 11.6836C12.9681 11.6836 12.9399 11.6235 12.9675 11.6047C12.9675 11.6047 13.0087 11.5672 13.0324 11.6366C13.0324 11.6366 13.0656 11.7292 13.0795 11.7291C13.0795 11.7291 13.1028 11.7567 13.0975 11.6732C13.0975 11.6732 13.1048 11.4596 13.169 11.394C13.169 11.394 13.215 11.3704 13.1688 11.3709ZM13.0363 11.024L13.1852 11.134C13.1852 11.134 13.1844 11.0505 13.0538 10.9171C13.0538 10.9171 13.0259 10.8941 13.0357 10.9497C13.0357 10.9497 13.0545 10.9959 13.0363 11.024ZM12.9665 10.9735C12.9665 10.9735 13.0053 10.6575 12.7961 10.5201C12.7961 10.5201 12.787 10.5341 12.8104 10.5711C12.8104 10.5711 12.904 10.7049 12.896 10.8349C12.896 10.8349 12.8641 10.8955 12.8407 10.8632C12.8407 10.8632 12.8481 10.6543 12.746 10.6042C12.746 10.6042 12.6906 10.6046 12.72 10.8039C12.72 10.8039 12.7264 10.8285 12.7574 10.8454C12.8138 10.8762 12.8131 10.8774 12.8131 10.8774L12.9665 10.9735ZM11.7291 11.1377C11.7291 11.1377 11.9841 10.6944 12.1968 10.7065C12.1968 10.7065 12.3492 10.6865 12.6414 10.7954C12.6414 10.7954 12.6646 10.8091 12.6592 10.7163C12.6592 10.7163 12.6891 10.4469 12.5079 10.3324C12.5079 10.3324 12.5469 10.5687 12.386 10.6723C12.386 10.6723 12.3124 10.7147 12.3163 10.6265L12.3247 10.529C12.3247 10.529 12.3389 10.4422 12.1655 10.3029C12.1655 10.3029 12.1359 10.2794 12.1333 10.3125C12.1333 10.3125 12.1159 10.4426 12.1628 10.5211C12.1628 10.5211 12.2358 10.6387 12.1639 10.6465C12.1639 10.6465 12.1318 10.6699 12.0799 10.5544C12.0799 10.5544 12.0182 10.3646 11.7967 10.413C11.7967 10.413 11.7638 10.427 11.8156 10.4592C11.8156 10.4592 11.8745 10.4922 11.8905 10.5607C11.8905 10.5607 11.9189 10.6536 12.0208 10.6663C12.0208 10.6663 12.0719 10.703 12.021 10.6941C12.021 10.6941 11.8078 10.6264 11.6001 10.6561C11.6001 10.6561 11.5585 10.6611 11.6002 10.6746C11.6419 10.6882 11.6419 10.6882 11.6419 10.6882L11.744 10.7337C11.744 10.7337 11.4545 10.9219 11.493 11.0933C11.493 11.0933 11.53 11.0976 11.5758 11.0509L11.6216 11.004L11.8142 10.8306L11.8283 10.8536C11.8283 10.8536 11.6774 11.036 11.7107 11.1425L11.7291 11.1377ZM13.0066 11.3306C13.0066 11.3306 12.9742 11.3216 12.9423 11.3775L12.9286 11.3962C12.9286 11.3962 12.9976 11.3585 13.0066 11.3306ZM12.6451 11.7468C12.6861 11.6768 12.6624 11.6074 12.6624 11.6074C12.6031 11.7008 12.6451 11.7468 12.6451 11.7468ZM12.6642 12.3454C12.7096 12.2429 12.765 12.2331 12.765 12.2331C12.7724 12.0335 12.7077 12.0294 12.7077 12.0294C12.6211 12.1694 12.6642 12.3454 12.6642 12.3454ZM12.4669 11.9851L12.4728 12.1197C12.4728 12.1197 12.5597 12.0215 12.4669 11.9851ZM12.6513 11.9231C12.7711 11.885 12.7287 11.7925 12.7287 11.7925C12.6364 11.8073 12.6513 11.9231 12.6513 11.9231ZM12.7855 11.416L12.9089 11.2525C12.9089 11.2525 12.9547 11.2103 12.8393 11.2253C12.8393 11.2253 12.6898 11.0502 12.5881 11.0418C12.5881 11.0418 12.579 11.0651 12.5979 11.1067C12.5979 11.1067 12.6501 11.2687 12.6225 11.2829L12.5949 11.297C12.5949 11.297 12.4224 11.1269 12.2976 11.1326C12.2976 11.1326 12.3261 11.2205 12.4285 11.2985C12.4285 11.2985 12.5171 11.3766 12.4712 11.4142C12.4712 11.4142 12.4482 11.4376 12.3877 11.3871C12.3877 11.3871 12.2525 11.2583 12.0493 11.274C12.0493 11.274 12.2813 11.3834 12.3329 11.4711C12.3329 11.4711 12.352 11.5313 12.2917 11.5133C12.2917 11.5133 11.9761 11.3675 11.857 11.4939C11.857 11.4939 12.1258 11.5611 12.173 11.6814C12.173 11.6814 12.1734 11.7278 12.0855 11.7193C12.0855 11.7193 11.7706 11.6524 11.6624 11.9644C11.6624 11.9644 11.6501 12.0103 11.6996 11.9828L11.7456 11.9637C11.7456 11.9637 11.8228 11.9507 11.8792 11.9114C11.8792 11.9114 11.9713 11.8689 11.9809 11.9105C11.9809 11.9105 11.9866 11.9371 11.9582 11.9479C11.9582 11.9479 11.8113 12.0088 11.8122 12.1766L11.8136 12.3344C11.8136 12.3344 11.828 12.3946 11.86 12.3479C11.86 12.3479 12.0107 12.1423 12.0142 12.0217L12.0138 11.9706C12.0138 11.9706 12.0691 11.9562 12.0649 12.0027L12.0611 12.0908C12.0611 12.0908 12.0574 12.1941 12.2017 12.3077C12.2017 12.3077 12.2484 12.3584 12.2431 12.2934L12.238 12.2285C12.238 12.2285 12.2203 12.0888 12.1714 12.0249C12.1714 12.0249 12.1236 11.8397 12.2066 11.8204C12.2066 11.8204 12.2866 11.9774 12.3653 11.9953C12.3653 11.9953 12.4256 12.0133 12.3438 11.6566C12.3438 11.6566 12.3338 11.564 12.3615 11.5591C12.3615 11.5591 12.412 11.5261 12.4267 11.6234C12.4267 11.6234 12.4232 11.7442 12.5068 11.7852C12.5068 11.7852 12.5803 11.7428 12.579 11.585C12.579 11.585 12.5909 11.3667 12.6921 11.3055C12.6921 11.3055 12.7381 11.2772 12.743 11.3143C12.743 11.3143 12.749 11.4674 12.7855 11.416ZM13.0083 10.4719C13.0083 10.4719 12.7495 9.94967 12.2452 9.89382C12.2452 9.89382 12.2082 9.89879 12.287 9.91664C12.287 9.91664 12.6946 10.0152 12.9759 10.4629C12.9759 10.4629 12.9995 10.5184 13.0083 10.4719ZM12.7719 10.395L12.8325 10.4548C12.8931 10.5147 12.8928 10.4776 12.8928 10.4776L12.7482 10.3256C12.7207 10.3537 12.7719 10.395 12.7719 10.395ZM11.82 9.90686C11.7372 9.954 11.8021 9.97662 11.8021 9.97662L11.9539 9.88711C11.9214 9.87346 11.82 9.90686 11.82 9.90686ZM13.1478 10.5588C13.1478 10.5588 13.1875 10.3496 13.1356 10.2293C13.1356 10.2293 13.1168 10.1878 13.0944 10.2715C13.0944 10.2715 13.0401 10.4066 13.1155 10.5637C13.1155 10.5637 13.1346 10.6332 13.1478 10.5588ZM12.9127 10.1153C12.8719 10.2085 12.9185 10.2452 12.9185 10.2452C12.9465 10.2775 12.9979 10.342 12.9979 10.342C13.0582 10.36 13.0149 10.1655 13.0149 10.1655C12.9911 10.0961 12.9857 10.0079 12.9857 10.0079C12.9714 9.957 12.9127 10.1153 12.9127 10.1153ZM12.7596 10.0517L12.8296 10.13C12.8296 10.13 12.8625 10.1807 12.8752 10.0507C12.8752 10.0507 12.9241 9.8367 12.8633 9.74912C12.8633 9.74912 12.7808 9.83336 12.7771 9.93085C12.7771 9.93085 12.7777 10.0098 12.7596 10.0517ZM12.6759 9.98746C12.6759 9.98746 12.7997 9.87957 12.7102 9.69008L12.663 9.57451C12.663 9.57451 12.6255 9.51909 12.6123 9.59816C12.6123 9.59816 12.5969 9.69264 12.5953 9.77001C12.5953 9.77001 12.5966 9.96514 12.6759 9.98746ZM12.541 9.90509C12.541 9.90509 12.5806 9.67269 12.4136 9.59992C12.4136 9.59992 12.3671 9.57244 12.386 9.61407C12.386 9.61407 12.4189 9.67413 12.4147 9.72057C12.4147 9.72057 12.458 9.91513 12.541 9.90509ZM12.3927 9.84608C12.3927 9.84608 12.3997 9.59999 12.1732 9.59739C12.1732 9.59739 12.1549 9.61144 12.1737 9.65308C12.1737 9.65308 12.2401 9.84744 12.3605 9.86496C12.3605 9.86496 12.3889 9.87257 12.3927 9.84608ZM12.1334 9.7973C12.1334 9.7973 12.0817 9.70962 11.9664 9.73384C11.9664 9.73384 11.948 9.74792 11.9666 9.76634C11.9666 9.76634 12.0082 9.80577 12.0919 9.81158C12.0919 9.81158 12.1453 9.81538 12.1334 9.7973Z" fill="#008F33"/>
<path d="M13.4354 16.5429L13.3845 16.5434C13.3337 16.5438 13.3386 16.5763 13.3386 16.5763L13.3391 16.6366C13.3627 16.6921 13.3399 16.7248 13.3399 16.7248L13.3408 16.8222C13.3416 16.9197 13.3602 16.9242 13.3602 16.9242L13.4022 16.9702C13.4022 16.9702 13.403 16.9694 13.4535 17.0208C13.4926 17.0607 13.5045 17.0389 13.5045 17.0389C13.541 16.9922 13.5216 16.881 13.5216 16.881C13.5119 16.83 13.5196 16.6582 13.5196 16.6582L13.5191 16.6026C13.5187 16.5468 13.4678 16.5473 13.4678 16.5473L13.4354 16.5429ZM13.4719 16.4916C13.4719 16.4916 13.5249 16.4771 13.5129 16.4169L13.5079 16.3752C13.5079 16.3752 13.5016 16.1803 13.5105 16.1478C13.5105 16.1478 13.5214 16.0664 13.4636 16.0646L13.3942 16.0653C13.3942 16.0653 13.3385 16.0425 13.3392 16.1168C13.3392 16.1168 13.3373 16.1632 13.3352 16.1957C13.3352 16.1957 13.3219 16.2469 13.3322 16.3675C13.3322 16.3675 13.324 16.4882 13.3702 16.4878C13.3702 16.4878 13.4442 16.4895 13.4719 16.4916ZM13.3372 15.7301C13.3284 15.7639 13.3326 15.8987 13.3326 15.8987L13.3285 15.9498C13.3243 16.0009 13.3565 15.9867 13.3565 15.9867C13.3842 15.9771 13.3982 15.9956 13.3982 15.9956C13.477 16.0134 13.4859 15.9808 13.4859 15.9808C13.5268 15.8969 13.4888 15.7859 13.4888 15.7859C13.4791 15.7303 13.4832 15.6653 13.4832 15.6653C13.4832 15.6653 13.481 15.6766 13.4852 15.6397C13.4874 15.6211 13.4619 15.6167 13.4619 15.6167C13.4501 15.6255 13.4319 15.6146 13.4319 15.6146C13.4133 15.6102 13.3903 15.615 13.3903 15.615C13.3139 15.6041 13.3372 15.7301 13.3372 15.7301ZM13.3169 15.1608L13.3222 15.2397C13.3182 15.3024 13.3146 15.4254 13.3146 15.4254C13.3111 15.5554 13.3897 15.5547 13.3897 15.5547L13.4544 15.5541C13.5006 15.5537 13.49 15.4006 13.49 15.4006C13.4803 15.3404 13.4789 15.1826 13.4789 15.1826C13.451 15.1596 13.3169 15.1608 13.3169 15.1608ZM13.3316 14.7291C13.2761 14.7203 13.2996 14.7664 13.2996 14.7664C13.2996 14.7664 13.3004 14.7746 13.3023 14.8129C13.3051 14.8709 13.306 14.966 13.306 14.966C13.2907 15.1351 13.4044 15.1183 13.4044 15.1183C13.4922 15.1175 13.4822 15.034 13.4822 15.034C13.4676 14.946 13.4802 14.8113 13.4802 14.8113C13.4846 14.7834 13.489 14.7555 13.489 14.7555C13.4656 14.6885 13.3917 14.7239 13.3917 14.7239L13.3316 14.7291ZM13.3635 14.1486C13.3497 14.1534 13.3126 14.1398 13.3126 14.1398C13.2917 14.1376 13.2946 14.2049 13.2946 14.2049L13.2972 14.4926L13.3027 14.5993C13.3083 14.706 13.4143 14.6633 13.4143 14.6633C13.4466 14.6584 13.4645 14.5933 13.4645 14.5933L13.4563 14.1942C13.4604 14.1291 13.3635 14.1486 13.3635 14.1486ZM13.3823 13.6611C13.35 13.6637 13.3315 13.6661 13.3315 13.6661C13.2735 13.6435 13.2862 13.7687 13.2862 13.7687C13.2957 13.8011 13.283 13.9312 13.283 13.9312C13.2703 14.0659 13.3305 14.0746 13.3305 14.0746C13.3697 14.072 13.386 14.0834 13.386 14.0834C13.4601 14.1013 13.4503 14.0318 13.4503 14.0318L13.4478 13.744C13.456 13.6326 13.3823 13.6611 13.3823 13.6611ZM13.4145 13.1178C13.3822 13.125 13.359 13.1159 13.359 13.1159C13.3196 13.0977 13.3083 13.1233 13.3083 13.1233C13.3148 13.186 13.3048 13.2533 13.3048 13.2533C13.3149 13.36 13.2926 13.453 13.2926 13.453C13.2661 13.5832 13.3399 13.5686 13.3399 13.5686L13.3561 13.5662L13.3862 13.5752C13.4556 13.5838 13.4364 13.5074 13.4364 13.5074C13.4217 13.4101 13.4428 13.1732 13.4428 13.1732C13.4578 13.1096 13.4145 13.1178 13.4145 13.1178ZM14.2415 13.5978L14.1998 13.5842C14.1443 13.5847 14.1912 13.6585 14.1912 13.6585L14.2475 13.7555L14.3256 13.6991C14.3024 13.6947 14.2415 13.5978 14.2415 13.5978ZM14.1615 13.9652C14.1156 14.0073 14.1624 14.0719 14.1624 14.0719L14.1905 14.1041C14.2185 14.1363 14.2738 14.1173 14.2738 14.1173C14.3289 14.0797 14.2592 14.0385 14.2592 14.0385C14.2454 14.0387 14.1986 13.9787 14.1986 13.9787L14.1615 13.9652ZM14.2202 13.8068C14.1833 13.8118 14.2165 13.9043 14.2165 13.9043L14.2538 13.9504L14.291 13.9779C14.3282 14.0054 14.3374 13.9822 14.3374 13.9822C14.3325 13.9636 14.36 13.9402 14.36 13.9402C14.3876 13.9121 14.3548 13.8799 14.3548 13.8799L14.2896 13.8155C14.2432 13.7927 14.2202 13.8068 14.2202 13.8068ZM14.0489 13.7712C14.0489 13.7712 14.1323 13.7983 14.1552 13.7703C14.1552 13.7703 14.155 13.6101 14.0478 13.6552C14.0208 13.6665 14.0024 13.7391 14.0489 13.7712ZM14.0713 14.2212L14.0901 14.2489C14.1088 14.2766 14.123 14.3136 14.123 14.3136L14.1556 14.3458C14.1974 14.3686 14.2247 14.3173 14.2247 14.3173C14.2792 14.2101 14.1123 14.1466 14.1123 14.1466C14.0289 14.1334 14.0713 14.2212 14.0713 14.2212ZM13.9279 14.1993C13.9188 14.2319 13.9467 14.2455 13.9467 14.2455C13.9286 14.2874 13.989 14.3241 13.989 14.3241C14.0492 14.3375 14.0487 14.2771 14.0487 14.2771C14.029 14.1427 13.9643 14.1386 13.9643 14.1386C13.9412 14.1342 13.9279 14.1993 13.9279 14.1993ZM13.7538 13.8574C13.7294 13.9266 13.7732 13.9547 13.7732 13.9547L13.842 13.8937C13.9017 13.8561 13.8828 13.8005 13.8828 13.8005C13.8685 13.7589 13.8316 13.7731 13.8316 13.7731C13.758 13.8063 13.7538 13.8574 13.7538 13.8574ZM13.9994 13.9341C13.9493 14.0088 14.0237 14.0685 14.0237 14.0685C14.0653 14.0681 14.0693 13.9985 14.0693 13.9985C14.0705 13.9773 14.0736 13.9566 14.0736 13.9566C14.0961 13.8961 14.0453 13.8919 14.0453 13.8919C14.0129 13.8829 13.9994 13.9341 13.9994 13.9341ZM13.7789 14.0846C13.7982 14.1633 13.8718 14.1255 13.8718 14.1255C13.9098 14.1122 13.899 14.0696 13.899 14.0696C13.9634 14.0365 13.9166 13.9812 13.9166 13.9812C13.8945 13.9343 13.8335 13.9866 13.8335 13.9866C13.7922 14.0148 13.7789 14.0846 13.7789 14.0846ZM14.1209 13.5478C14.1622 13.5289 14.1205 13.506 14.1205 13.506C14.0836 13.5156 14.0649 13.4833 14.0649 13.4833C14.0275 13.4465 14.0141 13.4884 14.0141 13.4884C14.0009 13.5767 14.1209 13.5478 14.1209 13.5478ZM13.8122 13.6619C13.8126 13.7083 13.8767 13.6381 13.8767 13.6381C13.8764 13.6103 13.9085 13.5822 13.9085 13.5822C13.8944 13.5591 13.8807 13.5638 13.8807 13.5638C13.8073 13.5607 13.8122 13.6619 13.8122 13.6619ZM13.9564 13.772C14.0125 13.7681 13.982 13.6468 13.9507 13.6468C13.9193 13.6468 13.8728 13.7779 13.9564 13.772ZM13.9064 13.9033C13.9159 13.9319 14.0158 13.871 14.001 13.8342C13.9861 13.7975 13.897 13.8748 13.9064 13.9033Z" fill="#AC5341"/>
</g>
<path d="M21.5 0.75C24.1234 0.75 26.25 2.87665 26.25 5.5V21.5C26.25 24.1234 24.1234 26.25 21.5 26.25H5.5C2.87665 26.25 0.75 24.1234 0.75 21.5V5.5C0.75 2.87665 2.87665 0.75 5.5 0.75H21.5Z" stroke="#E4E4E7" stroke-width="1.5"/>
<defs>
<clipPath id="clip0_304_32544">
<path d="M1.5 5.5C1.5 3.29086 3.29086 1.5 5.5 1.5H21.5C23.7091 1.5 25.5 3.29086 25.5 5.5V21.5C25.5 23.7091 23.7091 25.5 21.5 25.5H5.5C3.29086 25.5 1.5 23.7091 1.5 21.5V5.5Z" fill="white"/>
</clipPath>
</defs>
</svg>
