<svg width="27" height="27" viewBox="0 0 27 27" fill="none" xmlns="http://www.w3.org/2000/svg">
<g clip-path="url(#clip0_304_32553)">
<path d="M25.5 1.49609H1.5V25.4961H25.5V1.49609Z" fill="#002879"/>
<path d="M25.5 1.49609H1.5V13.4961H25.5V1.49609Z" fill="#FBD015"/>
</g>
<path d="M21.5 0.75C24.1234 0.75 26.25 2.87665 26.25 5.5V21.5C26.25 24.1234 24.1234 26.25 21.5 26.25H5.5C2.87665 26.25 0.75 24.1234 0.75 21.5V5.5C0.75 2.87665 2.87665 0.75 5.5 0.75H21.5Z" stroke="#E4E4E7" stroke-width="1.5"/>
<defs>
<clipPath id="clip0_304_32553">
<path d="M1.5 5.5C1.5 3.29086 3.29086 1.5 5.5 1.5H21.5C23.7091 1.5 25.5 3.29086 25.5 5.5V21.5C25.5 23.7091 23.7091 25.5 21.5 25.5H5.5C3.29086 25.5 1.5 23.7091 1.5 21.5V5.5Z" fill="white"/>
</clipPath>
</defs>
</svg>
