<svg width="27" height="27" viewBox="0 0 27 27" fill="none" xmlns="http://www.w3.org/2000/svg">
<g clip-path="url(#clip0_387_19725)">
<path d="M39.0625 0.71875H-12.0625V26.2812H39.0625V0.71875Z" fill="#003573"/>
<path d="M39.0625 0.71875H-12.0625V17.7604H39.0625V0.71875Z" fill="white"/>
<path d="M39.0625 0.71875H-12.0625V9.23958H39.0625V0.71875Z" fill="#DC221F"/>
<path d="M17.3099 8.14256L17.7879 11.4129L19.6375 8.67421L18.6457 11.8284L21.5006 10.162L19.2399 12.5745L22.5371 12.3109L19.4544 13.5038L22.5371 14.6967L19.2399 14.4331L21.5006 16.8456L18.6457 15.1792L19.6375 18.3334L17.7879 15.5947L17.3099 18.865L16.8318 15.5947L14.9822 18.3334L15.974 15.1792L13.1192 16.8456L15.3798 14.4331L12.0827 14.6967L15.1654 13.5038L12.0827 12.3109L15.3798 12.5745L13.1192 10.162L15.974 11.8284L14.9822 8.67421L16.8318 11.4129L17.3099 8.14256ZM14.6292 8.27659C13.7586 7.89029 12.8053 7.72757 11.8558 7.80321C10.9063 7.87884 9.99077 8.19044 9.19227 8.70971C8.39378 9.22899 7.73763 9.93948 7.28341 10.7767C6.82919 11.6139 6.59128 12.5513 6.59128 13.5038C6.59128 14.4563 6.82919 15.3937 7.28341 16.2309C7.73763 17.0681 8.39378 17.7786 9.19227 18.2979C9.99077 18.8171 10.9063 19.1287 11.8558 19.2044C12.8053 19.28 13.7586 19.1173 14.6292 18.731C13.6679 19.4208 12.5349 19.832 11.3549 19.9196C10.1749 20.0072 8.99367 19.7676 7.94101 19.2273C6.88835 18.687 6.00509 17.8669 5.38835 16.8571C4.77162 15.8473 4.44531 14.687 4.44531 13.5038C4.44531 12.3206 4.77162 11.1603 5.38835 10.1505C6.00509 9.14069 6.88835 8.32054 7.94101 7.78024C8.99367 7.23993 10.1749 7.00039 11.3549 7.08796C12.5349 7.17553 13.6679 7.58682 14.6292 8.27659Z" fill="#FFCC00"/>
</g>
<path d="M21.5 0.75C24.1234 0.75 26.25 2.87665 26.25 5.5V21.5C26.25 24.1234 24.1234 26.25 21.5 26.25H5.5C2.87665 26.25 0.75 24.1234 0.75 21.5V5.5C0.75 2.87665 2.87665 0.75 5.5 0.75H21.5Z" stroke="#E4E4E7" stroke-width="1.5"/>
<defs>
<clipPath id="clip0_387_19725">
<path d="M1.5 5.5C1.5 3.29086 3.29086 1.5 5.5 1.5H21.5C23.7091 1.5 25.5 3.29086 25.5 5.5V21.5C25.5 23.7091 23.7091 25.5 21.5 25.5H5.5C3.29086 25.5 1.5 23.7091 1.5 21.5V5.5Z" fill="white"/>
</clipPath>
</defs>
</svg>
