<svg width="27" height="27" viewBox="0 0 27 27" fill="none" xmlns="http://www.w3.org/2000/svg">
<g clip-path="url(#clip0_304_33534)">
<path d="M1.5 1.5H25.5V25.5H1.5V1.5Z" fill="#FCD116"/>
<path d="M-12.0625 -3.47266V9.40104L39.4323 35.1484V22.2747L-12.0625 -3.47266Z" fill="#CE1126"/>
<path d="M39.4323 26.5599V17.9774L5.10243 0.8125H-12.0625L39.4323 26.5599Z" fill="black"/>
<path d="M15.4929 7.52238L13.5032 11.1218L11.5084 15.1104L9.82211 18.8615L12.9229 16.1597L14.0423 20.1172L14.681 16.0544L15.1913 11.6241L15.4929 7.52238Z" fill="#FCD116"/>
<path d="M20.0762 14.4254L16.186 13.0909L11.9116 11.8191L7.92461 10.8097L11.1238 13.3943L7.42082 15.1839L11.5329 15.1073L15.9845 14.8405L20.0762 14.4254Z" fill="#FCD116"/>
<path d="M11.1094 7.78516L11.8988 11.8214L14.6926 16.0537L18.094 18.3658L15.9717 14.8429L16.1732 13.0933L19.0408 10.1451L15.2029 11.6234L13.5148 11.1211L11.1094 7.78516Z" fill="#FCD116"/>
</g>
<path d="M21.5 0.75C24.1234 0.75 26.25 2.87665 26.25 5.5V21.5C26.25 24.1234 24.1234 26.25 21.5 26.25H5.5C2.87665 26.25 0.75 24.1234 0.75 21.5V5.5C0.75 2.87665 2.87665 0.75 5.5 0.75H21.5Z" stroke="#E4E4E7" stroke-width="1.5"/>
<defs>
<clipPath id="clip0_304_33534">
<path d="M1.5 5.5C1.5 3.29086 3.29086 1.5 5.5 1.5H21.5C23.7091 1.5 25.5 3.29086 25.5 5.5V21.5C25.5 23.7091 23.7091 25.5 21.5 25.5H5.5C3.29086 25.5 1.5 23.7091 1.5 21.5V5.5Z" fill="white"/>
</clipPath>
</defs>
</svg>
