<svg width="27" height="27" viewBox="0 0 27 27" fill="none" xmlns="http://www.w3.org/2000/svg">
<g clip-path="url(#clip0_387_18500)">
<path d="M-1.33594 -1.33203H28.332V28.3359H-1.33594V-1.33203Z" fill="white"/>
<path d="M-7.36719 5.15234H34.3775V21.8502H-7.36719V5.15234Z" fill="black"/>
<path d="M12.4534 20.1803C16.1384 20.1803 19.1256 17.1931 19.1256 13.5081C19.1256 9.82318 16.1384 6.83594 12.4534 6.83594C8.7685 6.83594 5.78125 9.82318 5.78125 13.5081C5.78125 17.1931 8.7685 20.1803 12.4534 20.1803Z" fill="white"/>
<path d="M14.9066 20.1803C18.5915 20.1803 21.5788 17.1931 21.5788 13.5081C21.5788 9.82318 18.5915 6.83594 14.9066 6.83594C11.2216 6.83594 8.23438 9.82318 8.23438 13.5081C8.23438 17.1931 11.2216 20.1803 14.9066 20.1803Z" fill="black"/>
<path d="M21.1891 13.5043L18.064 12.4887V9.20312L16.1328 11.8611L13.0084 10.8458L14.9392 13.5038L13.0078 16.1621L16.1328 15.1469L18.064 17.8054V14.5195L21.1891 13.5043Z" fill="white"/>
</g>
<path d="M21.5 0.75C24.1234 0.75 26.25 2.87665 26.25 5.5V21.5C26.25 24.1234 24.1234 26.25 21.5 26.25H5.5C2.87665 26.25 0.75 24.1234 0.75 21.5V5.5C0.75 2.87665 2.87665 0.75 5.5 0.75H21.5Z" stroke="#E4E4E7" stroke-width="1.5"/>
<defs>
<clipPath id="clip0_387_18500">
<path d="M1.5 5.5C1.5 3.29086 3.29086 1.5 5.5 1.5H21.5C23.7091 1.5 25.5 3.29086 25.5 5.5V21.5C25.5 23.7091 23.7091 25.5 21.5 25.5H5.5C3.29086 25.5 1.5 23.7091 1.5 21.5V5.5Z" fill="white"/>
</clipPath>
</defs>
</svg>
