<svg width="27" height="27" viewBox="0 0 27 27" fill="none" xmlns="http://www.w3.org/2000/svg">
<g clip-path="url(#clip0_304_32571)">
<path d="M1.5 1.5H25.5V25.5H1.5V1.5Z" fill="#C30000"/>
<path d="M1.5 1.5H14.1328V25.5H1.5V1.5Z" fill="#002B7F"/>
<path d="M1.5 15.4844H25.5V26.1152H1.5V15.4844Z" fill="white"/>
<path d="M8.22591 14.0378C10.508 14.0378 12.3581 12.1877 12.3581 9.9056C12.3581 7.62347 10.508 5.77344 8.22591 5.77344C5.94378 5.77344 4.09375 7.62347 4.09375 9.9056C4.09375 12.1877 5.94378 14.0378 8.22591 14.0378Z" fill="#FCD116"/>
<path d="M9.6556 14.0378C11.9377 14.0378 13.7878 12.1877 13.7878 9.9056C13.7878 7.62347 11.9377 5.77344 9.6556 5.77344C7.37347 5.77344 5.52344 7.62347 5.52344 9.9056C5.52344 12.1877 7.37347 14.0378 9.6556 14.0378Z" fill="#002B7F"/>
<path d="M12.3585 9.9029L7.46094 11.4942L10.4878 7.32812V12.4777L7.46094 8.3116L12.3585 9.9029Z" fill="#FCD116"/>
</g>
<path d="M21.5 0.75C24.1234 0.75 26.25 2.87665 26.25 5.5V21.5C26.25 24.1234 24.1234 26.25 21.5 26.25H5.5C2.87665 26.25 0.75 24.1234 0.75 21.5V5.5C0.75 2.87665 2.87665 0.75 5.5 0.75H21.5Z" stroke="#E4E4E7" stroke-width="1.5"/>
<defs>
<clipPath id="clip0_304_32571">
<path d="M1.5 5.5C1.5 3.29086 3.29086 1.5 5.5 1.5H21.5C23.7091 1.5 25.5 3.29086 25.5 5.5V21.5C25.5 23.7091 23.7091 25.5 21.5 25.5H5.5C3.29086 25.5 1.5 23.7091 1.5 21.5V5.5Z" fill="white"/>
</clipPath>
</defs>
</svg>
