<svg width="27" height="27" viewBox="0 0 27 27" fill="none" xmlns="http://www.w3.org/2000/svg">
<g clip-path="url(#clip0_304_32527)">
<path d="M-2.45312 1.5H29.4453V25.5H-2.45312V1.5Z" fill="#FCD116"/>
<path d="M-2.45312 1.5H13.4961V25.5H29.4453V13.5H-2.45312V1.5Z" fill="#DA251D"/>
<path d="M7.79922 12.032C9.56092 12.032 10.9891 10.6039 10.9891 8.84219C10.9891 7.08049 9.56092 5.65234 7.79922 5.65234C6.03752 5.65234 4.60938 7.08049 4.60938 8.84219C4.60938 10.6039 6.03752 12.032 7.79922 12.032Z" fill="white"/>
<path d="M9.05436 11.9447C10.7671 11.9447 12.1556 10.5562 12.1556 8.84343C12.1556 7.13066 10.7671 5.74219 9.05436 5.74219C7.3416 5.74219 5.95312 7.13066 5.95312 8.84343C5.95312 10.5562 7.3416 11.9447 9.05436 11.9447Z" fill="#DA251D"/>
<path d="M10.2288 7.07031L9.43419 8.16417L8.14844 7.74649L8.94309 8.84025L8.14865 9.9339L9.43419 9.51612L10.2288 10.6098V9.25793L11.5146 8.84004L10.2288 8.42231V7.07031Z" fill="white"/>
</g>
<path d="M21.5 0.75C24.1234 0.75 26.25 2.87665 26.25 5.5V21.5C26.25 24.1234 24.1234 26.25 21.5 26.25H5.5C2.87665 26.25 0.75 24.1234 0.75 21.5V5.5C0.75 2.87665 2.87665 0.75 5.5 0.75H21.5Z" stroke="#E4E4E7" stroke-width="1.5"/>
<defs>
<clipPath id="clip0_304_32527">
<path d="M1.5 5.5C1.5 3.29086 3.29086 1.5 5.5 1.5H21.5C23.7091 1.5 25.5 3.29086 25.5 5.5V21.5C25.5 23.7091 23.7091 25.5 21.5 25.5H5.5C3.29086 25.5 1.5 23.7091 1.5 21.5V5.5Z" fill="white"/>
</clipPath>
</defs>
</svg>
