<svg width="430" height="520" viewBox="0 0 430 520" fill="none" xmlns="http://www.w3.org/2000/svg">
<rect width="430" height="514" fill="url(#paint0_radial_1888_14017)"/>
<g opacity="0.35" clip-path="url(#clip0_1888_14017)">
<mask id="mask0_1888_14017" style="mask-type:alpha" maskUnits="userSpaceOnUse" x="-157" y="0" width="744" height="743">
<rect width="742.565" height="742.565" transform="translate(-156.064)" fill="url(#paint1_radial_1888_14017)"/>
</mask>
<g mask="url(#mask0_1888_14017)">
<g clip-path="url(#clip1_1888_14017)">
<g clip-path="url(#clip2_1888_14017)">
<line x1="9.20841" x2="9.20841" y2="742.565" stroke="#005CFF" stroke-width="0.51567"/>
<line x1="50.4623" x2="50.4623" y2="742.565" stroke="#005CFF" stroke-width="0.51567"/>
<line x1="91.7158" x2="91.7158" y2="742.565" stroke="#005CFF" stroke-width="0.51567"/>
<line x1="132.969" x2="132.969" y2="742.565" stroke="#005CFF" stroke-width="0.51567"/>
<line x1="174.223" x2="174.223" y2="742.565" stroke="#005CFF" stroke-width="0.51567"/>
<line x1="215.477" x2="215.477" y2="742.565" stroke="#005CFF" stroke-width="0.51567"/>
<line x1="256.73" x2="256.73" y2="742.565" stroke="#005CFF" stroke-width="0.51567"/>
<line x1="297.984" x2="297.984" y2="742.565" stroke="#005CFF" stroke-width="0.51567"/>
<line x1="339.238" x2="339.238" y2="742.565" stroke="#005CFF" stroke-width="0.51567"/>
<line x1="380.491" x2="380.491" y2="742.565" stroke="#005CFF" stroke-width="0.51567"/>
<line x1="421.745" x2="421.745" y2="742.565" stroke="#005CFF" stroke-width="0.51567"/>
</g>
<g clip-path="url(#clip3_1888_14017)">
<line x1="-279.825" y1="40.9956" x2="710.262" y2="40.9956" stroke="#005CFF" stroke-width="0.51567"/>
<line x1="-279.825" y1="82.249" x2="710.263" y2="82.249" stroke="#005CFF" stroke-width="0.51567"/>
<line x1="-279.825" y1="123.503" x2="710.263" y2="123.503" stroke="#005CFF" stroke-width="0.51567"/>
<line x1="-279.825" y1="164.757" x2="710.262" y2="164.757" stroke="#005CFF" stroke-width="0.51567"/>
<line x1="-279.825" y1="206.01" x2="710.263" y2="206.01" stroke="#005CFF" stroke-width="0.51567"/>
<line x1="-279.825" y1="247.264" x2="710.263" y2="247.264" stroke="#005CFF" stroke-width="0.51567"/>
<line x1="-279.825" y1="288.518" x2="710.262" y2="288.518" stroke="#005CFF" stroke-width="0.51567"/>
<line x1="-279.825" y1="329.771" x2="710.263" y2="329.771" stroke="#005CFF" stroke-width="0.51567"/>
<line x1="-279.825" y1="371.025" x2="710.262" y2="371.025" stroke="#005CFF" stroke-width="0.51567"/>
<line x1="-279.825" y1="412.278" x2="710.263" y2="412.278" stroke="#005CFF" stroke-width="0.51567"/>
<line x1="-279.825" y1="453.532" x2="710.263" y2="453.532" stroke="#005CFF" stroke-width="0.51567"/>
<line x1="-279.825" y1="494.786" x2="710.262" y2="494.786" stroke="#005CFF" stroke-width="0.51567"/>
</g>
</g>
</g>
</g>
<g clip-path="url(#clip4_1888_14017)">
<g clip-path="url(#clip5_1888_14017)">
<g clip-path="url(#clip6_1888_14017)">
<path d="M357.545 424.283L367.113 405.147H369.847L379.415 424.283V478.958H357.545V424.283Z" fill="white"/>
</g>
<path d="M367.386 418.467C367.386 417.77 367.944 417.205 368.634 417.205C369.323 417.205 369.881 417.77 369.881 418.467V472.766H367.386V418.467Z" fill="url(#paint2_linear_1888_14017)"/>
<path d="M357.404 472.766C358.782 472.766 359.9 471.636 359.9 470.241V422.256H309.991V470.241C309.991 471.636 311.108 472.766 312.486 472.766H357.404Z" fill="#2563EB"/>
<path d="M357.404 472.766C358.782 472.766 359.9 471.636 359.9 470.241V422.256H309.991V470.241C309.991 471.636 311.108 472.766 312.486 472.766H357.404Z" fill="url(#paint3_linear_1888_14017)"/>
<path d="M334.945 427.305C326.676 427.305 319.973 434.089 319.973 442.458V466.45C319.973 467.148 320.531 467.713 321.22 467.713H348.67C349.359 467.713 349.918 467.148 349.918 466.45V442.458C349.918 434.089 343.214 427.305 334.945 427.305Z" fill="white"/>
<path d="M319.973 463.925C319.973 463.228 320.531 462.663 321.22 462.663H349.918V466.451C349.918 467.148 349.359 467.714 348.67 467.714H321.22C320.531 467.714 319.973 467.148 319.973 466.451V463.925Z" fill="url(#paint4_linear_1888_14017)"/>
<path d="M327.459 456.349C327.459 455.651 328.018 455.086 328.707 455.086H349.918V460.137H327.459V456.349Z" fill="url(#paint5_linear_1888_14017)"/>
<path d="M334.945 448.772C334.945 448.075 335.504 447.51 336.193 447.51H349.918V452.561H334.945V448.772Z" fill="url(#paint6_linear_1888_14017)"/>
<path d="M349.711 439.933C349.847 440.754 349.918 441.598 349.918 442.459V444.984H342.432V441.196C342.432 440.498 342.99 439.933 343.679 439.933H349.711Z" fill="url(#paint7_linear_1888_14017)"/>
<path d="M379.863 422.256V470.24C379.863 471.635 378.746 472.766 377.368 472.766V422.256L369.75 406.836C369.29 405.905 367.977 405.905 367.518 406.836L359.9 422.256H309.991L318.938 404.146C319.572 402.862 320.868 402.052 322.286 402.052H367.568C368.986 402.052 370.282 402.862 370.916 404.146L379.863 422.256Z" fill="#1E3A8A"/>
<path d="M379.863 422.256V470.24C379.863 471.635 378.746 472.766 377.368 472.766V422.256L369.75 406.836C369.29 405.905 367.977 405.905 367.518 406.836L359.9 422.256H309.991L318.938 404.146C319.572 402.862 320.868 402.052 322.286 402.052H367.568C368.986 402.052 370.282 402.862 370.916 404.146L379.863 422.256Z" fill="url(#paint8_linear_1888_14017)"/>
<path d="M369.881 434.882V419.729H384.853L379.862 427.305L384.853 434.882H369.881Z" fill="#B91C1C"/>
<path d="M369.881 434.882V419.729H384.853L379.862 427.305L384.853 434.882H369.881Z" fill="url(#paint9_linear_1888_14017)"/>
</g>
<path d="M43.0893 23.7283C45.0863 26.0416 47.0265 28.4033 48.9087 30.8105C49.8616 32.0294 49.683 33.7811 48.5165 34.7917C47.6488 35.5435 46.6211 36.4208 45.667 37.2249C44.4311 38.2671 42.5821 38.1048 41.5408 36.8625C39.5317 34.4655 37.2746 31.8703 35.5035 29.663" fill="url(#paint10_linear_1888_14017)"/>
<path d="M36.2244 30.5417C34.0149 27.9741 31.8741 25.3467 29.8057 22.6635C29.1481 21.8106 29.2338 20.5533 30.0655 19.8709C30.0704 19.867 30.0753 19.8631 30.0796 19.859L34.344 16.4005C35.2206 15.6893 36.5022 15.8171 37.2233 16.6878C39.3623 19.271 41.8811 22.1587 43.8189 24.58" fill="url(#paint11_linear_1888_14017)"/>
<path d="M60.7383 354.627C59.0161 350.577 50.1159 324.818 43.956 314.121C42.2125 314.481 39.6095 315.79 37.6056 316.626C30.7728 319.477 23.2832 322.032 16.117 324.88C19.7628 331.636 22.505 338.85 25.2359 346.04C27.1613 351.108 29.0863 356.177 31.0118 361.245C31.5447 362.648 31.9219 363.676 32.646 364.893C35.5713 363.977 39.8332 362.689 42.4095 361.006C43.2841 360.436 44.1359 359.822 45.0676 359.354C46.1568 358.808 47.334 358.471 48.5034 358.138C52.6183 356.965 56.6227 355.8 60.7383 354.627Z" fill="url(#paint12_linear_1888_14017)"/>
<path d="M59.8512 354.214C58.0983 350.163 49.0381 324.403 42.7682 313.706C40.9942 314.065 38.3457 315.374 36.3064 316.21C29.3538 319.06 21.733 321.614 14.4411 324.461C18.1522 331.217 20.9432 338.432 23.7233 345.622C25.683 350.69 27.6432 355.76 29.6029 360.828C30.1451 362.231 30.5295 363.259 31.2663 364.477C34.243 363.56 38.5795 362.273 41.2009 360.591C42.0908 360.02 42.9575 359.407 43.9056 358.939C45.0138 358.393 46.2115 358.056 47.4014 357.723C51.589 356.551 55.6635 355.386 59.8512 354.214Z" fill="white"/>
<path d="M59.8692 351.79C58.1163 347.739 49.0562 321.979 42.7863 311.282C41.0122 311.642 38.3638 312.95 36.3244 313.786C29.3719 316.636 21.751 319.19 14.4591 322.037C18.1702 328.793 20.9613 336.008 23.7414 343.198C25.7011 348.267 27.6612 353.336 29.6209 358.404C30.1632 359.807 30.5475 360.835 31.2843 362.053C34.261 361.137 38.5975 359.849 41.2189 358.167C42.1088 357.596 42.9756 356.983 43.9236 356.515C45.0319 355.969 46.2296 355.632 47.4194 355.299C51.607 354.128 55.6816 352.963 59.8692 351.79Z" fill="url(#paint13_linear_1888_14017)"/>
<path d="M44.2679 327.166C43.0448 324.551 42.0085 321.93 41.2766 319.138C36.4549 320.682 23.5832 325.371 23.5832 325.371C24.5964 328.089 25.6096 330.806 26.6228 333.524C28.2419 333.238 34.3165 331.204 35.8082 330.54C38.5785 329.306 41.4973 328.4 44.2679 327.166Z" stroke="#8FBDA0" stroke-width="0.745813" stroke-miterlimit="10" stroke-linecap="round" stroke-linejoin="round"/>
<path d="M17.6143 323.616C16.6844 323.644 15.7725 324.061 15.1439 324.747C14.7522 325.174 14.4608 325.742 14.5341 326.318C14.6074 326.893 15.1491 327.421 15.7211 327.326" stroke="#8FBDA0" stroke-width="0.745813" stroke-miterlimit="10" stroke-linecap="round" stroke-linejoin="round"/>
<path d="M18.9969 327.408C18.3376 327.497 17.6739 327.693 17.1547 328.11C16.6358 328.526 16.2855 329.194 16.3795 329.852C16.473 330.511 17.0907 331.093 17.7528 331.026" stroke="#8FBDA0" stroke-width="0.745813" stroke-miterlimit="10" stroke-linecap="round" stroke-linejoin="round"/>
<path d="M21.1001 331.335C20.4987 331.523 19.8864 331.718 19.3702 332.08C18.854 332.442 18.4396 333.005 18.4166 333.635C18.3937 334.266 18.8617 334.923 19.4905 334.966" stroke="#8FBDA0" stroke-width="0.745813" stroke-miterlimit="10" stroke-linecap="round" stroke-linejoin="round"/>
<path d="M21.027 339.068C20.5841 338.741 20.4738 338.084 20.6845 337.576C20.8956 337.068 21.3671 336.704 21.878 336.501C22.3889 336.297 22.9432 336.233 23.4896 336.171" stroke="#8FBDA0" stroke-width="0.745813" stroke-miterlimit="10" stroke-linecap="round" stroke-linejoin="round"/>
<path d="M22.7902 343.538C22.5975 343.578 22.4193 343.416 22.3259 343.242C21.9713 342.582 22.377 341.725 22.9995 341.308C23.622 340.892 24.3962 340.794 25.1348 340.667" stroke="#8FBDA0" stroke-width="0.745813" stroke-miterlimit="10" stroke-linecap="round" stroke-linejoin="round"/>
<path d="M24.7094 347.651C24.0977 347.724 23.6281 346.978 23.7854 346.382C23.9428 345.786 24.5126 345.386 25.0954 345.186C25.6783 344.985 26.3029 344.933 26.8891 344.742" stroke="#8FBDA0" stroke-width="0.745813" stroke-miterlimit="10" stroke-linecap="round" stroke-linejoin="round"/>
<path d="M26.5412 352.207C26.0272 352.375 25.4992 351.817 25.5166 351.276C25.534 350.736 25.9208 350.277 26.3443 349.941C26.9205 349.484 27.605 349.164 28.3251 349.014" stroke="#8FBDA0" stroke-width="0.745813" stroke-miterlimit="10" stroke-linecap="round" stroke-linejoin="round"/>
<path d="M28.1108 356.217C27.6105 356.088 27.3984 355.426 27.5996 354.95C27.8007 354.474 28.2859 354.177 28.7774 354.018C29.269 353.858 29.79 353.804 30.2805 353.642" stroke="#8FBDA0" stroke-width="0.745813" stroke-miterlimit="10" stroke-linecap="round" stroke-linejoin="round"/>
<path d="M29.7534 360.456C29.2153 360.395 28.7907 359.83 28.88 359.296C28.9175 359.073 29.029 358.869 29.1587 358.684C29.6995 357.911 30.5979 357.4 31.5386 357.331" stroke="#8FBDA0" stroke-width="0.745813" stroke-miterlimit="10" stroke-linecap="round" stroke-linejoin="round"/>
<path d="M26.9719 327.191C31.408 325.498 35.8569 323.838 40.3179 322.212" stroke="#8FBDA0" stroke-width="0.745813" stroke-miterlimit="10" stroke-linecap="round" stroke-linejoin="round"/>
<path d="M28.4841 329.029C31.2734 327.987 34.0628 326.944 36.8517 325.901" stroke="#8FBDA0" stroke-width="0.745813" stroke-miterlimit="10" stroke-linecap="round" stroke-linejoin="round"/>
<path fill-rule="evenodd" clip-rule="evenodd" d="M105.395 427.775C109.244 427.343 113.025 428.384 116.04 430.707C118.615 432.69 120.36 435.382 120.955 438.285C121.639 441.62 120.777 445.23 118.649 448.07C123.401 451.371 127.034 453.928 130.937 457.63C131.933 458.574 132.849 460.065 132.161 461.253C131.599 462.224 128.718 462.31 123.424 457.291C121.168 455.151 118.767 453.168 116.412 451.136L117.09 449.798C115.069 451.679 112.44 452.978 109.523 453.502C109.172 453.566 108.817 453.618 108.47 453.657C107.225 453.797 106.008 453.779 104.854 453.604C100.202 452.899 96.0351 449.355 94.4846 444.785C93.1236 440.771 93.4773 436.825 95.4794 433.673C97.53 430.446 101.237 428.242 105.395 427.775ZM114.206 433.089C106.489 427.142 93.6005 432.811 97.3332 443.819C98.5326 447.356 101.731 450.09 105.304 450.631C106.527 450.816 107.776 450.762 108.99 450.543C111.638 450.067 114.183 448.762 115.935 446.658C117.687 444.555 118.57 441.622 118.01 438.889C117.532 436.555 116.056 434.515 114.206 433.089Z" fill="url(#paint14_linear_1888_14017)"/>
<path d="M13.8988 45.1136C19.9397 50.3994 25.5616 56.2212 31.0601 62.0549C31.0601 62.0549 33.1323 67.7721 32.1787 68.542C31.2252 69.3118 25.599 67.0551 25.599 67.0551C20.7314 62.9621 12.6083 55.0303 8.39302 50.9355C7.05897 49.6394 7.10293 47.4788 8.50094 46.2518C8.85216 45.9433 9.19304 45.6224 9.51594 45.2906C10.6961 44.0776 12.6256 43.9995 13.8988 45.1136Z" fill="url(#paint15_linear_1888_14017)"/>
<path d="M19.8438 58.2135C21.2172 59.4782 22.7078 60.7385 24.5226 61.1756C24.9414 60.8201 24.7799 60.1462 24.5546 59.6446C23.6086 57.5384 22.1646 55.6999 20.4955 54.1188C19.5351 53.209 16.8629 50.3533 15.4062 50.8427C12.3236 51.8797 19.0449 57.4786 19.8438 58.2135Z" fill="url(#paint16_linear_1888_14017)"/>
<path d="M10.0732 51.6925C11.4796 49.9418 12.886 48.1911 14.2922 46.4399" stroke="url(#paint17_linear_1888_14017)" stroke-width="0.951487" stroke-miterlimit="10" stroke-linecap="round" stroke-linejoin="round"/>
<path d="M8.65411 50.8441C10.1464 48.857 11.7972 46.9892 13.5857 45.2642" stroke="url(#paint18_linear_1888_14017)" stroke-width="0.951487" stroke-miterlimit="10" stroke-linecap="round" stroke-linejoin="round"/>
<path d="M25.7296 67.0211C27.2846 65.0444 28.9617 63.164 30.7477 61.3931" stroke="url(#paint19_linear_1888_14017)" stroke-width="0.951487" stroke-miterlimit="10" stroke-linecap="round" stroke-linejoin="round"/>
<path d="M24.8074 65.4796C26.3086 63.8387 27.7438 62.1376 29.1082 60.3812" stroke="url(#paint20_linear_1888_14017)" stroke-width="0.951487" stroke-miterlimit="10" stroke-linecap="round" stroke-linejoin="round"/>
<path d="M20.5979 217.951C18.8167 217.74 17.7177 214.939 18.7671 213.522C22.3554 208.676 32.4219 200.077 32.4219 200.077C32.4219 200.077 34.6229 191.338 35.2455 188.854C36.5437 189.27 41.2476 190.254 41.2476 190.254L39.4243 201.711C39.4243 201.711 44.8601 215.446 46.2908 218.669C49.1455 225.097 41.6658 222.945 38.3867 222.067C32.5105 220.495 26.6698 218.673 20.5979 217.951Z" fill="#D9D9D9"/>
<path d="M20.5979 217.951C18.8167 217.74 17.7177 214.939 18.7671 213.522C22.3554 208.676 32.4219 200.077 32.4219 200.077C32.4219 200.077 34.6229 191.338 35.2455 188.854C36.5437 189.27 41.2476 190.254 41.2476 190.254L39.4243 201.711C39.4243 201.711 44.8601 215.446 46.2908 218.669C49.1455 225.097 41.6658 222.945 38.3867 222.067C32.5105 220.495 26.6698 218.673 20.5979 217.951Z" fill="url(#paint21_linear_1888_14017)"/>
<path d="M20.5979 217.951C18.8167 217.74 17.7177 214.939 18.7671 213.522C22.3554 208.676 32.4219 200.077 32.4219 200.077C32.4219 200.077 34.6229 191.338 35.2455 188.854C36.5437 189.27 41.2476 190.254 41.2476 190.254L39.4243 201.711C39.4243 201.711 44.8601 215.446 46.2908 218.669C49.1455 225.097 41.6658 222.945 38.3867 222.067C32.5105 220.495 26.6698 218.673 20.5979 217.951Z" fill="url(#paint22_linear_1888_14017)"/>
<path fill-rule="evenodd" clip-rule="evenodd" d="M32.756 202.928C32.6317 202.681 36.5383 203.869 37.5617 203.982C39.7816 208.836 41.5049 213.5 43.3322 218.434C43.606 219.174 42.9767 219.941 42.1769 219.833C38.024 219.271 33.8717 218.044 29.8293 217.059C27.5753 216.51 25.6334 215.941 23.5422 215.319C22.735 215.078 22.5119 214.069 23.1467 213.528C24.0605 212.748 24.9233 211.91 25.7639 211.055C28.2755 208.5 30.6133 205.783 32.756 202.928ZM36.6086 216.384C37.1885 215.479 35.3145 215.108 35.426 216.157C35.4755 216.626 36.0174 216.8 36.3859 216.594C36.4726 216.546 36.5495 216.476 36.6086 216.384ZM39.7258 213.858C39.4441 213.585 38.9696 213.523 38.6252 213.715L38.5754 213.618C38.0412 213.879 37.8456 214.67 38.2375 215.123C38.6561 215.607 39.5757 215.513 39.882 214.956C40.0737 214.606 40.0133 214.137 39.7258 213.858ZM26.965 214.346C27.9457 213.87 26.5484 212.598 26.0793 213.548C25.8696 213.974 26.2367 214.398 26.6613 214.411C26.7618 214.414 26.8659 214.394 26.965 214.346ZM31.6994 211C31.3761 210.843 31.059 210.999 30.7062 211.078C30.0566 211.222 29.5509 211.837 29.55 212.486C29.5491 213.135 30.054 213.752 30.7033 213.897C31.2929 214.029 32.1239 213.932 32.4494 213.435C32.7748 212.938 32.7213 212.27 32.4406 211.748C32.2726 211.437 32.0232 211.158 31.6994 211ZM36.5129 209.746C36.2834 208.702 34.671 209.704 35.5002 210.382C35.8713 210.686 36.3851 210.445 36.5031 210.047C36.5311 209.954 36.536 209.852 36.5129 209.746ZM34.2873 205.778C34.0056 205.505 33.5315 205.444 33.1867 205.636L33.1379 205.539C32.6032 205.799 32.4066 206.59 32.799 207.043C33.2176 207.527 34.1373 207.433 34.4435 206.875C34.6352 206.526 34.5751 206.057 34.2873 205.778Z" fill="#00BB72"/>
<path fill-rule="evenodd" clip-rule="evenodd" d="M32.756 202.928C32.6317 202.681 36.5383 203.869 37.5617 203.982C39.7816 208.836 41.5049 213.5 43.3322 218.434C43.606 219.174 42.9767 219.941 42.1769 219.833C38.024 219.271 33.8717 218.044 29.8293 217.059C27.5753 216.51 25.6334 215.941 23.5422 215.319C22.735 215.078 22.5119 214.069 23.1467 213.528C24.0605 212.748 24.9233 211.91 25.7639 211.055C28.2755 208.5 30.6133 205.783 32.756 202.928ZM36.6086 216.384C37.1885 215.479 35.3145 215.108 35.426 216.157C35.4755 216.626 36.0174 216.8 36.3859 216.594C36.4726 216.546 36.5495 216.476 36.6086 216.384ZM39.7258 213.858C39.4441 213.585 38.9696 213.523 38.6252 213.715L38.5754 213.618C38.0412 213.879 37.8456 214.67 38.2375 215.123C38.6561 215.607 39.5757 215.513 39.882 214.956C40.0737 214.606 40.0133 214.137 39.7258 213.858ZM26.965 214.346C27.9457 213.87 26.5484 212.598 26.0793 213.548C25.8696 213.974 26.2367 214.398 26.6613 214.411C26.7618 214.414 26.8659 214.394 26.965 214.346ZM31.6994 211C31.3761 210.843 31.059 210.999 30.7062 211.078C30.0566 211.222 29.5509 211.837 29.55 212.486C29.5491 213.135 30.054 213.752 30.7033 213.897C31.2929 214.029 32.1239 213.932 32.4494 213.435C32.7748 212.938 32.7213 212.27 32.4406 211.748C32.2726 211.437 32.0232 211.158 31.6994 211ZM36.5129 209.746C36.2834 208.702 34.671 209.704 35.5002 210.382C35.8713 210.686 36.3851 210.445 36.5031 210.047C36.5311 209.954 36.536 209.852 36.5129 209.746ZM34.2873 205.778C34.0056 205.505 33.5315 205.444 33.1867 205.636L33.1379 205.539C32.6032 205.799 32.4066 206.59 32.799 207.043C33.2176 207.527 34.1373 207.433 34.4435 206.875C34.6352 206.526 34.5751 206.057 34.2873 205.778Z" fill="url(#paint23_linear_1888_14017)"/>
<path fill-rule="evenodd" clip-rule="evenodd" d="M32.756 202.928C32.6317 202.681 36.5383 203.869 37.5617 203.982C39.7816 208.836 41.5049 213.5 43.3322 218.434C43.606 219.174 42.9767 219.941 42.1769 219.833C38.024 219.271 33.8717 218.044 29.8293 217.059C27.5753 216.51 25.6334 215.941 23.5422 215.319C22.735 215.078 22.5119 214.069 23.1467 213.528C24.0605 212.748 24.9233 211.91 25.7639 211.055C28.2755 208.5 30.6133 205.783 32.756 202.928ZM36.6086 216.384C37.1885 215.479 35.3145 215.108 35.426 216.157C35.4755 216.626 36.0174 216.8 36.3859 216.594C36.4726 216.546 36.5495 216.476 36.6086 216.384ZM39.7258 213.858C39.4441 213.585 38.9696 213.523 38.6252 213.715L38.5754 213.618C38.0412 213.879 37.8456 214.67 38.2375 215.123C38.6561 215.607 39.5757 215.513 39.882 214.956C40.0737 214.606 40.0133 214.137 39.7258 213.858ZM26.965 214.346C27.9457 213.87 26.5484 212.598 26.0793 213.548C25.8696 213.974 26.2367 214.398 26.6613 214.411C26.7618 214.414 26.8659 214.394 26.965 214.346ZM31.6994 211C31.3761 210.843 31.059 210.999 30.7062 211.078C30.0566 211.222 29.5509 211.837 29.55 212.486C29.5491 213.135 30.054 213.752 30.7033 213.897C31.2929 214.029 32.1239 213.932 32.4494 213.435C32.7748 212.938 32.7213 212.27 32.4406 211.748C32.2726 211.437 32.0232 211.158 31.6994 211ZM36.5129 209.746C36.2834 208.702 34.671 209.704 35.5002 210.382C35.8713 210.686 36.3851 210.445 36.5031 210.047C36.5311 209.954 36.536 209.852 36.5129 209.746ZM34.2873 205.778C34.0056 205.505 33.5315 205.444 33.1867 205.636L33.1379 205.539C32.6032 205.799 32.4066 206.59 32.799 207.043C33.2176 207.527 34.1373 207.433 34.4435 206.875C34.6352 206.526 34.5751 206.057 34.2873 205.778Z" fill="url(#paint24_linear_1888_14017)"/>
<path d="M16.2705 108.462C16.8881 106.624 19.1221 105.853 21.0591 105.93C24.6685 106.074 28.0987 108.433 29.5248 111.752C30.3538 113.682 29.9456 116.668 27.8567 116.89C26.1793 117.067 24.9586 115.041 25.2746 113.384C25.6307 111.518 27.336 110.087 29.1999 109.716C31.0639 109.345 33.0216 109.902 34.646 110.888C36.1032 111.772 37.3861 113.061 37.9087 114.683C38.2603 115.774 37.4535 117.495 36.4814 116.888C36.2919 116.77 36.1595 116.579 36.0443 116.388C34.9092 114.502 34.9586 111.968 36.1662 110.128C37.3738 108.289 39.6802 107.236 41.8614 107.528" stroke="url(#paint25_linear_1888_14017)" stroke-width="0.951487" stroke-miterlimit="10" stroke-linecap="round" stroke-linejoin="round"/>
<path fill-rule="evenodd" clip-rule="evenodd" d="M49.5515 407.74C49.3181 406.955 49.7661 406.129 50.5516 405.895L64.5035 401.75C64.4549 401.604 64.4194 401.483 64.4022 401.399C67.9561 399.643 71.3934 398.614 74.9211 397.02C75.8658 396.419 76.9586 396.026 78.0652 395.834C79.416 395.598 80.8387 395.638 82.1183 396.131C83.3974 396.624 84.5199 397.604 85.0142 398.883C85.8933 401.158 84.8617 404.701 82.8342 406.056C80.255 407.778 73.459 408.366 71.9966 404.383C71.8539 403.995 71.7764 403.592 71.749 403.184C69.7105 403.809 67.8052 404.345 65.6724 404.87C65.6466 404.784 65.6063 404.669 65.5567 404.533L51.3962 408.739C50.6108 408.973 49.785 408.526 49.5515 407.74ZM76.7254 398.918C74.816 399.71 73.6345 401.143 74.4767 403.221C75.1866 404.974 76.6081 405.117 78.3447 404.789C79.5796 404.555 80.7618 404.026 81.7425 403.237C82.1449 402.914 82.5221 402.538 82.737 402.068C83.1431 401.181 82.8705 400.073 82.2029 399.361C81.5353 398.649 80.5386 398.307 79.5631 398.287C78.5874 398.268 77.6268 398.544 76.7254 398.918Z" fill="url(#paint26_linear_1888_14017)"/>
<path fill-rule="evenodd" clip-rule="evenodd" d="M52.8335 412.723C52.1784 412.231 52.0458 411.301 52.5376 410.646L61.4478 398.781C61.3653 398.719 61.2943 398.665 61.2367 398.622C62.5288 396.683 64.082 395.044 65.5237 393.232C64.935 393.053 64.3834 392.779 63.9102 392.381C60.6617 389.653 63.5217 383.461 66.0177 381.62C67.9802 380.172 71.6636 380.406 73.5046 382.005C74.5398 382.905 75.081 384.292 75.1104 385.663C75.1396 387.034 74.6926 388.386 74.0129 389.577C73.4602 390.545 72.7268 391.434 71.8493 392.116C69.1369 394.934 66.9706 397.983 64.105 400.737C64.0309 400.685 63.9402 400.619 63.8357 400.544L54.9107 412.427C54.4187 413.082 53.4887 413.215 52.8335 412.723ZM65.6851 386.273C64.787 387.795 64.4385 389.18 65.8461 390.443C67.5145 391.94 69.264 391.316 70.6573 389.79C71.3147 389.069 71.9011 388.259 72.2143 387.335C72.527 386.41 72.5432 385.356 72.1004 384.486C71.657 383.617 70.7074 382.984 69.735 383.065C69.2207 383.108 68.7395 383.336 68.2985 383.604C67.2237 384.259 66.3242 385.191 65.6851 386.273Z" fill="url(#paint27_linear_1888_14017)"/>
<path d="M57.5252 403.369C58.4075 402.633 59.7204 402.751 60.457 403.633C61.1936 404.515 61.0753 405.828 60.1931 406.565C59.3109 407.302 57.9979 407.183 57.2613 406.301C56.5246 405.418 56.643 404.106 57.5252 403.369Z" fill="url(#paint28_linear_1888_14017)"/>
<path d="M391.06 122.337C389.081 118.824 386.695 112.507 388.377 108.842C389.266 106.906 390.717 105.144 392.68 104.316C394.087 103.722 395.661 103.642 397.182 103.762C400.965 104.062 404.925 105.844 406.539 109.279C407.808 111.98 407.381 115.263 405.962 117.888C404.543 120.513 400.469 122.316 398.002 123.996" fill="url(#paint29_linear_1888_14017)"/>
<path d="M392.035 122.025C392.857 119.704 393.456 117.305 393.82 114.871C393.864 114.576 393.794 114.15 393.497 114.167C393.273 114.18 393.175 114.457 393.166 114.681C393.143 115.264 393.355 115.86 393.771 116.269C394.364 116.853 395.356 116.98 396.077 116.564C396.797 116.147 397.184 115.225 396.975 114.42C396.479 114.547 396.353 115.227 396.534 115.707C396.824 116.473 397.669 116.989 398.484 116.897C399.298 116.804 400.006 116.112 400.116 115.3C400.011 115.239 399.892 115.201 399.771 115.191C399.15 115.905 398.996 116.897 398.83 117.829C398.492 119.723 398.005 121.592 397.373 123.41" stroke="url(#paint30_linear_1888_14017)" stroke-width="0.951487" stroke-miterlimit="10" stroke-linecap="round" stroke-linejoin="round"/>
<path d="M391.06 122.336C390.832 123.583 390.405 124.241 390.177 125.488C390.086 125.984 389.996 126.493 390.096 126.987C390.248 127.735 390.827 128.34 391.496 128.708C392.164 129.076 393.408 129.449 394.154 129.611C394.834 129.758 395.624 129.882 396.16 129.437C396.532 129.128 396.67 128.626 396.788 128.156C397.211 126.479 397.579 125.674 398.002 123.997" fill="#00B4F1"/>
<path d="M391.06 122.336C390.832 123.583 390.405 124.241 390.177 125.488C390.086 125.984 389.996 126.493 390.096 126.987C390.248 127.735 390.827 128.34 391.496 128.708C392.164 129.076 393.408 129.449 394.154 129.611C394.834 129.758 395.624 129.882 396.16 129.437C396.532 129.128 396.67 128.626 396.788 128.156C397.211 126.479 397.579 125.674 398.002 123.997" fill="url(#paint31_linear_1888_14017)"/>
<path d="M391.218 122.307C392.409 122.657 393.6 123.007 394.79 123.358C395.757 123.642 396.729 123.928 397.728 124.062" stroke="url(#paint32_linear_1888_14017)" stroke-width="0.951487" stroke-miterlimit="10" stroke-linecap="round" stroke-linejoin="round"/>
<path d="M390.562 124.39C391.753 124.74 392.944 125.09 394.135 125.441C395.102 125.725 396.073 126.011 397.072 126.145" stroke="url(#paint33_linear_1888_14017)" stroke-width="0.951487" stroke-miterlimit="10" stroke-linecap="round" stroke-linejoin="round"/>
<path d="M390.429 126.502C391.62 126.853 392.363 126.939 393.554 127.29C394.521 127.574 395.253 127.969 396.252 128.103" stroke="url(#paint34_linear_1888_14017)" stroke-width="0.951487" stroke-miterlimit="10" stroke-linecap="round" stroke-linejoin="round"/>
<path d="M401.611 97.9238C401.379 99.0049 401.146 100.086 400.914 101.168" stroke="url(#paint35_linear_1888_14017)" stroke-width="0.951487" stroke-miterlimit="10" stroke-linecap="round" stroke-linejoin="round"/>
<path d="M404.18 103.654C404.631 103.02 405.173 102.45 405.785 101.967" stroke="url(#paint36_linear_1888_14017)" stroke-width="0.951487" stroke-miterlimit="10" stroke-linecap="round" stroke-linejoin="round"/>
<path d="M407.357 107.372C408.083 106.994 408.809 106.616 409.535 106.238" stroke="url(#paint37_linear_1888_14017)" stroke-width="0.951487" stroke-miterlimit="10" stroke-linecap="round" stroke-linejoin="round"/>
<path d="M395.791 99.561C395.943 100.219 396.095 100.877 396.247 101.534" stroke="url(#paint38_linear_1888_14017)" stroke-width="0.951487" stroke-miterlimit="10" stroke-linecap="round" stroke-linejoin="round"/>
<path d="M390.313 99.5029C390.709 100.641 391.103 101.778 391.499 102.916" stroke="url(#paint39_linear_1888_14017)" stroke-width="0.951487" stroke-miterlimit="10" stroke-linecap="round" stroke-linejoin="round"/>
<path opacity="0.3" d="M351.097 23.1592C351.915 23.3705 352.853 22.9286 353.212 22.1636C353.57 21.3981 353.31 20.3948 352.624 19.9012C351.835 19.3334 350.818 19.4651 350.298 20.2861C349.778 21.1066 350.156 22.9164 351.097 23.1592Z" stroke="url(#paint40_radial_1888_14017)" stroke-width="0.951487" stroke-miterlimit="10" stroke-linecap="round" stroke-linejoin="round"/>
<path d="M402.614 304.346C402.361 306.268 404.029 307.943 405.802 308.725C409.108 310.183 413.226 309.572 415.966 307.218C417.559 305.849 418.505 302.988 416.726 301.87C415.298 300.974 413.31 302.257 412.866 303.884C412.365 305.717 413.268 307.751 414.779 308.904C416.29 310.057 418.293 310.418 420.185 310.246C421.883 310.093 423.602 309.499 424.784 308.272C425.58 307.447 425.612 305.546 424.472 305.664C424.25 305.687 424.047 305.8 423.859 305.921C422.011 307.115 420.941 309.413 421.217 311.597C421.493 313.78 423.101 315.739 425.189 316.436" stroke="url(#paint41_linear_1888_14017)" stroke-width="0.951487" stroke-miterlimit="10" stroke-linecap="round" stroke-linejoin="round"/>
<path d="M31.0945 446.126C30.8412 448.048 32.5089 449.723 34.2825 450.505C37.5878 451.963 41.7057 451.352 44.4458 448.998C46.0389 447.629 46.9851 444.767 45.2063 443.65C43.7777 442.753 41.7904 444.037 41.3458 445.664C40.845 447.497 41.7478 449.531 43.2588 450.684C44.7698 451.837 46.7728 452.198 48.6654 452.026C50.3629 451.872 52.0817 451.279 53.2645 450.051C54.0596 449.227 54.0919 447.326 52.952 447.443C52.7297 447.467 52.527 447.58 52.3393 447.701C50.4909 448.895 49.421 451.193 49.6969 453.376C49.9728 455.56 51.5814 457.519 53.669 458.216" stroke="url(#paint42_linear_1888_14017)" stroke-width="0.951487" stroke-miterlimit="10" stroke-linecap="round" stroke-linejoin="round"/>
<path d="M400.982 330.568C391.11 344.895 381.183 355.165 367.904 376.017C386.99 370.247 403.557 362.53 419.76 357.409C414.216 347.793 408.028 339.145 400.982 330.568ZM384.83 363.746C388.305 360.043 399.029 345.201 401.262 342.161C404.177 346.013 406.829 349.798 409.294 353.625C402.799 355.992 386.019 363.26 384.83 363.746Z" fill="#00B4F1"/>
<path d="M400.982 330.568C391.11 344.895 381.183 355.165 367.904 376.017C386.99 370.247 403.557 362.53 419.76 357.409C414.216 347.793 408.028 339.145 400.982 330.568ZM384.83 363.746C388.305 360.043 399.029 345.201 401.262 342.161C404.177 346.013 406.829 349.798 409.294 353.625C402.799 355.992 386.019 363.26 384.83 363.746Z" fill="url(#paint43_linear_1888_14017)"/>
<path d="M372.224 370.571C372.667 370.85 373.11 371.129 373.552 371.408L372.224 370.571Z" fill="#00B4F1"/>
<path d="M372.224 370.571C372.667 370.85 373.11 371.129 373.552 371.408" stroke="#436BC3" stroke-width="1.04865" stroke-miterlimit="10" stroke-linecap="round" stroke-linejoin="round"/>
<path d="M373.232 369.094C373.907 369.634 374.619 370.127 375.363 370.567L373.232 369.094Z" fill="#00B4F1"/>
<path d="M373.232 369.094C373.907 369.634 374.619 370.127 375.363 370.567" stroke="#436BC3" stroke-width="1.04865" stroke-miterlimit="10" stroke-linecap="round" stroke-linejoin="round"/>
<path d="M374.604 367.355C374.953 367.529 375.302 367.702 375.65 367.875L374.604 367.355Z" fill="#00B4F1"/>
<path d="M374.604 367.355C374.953 367.529 375.302 367.702 375.65 367.875" stroke="#436BC3" stroke-width="1.04865" stroke-miterlimit="10" stroke-linecap="round" stroke-linejoin="round"/>
<path d="M375.826 365.4C376.562 365.779 377.257 366.236 377.897 366.762L375.826 365.4Z" fill="#00B4F1"/>
<path d="M375.826 365.4C376.562 365.779 377.257 366.236 377.897 366.762" stroke="#436BC3" stroke-width="1.04865" stroke-miterlimit="10" stroke-linecap="round" stroke-linejoin="round"/>
<path d="M370.808 372.669C371.039 372.839 371.289 372.983 371.552 373.098L370.808 372.669Z" fill="#00B4F1"/>
<path d="M370.808 372.669C371.039 372.839 371.289 372.983 371.552 373.098" stroke="#436BC3" stroke-width="1.04865" stroke-miterlimit="10" stroke-linecap="round" stroke-linejoin="round"/>
<path d="M377.362 363.521C377.713 363.794 378.094 364.026 378.497 364.212L377.362 363.521Z" fill="#00B4F1"/>
<path d="M377.362 363.521C377.713 363.794 378.094 364.026 378.497 364.212" stroke="#436BC3" stroke-width="1.04865" stroke-miterlimit="10" stroke-linecap="round" stroke-linejoin="round"/>
<path d="M378.731 361.439C379.343 361.812 379.956 362.186 380.567 362.559L378.731 361.439Z" fill="#00B4F1"/>
<path d="M378.731 361.439C379.343 361.812 379.956 362.186 380.567 362.559" stroke="#436BC3" stroke-width="1.04865" stroke-miterlimit="10" stroke-linecap="round" stroke-linejoin="round"/>
<path d="M380.239 359.052C380.584 359.263 380.929 359.473 381.274 359.684L380.239 359.052Z" fill="#00B4F1"/>
<path d="M380.239 359.052C380.584 359.263 380.929 359.473 381.274 359.684" stroke="#436BC3" stroke-width="1.04865" stroke-miterlimit="10" stroke-linecap="round" stroke-linejoin="round"/>
<path d="M381.719 357.105C382.321 357.619 382.965 358.084 383.641 358.495L381.719 357.105Z" fill="#00B4F1"/>
<path d="M381.719 357.105C382.321 357.619 382.965 358.084 383.641 358.495" stroke="#436BC3" stroke-width="1.04865" stroke-miterlimit="10" stroke-linecap="round" stroke-linejoin="round"/>
<path d="M383.281 354.886C383.688 355.118 384.096 355.35 384.503 355.582L383.281 354.886Z" fill="#00B4F1"/>
<path d="M383.281 354.886C383.688 355.118 384.096 355.35 384.503 355.582" stroke="#436BC3" stroke-width="1.04865" stroke-miterlimit="10" stroke-linecap="round" stroke-linejoin="round"/>
<path d="M384.717 353.101C385.351 353.558 385.985 354.015 386.618 354.472L384.717 353.101Z" fill="#00B4F1"/>
<path d="M384.717 353.101C385.351 353.558 385.985 354.015 386.618 354.472" stroke="#436BC3" stroke-width="1.04865" stroke-miterlimit="10" stroke-linecap="round" stroke-linejoin="round"/>
<path d="M386.202 351.247C386.505 351.423 386.809 351.598 387.112 351.774L386.202 351.247Z" fill="#00B4F1"/>
<path d="M386.202 351.247C386.505 351.423 386.809 351.598 387.112 351.774" stroke="#436BC3" stroke-width="1.04865" stroke-miterlimit="10" stroke-linecap="round" stroke-linejoin="round"/>
<path d="M387.375 349.669C388.199 350.254 389.045 350.807 389.911 351.326L387.375 349.669Z" fill="#00B4F1"/>
<path d="M387.375 349.669C388.199 350.254 389.045 350.807 389.911 351.326" stroke="#436BC3" stroke-width="1.04865" stroke-miterlimit="10" stroke-linecap="round" stroke-linejoin="round"/>
<path d="M389 347.5C389.321 347.793 389.693 348.03 390.094 348.197L389 347.5Z" fill="#00B4F1"/>
<path d="M389 347.5C389.321 347.793 389.693 348.03 390.094 348.197" stroke="#436BC3" stroke-width="1.04865" stroke-miterlimit="10" stroke-linecap="round" stroke-linejoin="round"/>
<path d="M390.544 345.507C391.136 345.894 391.728 346.281 392.319 346.668L390.544 345.507Z" fill="#00B4F1"/>
<path d="M390.544 345.507C391.136 345.894 391.728 346.281 392.319 346.668" stroke="#436BC3" stroke-width="1.04865" stroke-miterlimit="10" stroke-linecap="round" stroke-linejoin="round"/>
<path d="M391.856 343.818C392.201 344.029 392.546 344.24 392.891 344.45L391.856 343.818Z" fill="#00B4F1"/>
<path d="M391.856 343.818C392.201 344.029 392.546 344.24 392.891 344.45" stroke="#436BC3" stroke-width="1.04865" stroke-miterlimit="10" stroke-linecap="round" stroke-linejoin="round"/>
<path d="M393.082 341.958C393.705 342.46 394.371 342.91 395.069 343.301L393.082 341.958Z" fill="#00B4F1"/>
<path d="M393.082 341.958C393.705 342.46 394.371 342.91 395.069 343.301" stroke="#436BC3" stroke-width="1.04865" stroke-miterlimit="10" stroke-linecap="round" stroke-linejoin="round"/>
<path d="M394.618 339.975C395.002 340.226 395.386 340.477 395.771 340.728L394.618 339.975Z" fill="#00B4F1"/>
<path d="M394.618 339.975C395.002 340.226 395.386 340.477 395.771 340.728" stroke="#436BC3" stroke-width="1.04865" stroke-miterlimit="10" stroke-linecap="round" stroke-linejoin="round"/>
<path d="M396.151 337.998C396.805 338.406 397.46 338.814 398.114 339.222L396.151 337.998Z" fill="#00B4F1"/>
<path d="M396.151 337.998C396.805 338.406 397.46 338.814 398.114 339.222" stroke="#436BC3" stroke-width="1.04865" stroke-miterlimit="10" stroke-linecap="round" stroke-linejoin="round"/>
<path d="M397.293 336.316C397.653 336.588 398.013 336.859 398.373 337.13L397.293 336.316Z" fill="#00B4F1"/>
<path d="M397.293 336.316C397.653 336.588 398.013 336.859 398.373 337.13" stroke="#436BC3" stroke-width="1.04865" stroke-miterlimit="10" stroke-linecap="round" stroke-linejoin="round"/>
<path d="M398.346 334.716C399.05 335.188 399.78 335.621 400.531 336.013L398.346 334.716Z" fill="#00B4F1"/>
<path d="M398.346 334.716C399.05 335.188 399.78 335.621 400.531 336.013" stroke="#436BC3" stroke-width="1.04865" stroke-miterlimit="10" stroke-linecap="round" stroke-linejoin="round"/>
<path d="M399.822 332.924C400.183 333.16 400.544 333.397 400.906 333.633L399.822 332.924Z" fill="#00B4F1"/>
<path d="M399.822 332.924C400.183 333.16 400.544 333.397 400.906 333.633" stroke="#436BC3" stroke-width="1.04865" stroke-miterlimit="10" stroke-linecap="round" stroke-linejoin="round"/>
<path d="M409.808 353.11C408.572 351.204 407.308 349.315 406.017 347.445L409.808 353.11Z" fill="#00B4F1"/>
<path d="M409.808 353.11C408.572 351.204 407.308 349.315 406.017 347.445" stroke="#436BC3" stroke-width="1.04865" stroke-miterlimit="10" stroke-linecap="round" stroke-linejoin="round"/>
<path d="M401.771 362.464C401.948 362.377 402.125 362.289 402.302 362.201L401.771 362.464Z" fill="#00B4F1"/>
<path d="M401.771 362.464C401.948 362.377 402.125 362.289 402.302 362.201" stroke="#436BC3" stroke-width="1.04865" stroke-miterlimit="10" stroke-linecap="round" stroke-linejoin="round"/>
<path d="M382.476 369.956C385.26 368.8 397.212 364.35 400.039 363.343L382.476 369.956Z" fill="#00B4F1"/>
<path d="M382.476 369.956C385.26 368.8 397.212 364.35 400.039 363.343" stroke="#436BC3" stroke-width="1.04865" stroke-miterlimit="10" stroke-linecap="round" stroke-linejoin="round"/>
<path d="M407.508 347.607C407.003 346.87 406.499 346.132 405.994 345.395L407.508 347.607Z" fill="#00B4F1"/>
<path d="M407.508 347.607C407.003 346.87 406.499 346.132 405.994 345.395" stroke="#436BC3" stroke-width="1.04865" stroke-miterlimit="10" stroke-linecap="round" stroke-linejoin="round"/>
<path d="M406.755 180.537C406.76 178.901 406.448 176.904 407.073 175.811C408.09 175.433 409.365 174.891 410.575 174.329C411.698 173.808 411.883 172.288 410.908 171.525C409.576 170.482 407.827 169.158 406.321 168.158C405.316 167.489 403.964 168.083 403.765 169.274C403.462 171.087 403.322 173.044 403.184 173.441C402.445 174 400.884 174.478 399.621 174.796C398.874 174.984 398.663 175.945 399.258 176.435C401.051 177.916 403.463 179.981 405.25 181.293C405.873 181.751 406.752 181.312 406.755 180.537Z" fill="url(#paint44_linear_1888_14017)"/>
<path d="M400.339 177.364C399.64 178.831 397.229 184.394 397.229 184.394C397.229 184.394 402.318 181.146 403.581 180.002" fill="url(#paint45_linear_1888_14017)"/>
<path opacity="0.3" d="M27.4859 154.115C25.8545 154.954 23.6572 154.468 22.5317 153.02C21.4062 151.572 21.4774 149.323 22.6928 147.949C24.0909 146.37 26.3078 146.161 27.8019 147.65C29.295 149.138 29.361 153.15 27.4859 154.115Z" stroke="url(#paint46_radial_1888_14017)" stroke-width="0.951487" stroke-miterlimit="10" stroke-linecap="round" stroke-linejoin="round"/>
<path opacity="0.3" d="M365.882 78.0646C364.25 78.9041 362.053 78.4177 360.928 76.9701C359.802 75.5214 359.873 73.2725 361.089 71.8992C362.487 70.3194 364.704 70.1108 366.198 71.5997C367.691 73.0877 367.757 77.1002 365.882 78.0646Z" stroke="url(#paint47_radial_1888_14017)" stroke-width="0.951487" stroke-miterlimit="10" stroke-linecap="round" stroke-linejoin="round"/>
<path fill-rule="evenodd" clip-rule="evenodd" d="M402.245 27.7538C403.303 25.6193 406.065 24.4175 408.354 25.0661C412.864 26.3433 417.441 27.637 421.46 30.0521C423.869 31.4997 426.247 33.7636 426.137 36.5742C426.093 37.6776 425.661 38.7229 425.236 39.7411C422.1 47.2438 418.964 54.7468 415.828 62.2495C415.487 63.0646 415.068 64.9302 414.715 65.6675C413.676 67.8378 411.198 68.8899 408.907 68.1628C403.467 66.4354 397.661 63.789 392.914 60.9826C391.901 60.384 390.846 59.7099 390.344 58.646C389.923 57.7533 389.957 56.7174 390.071 55.7372C390.515 51.9237 393.338 47.1073 394.873 43.5884C397.201 38.2513 399.659 32.9707 402.245 27.7538ZM411.758 61.335C412.423 59.6791 410.541 57.97 409.001 58.9574C408.445 59.3139 408.094 59.9581 408.063 60.6173C408.052 60.8607 408.081 61.1096 408.175 61.3347C408.75 62.7276 411.195 62.736 411.758 61.335ZM404.025 56.1505C402.896 54.7695 400.493 55.5971 400.614 57.4236C400.658 58.0828 401.054 58.7026 401.616 59.0471C401.824 59.1744 402.056 59.2668 402.298 59.2942C403.794 59.4602 404.98 57.3194 404.025 56.1505ZM397.537 53.6136C397.065 52.1819 394.626 51.9944 393.963 53.3509C393.179 54.9541 394.93 56.7968 396.539 55.9252C397.119 55.6108 397.517 54.9932 397.595 54.3375C397.625 54.0954 397.613 53.845 397.537 53.6136ZM414.667 55.2092C415.331 53.5534 413.45 51.8453 411.909 52.8326C411.354 53.1892 411.003 53.8333 410.972 54.4925C410.96 54.736 410.99 54.9848 411.083 55.2099C411.659 56.603 414.104 56.6106 414.667 55.2092ZM406.935 50.0259C405.805 48.645 403.403 49.4733 403.525 51.3C403.569 51.9591 403.963 52.578 404.526 52.9224C404.734 53.0498 404.965 53.1421 405.208 53.1695C406.704 53.3358 407.89 51.1947 406.935 50.0259ZM400.446 47.488C399.975 46.0563 397.536 45.8687 396.872 47.2252C396.089 48.8284 397.84 50.6702 399.449 49.7986C400.029 49.4842 400.427 48.8675 400.505 48.2118C400.535 47.9698 400.522 47.7194 400.446 47.488ZM417.635 48.4119C418.3 46.7554 416.418 45.047 414.877 46.0344C414.322 46.391 413.971 47.0352 413.94 47.6953C413.928 47.9387 413.959 48.1876 414.052 48.4127C414.628 49.8053 417.072 49.8132 417.635 48.4119ZM409.901 43.2264C408.772 41.8454 406.369 42.6738 406.491 44.5005C406.535 45.1596 406.93 45.7779 407.492 46.123C407.7 46.2504 407.931 46.3426 408.174 46.37C409.67 46.5364 410.856 44.3953 409.901 43.2264ZM403.414 40.6907C402.943 39.2589 400.504 39.0714 399.84 40.4279C399.056 42.031 400.808 43.8729 402.416 43.0013C402.997 42.6868 403.395 42.0694 403.473 41.4136C403.503 41.1717 403.49 40.922 403.414 40.6907ZM409.705 30.352C407.645 29.2808 403.986 29.0286 403.976 32.2203C403.97 34.2208 406.213 35.7647 407.68 36.7025C410.179 38.3014 413.016 39.9929 415.93 40.8212C416.868 41.0879 417.85 41.1392 418.714 41.0011C421.101 40.6191 422.591 38.7904 419.799 36.0476C418.917 35.1805 417.806 34.5883 416.712 34.0115C414.381 32.7831 412.043 31.568 409.705 30.352Z" fill="url(#paint48_linear_1888_14017)"/>
<path d="M156.885 422.607L185.686 477.887C186.198 478.872 185.772 480.083 184.757 480.531C180.569 482.381 174.431 485.166 173.372 485.938C171.831 487.062 170.674 484.849 169.892 483.46C169.283 482.378 147.044 438.246 143.859 433.88C141.311 430.387 142.59 428.903 143.547 428.598C145.715 427.344 150.625 424.517 152.918 423.238C155.212 421.958 156.519 422.284 156.885 422.607Z" fill="#D9D9D9"/>
<path d="M156.885 422.607L185.686 477.887C186.198 478.872 185.772 480.083 184.757 480.531C180.569 482.381 174.431 485.166 173.372 485.938C171.831 487.062 170.674 484.849 169.892 483.46C169.283 482.378 147.044 438.246 143.859 433.88C141.311 430.387 142.59 428.903 143.547 428.598C145.715 427.344 150.625 424.517 152.918 423.238C155.212 421.958 156.519 422.284 156.885 422.607Z" fill="url(#paint49_linear_1888_14017)"/>
<path d="M142.955 432.68L144.293 431.814" stroke="#436BC3" stroke-width="0.870238" stroke-linecap="round"/>
<path d="M144.16 433.833L145.499 432.966" stroke="#436BC3" stroke-width="0.870238" stroke-linecap="round"/>
<path d="M145.015 435.422L146.353 434.555" stroke="#436BC3" stroke-width="0.870238" stroke-linecap="round"/>
<path d="M145.87 437.011L147.208 436.145" stroke="#436BC3" stroke-width="0.870238" stroke-linecap="round"/>
<path d="M146.724 438.602L152.066 435.425" stroke="#436BC3" stroke-width="0.870238" stroke-linecap="round"/>
<path d="M147.58 440.191L148.919 439.324" stroke="#436BC3" stroke-width="0.870238" stroke-linecap="round"/>
<path d="M148.434 441.781L149.773 440.914" stroke="#436BC3" stroke-width="0.870238" stroke-linecap="round"/>
<path d="M149.289 443.37L150.628 442.503" stroke="#436BC3" stroke-width="0.870238" stroke-linecap="round"/>
<path d="M150.144 444.961L151.483 444.094" stroke="#436BC3" stroke-width="0.870238" stroke-linecap="round"/>
<path d="M150.98 446.674L156.321 443.497" stroke="#436BC3" stroke-width="0.870238" stroke-linecap="round"/>
<path d="M151.855 448.14L153.193 447.274" stroke="#436BC3" stroke-width="0.870238" stroke-linecap="round"/>
<path d="M152.71 449.73L154.048 448.863" stroke="#436BC3" stroke-width="0.870238" stroke-linecap="round"/>
<path d="M153.565 451.32L154.903 450.453" stroke="#436BC3" stroke-width="0.870238" stroke-linecap="round"/>
<path d="M154.419 452.908L155.758 452.042" stroke="#436BC3" stroke-width="0.870238" stroke-linecap="round"/>
<path d="M155.255 454.621L160.596 451.444" stroke="#436BC3" stroke-width="0.870238" stroke-linecap="round"/>
<path d="M156.129 456.089L157.468 455.222" stroke="#436BC3" stroke-width="0.870238" stroke-linecap="round"/>
<path d="M156.984 457.677L158.322 456.81" stroke="#436BC3" stroke-width="0.870238" stroke-linecap="round"/>
<path d="M157.84 459.268L159.178 458.401" stroke="#436BC3" stroke-width="0.870238" stroke-linecap="round"/>
<path d="M158.694 460.857L160.033 459.99" stroke="#436BC3" stroke-width="0.870238" stroke-linecap="round"/>
<path d="M159.53 462.57L164.872 459.394" stroke="#436BC3" stroke-width="0.870238" stroke-linecap="round"/>
<path d="M160.404 464.036L161.743 463.169" stroke="#436BC3" stroke-width="0.870238" stroke-linecap="round"/>
<path d="M161.259 465.626L162.598 464.759" stroke="#436BC3" stroke-width="0.870238" stroke-linecap="round"/>
<path d="M162.114 467.215L163.452 466.348" stroke="#436BC3" stroke-width="0.870238" stroke-linecap="round"/>
<path d="M162.969 468.806L164.307 467.939" stroke="#436BC3" stroke-width="0.870238" stroke-linecap="round"/>
<path d="M163.804 470.519L169.145 467.342" stroke="#436BC3" stroke-width="0.870238" stroke-linecap="round"/>
<path d="M164.679 471.985L166.017 471.118" stroke="#436BC3" stroke-width="0.870238" stroke-linecap="round"/>
<path d="M165.533 473.574L166.871 472.708" stroke="#436BC3" stroke-width="0.870238" stroke-linecap="round"/>
<path d="M166.388 475.165L167.726 474.298" stroke="#436BC3" stroke-width="0.870238" stroke-linecap="round"/>
<path d="M167.243 476.754L168.582 475.887" stroke="#436BC3" stroke-width="0.870238" stroke-linecap="round"/>
<path d="M168.078 478.466L173.42 475.29" stroke="#436BC3" stroke-width="0.870238" stroke-linecap="round"/>
<path d="M168.953 479.933L170.291 479.066" stroke="#436BC3" stroke-width="0.870238" stroke-linecap="round"/>
<path d="M169.808 481.524L171.146 480.657" stroke="#436BC3" stroke-width="0.870238" stroke-linecap="round"/>
<path d="M170.663 483.112L172.001 482.245" stroke="#436BC3" stroke-width="0.870238" stroke-linecap="round"/>
<path d="M171.518 484.703L172.856 483.836" stroke="#436BC3" stroke-width="0.870238" stroke-linecap="round"/>
<path d="M167.363 446.557C168.191 448.619 180.141 466.631 186.012 475.379L180.638 476.733C177.606 468.427 168.519 454.918 164.354 449.201L167.363 446.557Z" fill="#D9D9D9"/>
<path d="M167.363 446.557C168.191 448.619 180.141 466.631 186.012 475.379L180.638 476.733C177.606 468.427 168.519 454.918 164.354 449.201L167.363 446.557Z" fill="url(#paint50_linear_1888_14017)"/>
<path d="M160.572 445.23C160.825 445.758 163.4 448.37 164.656 449.611C165.688 449.339 167.782 448.493 167.91 447.278C168.039 446.064 166.503 442.821 165.719 441.351C163.898 442.424 160.319 444.702 160.572 445.23Z" fill="url(#paint51_linear_1888_14017)"/>
<path d="M163.869 439.049C167.117 441.891 165.93 443.928 164.931 444.591C164.885 445.072 164.092 445.944 161.296 445.589C158.499 445.234 157.21 436.717 156.915 432.502C157.88 433.5 160.622 436.207 163.869 439.049Z" fill="url(#paint52_linear_1888_14017)"/>
<path d="M261.274 446.101L259.714 449.844L261.509 450.598L263.14 446.08C263.042 445.928 262.712 445.581 262.184 445.406C261.656 445.231 261.357 445.796 261.274 446.101Z" fill="url(#paint53_linear_1888_14017)"/>
<path d="M250.093 476.088L259.074 449.659C259.156 449.415 259.432 449.297 259.666 449.404L261.922 450.434C262.125 450.527 262.225 450.759 262.153 450.97L253.253 477.162L250.093 476.088Z" fill="url(#paint54_linear_1888_14017)"/>
<path d="M253.267 477.112L250.047 481.094L250.104 476.037L253.267 477.112Z" fill="#F1F1F1"/>
<path d="M253.267 477.112L250.047 481.094L250.104 476.037L253.267 477.112Z" fill="url(#paint55_linear_1888_14017)"/>
<path d="M266.238 443.716L264.678 447.459L266.473 448.212L268.104 443.694C268.006 443.543 267.676 443.196 267.148 443.021C266.62 442.846 266.321 443.411 266.238 443.716Z" fill="url(#paint56_linear_1888_14017)"/>
<path d="M255.057 473.702L264.038 447.274C264.12 447.03 264.396 446.911 264.63 447.018L266.886 448.048C267.089 448.141 267.189 448.373 267.117 448.584L258.217 474.776L255.057 473.702Z" fill="url(#paint57_linear_1888_14017)"/>
<path d="M258.232 474.726L255.012 478.708L255.069 473.651L258.232 474.726Z" fill="#F1F1F1"/>
<path d="M258.232 474.726L255.012 478.708L255.069 473.651L258.232 474.726Z" fill="url(#paint58_linear_1888_14017)"/>
<path d="M268.813 447.059L267.254 450.802L269.048 451.556L270.68 447.038C270.581 446.886 270.252 446.539 269.724 446.364C269.195 446.189 268.897 446.754 268.813 447.059Z" fill="url(#paint59_linear_1888_14017)"/>
<path d="M257.632 477.046L266.613 450.617C266.696 450.373 266.971 450.254 267.206 450.361L269.461 451.392C269.664 451.485 269.764 451.716 269.692 451.928L260.792 478.119L257.632 477.046Z" fill="url(#paint60_linear_1888_14017)"/>
<path d="M260.807 478.07L257.587 482.052L257.645 476.995L260.807 478.07Z" fill="#F1F1F1"/>
<path d="M260.807 478.07L257.587 482.052L257.645 476.995L260.807 478.07Z" fill="url(#paint61_linear_1888_14017)"/>
<path d="M272.154 448.776L270.595 452.519L272.39 453.272L274.021 448.754C273.922 448.603 273.593 448.256 273.065 448.081C272.537 447.906 272.238 448.471 272.154 448.776Z" fill="url(#paint62_linear_1888_14017)"/>
<path d="M260.974 478.763L269.955 452.335C270.038 452.091 270.313 451.972 270.548 452.079L272.803 453.11C273.006 453.202 273.106 453.434 273.034 453.645L264.134 479.837L260.974 478.763Z" fill="url(#paint63_linear_1888_14017)"/>
<path d="M264.149 479.787L260.929 483.768L260.986 478.712L264.149 479.787Z" fill="#F1F1F1"/>
<path d="M264.149 479.787L260.929 483.768L260.986 478.712L264.149 479.787Z" fill="url(#paint64_linear_1888_14017)"/>
<path d="M276.543 446.484L274.983 450.227L276.778 450.981L278.409 446.463C278.311 446.311 277.981 445.964 277.453 445.789C276.925 445.615 276.626 446.18 276.543 446.484Z" fill="url(#paint65_linear_1888_14017)"/>
<path d="M265.362 476.472L274.343 450.043C274.426 449.799 274.702 449.68 274.936 449.787L277.192 450.818C277.395 450.911 277.494 451.142 277.423 451.354L268.522 477.546L265.362 476.472Z" fill="url(#paint66_linear_1888_14017)"/>
<path d="M268.537 477.494L265.317 481.476L265.374 476.419L268.537 477.494Z" fill="#F1F1F1"/>
<path d="M268.537 477.494L265.317 481.476L265.374 476.419L268.537 477.494Z" fill="url(#paint67_linear_1888_14017)"/>
<path d="M170.053 500.985C159.12 499.095 154.363 477.141 153.35 466.399L179.332 456.952C181.581 460.27 186.62 469.74 188.78 481.077C191.479 495.249 183.718 503.347 170.053 500.985Z" fill="#D9D9D9"/>
<path d="M170.053 500.985C159.12 499.095 154.363 477.141 153.35 466.399L179.332 456.952C181.581 460.27 186.62 469.74 188.78 481.077C191.479 495.249 183.718 503.347 170.053 500.985Z" fill="url(#paint68_linear_1888_14017)"/>
<path d="M170.053 500.985C159.12 499.095 154.363 477.141 153.35 466.399L179.332 456.952C181.581 460.27 186.62 469.74 188.78 481.077C191.479 495.249 183.718 503.347 170.053 500.985Z" fill="url(#paint69_linear_1888_14017)"/>
<path d="M261.052 500.986C271.984 499.096 276.742 477.142 277.754 466.4L251.773 456.953C249.523 460.271 244.484 469.741 242.325 481.078C239.626 495.25 247.386 503.348 261.052 500.986Z" fill="#D9D9D9"/>
<path d="M261.052 500.986C271.984 499.096 276.742 477.142 277.754 466.4L251.773 456.953C249.523 460.271 244.484 469.741 242.325 481.078C239.626 495.25 247.386 503.348 261.052 500.986Z" fill="url(#paint70_linear_1888_14017)"/>
<path d="M261.052 500.986C271.984 499.096 276.742 477.142 277.754 466.4L251.773 456.953C249.523 460.271 244.484 469.741 242.325 481.078C239.626 495.25 247.386 503.348 261.052 500.986Z" fill="url(#paint71_linear_1888_14017)"/>
<path d="M277.461 469.04L277.742 466.436L253.07 457.318L251.062 459.389L277.461 469.04Z" fill="url(#paint72_linear_1888_14017)"/>
<path d="M153.635 468.984L153.354 466.38L178.026 457.263L180.034 459.333L153.635 468.984Z" fill="url(#paint73_linear_1888_14017)"/>
<path d="M210.546 400.806C198.416 402.733 195.95 413.513 196.233 418.662L201.335 421.354C200.154 416.347 200.768 406.021 212.672 404.774C224.576 403.527 228.308 412.284 228.686 416.819L234.071 416.961C232.795 410.017 225.71 398.397 210.546 400.806Z" fill="#D9D9D9"/>
<path d="M210.546 400.806C198.416 402.733 195.95 413.513 196.233 418.662L201.335 421.354C200.154 416.347 200.768 406.021 212.672 404.774C224.576 403.527 228.308 412.284 228.686 416.819L234.071 416.961C232.795 410.017 225.71 398.397 210.546 400.806Z" fill="url(#paint74_linear_1888_14017)"/>
<path d="M176.941 500.886C175.283 494.142 176.895 461.962 177.909 446.714C202.967 446.024 253.085 445.25 253.085 447.682C253.085 450.722 253.499 485.27 254.467 496.049C255.434 506.828 249.492 509.592 240.371 510.006C233.075 510.338 203.152 509.776 189.102 509.453C185.739 509.407 178.6 507.629 176.941 500.886Z" fill="#D9D9D9"/>
<path d="M176.941 500.886C175.283 494.142 176.895 461.962 177.909 446.714C202.967 446.024 253.085 445.25 253.085 447.682C253.085 450.722 253.499 485.27 254.467 496.049C255.434 506.828 249.492 509.592 240.371 510.006C233.075 510.338 203.152 509.776 189.102 509.453C185.739 509.407 178.6 507.629 176.941 500.886Z" fill="url(#paint75_linear_1888_14017)"/>
<path d="M186.604 452.251L203.157 453.508C210.28 456.022 224.423 454.905 230.604 454.031C232.559 453.822 238.146 453.256 244.851 452.67C253.232 451.936 266.124 438.834 248.518 421.765C238.251 411.812 207.766 414.851 198.128 417.261C188.49 419.67 177.386 427.213 175.814 437.689C174.557 446.07 182.484 450.889 186.604 452.251Z" fill="url(#paint76_linear_1888_14017)"/>
<path d="M186.54 459.614C186.718 458.664 186.515 451.054 186.392 447.368C186.328 445.283 187.701 444.669 188.396 444.622L199.157 445.067C200.864 445.067 201.829 447.145 201.606 448.11C200.864 450.634 200.864 455.606 200.27 460.504C199.676 465.402 197.301 465.105 191.587 465.105C185.872 465.105 186.318 460.801 186.54 459.614Z" fill="url(#paint77_linear_1888_14017)"/>
<path d="M188.626 459.304L188.565 448.191C188.559 447.209 189.668 447.005 190.223 447.025C191.45 447.005 194.348 446.939 196.116 446.841C197.885 446.743 198.408 448.028 198.449 448.683C198.531 451.67 198.695 458.039 198.695 459.611C198.695 461.575 197.713 461.268 193.231 461.698C189.645 462.042 188.667 460.245 188.626 459.304Z" fill="url(#paint78_linear_1888_14017)"/>
<path d="M188.627 457.278H198.757" stroke="#AF6210" stroke-width="0.870238" stroke-linecap="round"/>
<path d="M246.148 459.613C245.97 458.663 246.173 451.054 246.296 447.367C246.361 445.283 244.987 444.668 244.293 444.622L233.531 445.067C231.824 445.067 230.86 447.145 231.082 448.11C231.824 450.633 231.825 455.605 232.418 460.504C233.012 465.402 235.387 465.105 241.101 465.105C246.816 465.105 246.371 460.8 246.148 459.613Z" fill="url(#paint79_linear_1888_14017)"/>
<path d="M244.063 459.304L244.124 448.192C244.129 447.21 243.021 447.005 242.466 447.025C241.238 447.005 238.341 446.939 236.572 446.841C234.804 446.743 234.28 448.028 234.239 448.683C234.158 451.671 233.994 458.04 233.994 459.611C233.994 461.576 234.976 461.269 239.458 461.699C243.043 462.042 244.022 460.246 244.063 459.304Z" fill="url(#paint80_linear_1888_14017)"/>
<path d="M244.062 457.277H233.932" stroke="#AF6210" stroke-width="0.870238" stroke-linecap="round"/>
<path d="M182.076 496.358L183.347 475.068C183.4 473.426 184.523 469.793 188.59 468.395C193.674 466.647 235.461 466.647 242.293 468.077C247.758 469.221 247.959 474.062 247.377 476.339C247.377 481.741 247.567 493.753 248.33 498.583C249.093 503.413 243.458 503.879 240.545 503.508C225.61 503.773 194.151 504.302 187.796 504.302C181.441 504.302 181.335 499.006 182.076 496.358Z" fill="url(#paint81_linear_1888_14017)"/>
<path d="M184.787 476.658C184.787 471.785 192.291 470.92 196.043 471.097C200.678 472.421 237.756 471.361 241.993 471.759C245.383 472.077 245.524 477.365 245.171 479.969C244.995 481.381 244.668 486.537 244.774 495.86C244.906 507.513 241.066 506.851 240.537 507.777C240.113 508.519 231.532 508.969 227.294 509.102C217.407 508.969 196.387 508.704 191.408 508.704C186.429 508.704 185.626 501.554 185.846 497.978C185.493 492.902 184.787 481.531 184.787 476.658Z" fill="url(#paint82_linear_1888_14017)"/>
<path d="M205.087 451.294C209.231 452.303 219.451 453.71 227.174 451.266" stroke="#E9B8BB" stroke-width="0.973245" stroke-linecap="round"/>
<path d="M247.762 448.429C249.828 447.773 254.157 445.3 254.944 440.656" stroke="#E9B8BB" stroke-width="0.973245" stroke-linecap="round"/>
<path d="M177.46 437.7C177.494 439.56 178.698 444.275 183.244 448.252" stroke="#E9B8BB" stroke-width="0.973245" stroke-linecap="round"/>
<path d="M192.534 481.447L193.305 481.227L194.295 481.887L195.396 481.667L196.593 481.578L198.582 481.645L200.469 480.938L201.042 481.578H202.424H204.311L204.682 481.443L206.098 481.578L207.614 481.308L208.929 481.409L209.873 481.713H211.153L213.041 481.342L214.49 481.477L215.906 481.847L217.355 481.51L219.04 481.746L220.961 481.645L222.882 481.612L224.601 481.713L226.421 481.578L228.005 481.679H229.657L232.185 481.645L233.465 481.949H235.016L236.836 481.814L238.319 482.016" stroke="#9E2E33" stroke-width="0.522143" stroke-linecap="round"/>
<path d="M195.991 481.109V482.26" stroke="#9E2E33" stroke-width="0.348095" stroke-linecap="round"/>
<path d="M192.611 505.88C191.389 505.787 188.895 504.571 188.685 500.45C188.537 497.535 188.848 491.614 188.949 487.002C189.019 483.842 188.573 480.708 187.879 477.625C187.621 476.479 188.491 475.388 189.666 475.385L241.118 475.255C241.768 475.253 242.278 475.812 242.219 476.459C241.994 478.894 242.054 481.347 242.398 483.769L242.592 485.136C242.635 489.87 242.408 499.615 241.152 500.729C239.582 502.121 239.321 506.158 235.395 506.576" stroke="#E9B8BB" stroke-width="0.973245" stroke-linecap="round"/>
<rect x="191.752" y="481.354" width="3.0579" height="1.84399" rx="0.696191" fill="url(#paint83_linear_1888_14017)"/>
<path fill-rule="evenodd" clip-rule="evenodd" d="M193.84 482.051C194.059 482.05 194.255 482.185 194.336 482.388C195.049 484.181 196.459 487.047 197.247 489.018C198.298 491.644 190.42 490.462 191.208 489.412C191.565 487.815 192.048 484.906 192.213 482.804C192.245 482.387 192.587 482.058 193.006 482.055L193.84 482.051ZM193.476 483.962C193.289 483.963 193.137 484.111 193.122 484.297C193.007 485.744 192.489 488.137 192.587 488.79C192.44 489.769 196.332 490.255 195.778 488.531C195.378 487.291 194.677 485.51 194.288 484.329C194.215 484.109 194.011 483.958 193.779 483.96L193.476 483.962Z" fill="url(#paint84_linear_1888_14017)"/>
<path d="M70.2464 520.229C70.2464 520.229 70.6205 524.255 78.5236 526.329C86.4267 528.402 95.7793 525.332 95.7793 525.332C95.7793 525.332 96.5275 533.385 106.986 535.311C117.445 537.237 120.813 531.982 120.813 531.982C120.813 531.982 121.234 536.512 133.065 539.37C144.895 542.229 157.256 536.961 157.256 536.961C157.256 536.961 162.235 554.409 186.967 552.449C216.003 550.149 218.563 532.913 218.563 532.913C218.563 532.913 223.271 535.172 237.642 530.799C252.014 526.427 253.355 513.193 253.355 513.193C253.355 513.193 270.064 513.24 267.352 504.795C264.64 496.349 252.092 499.604 252.092 499.604C252.092 499.604 245.577 484.8 223.426 481.525C201.276 478.25 185.471 494.849 185.471 494.849C185.471 494.849 184.037 486.33 168.963 483.153C153.889 479.975 143.68 487.649 143.68 487.649C143.68 487.649 138.498 477.196 123.572 478.69C110.606 479.988 107.485 492.269 107.485 492.269C107.485 492.269 102.778 490.011 92.1467 493.155C81.5158 496.3 80.7678 508.993 80.7678 508.993C80.7678 508.993 74.9976 503.471 64.8372 510.419C64.8372 510.419 48.455 505.561 48.8931 515.994C49.2953 525.567 70.2464 520.229 70.2464 520.229Z" fill="url(#paint85_linear_1888_14017)" fill-opacity="0.2"/>
<path opacity="0.3" d="M384.699 14.0061C383.597 13.6867 382.066 13.5621 380.936 13.3677C380.064 12.0726 379.583 10.6932 378.642 9.44751C378.528 11.0575 378.039 12.1212 377.925 13.7312C376.866 14.0821 375.602 14.6487 374.491 14.7546C375.649 15.5463 376.756 16.1922 377.769 16.7425C377.29 17.7689 376.835 19.3905 376.566 20.4604C377.74 19.6924 378.898 18.7653 379.898 17.7809C380.873 18.4621 382.032 19.5641 382.756 20.5074C382.51 19.0362 382.528 17.6098 382.139 16.1697C383.061 15.6078 383.815 14.6283 384.699 14.0061Z" stroke="url(#paint86_radial_1888_14017)" stroke-width="0.951487" stroke-miterlimit="10" stroke-linecap="round" stroke-linejoin="round"/>
</g>
<defs>
<radialGradient id="paint0_radial_1888_14017" cx="0" cy="0" r="1" gradientUnits="userSpaceOnUse" gradientTransform="translate(215 4.9776e-06) rotate(90) scale(475.675 437.074)">
<stop stop-color="white"/>
<stop offset="0.45" stop-color="#FAFCFF"/>
<stop offset="1" stop-color="#E0EDFF"/>
</radialGradient>
<radialGradient id="paint1_radial_1888_14017" cx="0" cy="0" r="1" gradientUnits="userSpaceOnUse" gradientTransform="translate(371.283 -8.85207e-05) rotate(90) scale(742.565 387.572)">
<stop/>
<stop offset="0.953125" stop-opacity="0"/>
</radialGradient>
<linearGradient id="paint2_linear_1888_14017" x1="368.634" y1="417.205" x2="368.634" y2="472.766" gradientUnits="userSpaceOnUse">
<stop stop-color="#E4E4E7"/>
<stop offset="1" stop-color="#F4F4F5"/>
</linearGradient>
<linearGradient id="paint3_linear_1888_14017" x1="357.532" y1="440.435" x2="313.108" y2="452.148" gradientUnits="userSpaceOnUse">
<stop offset="0.384076" stop-color="#9BBAFF"/>
<stop offset="1" stop-color="#356BE1"/>
</linearGradient>
<linearGradient id="paint4_linear_1888_14017" x1="332.671" y1="444.294" x2="339.637" y2="466.773" gradientUnits="userSpaceOnUse">
<stop offset="0.384076" stop-color="#D3E7DD"/>
<stop offset="1" stop-color="#B0D2BC"/>
</linearGradient>
<linearGradient id="paint5_linear_1888_14017" x1="332.671" y1="444.294" x2="339.637" y2="466.773" gradientUnits="userSpaceOnUse">
<stop offset="0.384076" stop-color="#D3E7DD"/>
<stop offset="1" stop-color="#B0D2BC"/>
</linearGradient>
<linearGradient id="paint6_linear_1888_14017" x1="332.671" y1="444.294" x2="339.637" y2="466.773" gradientUnits="userSpaceOnUse">
<stop offset="0.384076" stop-color="#D3E7DD"/>
<stop offset="1" stop-color="#B0D2BC"/>
</linearGradient>
<linearGradient id="paint7_linear_1888_14017" x1="332.671" y1="444.294" x2="339.637" y2="466.773" gradientUnits="userSpaceOnUse">
<stop offset="0.384076" stop-color="#D3E7DD"/>
<stop offset="1" stop-color="#B0D2BC"/>
</linearGradient>
<linearGradient id="paint8_linear_1888_14017" x1="376.548" y1="427.502" x2="314.355" y2="443.9" gradientUnits="userSpaceOnUse">
<stop offset="0.384076" stop-color="#9BBAFF"/>
<stop offset="1" stop-color="#356BE1"/>
</linearGradient>
<linearGradient id="paint9_linear_1888_14017" x1="384.853" y1="427.305" x2="369.881" y2="427.305" gradientUnits="userSpaceOnUse">
<stop stop-color="#FFB7BA"/>
<stop offset="1" stop-color="#CF4F54"/>
</linearGradient>
<linearGradient id="paint10_linear_1888_14017" x1="44.7667" y1="24.2639" x2="40.6793" y2="37.0653" gradientUnits="userSpaceOnUse">
<stop stop-color="#FFB7BA"/>
<stop offset="1" stop-color="#CF4F54"/>
</linearGradient>
<linearGradient id="paint11_linear_1888_14017" x1="36.3426" y1="16.7521" x2="35.5097" y2="29.5035" gradientUnits="userSpaceOnUse">
<stop offset="0.384076" stop-color="#9BBAFF"/>
<stop offset="1" stop-color="#356BE1"/>
</linearGradient>
<linearGradient id="paint12_linear_1888_14017" x1="56.8079" y1="347.413" x2="49.2363" y2="362.096" gradientUnits="userSpaceOnUse">
<stop offset="0.384076" stop-color="#D3E7DD"/>
<stop offset="1" stop-color="#B0D2BC"/>
</linearGradient>
<linearGradient id="paint13_linear_1888_14017" x1="33.8303" y1="319.198" x2="48.2831" y2="358.919" gradientUnits="userSpaceOnUse">
<stop offset="0.384076" stop-color="#D3E7DD"/>
<stop offset="1" stop-color="#B0D2BC"/>
</linearGradient>
<linearGradient id="paint14_linear_1888_14017" x1="111.001" y1="433.019" x2="116.785" y2="460.362" gradientUnits="userSpaceOnUse">
<stop offset="0.384076" stop-color="#9BBAFF"/>
<stop offset="1" stop-color="#356BE1"/>
</linearGradient>
<linearGradient id="paint15_linear_1888_14017" x1="14.8722" y1="47.9876" x2="32.8876" y2="62.5506" gradientUnits="userSpaceOnUse">
<stop offset="0.384076" stop-color="#D3E7DD"/>
<stop offset="1" stop-color="#B0D2BC"/>
</linearGradient>
<linearGradient id="paint16_linear_1888_14017" x1="14.2747" y1="45.6102" x2="27.1887" y2="55.724" gradientUnits="userSpaceOnUse">
<stop offset="0.266062" stop-color="#CAE4D7"/>
<stop offset="1" stop-color="#8DC5A1"/>
</linearGradient>
<linearGradient id="paint17_linear_1888_14017" x1="10.0375" y1="46.5932" x2="12.5857" y2="50.8152" gradientUnits="userSpaceOnUse">
<stop offset="0.266062" stop-color="#CAE4D7"/>
<stop offset="1" stop-color="#8FC2A1"/>
</linearGradient>
<linearGradient id="paint18_linear_1888_14017" x1="8.81895" y1="45.5929" x2="11.3336" y2="49.9362" gradientUnits="userSpaceOnUse">
<stop offset="0.266062" stop-color="#CAE4D7"/>
<stop offset="1" stop-color="#8FC2A1"/>
</linearGradient>
<linearGradient id="paint19_linear_1888_14017" x1="25.9157" y1="61.7408" x2="28.434" y2="66.1069" gradientUnits="userSpaceOnUse">
<stop offset="0.266062" stop-color="#CAE4D7"/>
<stop offset="1" stop-color="#8FC2A1"/>
</linearGradient>
<linearGradient id="paint20_linear_1888_14017" x1="24.8655" y1="60.6057" x2="27.2495" y2="64.6409" gradientUnits="userSpaceOnUse">
<stop offset="0.266062" stop-color="#CAE4D7"/>
<stop offset="1" stop-color="#8FC2A1"/>
</linearGradient>
<linearGradient id="paint21_linear_1888_14017" x1="30.4731" y1="194.234" x2="40.9688" y2="220.426" gradientUnits="userSpaceOnUse">
<stop offset="0.384076" stop-color="#D3E7DD"/>
<stop offset="1" stop-color="#B0D2BC"/>
</linearGradient>
<linearGradient id="paint22_linear_1888_14017" x1="46.9275" y1="205.991" x2="18.358" y2="205.991" gradientUnits="userSpaceOnUse">
<stop stop-color="#FFB7BA"/>
<stop offset="1" stop-color="#CF4F54"/>
</linearGradient>
<linearGradient id="paint23_linear_1888_14017" x1="31.5224" y1="205.555" x2="35.3607" y2="219.533" gradientUnits="userSpaceOnUse">
<stop offset="0.384076" stop-color="#D3E7DD"/>
<stop offset="1" stop-color="#B0D2BC"/>
</linearGradient>
<linearGradient id="paint24_linear_1888_14017" x1="43.3973" y1="211.369" x2="22.7791" y2="211.369" gradientUnits="userSpaceOnUse">
<stop stop-color="#FFC2C5"/>
<stop offset="1" stop-color="#E38387"/>
</linearGradient>
<linearGradient id="paint25_linear_1888_14017" x1="36.7739" y1="102.45" x2="23.5359" y2="115.713" gradientUnits="userSpaceOnUse">
<stop stop-color="#FFB7BA"/>
<stop offset="1" stop-color="#CF4F54"/>
</linearGradient>
<linearGradient id="paint26_linear_1888_14017" x1="59.2448" y1="399.188" x2="60.3232" y2="405.749" gradientUnits="userSpaceOnUse">
<stop stop-color="#E2888B"/>
<stop offset="1" stop-color="#BE3B40"/>
</linearGradient>
<linearGradient id="paint27_linear_1888_14017" x1="60.8187" y1="399.459" x2="62.6806" y2="410.785" gradientUnits="userSpaceOnUse">
<stop stop-color="#E2888B"/>
<stop offset="1" stop-color="#BE3B40"/>
</linearGradient>
<linearGradient id="paint28_linear_1888_14017" x1="58.5215" y1="402.913" x2="59.1968" y2="407.021" gradientUnits="userSpaceOnUse">
<stop stop-color="#D88E91"/>
<stop offset="1" stop-color="#BC4347"/>
</linearGradient>
<linearGradient id="paint29_linear_1888_14017" x1="400.11" y1="104.292" x2="394.129" y2="123.302" gradientUnits="userSpaceOnUse">
<stop stop-color="#FFD9AF"/>
<stop offset="1" stop-color="#E1AB71"/>
</linearGradient>
<linearGradient id="paint30_linear_1888_14017" x1="396.868" y1="114.257" x2="394.209" y2="122.709" gradientUnits="userSpaceOnUse">
<stop stop-color="#D6AC7F"/>
<stop offset="1" stop-color="#BD8E5B"/>
</linearGradient>
<linearGradient id="paint31_linear_1888_14017" x1="397.067" y1="126.178" x2="390.469" y2="126.053" gradientUnits="userSpaceOnUse">
<stop offset="0.384076" stop-color="#9BBAFF"/>
<stop offset="1" stop-color="#356BE1"/>
</linearGradient>
<linearGradient id="paint32_linear_1888_14017" x1="397.393" y1="124.062" x2="396.957" y2="124.944" gradientUnits="userSpaceOnUse">
<stop offset="0.384076" stop-color="#B7CDFF"/>
<stop offset="1" stop-color="#7BA5FF"/>
</linearGradient>
<linearGradient id="paint33_linear_1888_14017" x1="396.737" y1="126.145" x2="396.302" y2="127.027" gradientUnits="userSpaceOnUse">
<stop offset="0.384076" stop-color="#B7CDFF"/>
<stop offset="1" stop-color="#7BA5FF"/>
</linearGradient>
<linearGradient id="paint34_linear_1888_14017" x1="395.955" y1="128.093" x2="395.623" y2="128.797" gradientUnits="userSpaceOnUse">
<stop offset="0.384076" stop-color="#B7CDFF"/>
<stop offset="1" stop-color="#7BA5FF"/>
</linearGradient>
<linearGradient id="paint35_linear_1888_14017" x1="401.758" y1="97.97" x2="400.767" y2="101.121" gradientUnits="userSpaceOnUse">
<stop stop-color="#D6AC7F"/>
<stop offset="1" stop-color="#BD8E5B"/>
</linearGradient>
<linearGradient id="paint36_linear_1888_14017" x1="405.296" y1="101.813" x2="404.668" y2="103.808" gradientUnits="userSpaceOnUse">
<stop stop-color="#D6AC7F"/>
<stop offset="1" stop-color="#BD8E5B"/>
</linearGradient>
<linearGradient id="paint37_linear_1888_14017" x1="408.706" y1="105.978" x2="408.186" y2="107.633" gradientUnits="userSpaceOnUse">
<stop stop-color="#D6AC7F"/>
<stop offset="1" stop-color="#BD8E5B"/>
</linearGradient>
<linearGradient id="paint38_linear_1888_14017" x1="396.281" y1="99.7152" x2="395.757" y2="101.38" gradientUnits="userSpaceOnUse">
<stop stop-color="#D6AC7F"/>
<stop offset="1" stop-color="#BD8E5B"/>
</linearGradient>
<linearGradient id="paint39_linear_1888_14017" x1="391.341" y1="99.8262" x2="390.471" y2="102.593" gradientUnits="userSpaceOnUse">
<stop stop-color="#D6AC7F"/>
<stop offset="1" stop-color="#BD8E5B"/>
</linearGradient>
<radialGradient id="paint40_radial_1888_14017" cx="0" cy="0" r="1" gradientTransform="matrix(2.09354 2.3771 -1.6657 1.50219 351.739 21.4746)" gradientUnits="userSpaceOnUse">
<stop stop-color="#356BE1"/>
<stop offset="1" stop-color="#9BBAFF"/>
</radialGradient>
<linearGradient id="paint41_linear_1888_14017" x1="418.387" y1="318.76" x2="412.328" y2="301.027" gradientUnits="userSpaceOnUse">
<stop stop-color="#FFB7BA"/>
<stop offset="1" stop-color="#CF4F54"/>
</linearGradient>
<linearGradient id="paint42_linear_1888_14017" x1="46.8671" y1="460.54" x2="40.8082" y2="442.807" gradientUnits="userSpaceOnUse">
<stop stop-color="#FFB7BA"/>
<stop offset="1" stop-color="#CF4F54"/>
</linearGradient>
<linearGradient id="paint43_linear_1888_14017" x1="406.285" y1="341.373" x2="384.169" y2="383.022" gradientUnits="userSpaceOnUse">
<stop offset="0.384076" stop-color="#9BBAFF"/>
<stop offset="1" stop-color="#356BE1"/>
</linearGradient>
<linearGradient id="paint44_linear_1888_14017" x1="404.268" y1="170.013" x2="408.11" y2="180.693" gradientUnits="userSpaceOnUse">
<stop offset="0.384076" stop-color="#D3E7DD"/>
<stop offset="1" stop-color="#B0D2BC"/>
</linearGradient>
<linearGradient id="paint45_linear_1888_14017" x1="399.923" y1="178.467" x2="401.951" y2="183.953" gradientUnits="userSpaceOnUse">
<stop offset="0.384076" stop-color="#BFE4D2"/>
<stop offset="1" stop-color="#71A784"/>
</linearGradient>
<radialGradient id="paint46_radial_1888_14017" cx="0" cy="0" r="1" gradientTransform="matrix(-3.29328 6.03482 4.24561 2.38219 25.3205 150.856)" gradientUnits="userSpaceOnUse">
<stop stop-color="#356BE1"/>
<stop offset="1" stop-color="#9BBAFF"/>
</radialGradient>
<radialGradient id="paint47_radial_1888_14017" cx="0" cy="0" r="1" gradientTransform="matrix(-3.29328 6.03482 4.24561 2.38219 363.717 74.806)" gradientUnits="userSpaceOnUse">
<stop stop-color="#356BE1"/>
<stop offset="1" stop-color="#9BBAFF"/>
</radialGradient>
<linearGradient id="paint48_linear_1888_14017" x1="407.264" y1="31.6568" x2="417.103" y2="65.2209" gradientUnits="userSpaceOnUse">
<stop offset="0.384076" stop-color="#D3E7DD"/>
<stop offset="1" stop-color="#B0D2BC"/>
</linearGradient>
<linearGradient id="paint49_linear_1888_14017" x1="188.885" y1="449.54" x2="141.277" y2="452.748" gradientUnits="userSpaceOnUse">
<stop stop-color="#91A7D8"/>
<stop offset="0.615924" stop-color="#CADBFF"/>
</linearGradient>
<linearGradient id="paint50_linear_1888_14017" x1="165.583" y1="461.411" x2="188.615" y2="459.481" gradientUnits="userSpaceOnUse">
<stop offset="0.384076" stop-color="#E3E6A4"/>
<stop offset="1" stop-color="#CEC370"/>
</linearGradient>
<linearGradient id="paint51_linear_1888_14017" x1="160.785" y1="444.301" x2="168.191" y2="446.285" gradientUnits="userSpaceOnUse">
<stop stop-color="#888888"/>
<stop offset="1" stop-color="#555555"/>
</linearGradient>
<linearGradient id="paint52_linear_1888_14017" x1="155.424" y1="438.066" x2="166.498" y2="441.033" gradientUnits="userSpaceOnUse">
<stop stop-color="#F1F1F1"/>
<stop offset="1" stop-color="#F5F5F5"/>
</linearGradient>
<linearGradient id="paint53_linear_1888_14017" x1="260.802" y1="446.406" x2="263.089" y2="449.85" gradientUnits="userSpaceOnUse">
<stop offset="0.384076" stop-color="#F3F3F3"/>
<stop offset="1" stop-color="#F1F1F1"/>
</linearGradient>
<linearGradient id="paint54_linear_1888_14017" x1="253.143" y1="454.614" x2="266.052" y2="470.764" gradientUnits="userSpaceOnUse">
<stop offset="0.384076" stop-color="#A4E6C5"/>
<stop offset="1" stop-color="#70CE92"/>
</linearGradient>
<linearGradient id="paint55_linear_1888_14017" x1="253.106" y1="477.257" x2="249.739" y2="478.701" gradientUnits="userSpaceOnUse">
<stop offset="0.384076" stop-color="#333333"/>
<stop offset="1" stop-color="#777777"/>
</linearGradient>
<linearGradient id="paint56_linear_1888_14017" x1="265.765" y1="444.02" x2="268.053" y2="447.464" gradientUnits="userSpaceOnUse">
<stop offset="0.384076" stop-color="#F3F3F3"/>
<stop offset="1" stop-color="#F1F1F1"/>
</linearGradient>
<linearGradient id="paint57_linear_1888_14017" x1="258.107" y1="452.228" x2="271.016" y2="468.378" gradientUnits="userSpaceOnUse">
<stop offset="0.384076" stop-color="#D0A4E6"/>
<stop offset="1" stop-color="#AA70CE"/>
</linearGradient>
<linearGradient id="paint58_linear_1888_14017" x1="258.071" y1="474.871" x2="254.704" y2="476.315" gradientUnits="userSpaceOnUse">
<stop offset="0.384076" stop-color="#333333"/>
<stop offset="1" stop-color="#777777"/>
</linearGradient>
<linearGradient id="paint59_linear_1888_14017" x1="268.341" y1="447.364" x2="270.628" y2="450.808" gradientUnits="userSpaceOnUse">
<stop offset="0.384076" stop-color="#F3F3F3"/>
<stop offset="1" stop-color="#F1F1F1"/>
</linearGradient>
<linearGradient id="paint60_linear_1888_14017" x1="260.682" y1="455.572" x2="273.591" y2="471.722" gradientUnits="userSpaceOnUse">
<stop offset="0.384076" stop-color="#E6DDA4"/>
<stop offset="1" stop-color="#DAB03B"/>
</linearGradient>
<linearGradient id="paint61_linear_1888_14017" x1="260.646" y1="478.215" x2="257.279" y2="479.659" gradientUnits="userSpaceOnUse">
<stop offset="0.384076" stop-color="#333333"/>
<stop offset="1" stop-color="#777777"/>
</linearGradient>
<linearGradient id="paint62_linear_1888_14017" x1="271.682" y1="449.081" x2="273.969" y2="452.525" gradientUnits="userSpaceOnUse">
<stop offset="0.384076" stop-color="#F3F3F3"/>
<stop offset="1" stop-color="#F1F1F1"/>
</linearGradient>
<linearGradient id="paint63_linear_1888_14017" x1="264.024" y1="457.289" x2="276.933" y2="473.439" gradientUnits="userSpaceOnUse">
<stop offset="0.384076" stop-color="#E6A4A4"/>
<stop offset="1" stop-color="#CE7070"/>
</linearGradient>
<linearGradient id="paint64_linear_1888_14017" x1="263.987" y1="479.932" x2="260.62" y2="481.375" gradientUnits="userSpaceOnUse">
<stop offset="0.384076" stop-color="#333333"/>
<stop offset="1" stop-color="#777777"/>
</linearGradient>
<linearGradient id="paint65_linear_1888_14017" x1="276.07" y1="446.789" x2="278.358" y2="450.233" gradientUnits="userSpaceOnUse">
<stop offset="0.384076" stop-color="#F3F3F3"/>
<stop offset="1" stop-color="#F1F1F1"/>
</linearGradient>
<linearGradient id="paint66_linear_1888_14017" x1="268.413" y1="454.998" x2="281.322" y2="471.148" gradientUnits="userSpaceOnUse">
<stop offset="0.384076" stop-color="#A4E6C5"/>
<stop offset="1" stop-color="#70CE92"/>
</linearGradient>
<linearGradient id="paint67_linear_1888_14017" x1="268.376" y1="477.639" x2="265.009" y2="479.083" gradientUnits="userSpaceOnUse">
<stop offset="0.384076" stop-color="#333333"/>
<stop offset="1" stop-color="#777777"/>
</linearGradient>
<linearGradient id="paint68_linear_1888_14017" x1="173.538" y1="458.59" x2="178.076" y2="500.785" gradientUnits="userSpaceOnUse">
<stop stop-color="#FFB7BA"/>
<stop offset="1" stop-color="#CF4F54"/>
</linearGradient>
<linearGradient id="paint69_linear_1888_14017" x1="171.419" y1="461.215" x2="180.779" y2="502.245" gradientUnits="userSpaceOnUse">
<stop stop-color="#FFC2C5"/>
<stop offset="1" stop-color="#E38387"/>
</linearGradient>
<linearGradient id="paint70_linear_1888_14017" x1="257.567" y1="458.591" x2="253.028" y2="500.786" gradientUnits="userSpaceOnUse">
<stop stop-color="#FFB7BA"/>
<stop offset="1" stop-color="#CF4F54"/>
</linearGradient>
<linearGradient id="paint71_linear_1888_14017" x1="259.686" y1="461.216" x2="250.325" y2="502.246" gradientUnits="userSpaceOnUse">
<stop stop-color="#FFC2C5"/>
<stop offset="1" stop-color="#E38387"/>
</linearGradient>
<linearGradient id="paint72_linear_1888_14017" x1="264.402" y1="457.318" x2="264.402" y2="469.04" gradientUnits="userSpaceOnUse">
<stop stop-color="#FFD9AF"/>
<stop offset="1" stop-color="#E1AB71"/>
</linearGradient>
<linearGradient id="paint73_linear_1888_14017" x1="166.694" y1="457.263" x2="166.694" y2="468.984" gradientUnits="userSpaceOnUse">
<stop stop-color="#FFD9AF"/>
<stop offset="1" stop-color="#E1AB71"/>
</linearGradient>
<linearGradient id="paint74_linear_1888_14017" x1="232.275" y1="407.994" x2="203.075" y2="422.127" gradientUnits="userSpaceOnUse">
<stop offset="0.384076" stop-color="#9BBAFF"/>
<stop offset="1" stop-color="#356BE1"/>
</linearGradient>
<linearGradient id="paint75_linear_1888_14017" x1="210.592" y1="448.388" x2="206.232" y2="509.626" gradientUnits="userSpaceOnUse">
<stop stop-color="#FFB7BA"/>
<stop offset="1" stop-color="#CF4F54"/>
</linearGradient>
<linearGradient id="paint76_linear_1888_14017" x1="211.487" y1="416.342" x2="209.836" y2="454.871" gradientUnits="userSpaceOnUse">
<stop stop-color="#FFB7BA"/>
<stop offset="1" stop-color="#CF4F54"/>
</linearGradient>
<linearGradient id="paint77_linear_1888_14017" x1="194.014" y1="444.622" x2="194.014" y2="465.109" gradientUnits="userSpaceOnUse">
<stop stop-color="#FFD9AF"/>
<stop offset="1" stop-color="#E1AB71"/>
</linearGradient>
<linearGradient id="paint78_linear_1888_14017" x1="193.63" y1="446.835" x2="193.63" y2="461.741" gradientUnits="userSpaceOnUse">
<stop stop-color="#E1AB71"/>
<stop offset="1" stop-color="#FFD9AF"/>
</linearGradient>
<linearGradient id="paint79_linear_1888_14017" x1="238.675" y1="444.622" x2="238.675" y2="465.108" gradientUnits="userSpaceOnUse">
<stop stop-color="#FFD9AF"/>
<stop offset="1" stop-color="#E1AB71"/>
</linearGradient>
<linearGradient id="paint80_linear_1888_14017" x1="239.059" y1="446.836" x2="239.059" y2="461.742" gradientUnits="userSpaceOnUse">
<stop stop-color="#E1AB71"/>
<stop offset="1" stop-color="#FFD9AF"/>
</linearGradient>
<linearGradient id="paint81_linear_1888_14017" x1="214.919" y1="470.616" x2="211.223" y2="506.427" gradientUnits="userSpaceOnUse">
<stop stop-color="#FFC2C5"/>
<stop offset="1" stop-color="#E38387"/>
</linearGradient>
<linearGradient id="paint82_linear_1888_14017" x1="211.333" y1="472.477" x2="209.341" y2="508.891" gradientUnits="userSpaceOnUse">
<stop stop-color="#CF4F54"/>
<stop offset="1" stop-color="#FFB7BA"/>
</linearGradient>
<linearGradient id="paint83_linear_1888_14017" x1="193.281" y1="481.158" x2="193.281" y2="483.198" gradientUnits="userSpaceOnUse">
<stop stop-color="#E1AB71"/>
<stop offset="1" stop-color="#FFD9AF"/>
</linearGradient>
<linearGradient id="paint84_linear_1888_14017" x1="194.248" y1="481.141" x2="194.248" y2="490.609" gradientUnits="userSpaceOnUse">
<stop stop-color="#E1AB71"/>
<stop offset="1" stop-color="#FFD9AF"/>
</linearGradient>
<linearGradient id="paint85_linear_1888_14017" x1="97.491" y1="458.064" x2="104.815" y2="512.061" gradientUnits="userSpaceOnUse">
<stop stop-color="#E0F2FF"/>
<stop offset="1" stop-color="white"/>
</linearGradient>
<radialGradient id="paint86_radial_1888_14017" cx="0" cy="0" r="1" gradientUnits="userSpaceOnUse" gradientTransform="translate(379.595 15.3601) rotate(118.958) scale(9.67445 6.90141)">
<stop stop-color="#356BE1"/>
<stop offset="1" stop-color="#9BBAFF"/>
</radialGradient>
<clipPath id="clip0_1888_14017">
<rect width="430" height="514" fill="white"/>
</clipPath>
<clipPath id="clip1_1888_14017">
<rect width="990.087" height="742.565" fill="white" transform="translate(-279.825)"/>
</clipPath>
<clipPath id="clip2_1888_14017">
<rect width="990.087" height="742.565" fill="white" transform="translate(-279.825)"/>
</clipPath>
<clipPath id="clip3_1888_14017">
<rect width="990.087" height="742.565" fill="white" transform="translate(-279.825)"/>
</clipPath>
<clipPath id="clip4_1888_14017">
<rect width="430" height="520" fill="white"/>
</clipPath>
<clipPath id="clip5_1888_14017">
<rect width="79.8538" height="80.8159" fill="white" transform="translate(305 397)"/>
</clipPath>
<clipPath id="clip6_1888_14017">
<rect width="24.0524" height="71.195" fill="white" transform="translate(358.483 405.807)"/>
</clipPath>
</defs>
</svg>
