<svg width="326" height="254" viewBox="0 0 326 254" fill="none" xmlns="http://www.w3.org/2000/svg">
<g clip-path="url(#clip0_1189_13404)">
<path d="M0 8C0 3.58172 3.58172 0 8 0H318C322.418 0 326 3.58172 326 8V246C326 250.418 322.418 254 318 254H8C3.58173 254 0 250.418 0 246V8Z" fill="#EFF6FF"/>
<path d="M72.9141 113.02L77.1156 104.617H78.3161L82.5177 113.02V137.029H72.9141V113.02Z" fill="#DBEAFE"/>
<path d="M216.52 158.411C216.52 156.547 218.031 155.035 219.896 155.035C221.76 155.035 223.272 156.547 223.272 158.411V303.591H216.52V158.411Z" fill="#C2D5FF"/>
<path d="M189.509 303.594C193.239 303.594 196.262 300.571 196.262 296.841V168.543H61.2109V296.841C61.2109 300.571 64.2342 303.594 67.9635 303.594H189.509Z" fill="#DBEAFE"/>
<path d="M128.736 182.047C106.36 182.047 88.2207 200.186 88.2207 222.562V286.711C88.2207 288.576 89.7323 290.088 91.597 290.088H165.875C167.74 290.088 169.251 288.576 169.251 286.711V222.562C169.251 200.186 151.112 182.047 128.736 182.047Z" fill="#EFF6FF"/>
<path d="M88.2207 279.958C88.2207 278.093 89.7323 276.582 91.597 276.582H169.251V286.71C169.251 288.575 167.74 290.087 165.875 290.087H91.597C89.7323 290.087 88.2207 288.575 88.2207 286.71V279.958Z" fill="#C2D5FF"/>
<path d="M108.478 259.7C108.478 257.835 109.99 256.324 111.855 256.324H169.251V269.829H108.478V259.7Z" fill="#C2D5FF"/>
<path d="M128.736 239.443C128.736 237.578 130.248 236.066 132.112 236.066H169.251V249.571H128.736V239.443Z" fill="#C2D5FF"/>
<path d="M168.691 215.809C169.059 218.005 169.251 220.26 169.251 222.561V229.314H148.994V219.185C148.994 217.32 150.505 215.809 152.37 215.809H168.691Z" fill="#C2D5FF"/>
<path d="M250.282 168.54V296.838C250.282 300.568 247.259 303.591 243.53 303.591V168.54L222.916 127.312C221.671 124.823 218.12 124.823 216.876 127.312L196.262 168.54H61.2109L85.4216 120.119C87.1373 116.687 90.6446 114.52 94.4811 114.52H217.012C220.849 114.52 224.356 116.687 226.072 120.119L250.282 168.54Z" fill="#C2D5FF"/>
<path d="M223.271 202.304V161.789H263.787L250.282 182.047L263.787 202.304H223.271Z" fill="#DBEAFE"/>
<path d="M96.68 81.4226C95.3173 81.4226 94.0853 81.1892 92.984 80.7226C91.9013 80.2559 91.0427 79.5839 90.408 78.7066C89.7733 77.8292 89.4467 76.7932 89.428 75.5986H93.628C93.684 76.4012 93.964 77.0359 94.468 77.5026C94.9907 77.9692 95.7 78.2026 96.596 78.2026C97.5107 78.2026 98.2293 77.9879 98.752 77.5586C99.2747 77.1106 99.536 76.5319 99.536 75.8226C99.536 75.2439 99.3587 74.7679 99.004 74.3946C98.6493 74.0212 98.2013 73.7319 97.66 73.5266C97.1373 73.3026 96.4093 73.0599 95.476 72.7986C94.2067 72.4252 93.1707 72.0612 92.368 71.7066C91.584 71.3332 90.9027 70.7826 90.324 70.0546C89.764 69.3079 89.484 68.3186 89.484 67.0866C89.484 65.9292 89.7733 64.9212 90.352 64.0626C90.9307 63.2039 91.7427 62.5506 92.788 62.1026C93.8333 61.6359 95.028 61.4026 96.372 61.4026C98.388 61.4026 100.021 61.8972 101.272 62.8866C102.541 63.8572 103.241 65.2199 103.372 66.9746H99.06C99.0227 66.3026 98.7333 65.7519 98.192 65.3226C97.6693 64.8746 96.9693 64.6506 96.092 64.6506C95.3267 64.6506 94.7107 64.8466 94.244 65.2386C93.796 65.6306 93.572 66.1999 93.572 66.9466C93.572 67.4692 93.74 67.9079 94.076 68.2626C94.4307 68.5986 94.86 68.8786 95.364 69.1026C95.8867 69.3079 96.6147 69.5506 97.548 69.8306C98.8173 70.2039 99.8533 70.5772 100.656 70.9506C101.459 71.3239 102.149 71.8839 102.728 72.6306C103.307 73.3772 103.596 74.3572 103.596 75.5706C103.596 76.6159 103.325 77.5866 102.784 78.4826C102.243 79.3786 101.449 80.0972 100.404 80.6386C99.3587 81.1612 98.1173 81.4226 96.68 81.4226ZM121.415 73.1346C121.415 73.6946 121.377 74.1986 121.303 74.6466H109.963C110.056 75.7666 110.448 76.6439 111.139 77.2786C111.829 77.9132 112.679 78.2306 113.687 78.2306C115.143 78.2306 116.179 77.6052 116.795 76.3546H121.023C120.575 77.8479 119.716 79.0799 118.447 80.0506C117.177 81.0026 115.619 81.4786 113.771 81.4786C112.277 81.4786 110.933 81.1519 109.739 80.4986C108.563 79.8266 107.639 78.8839 106.967 77.6706C106.313 76.4572 105.986 75.0572 105.986 73.4706C105.986 71.8652 106.313 70.4559 106.967 69.2426C107.62 68.0292 108.535 67.0959 109.711 66.4426C110.887 65.7892 112.24 65.4626 113.771 65.4626C115.245 65.4626 116.561 65.7799 117.719 66.4146C118.895 67.0492 119.8 67.9546 120.435 69.1306C121.088 70.2879 121.415 71.6226 121.415 73.1346ZM117.355 72.0146C117.336 71.0066 116.972 70.2039 116.263 69.6066C115.553 68.9906 114.685 68.6826 113.659 68.6826C112.688 68.6826 111.867 68.9812 111.195 69.5786C110.541 70.1572 110.14 70.9692 109.991 72.0146H117.355ZM133.46 81.2266L128.196 74.6186V81.2266H124.276V60.5066H128.196V72.2946L133.404 65.7146H138.5L131.668 73.4986L138.556 81.2266H133.46ZM147.515 81.4786C146.022 81.4786 144.678 81.1519 143.483 80.4986C142.289 79.8266 141.346 78.8839 140.655 77.6706C139.983 76.4572 139.647 75.0572 139.647 73.4706C139.647 71.8839 139.993 70.4839 140.683 69.2706C141.393 68.0572 142.354 67.1239 143.567 66.4706C144.781 65.7986 146.134 65.4626 147.627 65.4626C149.121 65.4626 150.474 65.7986 151.687 66.4706C152.901 67.1239 153.853 68.0572 154.543 69.2706C155.253 70.4839 155.607 71.8839 155.607 73.4706C155.607 75.0572 155.243 76.4572 154.515 77.6706C153.806 78.8839 152.835 79.8266 151.603 80.4986C150.39 81.1519 149.027 81.4786 147.515 81.4786ZM147.515 78.0626C148.225 78.0626 148.887 77.8946 149.503 77.5586C150.138 77.2039 150.642 76.6812 151.015 75.9906C151.389 75.2999 151.575 74.4599 151.575 73.4706C151.575 71.9959 151.183 70.8666 150.399 70.0826C149.634 69.2799 148.691 68.8786 147.571 68.8786C146.451 68.8786 145.509 69.2799 144.743 70.0826C143.997 70.8666 143.623 71.9959 143.623 73.4706C143.623 74.9452 143.987 76.0839 144.715 76.8866C145.462 77.6706 146.395 78.0626 147.515 78.0626ZM162.403 60.5066V81.2266H158.483V60.5066H162.403ZM165.268 73.4146C165.268 71.8466 165.576 70.4559 166.192 69.2426C166.826 68.0292 167.676 67.0959 168.74 66.4426C169.822 65.7892 171.026 65.4626 172.352 65.4626C173.509 65.4626 174.517 65.6959 175.376 66.1626C176.253 66.6292 176.953 67.2172 177.476 67.9266V65.7146H181.424V81.2266H177.476V78.9586C176.972 79.6866 176.272 80.2932 175.376 80.7786C174.498 81.2452 173.481 81.4786 172.324 81.4786C171.017 81.4786 169.822 81.1426 168.74 80.4706C167.676 79.7986 166.826 78.8559 166.192 77.6426C165.576 76.4106 165.268 75.0012 165.268 73.4146ZM177.476 73.4706C177.476 72.5186 177.289 71.7066 176.916 71.0346C176.542 70.3439 176.038 69.8212 175.404 69.4666C174.769 69.0932 174.088 68.9066 173.36 68.9066C172.632 68.9066 171.96 69.0839 171.344 69.4386C170.728 69.7932 170.224 70.3159 169.832 71.0066C169.458 71.6786 169.272 72.4812 169.272 73.4146C169.272 74.3479 169.458 75.1692 169.832 75.8786C170.224 76.5692 170.728 77.1012 171.344 77.4746C171.978 77.8479 172.65 78.0346 173.36 78.0346C174.088 78.0346 174.769 77.8572 175.404 77.5026C176.038 77.1292 176.542 76.6066 176.916 75.9346C177.289 75.2439 177.476 74.4226 177.476 73.4706ZM193.988 65.4906C195.164 65.4906 196.21 65.7519 197.124 66.2746C198.039 66.7786 198.748 67.5346 199.252 68.5426C199.775 69.5319 200.036 70.7266 200.036 72.1266V81.2266H196.116V72.6586C196.116 71.4266 195.808 70.4839 195.192 69.8306C194.576 69.1586 193.736 68.8226 192.672 68.8226C191.59 68.8226 190.731 69.1586 190.096 69.8306C189.48 70.4839 189.172 71.4266 189.172 72.6586V81.2266H185.252V60.5066H189.172V67.6466C189.676 66.9746 190.348 66.4519 191.188 66.0786C192.028 65.6866 192.962 65.4906 193.988 65.4906ZM212.948 81.2266L207.684 74.6186V81.2266H203.764V60.5066H207.684V72.2946L212.892 65.7146H217.988L211.156 73.4986L218.044 81.2266H212.948ZM234.76 65.7146V81.2266H230.812V79.2666C230.308 79.9386 229.645 80.4706 228.824 80.8626C228.021 81.2359 227.144 81.4226 226.192 81.4226C224.978 81.4226 223.905 81.1706 222.972 80.6666C222.038 80.1439 221.301 79.3879 220.76 78.3986C220.237 77.3906 219.976 76.1959 219.976 74.8146V65.7146H223.896V74.2546C223.896 75.4866 224.204 76.4386 224.82 77.1106C225.436 77.7639 226.276 78.0906 227.34 78.0906C228.422 78.0906 229.272 77.7639 229.888 77.1106C230.504 76.4386 230.812 75.4866 230.812 74.2546V65.7146H234.76Z" fill="#96B7FF"/>
</g>
<defs>
<clipPath id="clip0_1189_13404">
<path d="M0 8C0 3.58172 3.58172 0 8 0H318C322.418 0 326 3.58172 326 8V246C326 250.418 322.418 254 318 254H8C3.58173 254 0 250.418 0 246V8Z" fill="white"/>
</clipPath>
</defs>
</svg>
