<svg width="338" height="200" viewBox="0 0 338 200" fill="none" xmlns="http://www.w3.org/2000/svg">
<g clip-path="url(#clip0_1102_13165)">
<rect width="338" height="200" fill="#EFF6FF"/>
<g clip-path="url(#clip1_1102_13165)">
<path d="M127.93 68.1025C127.93 66.0525 129.592 64.3906 131.642 64.3906C133.692 64.3906 135.353 66.0525 135.353 68.1025V227.713H127.93V68.1025Z" fill="#C2D5FF"/>
<path d="M98.2344 227.713C102.334 227.713 105.658 224.389 105.658 220.289V79.2383H-42.8164V220.289C-42.8164 224.389 -39.4927 227.713 -35.3927 227.713H98.2344Z" fill="#DBEAFE"/>
<path d="M31.4213 94.0859C6.8212 94.0859 -13.1211 114.028 -13.1211 138.628V209.154C-13.1211 211.204 -11.4592 212.866 -9.40923 212.866H72.2518C74.3018 212.866 75.9636 211.204 75.9636 209.154V138.628C75.9636 114.028 56.0213 94.0859 31.4213 94.0859Z" fill="#EFF6FF"/>
<path d="M-13.1211 201.729C-13.1211 199.679 -11.4592 198.017 -9.40923 198.017H75.9636V209.152C75.9636 211.202 74.3018 212.864 72.2518 212.864H-9.40923C-11.4592 212.864 -13.1211 211.202 -13.1211 209.152V201.729Z" fill="#C2D5FF"/>
<path d="M9.15009 179.457C9.15009 177.407 10.8119 175.745 12.8619 175.745H75.9636V190.593H9.15009V179.457Z" fill="#C2D5FF"/>
<path d="M31.4213 157.186C31.4213 155.136 33.0831 153.474 35.1331 153.474H75.9636V168.322H31.4213V157.186Z" fill="#C2D5FF"/>
<path d="M75.3478 131.203C75.7528 133.617 75.9636 136.097 75.9636 138.627V146.051H53.6925V134.915C53.6925 132.865 55.3543 131.203 57.4043 131.203H75.3478Z" fill="#C2D5FF"/>
<path d="M165.048 79.2375V220.288C165.048 224.388 161.724 227.712 157.624 227.712V79.2375L134.961 33.9114C133.593 31.1755 129.689 31.1755 128.321 33.9114L105.658 79.2375H-42.8164L-16.1993 26.0033C-14.313 22.2307 -10.4572 19.8477 -6.23933 19.8477H128.471C132.689 19.8477 136.545 22.2307 138.431 26.0033L165.048 79.2375Z" fill="#C2D5FF"/>
<path d="M135.354 116.355V71.8125H179.896L165.048 94.0837L179.896 116.355H135.354Z" fill="#DBEAFE"/>
</g>
<path d="M202.57 107.654C201.499 107.654 200.531 107.471 199.666 107.104C198.815 106.737 198.141 106.209 197.642 105.52C197.143 104.831 196.887 104.017 196.872 103.078H200.172C200.216 103.709 200.436 104.207 200.832 104.574C201.243 104.941 201.8 105.124 202.504 105.124C203.223 105.124 203.787 104.955 204.198 104.618C204.609 104.266 204.814 103.811 204.814 103.254C204.814 102.799 204.675 102.425 204.396 102.132C204.117 101.839 203.765 101.611 203.34 101.45C202.929 101.274 202.357 101.083 201.624 100.878C200.627 100.585 199.813 100.299 199.182 100.02C198.566 99.7267 198.031 99.294 197.576 98.722C197.136 98.1353 196.916 97.358 196.916 96.39C196.916 95.4807 197.143 94.6887 197.598 94.014C198.053 93.3393 198.691 92.826 199.512 92.474C200.333 92.1073 201.272 91.924 202.328 91.924C203.912 91.924 205.195 92.3127 206.178 93.09C207.175 93.8527 207.725 94.9233 207.828 96.302H204.44C204.411 95.774 204.183 95.3413 203.758 95.004C203.347 94.652 202.797 94.476 202.108 94.476C201.507 94.476 201.023 94.63 200.656 94.938C200.304 95.246 200.128 95.6933 200.128 96.28C200.128 96.6907 200.26 97.0353 200.524 97.314C200.803 97.578 201.14 97.798 201.536 97.974C201.947 98.1353 202.519 98.326 203.252 98.546C204.249 98.8393 205.063 99.1327 205.694 99.426C206.325 99.7193 206.867 100.159 207.322 100.746C207.777 101.333 208.004 102.103 208.004 103.056C208.004 103.877 207.791 104.64 207.366 105.344C206.941 106.048 206.317 106.613 205.496 107.038C204.675 107.449 203.699 107.654 202.57 107.654ZM222.004 101.142C222.004 101.582 221.975 101.978 221.916 102.33H213.006C213.08 103.21 213.388 103.899 213.93 104.398C214.473 104.897 215.14 105.146 215.932 105.146C217.076 105.146 217.89 104.655 218.374 103.672H221.696C221.344 104.845 220.67 105.813 219.672 106.576C218.675 107.324 217.45 107.698 215.998 107.698C214.825 107.698 213.769 107.441 212.83 106.928C211.906 106.4 211.18 105.659 210.652 104.706C210.139 103.753 209.882 102.653 209.882 101.406C209.882 100.145 210.139 99.0373 210.652 98.084C211.166 97.1307 211.884 96.3973 212.808 95.884C213.732 95.3707 214.796 95.114 215.998 95.114C217.157 95.114 218.191 95.3633 219.1 95.862C220.024 96.3607 220.736 97.072 221.234 97.996C221.748 98.9053 222.004 99.954 222.004 101.142ZM218.814 100.262C218.8 99.47 218.514 98.8393 217.956 98.37C217.399 97.886 216.717 97.644 215.91 97.644C215.148 97.644 214.502 97.8787 213.974 98.348C213.461 98.8027 213.146 99.4407 213.028 100.262H218.814ZM231.468 107.5L227.332 102.308V107.5H224.252V91.22H227.332V100.482L231.424 95.312H235.428L230.06 101.428L235.472 107.5H231.468ZM242.512 107.698C241.339 107.698 240.283 107.441 239.344 106.928C238.405 106.4 237.665 105.659 237.122 104.706C236.594 103.753 236.33 102.653 236.33 101.406C236.33 100.159 236.601 99.0593 237.144 98.106C237.701 97.1527 238.457 96.4193 239.41 95.906C240.363 95.378 241.427 95.114 242.6 95.114C243.773 95.114 244.837 95.378 245.79 95.906C246.743 96.4193 247.491 97.1527 248.034 98.106C248.591 99.0593 248.87 100.159 248.87 101.406C248.87 102.653 248.584 103.753 248.012 104.706C247.455 105.659 246.692 106.4 245.724 106.928C244.771 107.441 243.7 107.698 242.512 107.698ZM242.512 105.014C243.069 105.014 243.59 104.882 244.074 104.618C244.573 104.339 244.969 103.929 245.262 103.386C245.555 102.843 245.702 102.183 245.702 101.406C245.702 100.247 245.394 99.36 244.778 98.744C244.177 98.1133 243.436 97.798 242.556 97.798C241.676 97.798 240.935 98.1133 240.334 98.744C239.747 99.36 239.454 100.247 239.454 101.406C239.454 102.565 239.74 103.459 240.312 104.09C240.899 104.706 241.632 105.014 242.512 105.014ZM254.209 91.22V107.5H251.129V91.22H254.209ZM256.46 101.362C256.46 100.13 256.702 99.0373 257.186 98.084C257.685 97.1307 258.352 96.3973 259.188 95.884C260.039 95.3707 260.985 95.114 262.026 95.114C262.936 95.114 263.728 95.2973 264.402 95.664C265.092 96.0307 265.642 96.4927 266.052 97.05V95.312H269.154V107.5H266.052V105.718C265.656 106.29 265.106 106.767 264.402 107.148C263.713 107.515 262.914 107.698 262.004 107.698C260.978 107.698 260.039 107.434 259.188 106.906C258.352 106.378 257.685 105.637 257.186 104.684C256.702 103.716 256.46 102.609 256.46 101.362ZM266.052 101.406C266.052 100.658 265.906 100.02 265.612 99.492C265.319 98.9493 264.923 98.5387 264.424 98.26C263.926 97.9667 263.39 97.82 262.818 97.82C262.246 97.82 261.718 97.9593 261.234 98.238C260.75 98.5167 260.354 98.9273 260.046 99.47C259.753 99.998 259.606 100.629 259.606 101.362C259.606 102.095 259.753 102.741 260.046 103.298C260.354 103.841 260.75 104.259 261.234 104.552C261.733 104.845 262.261 104.992 262.818 104.992C263.39 104.992 263.926 104.853 264.424 104.574C264.923 104.281 265.319 103.87 265.612 103.342C265.906 102.799 266.052 102.154 266.052 101.406ZM279.027 95.136C279.951 95.136 280.772 95.3413 281.491 95.752C282.209 96.148 282.767 96.742 283.163 97.534C283.573 98.3113 283.779 99.25 283.779 100.35V107.5H280.699V100.768C280.699 99.8 280.457 99.0593 279.973 98.546C279.489 98.018 278.829 97.754 277.993 97.754C277.142 97.754 276.467 98.018 275.969 98.546C275.485 99.0593 275.243 99.8 275.243 100.768V107.5H272.163V91.22H275.243V96.83C275.639 96.302 276.167 95.8913 276.827 95.598C277.487 95.29 278.22 95.136 279.027 95.136ZM293.923 107.5L289.787 102.308V107.5H286.707V91.22H289.787V100.482L293.879 95.312H297.883L292.515 101.428L297.927 107.5H293.923ZM311.061 95.312V107.5H307.959V105.96C307.563 106.488 307.042 106.906 306.397 107.214C305.766 107.507 305.077 107.654 304.329 107.654C303.376 107.654 302.532 107.456 301.799 107.06C301.066 106.649 300.486 106.055 300.061 105.278C299.65 104.486 299.445 103.547 299.445 102.462V95.312H302.525V102.022C302.525 102.99 302.767 103.738 303.251 104.266C303.735 104.779 304.395 105.036 305.231 105.036C306.082 105.036 306.749 104.779 307.233 104.266C307.717 103.738 307.959 102.99 307.959 102.022V95.312H311.061Z" fill="#96B7FF"/>
</g>
<defs>
<clipPath id="clip0_1102_13165">
<rect width="338" height="200" fill="white"/>
</clipPath>
<clipPath id="clip1_1102_13165">
<rect width="237.559" height="237.559" fill="white" transform="translate(-57.6641 5)"/>
</clipPath>
</defs>
</svg>
