<svg width="1440" height="408" viewBox="0 0 1440 408" fill="none" xmlns="http://www.w3.org/2000/svg">
<g clip-path="url(#clip0_1104_13292)">
<mask id="path-1-inside-1_1104_13292" fill="white">
<path d="M0 0H1440V408H0V0Z"/>
</mask>
<path d="M0 0H1440V408H0V0Z" fill="url(#paint0_radial_1104_13292)"/>
<g clip-path="url(#clip1_1104_13292)">
<path d="M1690.98 -1063.75C2112.22 -1063.75 2453.71 -722.269 2453.71 -301.023C2453.71 120.222 2112.22 461.709 1690.98 461.709C1269.73 461.709 928.245 120.222 928.245 -301.023C928.245 -722.268 1269.73 -1063.75 1690.98 -1063.75Z" fill="#DBEAFE"/>
<path d="M1690.98 -1063.75C2112.22 -1063.75 2453.71 -722.269 2453.71 -301.023C2453.71 120.222 2112.22 461.709 1690.98 461.709C1269.73 461.709 928.245 120.222 928.245 -301.023C928.245 -722.268 1269.73 -1063.75 1690.98 -1063.75Z" stroke="#EFF6FF" stroke-width="61.5107"/>
<path d="M1075.87 -301.022C1075.87 -640.736 1351.26 -916.129 1690.98 -916.129C2030.69 -916.129 2306.08 -640.736 2306.08 -301.022C2306.08 38.6917 2030.69 314.084 1690.98 314.084C1351.26 314.084 1075.87 38.6917 1075.87 -301.022Z" fill="#C2D5FF"/>
<path d="M965.668 309.369C957.546 300.805 911.051 244.42 885.552 223.314C881.509 225.851 876.194 231.579 871.943 235.558C857.445 249.122 841.019 262.558 825.681 276.428C841.171 289.987 854.82 305.545 868.417 321.052C878.004 331.984 887.589 342.916 897.176 353.848C899.829 356.872 901.74 359.103 904.7 361.483C911.191 356.44 920.693 349.21 925.591 342.57C927.254 340.316 928.819 337.976 930.722 335.928C932.947 333.534 935.589 331.586 938.215 329.653C947.456 322.852 956.426 316.171 965.668 309.369Z" fill="#96B7FF"/>
<path d="M963.054 309.16C954.855 300.625 907.956 244.386 882.18 223.381C878.06 225.947 872.631 231.716 868.29 235.727C853.491 249.402 836.735 262.959 821.079 276.943C836.734 290.443 850.506 305.956 864.227 321.418C873.9 332.318 883.574 343.218 893.247 354.118C895.923 357.134 897.852 359.358 900.844 361.727C907.465 356.636 917.155 349.338 922.166 342.657C923.868 340.389 925.471 338.035 927.415 335.971C929.688 333.561 932.382 331.593 935.059 329.641C944.484 322.774 953.63 316.03 963.054 309.16Z" fill="white"/>
<path d="M960.827 303.055C952.628 294.519 905.73 238.281 879.954 217.276C875.833 219.842 870.405 225.611 866.063 229.622C851.264 243.297 834.508 256.853 818.853 270.838C834.507 284.338 848.279 299.851 862.001 315.312C871.673 326.212 881.348 337.113 891.02 348.013C893.697 351.029 895.626 353.253 898.618 355.621C905.239 350.531 914.929 343.233 919.94 336.551C921.641 334.283 923.244 331.929 925.188 329.866C927.461 327.455 930.155 325.488 932.833 323.536C942.257 316.669 951.404 309.925 960.827 303.055Z" fill="#DBEAFE"/>
<path d="M898.557 255.795C893.034 250.371 887.975 244.757 883.52 238.426C872.852 246.825 844.903 270.665 844.903 270.665C849.994 276.544 855.086 282.423 860.178 288.303C863.978 286.067 877.336 275.266 880.462 272.2C886.267 266.503 892.752 261.492 898.557 255.795Z" stroke="#96B7FF" stroke-width="2" stroke-miterlimit="10" stroke-linecap="round" stroke-linejoin="round"/>
<path d="M828.26 271.847C825.95 272.789 824.049 274.692 823.112 277.004C822.528 278.445 822.328 280.145 823.051 281.522C823.775 282.898 825.631 283.718 826.978 282.943" fill="#96B7FF"/>
<path d="M828.26 271.847C825.95 272.789 824.049 274.692 823.112 277.004C822.528 278.445 822.328 280.145 823.051 281.522C823.775 282.898 825.631 283.718 826.978 282.943" stroke="#96B7FF" stroke-width="2" stroke-miterlimit="10" stroke-linecap="round" stroke-linejoin="round"/>
<path d="M835.287 280.078C833.714 280.921 832.23 282.035 831.315 283.568C830.402 285.101 830.147 287.107 831 288.674C831.852 290.241 833.95 291.125 835.551 290.336" fill="#96B7FF"/>
<path d="M835.287 280.078C833.714 280.921 832.23 282.035 831.315 283.568C830.402 285.101 830.147 287.107 831 288.674C831.852 290.241 833.95 291.125 835.551 290.336" stroke="#96B7FF" stroke-width="2" stroke-miterlimit="10" stroke-linecap="round" stroke-linejoin="round"/>
<path d="M844.25 287.977C842.916 289.015 841.559 290.076 840.602 291.47C839.644 292.863 839.131 294.668 839.663 296.272C840.196 297.877 841.987 299.09 843.608 298.61" fill="#96B7FF"/>
<path d="M844.25 287.977C842.916 289.015 841.559 290.076 840.602 291.47C839.644 292.863 839.131 294.668 839.663 296.272C840.196 297.877 841.987 299.09 843.608 298.61" stroke="#96B7FF" stroke-width="2" stroke-miterlimit="10" stroke-linecap="round" stroke-linejoin="round"/>
<path d="M851.312 307.475C849.894 307.071 849 305.521 849.054 304.047C849.108 302.574 849.952 301.218 851.045 300.228C852.138 299.238 853.471 298.558 854.786 297.89" fill="#96B7FF"/>
<path d="M851.312 307.475C849.894 307.071 849 305.521 849.054 304.047C849.108 302.574 849.952 301.218 851.045 300.228C852.138 299.238 853.471 298.558 854.786 297.89" stroke="#96B7FF" stroke-width="2" stroke-miterlimit="10" stroke-linecap="round" stroke-linejoin="round"/>
<path d="M859.93 317.057C859.483 317.337 858.884 317.097 858.486 316.749C856.977 315.423 857.193 312.889 858.367 311.258C859.541 309.628 861.394 308.657 863.131 307.646" fill="#96B7FF"/>
<path d="M859.93 317.057C859.483 317.337 858.884 317.097 858.486 316.749C856.977 315.423 857.193 312.889 858.367 311.258C859.541 309.628 861.394 308.657 863.131 307.646" stroke="#96B7FF" stroke-width="2" stroke-miterlimit="10" stroke-linecap="round" stroke-linejoin="round"/>
<path d="M868.604 325.59C867.135 326.347 865.257 324.913 865.094 323.268C864.931 321.624 865.987 320.084 867.264 319.034C868.541 317.985 870.061 317.268 871.356 316.241" fill="#96B7FF"/>
<path d="M868.604 325.59C867.135 326.347 865.257 324.913 865.094 323.268C864.931 321.624 865.987 320.084 867.264 319.034C868.541 317.985 870.061 317.268 871.356 316.241" stroke="#96B7FF" stroke-width="2" stroke-miterlimit="10" stroke-linecap="round" stroke-linejoin="round"/>
<path d="M877.477 335.321C876.343 336.225 874.493 335.319 874.031 333.944C873.568 332.569 874.11 331.055 874.86 329.814C875.879 328.125 877.299 326.679 878.968 325.628" fill="#96B7FF"/>
<path d="M877.477 335.321C876.343 336.225 874.493 335.319 874.031 333.944C873.568 332.569 874.11 331.055 874.86 329.814C875.879 328.125 877.299 326.679 878.968 325.628" stroke="#96B7FF" stroke-width="2" stroke-miterlimit="10" stroke-linecap="round" stroke-linejoin="round"/>
<path d="M885.177 343.931C883.799 344.075 882.647 342.612 882.706 341.227C882.766 339.843 883.707 338.643 884.792 337.781C885.878 336.919 887.137 336.296 888.217 335.43" fill="#96B7FF"/>
<path d="M885.177 343.931C883.799 344.075 882.647 342.612 882.706 341.227C882.766 339.843 883.707 338.643 884.792 337.781C885.878 336.919 887.137 336.296 888.217 335.43" stroke="#96B7FF" stroke-width="2" stroke-miterlimit="10" stroke-linecap="round" stroke-linejoin="round"/>
<path d="M855.123 272.063C864.683 263.653 874.307 255.315 883.993 247.05Z" fill="#96B7FF"/>
<path d="M855.123 272.063C864.683 263.653 874.307 255.315 883.993 247.05" stroke="#96B7FF" stroke-width="2" stroke-miterlimit="10" stroke-linecap="round" stroke-linejoin="round"/>
<path d="M860.644 275.267C866.676 270.035 872.707 264.801 878.738 259.569Z" fill="#96B7FF"/>
<path d="M860.644 275.267C866.676 270.035 872.707 264.801 878.738 259.569" stroke="#96B7FF" stroke-width="2" stroke-miterlimit="10" stroke-linecap="round" stroke-linejoin="round"/>
<path d="M839.345 310.939C848.36 305.778 858.775 304.317 868.669 306.826C877.117 308.969 884.277 313.735 888.831 320.247C894.065 327.729 895.788 337.533 893.571 346.789C908.778 349.856 920.442 352.282 933.987 357.241C937.443 358.506 941.286 361.201 940.857 364.856C940.506 367.844 933.506 371.122 915.134 364.402C907.302 361.536 899.284 359.21 891.324 356.715L891.571 352.715C888.599 359.491 883.503 365.478 876.887 369.871C876.09 370.4 875.273 370.905 874.46 371.371C871.544 373.04 868.53 374.292 865.502 375.09C853.303 378.306 839.275 374.018 830.595 364.419C822.973 355.989 819.643 345.9 821.217 336.013C822.829 325.887 829.606 316.514 839.345 310.939ZM866.688 314.642C841.366 308.218 815.674 335.888 836.577 359.01C843.294 366.44 854.077 369.763 863.446 367.293C866.654 366.446 869.67 364.984 872.427 363.153C878.437 359.162 883.312 353.244 885.386 346.202C887.459 339.161 886.513 331 882.226 324.869C878.565 319.634 872.761 316.183 866.688 314.642Z" fill="#C2D5FF"/>
<path d="M746.198 164.565C742.604 166.514 736.874 162.746 736.963 158.727C737.268 144.987 744.696 115.739 744.696 115.739C744.696 115.739 737.297 96.5751 735.19 91.1339C738.153 90.1996 748.204 85.8446 748.204 85.8446L759.88 109.569C759.88 109.569 788.066 127.987 794.968 132.104C808.738 140.314 791.984 146.148 784.725 148.827C771.718 153.629 758.449 157.921 746.198 164.565Z" fill="#96B7FF"/>
<path d="M749.067 120.608C748.509 120.312 757.347 117.383 759.4 116.247C769.917 122.363 779.259 128.779 789.15 135.56C790.633 136.576 790.472 138.832 788.841 139.684C780.372 144.101 771.028 147.277 762.208 150.761C757.289 152.704 752.926 154.199 748.214 155.791C746.395 156.405 744.653 154.821 745.123 152.978C745.798 150.325 746.301 147.629 746.741 144.932C748.056 136.873 748.834 128.741 749.067 120.608ZM773.94 140.588C773.828 138.14 769.851 139.915 771.437 141.721C772.147 142.529 773.385 142.141 773.801 141.273C773.899 141.069 773.951 140.838 773.94 140.588ZM774.031 132.734C773.266 133.922 773.94 135.758 775.311 136.098C776.726 136.448 778.316 135.063 778.152 133.621C778.05 132.719 777.32 131.926 776.417 131.784C775.533 131.646 774.57 132.156 774.182 132.968L774.031 132.734ZM753.305 149.479C754.505 147.303 750.231 146.774 750.609 149.16C750.778 150.228 752.02 150.535 752.827 150C753.018 149.874 753.184 149.699 753.305 149.479ZM757.718 137.024C756.909 137.157 756.524 137.863 755.97 138.472C754.95 139.595 754.819 141.406 755.671 142.615C756.523 143.825 758.273 144.31 759.672 143.727C760.944 143.197 762.363 141.922 762.315 140.569C762.268 139.216 761.289 138.043 760.08 137.442C759.358 137.083 758.527 136.891 757.718 137.024ZM765.028 128.355C763.228 126.716 761.544 130.701 763.98 130.874C765.07 130.951 765.71 129.827 765.406 128.932C765.335 128.72 765.211 128.522 765.028 128.355ZM753.279 124.848C752.514 126.036 753.188 127.873 754.559 128.212C755.975 128.562 757.565 127.177 757.401 125.735C757.298 124.833 756.569 124.04 755.666 123.898C754.782 123.76 753.819 124.27 753.43 125.082L753.279 124.848Z" fill="#C2D5FF"/>
<path d="M726.038 44.1267C724.869 40.2229 727.769 36.1898 731.188 33.9721C737.559 29.8414 746.309 29.73 752.783 33.6974C756.547 36.0045 759.469 41.6261 756.151 44.5399C753.487 46.8795 748.933 44.8818 747.466 41.6544C745.813 38.018 747.005 33.4942 749.755 30.596C752.505 27.6978 756.54 26.2784 760.525 26.0008C764.099 25.7514 767.865 26.4071 770.73 28.5586C772.656 30.0038 773.359 33.9375 770.955 34.0754C770.486 34.1017 770.027 33.9351 769.597 33.7459C765.362 31.8868 762.372 27.476 762.214 22.8533C762.055 18.2305 764.737 13.6255 768.836 11.4814" stroke="#C2D5FF" stroke-width="2" stroke-miterlimit="10" stroke-linecap="round" stroke-linejoin="round"/>
<path d="M1196.57 283.049C1197.86 281.912 1199.83 282.04 1200.97 283.334L1221.16 306.321C1221.4 306.099 1221.6 305.925 1221.74 305.818C1228.21 311.052 1233.2 316.704 1239.34 322.031C1241.32 323.307 1243.04 325.054 1244.39 327.004C1246.03 329.375 1247.2 332.125 1247.39 335.001C1247.57 337.877 1246.69 340.882 1244.68 342.951C1241.11 346.631 1233.44 347.78 1229.07 345.102C1223.51 341.694 1216.41 329.237 1222.73 322.941C1223.34 322.328 1224.04 321.824 1224.79 321.413C1221.81 318.073 1219.11 314.905 1216.23 311.296C1216.38 311.172 1216.56 310.994 1216.78 310.779L1196.28 287.45C1195.15 286.156 1195.28 284.186 1196.57 283.049ZM1237.32 327.158C1234.13 324.21 1230.35 323.217 1227.13 326.654C1224.41 329.551 1225.38 332.39 1227.54 335.417C1229.07 337.569 1231.12 339.359 1233.49 340.537C1234.46 341.021 1235.51 341.411 1236.6 341.408C1238.65 341.402 1240.52 339.906 1241.3 338.005C1242.07 336.104 1241.85 333.899 1241.02 332.02C1240.2 330.141 1238.83 328.55 1237.32 327.158Z" fill="#96B7FF"/>
<path d="M1189.95 293.698C1190.31 292.014 1191.97 290.944 1193.65 291.306L1224.14 297.876C1224.19 297.664 1224.23 297.48 1224.26 297.332C1229.1 298.092 1233.59 299.617 1238.32 300.775C1238.14 299.493 1238.18 298.198 1238.52 296.944C1240.87 288.342 1255.21 288.353 1260.92 291.498C1265.41 293.971 1268.21 301.207 1266.77 306.128C1265.97 308.896 1263.79 311.15 1261.2 312.413C1258.61 313.674 1255.64 314.011 1252.77 313.761C1250.43 313.557 1248.08 312.937 1246 311.857C1238.24 309.163 1230.52 307.714 1222.74 304.669C1222.78 304.482 1222.82 304.249 1222.87 303.982L1192.34 297.403C1190.65 297.041 1189.58 295.382 1189.95 293.698ZM1251.75 294.957C1248.05 294.582 1245.1 295.135 1243.93 298.934C1242.54 303.436 1245.27 306.227 1249.41 307.543C1251.36 308.164 1253.42 308.572 1255.46 308.356C1257.5 308.14 1259.53 307.243 1260.8 305.632C1262.07 304.021 1262.44 301.651 1261.43 299.865C1260.9 298.921 1260.04 298.202 1259.14 297.596C1256.94 296.121 1254.37 295.225 1251.75 294.957Z" fill="#C2D5FF"/>
<path d="M1211.93 294.423C1214.11 295.459 1215.04 298.069 1214.01 300.252C1212.97 302.434 1210.36 303.364 1208.18 302.328C1206 301.292 1205.07 298.681 1206.1 296.499C1207.14 294.316 1209.75 293.387 1211.93 294.423Z" fill="#DBEAFE"/>
<path d="M1102.41 72.5301C1095.33 67.8773 1084.78 58.381 1084.39 49.9147C1084.18 45.4408 1085.19 40.7508 1088.06 37.3105C1090.11 34.8456 1092.98 33.178 1095.93 31.9353C1103.29 28.8462 1112.4 28.3559 1118.73 33.2148C1123.7 37.0354 1126.07 43.5792 1125.95 49.8504C1125.84 56.1216 1119.96 63.4181 1116.98 68.9346" fill="#EFF6FF"/>
<path d="M1103.93 71.0084C1103.23 65.8816 1102.03 60.8227 1100.37 55.9249C1100.16 55.3323 1099.62 54.6038 1099.08 54.9226C1098.68 55.1628 1098.76 55.7742 1098.96 56.2013C1099.48 57.3124 1100.45 58.222 1101.62 58.5849C1103.29 59.1033 1105.27 58.3827 1106.21 56.9107C1107.16 55.438 1106.99 53.3433 1105.83 52.04C1105.02 52.7562 1105.44 54.1481 1106.24 54.8686C1107.52 56.021 1109.6 56.1698 1111.03 55.2113C1112.46 54.2528 1113.12 52.2772 1112.54 50.6545C1112.28 50.6424 1112.03 50.6865 1111.79 50.7839C1111.32 52.716 1111.99 54.7184 1112.58 56.6185C1113.77 60.4828 1114.66 64.4423 1115.24 68.4464" stroke="#96B7FF" stroke-width="2" stroke-miterlimit="10" stroke-linecap="round" stroke-linejoin="round"/>
<path d="M1102.41 72.5305C1103.19 75.0791 1103.03 76.7205 1103.8 79.2691C1104.11 80.2819 1104.43 81.3211 1105.1 82.1464C1106.1 83.3969 1107.77 83.9675 1109.37 84.0101C1110.97 84.0526 1113.66 83.5499 1115.2 83.1335C1116.62 82.7534 1118.21 82.2223 1118.78 80.8746C1119.18 79.9379 1118.95 78.8671 1118.72 77.8766C1117.89 74.3352 1117.81 72.4779 1116.98 68.9365" fill="#96B7FF"/>
<path d="M1102.68 72.3237C1105.24 71.8294 1107.8 71.3358 1110.36 70.8422C1112.44 70.4411 1114.53 70.0375 1116.53 69.3244" stroke="#C2D5FF" stroke-width="2" stroke-miterlimit="10" stroke-linecap="round" stroke-linejoin="round"/>
<path d="M1103.46 76.8433C1106.03 76.3497 1108.59 75.8553 1111.15 75.3617C1113.23 74.9606 1115.32 74.5571 1117.31 73.844" stroke="#C2D5FF" stroke-width="2" stroke-miterlimit="10" stroke-linecap="round" stroke-linejoin="round"/>
<path d="M1105.25 80.917C1107.81 80.4234 1109.28 79.8678 1111.85 79.3742C1113.93 78.9731 1115.68 79.0046 1117.67 78.2915" stroke="#C2D5FF" stroke-width="2" stroke-miterlimit="10" stroke-linecap="round" stroke-linejoin="round"/>
<path d="M1098.58 16.7617C1099.18 19.0052 1099.79 21.2486 1100.4 23.4929" stroke="#96B7FF" stroke-width="2" stroke-miterlimit="10" stroke-linecap="round" stroke-linejoin="round"/>
<path d="M1108.9 24.9861C1109.13 23.366 1109.59 21.7783 1110.27 20.2878" stroke="#96B7FF" stroke-width="2" stroke-miterlimit="10" stroke-linecap="round" stroke-linejoin="round"/>
<path d="M1118.42 28.8634C1119.41 27.4574 1120.4 26.0507 1121.39 24.6447" stroke="#96B7FF" stroke-width="2" stroke-miterlimit="10" stroke-linecap="round" stroke-linejoin="round"/>
<path d="M1089.28 25.4297C1090.2 26.5115 1091.12 27.5933 1092.04 28.6751" stroke="#96B7FF" stroke-width="2" stroke-miterlimit="10" stroke-linecap="round" stroke-linejoin="round"/>
<path d="M1079 30.6055C1080.83 32.3492 1082.67 34.0931 1084.5 35.8368" stroke="#96B7FF" stroke-width="2" stroke-miterlimit="10" stroke-linecap="round" stroke-linejoin="round"/>
<path opacity="0.3" d="M1153.38 256.552C1155.11 256.157 1156.43 254.427 1156.37 252.653C1156.3 250.877 1154.84 249.255 1153.09 248.994C1151.06 248.695 1149.29 249.922 1149.11 251.957C1148.93 253.99 1151.38 257.006 1153.38 256.552Z" stroke="url(#paint1_radial_1104_13292)" stroke-width="2" stroke-miterlimit="10" stroke-linecap="round" stroke-linejoin="round"/>
<path d="M1121.76 140.22C1123.14 144.054 1127.87 145.573 1131.94 145.324C1139.52 144.858 1146.62 139.746 1149.47 132.707C1151.12 128.614 1150.13 122.357 1145.73 121.986C1142.2 121.689 1139.72 126.002 1140.46 129.469C1141.3 133.376 1144.94 136.305 1148.88 137.001C1152.81 137.697 1156.9 136.439 1160.27 134.294C1163.29 132.37 1165.93 129.604 1166.96 126.17C1167.64 123.863 1165.87 120.282 1163.86 121.601C1163.46 121.858 1163.19 122.265 1162.96 122.673C1160.66 126.685 1160.88 132.009 1163.5 135.821C1166.12 139.632 1171.01 141.741 1175.58 141.028" stroke="#C2D5FF" stroke-width="2" stroke-miterlimit="10" stroke-linecap="round" stroke-linejoin="round"/>
<path d="M1203.63 124.349C1223.87 119.976 1243.51 117.068 1264.18 116.009C1261.53 131.818 1259.87 148.326 1258.04 165.476C1256.23 182.44 1254.25 200.039 1250.99 218.251C1239.45 198.463 1231.48 182.211 1224.47 167.328C1217.43 152.359 1211.36 138.756 1203.63 124.349ZM1222.35 133.832C1223.96 137.054 1228.73 146.434 1233.51 156.154C1238.29 165.887 1243.05 175.916 1244.67 180.443L1245.64 180.317C1245.85 177.848 1248.11 143.083 1249.74 130.01L1249.82 129.388L1249.2 129.45C1240.54 130.307 1231.8 131.517 1222.71 133.116L1222.05 133.232L1222.35 133.832Z" fill="#C2D5FF" stroke="#96B7FF"/>
<path d="M1245.76 207.609C1246.62 207.1 1247.48 206.591 1248.33 206.082" stroke="#96B7FF" stroke-width="2" stroke-miterlimit="10" stroke-linecap="round" stroke-linejoin="round"/>
<path d="M1244.13 204.613C1245.63 203.938 1247.09 203.157 1248.48 202.277" stroke="#96B7FF" stroke-width="2" stroke-miterlimit="10" stroke-linecap="round" stroke-linejoin="round"/>
<path d="M1242.37 200.77C1242.97 200.329 1243.57 199.887 1244.16 199.446" stroke="#96B7FF" stroke-width="2" stroke-miterlimit="10" stroke-linecap="round" stroke-linejoin="round"/>
<path d="M1240.12 196.996C1241.4 196.077 1242.78 195.294 1244.23 194.666" stroke="#96B7FF" stroke-width="2" stroke-miterlimit="10" stroke-linecap="round" stroke-linejoin="round"/>
<path d="M1248.09 211.836C1248.58 211.591 1249.04 211.292 1249.46 210.945" stroke="#96B7FF" stroke-width="2" stroke-miterlimit="10" stroke-linecap="round" stroke-linejoin="round"/>
<path d="M1238.26 192.754C1239.03 192.396 1239.76 191.95 1240.42 191.43" stroke="#96B7FF" stroke-width="2" stroke-miterlimit="10" stroke-linecap="round" stroke-linejoin="round"/>
<path d="M1235.92 188.617C1237.09 187.903 1238.25 187.189 1239.42 186.475" stroke="#96B7FF" stroke-width="2" stroke-miterlimit="10" stroke-linecap="round" stroke-linejoin="round"/>
<path d="M1233.18 183.984C1233.84 183.582 1234.5 183.18 1235.16 182.778" stroke="#96B7FF" stroke-width="2" stroke-miterlimit="10" stroke-linecap="round" stroke-linejoin="round"/>
<path d="M1231.16 179.777C1232.56 179.203 1233.91 178.515 1235.19 177.725" stroke="#96B7FF" stroke-width="2" stroke-miterlimit="10" stroke-linecap="round" stroke-linejoin="round"/>
<path d="M1228.75 175.195C1229.5 174.706 1230.25 174.216 1231 173.726" stroke="#96B7FF" stroke-width="2" stroke-miterlimit="10" stroke-linecap="round" stroke-linejoin="round"/>
<path d="M1226.98 171.207C1228.3 170.529 1229.63 169.85 1230.96 169.173" stroke="#96B7FF" stroke-width="2" stroke-miterlimit="10" stroke-linecap="round" stroke-linejoin="round"/>
<path d="M1225.12 167.074C1225.68 166.713 1226.24 166.35 1226.81 165.989" stroke="#96B7FF" stroke-width="2" stroke-miterlimit="10" stroke-linecap="round" stroke-linejoin="round"/>
<path d="M1223.46 163.707C1225.17 162.818 1226.85 161.863 1228.48 160.844" stroke="#96B7FF" stroke-width="2" stroke-miterlimit="10" stroke-linecap="round" stroke-linejoin="round"/>
<path d="M1221.2 159.062C1221.97 158.773 1222.7 158.348 1223.33 157.813" stroke="#96B7FF" stroke-width="2" stroke-miterlimit="10" stroke-linecap="round" stroke-linejoin="round"/>
<path d="M1219.16 154.711C1220.33 154.043 1221.5 153.375 1222.67 152.708" stroke="#96B7FF" stroke-width="2" stroke-miterlimit="10" stroke-linecap="round" stroke-linejoin="round"/>
<path d="M1217.43 151.016C1218.09 150.614 1218.75 150.212 1219.4 149.809" stroke="#96B7FF" stroke-width="2" stroke-miterlimit="10" stroke-linecap="round" stroke-linejoin="round"/>
<path d="M1215.34 147.316C1216.73 146.695 1218.08 145.956 1219.35 145.111" stroke="#96B7FF" stroke-width="2" stroke-miterlimit="10" stroke-linecap="round" stroke-linejoin="round"/>
<path d="M1213.31 142.984C1214.07 142.551 1214.83 142.117 1215.59 141.683" stroke="#96B7FF" stroke-width="2" stroke-miterlimit="10" stroke-linecap="round" stroke-linejoin="round"/>
<path d="M1211.29 138.66C1212.55 137.904 1213.81 137.148 1215.07 136.392" stroke="#96B7FF" stroke-width="2" stroke-miterlimit="10" stroke-linecap="round" stroke-linejoin="round"/>
<path d="M1209.43 135.258C1210.2 134.883 1210.97 134.507 1211.75 134.133" stroke="#96B7FF" stroke-width="2" stroke-miterlimit="10" stroke-linecap="round" stroke-linejoin="round"/>
<path d="M1207.62 132.078C1209.04 131.294 1210.41 130.432 1211.73 129.498" stroke="#96B7FF" stroke-width="2" stroke-miterlimit="10" stroke-linecap="round" stroke-linejoin="round"/>
<path d="M1205.87 128.016C1206.58 127.608 1207.3 127.201 1208.01 126.794" stroke="#96B7FF" stroke-width="2" stroke-miterlimit="10" stroke-linecap="round" stroke-linejoin="round"/>
<path d="M1248.82 128.627C1244.51 129.068 1240.2 129.57 1235.9 130.134" stroke="#96B7FF" stroke-width="2" stroke-miterlimit="10" stroke-linecap="round" stroke-linejoin="round"/>
<path d="M1257.7 150.406C1257.71 150.03 1257.71 149.653 1257.72 149.277" stroke="#96B7FF" stroke-width="2" stroke-miterlimit="10" stroke-linecap="round" stroke-linejoin="round"/>
<path d="M1253.63 189.672C1254.09 183.941 1256.94 159.785 1257.69 154.111" stroke="#96B7FF" stroke-width="2" stroke-miterlimit="10" stroke-linecap="round" stroke-linejoin="round"/>
<path d="M1237.48 127.744C1235.79 127.959 1234.1 128.174 1232.41 128.388" stroke="#96B7FF" stroke-width="2" stroke-miterlimit="10" stroke-linecap="round" stroke-linejoin="round"/>
<path d="M1005.75 61.635C1004.18 58.573 1001.67 55.1452 1001.78 52.5014C1003.32 50.8154 1005.18 48.5729 1006.89 46.3568C1008.49 44.2997 1007.37 41.2832 1004.81 40.7981C1001.32 40.1351 996.776 39.3493 993 38.9324C990.477 38.6539 988.525 41.0654 989.302 43.482C990.485 47.1614 992.111 50.9509 992.234 51.8245C991.395 53.5815 988.939 55.9794 986.888 57.7915C985.674 58.8641 986.206 60.8618 987.789 61.2044C992.567 62.2398 999.063 63.7699 1003.67 64.4972C1005.27 64.7519 1006.49 63.0843 1005.75 61.635Z" fill="#96B7FF"/>
<path d="M990.705 61.8953C990.815 65.3096 991.677 78.0253 991.677 78.0253C991.677 78.0253 998.048 67.0519 999.305 63.6964" fill="#C2D5FF"/>
<path opacity="0.3" d="M781.218 234.335C779.436 237.755 775.074 239.585 771.386 238.465C767.697 237.344 765.091 233.397 765.511 229.565C765.995 225.157 769.548 222.11 773.919 222.854C778.287 223.597 783.267 230.405 781.218 234.335Z" stroke="url(#paint2_radial_1104_13292)" stroke-width="2" stroke-miterlimit="10" stroke-linecap="round" stroke-linejoin="round"/>
<path opacity="0.3" d="M1277.66 266.613C1275.42 269.754 1270.85 270.965 1267.35 269.347C1263.85 267.726 1261.81 263.457 1262.76 259.72C1263.85 255.422 1267.79 252.894 1272.01 254.234C1276.24 255.573 1280.23 263.003 1277.66 266.613Z" stroke="url(#paint3_radial_1104_13292)" stroke-width="2" stroke-miterlimit="10" stroke-linecap="round" stroke-linejoin="round"/>
</g>
</g>
<path d="M1440 408V407H0V408V409H1440V408Z" fill="#F4F4F5" mask="url(#path-1-inside-1_1104_13292)"/>
<defs>
<radialGradient id="paint0_radial_1104_13292" cx="0" cy="0" r="1" gradientUnits="userSpaceOnUse" gradientTransform="translate(720 3.95109e-06) rotate(90) scale(377.579 1463.69)">
<stop stop-color="#EFF6FF"/>
<stop offset="0.55" stop-color="#DBEAFE"/>
<stop offset="1" stop-color="white"/>
</radialGradient>
<radialGradient id="paint1_radial_1104_13292" cx="0" cy="0" r="1" gradientTransform="matrix(6.20252 2.42066 -1.66228 4.412 1152.95 252.787)" gradientUnits="userSpaceOnUse">
<stop stop-color="#356BE1"/>
<stop offset="1" stop-color="#9BBAFF"/>
</radialGradient>
<radialGradient id="paint2_radial_1104_13292" cx="0" cy="0" r="1" gradientTransform="matrix(1.66713 14.3544 10.1778 -1.06076 773.548 231.368)" gradientUnits="userSpaceOnUse">
<stop stop-color="#356BE1"/>
<stop offset="1" stop-color="#9BBAFF"/>
</radialGradient>
<radialGradient id="paint3_radial_1104_13292" cx="0" cy="0" r="1" gradientTransform="matrix(-0.330849 14.4471 10.2268 0.354715 1270.47 262.615)" gradientUnits="userSpaceOnUse">
<stop stop-color="#356BE1"/>
<stop offset="1" stop-color="#9BBAFF"/>
</radialGradient>
<clipPath id="clip0_1104_13292">
<path d="M0 0H1440V408H0V0Z" fill="white"/>
</clipPath>
<clipPath id="clip1_1104_13292">
<rect width="1920" height="520" fill="white" transform="translate(-240 -56)"/>
</clipPath>
</defs>
</svg>
